G04*
G04 #@! TF.GenerationSoftware,Altium Limited,Altium Designer,24.5.2 (23)*
G04*
G04 Layer_Color=32768*
%FSLAX44Y44*%
%MOMM*%
G71*
G04*
G04 #@! TF.SameCoordinates,49661B99-7F85-447B-B4A6-A33B5E3A9DE8*
G04*
G04*
G04 #@! TF.FilePolarity,Positive*
G04*
G01*
G75*
%ADD12C,0.1000*%
%ADD130C,0.0500*%
D12*
X667436Y429132D02*
X719762Y376806D01*
X679457Y336501D02*
X719762Y376806D01*
X627131Y388827D02*
X679457Y336501D01*
X627131Y388827D02*
X667436Y429132D01*
X858080Y152910D02*
Y286510D01*
X803080Y152910D02*
X858080D01*
X803080D02*
Y286510D01*
X858080D01*
X696110Y107600D02*
X735110D01*
X696110D02*
Y146100D01*
X735110D01*
Y107600D02*
Y146100D01*
X473090Y111560D02*
Y150060D01*
X434090D02*
X473090D01*
X434090Y111560D02*
Y150060D01*
Y111560D02*
X473090D01*
X608960Y283860D02*
Y315120D01*
X528960D02*
X608960D01*
X528960Y283860D02*
Y315120D01*
Y283860D02*
X608960D01*
X780740D02*
Y315120D01*
Y283860D02*
X860740D01*
Y315120D01*
X780740D02*
X860740D01*
X483430Y359820D02*
X514690D01*
Y439820D01*
X483430D02*
X514690D01*
X483430Y359820D02*
Y439820D01*
X883430Y362360D02*
X914690D01*
Y442360D01*
X883430D02*
X914690D01*
X883430Y362360D02*
Y442360D01*
Y563340D02*
X914690D01*
Y643340D01*
X883430D02*
X914690D01*
X883430Y563340D02*
Y643340D01*
X483430Y556990D02*
X514690D01*
Y636990D01*
X483430D02*
X514690D01*
X483430Y556990D02*
Y636990D01*
X618800Y683860D02*
Y715120D01*
X538800D02*
X618800D01*
X538800Y683860D02*
Y715120D01*
Y683860D02*
X618800D01*
X851530Y683910D02*
Y715170D01*
X771530D02*
X851530D01*
X771530Y683910D02*
Y715170D01*
Y683910D02*
X851530D01*
X345510Y432000D02*
Y568000D01*
X231510Y432000D02*
X345510D01*
X231510D02*
Y568000D01*
X345510D01*
Y432000D02*
Y568000D01*
X231510Y432000D02*
X345510D01*
X231510D02*
Y568000D01*
X345510D01*
X200220Y393880D02*
Y479880D01*
X89220D02*
X200220D01*
X89220Y393880D02*
Y479880D01*
Y393880D02*
X200220D01*
X928810Y341960D02*
Y475560D01*
X983810D01*
Y341960D02*
Y475560D01*
X928810Y341960D02*
X983810D01*
X451320Y869210D02*
X494320D01*
Y840210D02*
Y869210D01*
X451320Y840210D02*
X494320D01*
X451320D02*
Y869210D01*
X450560Y764010D02*
X493560D01*
X450560D02*
Y793010D01*
X493560D01*
Y764010D02*
Y793010D01*
X570690Y791980D02*
Y843780D01*
X501190D02*
X570690D01*
X501190Y791980D02*
Y843780D01*
Y791980D02*
X570690D01*
X598170Y811610D02*
Y821610D01*
X593170Y816610D02*
X603170D01*
X197320Y867940D02*
X240320D01*
Y838940D02*
Y867940D01*
X197320Y838940D02*
X240320D01*
X197320D02*
Y867940D01*
X196560Y762740D02*
X239560D01*
X196560D02*
Y791740D01*
X239560D01*
Y762740D02*
Y791740D01*
X316690Y790710D02*
Y842510D01*
X247190D02*
X316690D01*
X247190Y790710D02*
Y842510D01*
Y790710D02*
X316690D01*
X344170Y810340D02*
Y820340D01*
X339170Y815340D02*
X349170D01*
X451320Y979700D02*
X494320D01*
Y950700D02*
Y979700D01*
X451320Y950700D02*
X494320D01*
X451320D02*
Y979700D01*
X450560Y874500D02*
X493560D01*
X450560D02*
Y903500D01*
X493560D01*
Y874500D02*
Y903500D01*
X570690Y902470D02*
Y954270D01*
X501190D02*
X570690D01*
X501190Y902470D02*
Y954270D01*
Y902470D02*
X570690D01*
X598170Y922100D02*
Y932100D01*
X593170Y927100D02*
X603170D01*
X196050Y979700D02*
X239050D01*
Y950700D02*
Y979700D01*
X196050Y950700D02*
X239050D01*
X196050D02*
Y979700D01*
X195290Y874500D02*
X238290D01*
X195290D02*
Y903500D01*
X238290D01*
Y874500D02*
Y903500D01*
X315420Y902470D02*
Y954270D01*
X245920D02*
X315420D01*
X245920Y902470D02*
Y954270D01*
Y902470D02*
X315420D01*
X342900Y922100D02*
Y932100D01*
X337900Y927100D02*
X347900D01*
D130*
X570500Y177000D02*
Y221000D01*
X606500D01*
Y177000D02*
Y221000D01*
X570500Y177000D02*
X606500D01*
X763687Y597498D02*
X858793Y502392D01*
X668581D02*
X763687Y597498D01*
X668581Y502392D02*
X763687Y407286D01*
X858793Y502392D01*
X709810Y67640D02*
X746810D01*
Y44640D02*
Y67640D01*
X709810Y44640D02*
X746810D01*
X709810D02*
Y67640D01*
X447790Y48600D02*
Y71600D01*
Y48600D02*
X484790D01*
Y71600D01*
X447790D02*
X484790D01*
X247210Y606220D02*
Y691720D01*
X319210D01*
Y606220D02*
Y691720D01*
X247210Y606220D02*
X319210D01*
X342460Y613840D02*
Y699340D01*
X414460D01*
Y613840D02*
Y699340D01*
X342460Y613840D02*
X414460D01*
X947360Y485070D02*
X984360D01*
X947360D02*
Y508070D01*
X984360D01*
Y485070D02*
Y508070D01*
X947360Y603180D02*
X984360D01*
X947360D02*
Y626180D01*
X984360D01*
Y603180D02*
Y626180D01*
X947360Y519360D02*
X984360D01*
X947360D02*
Y542360D01*
X984360D01*
Y519360D02*
Y542360D01*
X798920Y855930D02*
X854920D01*
Y934430D01*
X798920D02*
X854920D01*
X798920Y855930D02*
Y934430D01*
X551743Y552219D02*
Y626219D01*
X605743D01*
Y552219D02*
Y626219D01*
X551743Y552219D02*
X605743D01*
X359480Y478680D02*
Y515680D01*
X336480Y478680D02*
X359480D01*
X336480D02*
Y515680D01*
X359480D01*
X538450Y843134D02*
Y880134D01*
X561450D01*
Y843134D02*
Y880134D01*
X538450Y843134D02*
X561450D01*
X282450Y842614D02*
Y879614D01*
X305450D01*
Y842614D02*
Y879614D01*
X282450Y842614D02*
X305450D01*
X539360Y953384D02*
Y990384D01*
X562360D01*
Y953384D02*
Y990384D01*
X539360Y953384D02*
X562360D01*
X283930Y952374D02*
Y989374D01*
X306930D01*
Y952374D02*
Y989374D01*
X283930Y952374D02*
X306930D01*
X188480Y469710D02*
X253480D01*
X188480Y390710D02*
Y469710D01*
Y390710D02*
X253480D01*
Y469710D01*
X36980Y534700D02*
X107980D01*
Y463700D02*
Y534700D01*
X36980Y463700D02*
X107980D01*
X36980D02*
Y534700D01*
X-51930Y1111710D02*
X138070D01*
X-51930Y1024210D02*
Y1111710D01*
X-244430Y1024210D02*
X-51930D01*
X-244430Y584210D02*
Y1024210D01*
Y584210D02*
X-51930D01*
Y496710D02*
Y584210D01*
Y496710D02*
X138070D01*
Y1111710D01*
X-51930Y502780D02*
X138070D01*
X-51930Y415280D02*
Y502780D01*
X-244430Y415280D02*
X-51930D01*
X-244430Y-24720D02*
Y415280D01*
Y-24720D02*
X-51930D01*
Y-112220D02*
Y-24720D01*
Y-112220D02*
X138070D01*
Y502780D01*
X273480Y428430D02*
X358980D01*
Y356430D02*
Y428430D01*
X273480Y356430D02*
X358980D01*
X273480D02*
Y428430D01*
X561170Y844110D02*
X635170D01*
X561170Y789110D02*
X635170D01*
X561170D02*
Y844110D01*
X635170Y789110D02*
Y844110D01*
X307170Y842840D02*
X381170D01*
X307170Y787840D02*
X381170D01*
X307170D02*
Y842840D01*
X381170Y787840D02*
Y842840D01*
X561170Y954600D02*
X635170D01*
X561170Y899600D02*
X635170D01*
X561170D02*
Y954600D01*
X635170Y899600D02*
Y954600D01*
X305900D02*
X379900D01*
X305900Y899600D02*
X379900D01*
X305900D02*
Y954600D01*
X379900Y899600D02*
Y954600D01*
M02*
