G04*
G04 #@! TF.GenerationSoftware,Altium Limited,Altium Designer,24.5.2 (23)*
G04*
G04 Layer_Color=8388736*
%FSLAX44Y44*%
%MOMM*%
G71*
G04*
G04 #@! TF.SameCoordinates,49661B99-7F85-447B-B4A6-A33B5E3A9DE8*
G04*
G04*
G04 #@! TF.FilePolarity,Negative*
G04*
G01*
G75*
G04:AMPARAMS|DCode=62|XSize=1.15mm|YSize=1.85mm|CornerRadius=0.2mm|HoleSize=0mm|Usage=FLASHONLY|Rotation=270.000|XOffset=0mm|YOffset=0mm|HoleType=Round|Shape=RoundedRectangle|*
%AMROUNDEDRECTD62*
21,1,1.1500,1.4500,0,0,270.0*
21,1,0.7500,1.8500,0,0,270.0*
1,1,0.4000,-0.7250,-0.3750*
1,1,0.4000,-0.7250,0.3750*
1,1,0.4000,0.7250,0.3750*
1,1,0.4000,0.7250,-0.3750*
%
%ADD62ROUNDEDRECTD62*%
%ADD63R,0.7500X1.5500*%
G04:AMPARAMS|DCode=64|XSize=1.625mm|YSize=0.45mm|CornerRadius=0mm|HoleSize=0mm|Usage=FLASHONLY|Rotation=315.000|XOffset=0mm|YOffset=0mm|HoleType=Round|Shape=Rectangle|*
%AMROTATEDRECTD64*
4,1,4,-0.7336,0.4154,-0.4154,0.7336,0.7336,-0.4154,0.4154,-0.7336,-0.7336,0.4154,0.0*
%
%ADD64ROTATEDRECTD64*%

G04:AMPARAMS|DCode=65|XSize=1.625mm|YSize=0.45mm|CornerRadius=0mm|HoleSize=0mm|Usage=FLASHONLY|Rotation=225.000|XOffset=0mm|YOffset=0mm|HoleType=Round|Shape=Rectangle|*
%AMROTATEDRECTD65*
4,1,4,0.4154,0.7336,0.7336,0.4154,-0.4154,-0.7336,-0.7336,-0.4154,0.4154,0.7336,0.0*
%
%ADD65ROTATEDRECTD65*%

G04:AMPARAMS|DCode=66|XSize=1.75mm|YSize=1.55mm|CornerRadius=0mm|HoleSize=0mm|Usage=FLASHONLY|Rotation=315.000|XOffset=0mm|YOffset=0mm|HoleType=Round|Shape=Rectangle|*
%AMROTATEDRECTD66*
4,1,4,-1.1667,0.0707,-0.0707,1.1667,1.1667,-0.0707,0.0707,-1.1667,-1.1667,0.0707,0.0*
%
%ADD66ROTATEDRECTD66*%

%ADD67R,1.7500X2.3300*%
%ADD68R,1.0500X1.5500*%
G04:AMPARAMS|DCode=69|XSize=1.15mm|YSize=1.85mm|CornerRadius=0.2mm|HoleSize=0mm|Usage=FLASHONLY|Rotation=0.000|XOffset=0mm|YOffset=0mm|HoleType=Round|Shape=RoundedRectangle|*
%AMROUNDEDRECTD69*
21,1,1.1500,1.4500,0,0,0.0*
21,1,0.7500,1.8500,0,0,0.0*
1,1,0.4000,0.3750,-0.7250*
1,1,0.4000,-0.3750,-0.7250*
1,1,0.4000,-0.3750,0.7250*
1,1,0.4000,0.3750,0.7250*
%
%ADD69ROUNDEDRECTD69*%
%ADD70R,1.7500X3.1500*%
%ADD71R,5.9500X6.3500*%
%ADD72R,0.7500X1.0500*%
%ADD73O,2.3100X1.6700*%
%ADD74R,2.3100X1.6700*%
G04:AMPARAMS|DCode=75|XSize=1.55mm|YSize=1.85mm|CornerRadius=0mm|HoleSize=0mm|Usage=FLASHONLY|Rotation=45.000|XOffset=0mm|YOffset=0mm|HoleType=Round|Shape=Rectangle|*
%AMROTATEDRECTD75*
4,1,4,0.1061,-1.2021,-1.2021,0.1061,-0.1061,1.2021,1.2021,-0.1061,0.1061,-1.2021,0.0*
%
%ADD75ROTATEDRECTD75*%

G04:AMPARAMS|DCode=76|XSize=1.55mm|YSize=1.85mm|CornerRadius=0.25mm|HoleSize=0mm|Usage=FLASHONLY|Rotation=180.000|XOffset=0mm|YOffset=0mm|HoleType=Round|Shape=RoundedRectangle|*
%AMROUNDEDRECTD76*
21,1,1.5500,1.3500,0,0,180.0*
21,1,1.0500,1.8500,0,0,180.0*
1,1,0.5000,-0.5250,0.6750*
1,1,0.5000,0.5250,0.6750*
1,1,0.5000,0.5250,-0.6750*
1,1,0.5000,-0.5250,-0.6750*
%
%ADD76ROUNDEDRECTD76*%
%ADD77C,1.0000*%
G04:AMPARAMS|DCode=78|XSize=1.55mm|YSize=1.85mm|CornerRadius=0.25mm|HoleSize=0mm|Usage=FLASHONLY|Rotation=270.000|XOffset=0mm|YOffset=0mm|HoleType=Round|Shape=RoundedRectangle|*
%AMROUNDEDRECTD78*
21,1,1.5500,1.3500,0,0,270.0*
21,1,1.0500,1.8500,0,0,270.0*
1,1,0.5000,-0.6750,-0.5250*
1,1,0.5000,-0.6750,0.5250*
1,1,0.5000,0.6750,0.5250*
1,1,0.5000,0.6750,-0.5250*
%
%ADD78ROUNDEDRECTD78*%
%ADD79R,1.1500X1.8500*%
%ADD80R,1.1000X1.9000*%
%ADD81R,3.4000X1.9000*%
G04:AMPARAMS|DCode=82|XSize=0.78mm|YSize=0.98mm|CornerRadius=0.1538mm|HoleSize=0mm|Usage=FLASHONLY|Rotation=270.000|XOffset=0mm|YOffset=0mm|HoleType=Round|Shape=RoundedRectangle|*
%AMROUNDEDRECTD82*
21,1,0.7800,0.6725,0,0,270.0*
21,1,0.4725,0.9800,0,0,270.0*
1,1,0.3075,-0.3363,-0.2362*
1,1,0.3075,-0.3363,0.2362*
1,1,0.3075,0.3363,0.2362*
1,1,0.3075,0.3363,-0.2362*
%
%ADD82ROUNDEDRECTD82*%
G04:AMPARAMS|DCode=83|XSize=0.78mm|YSize=0.98mm|CornerRadius=0.1538mm|HoleSize=0mm|Usage=FLASHONLY|Rotation=0.000|XOffset=0mm|YOffset=0mm|HoleType=Round|Shape=RoundedRectangle|*
%AMROUNDEDRECTD83*
21,1,0.7800,0.6725,0,0,0.0*
21,1,0.4725,0.9800,0,0,0.0*
1,1,0.3075,0.2362,-0.3363*
1,1,0.3075,-0.2362,-0.3363*
1,1,0.3075,-0.2362,0.3363*
1,1,0.3075,0.2362,0.3363*
%
%ADD83ROUNDEDRECTD83*%
%ADD84R,1.9900X1.9500*%
%ADD85R,2.0500X2.0500*%
%ADD86R,1.6000X1.4500*%
%ADD87R,1.7500X1.5500*%
%ADD88R,0.5500X1.5000*%
%ADD89R,0.6000X1.6250*%
G04:AMPARAMS|DCode=90|XSize=1.15mm|YSize=1.85mm|CornerRadius=0mm|HoleSize=0mm|Usage=FLASHONLY|Rotation=45.000|XOffset=0mm|YOffset=0mm|HoleType=Round|Shape=Rectangle|*
%AMROTATEDRECTD90*
4,1,4,0.2475,-1.0607,-1.0607,0.2475,-0.2475,1.0607,1.0607,-0.2475,0.2475,-1.0607,0.0*
%
%ADD90ROTATEDRECTD90*%

%ADD91R,0.8000X1.6500*%
G04:AMPARAMS|DCode=92|XSize=1.55mm|YSize=1.85mm|CornerRadius=0mm|HoleSize=0mm|Usage=FLASHONLY|Rotation=135.000|XOffset=0mm|YOffset=0mm|HoleType=Round|Shape=Rectangle|*
%AMROTATEDRECTD92*
4,1,4,1.2021,0.1061,-0.1061,-1.2021,-1.2021,-0.1061,0.1061,1.2021,1.2021,0.1061,0.0*
%
%ADD92ROTATEDRECTD92*%

%ADD93R,2.1500X1.2750*%
%ADD94R,1.5500X1.2750*%
%ADD95R,1.2750X2.1500*%
%ADD96R,1.2750X1.5500*%
%ADD97R,1.5500X1.0500*%
%ADD98R,1.9500X3.0500*%
%ADD99R,3.0500X5.5500*%
%ADD100R,3.6500X1.7500*%
%ADD101R,1.9000X1.1000*%
%ADD102R,1.9000X3.4000*%
%ADD103R,1.8500X1.1500*%
%ADD104R,0.8500X1.0500*%
%ADD105R,1.1500X1.3000*%
%ADD106O,1.6000X0.7500*%
%ADD107C,6.1500*%
%ADD108C,1.9400*%
%ADD109C,1.8750*%
%ADD110C,2.7750*%
%ADD111R,2.7750X2.7750*%
%ADD112C,0.6500*%
G36*
X996365Y997043D02*
X997043Y996365D01*
X997410Y995479D01*
Y995000D01*
Y5000D01*
Y4521D01*
X997043Y3635D01*
X996365Y2957D01*
X995480Y2590D01*
X4521D01*
X3635Y2957D01*
X2957Y3635D01*
X2590Y4521D01*
Y5000D01*
Y995000D01*
Y995480D01*
X2957Y996365D01*
X3635Y997043D01*
X4521Y997410D01*
X995479D01*
X996365Y997043D01*
D02*
G37*
%LPC*%
G36*
X904600Y990000D02*
X35400D01*
X32910Y989878D01*
X28027Y988906D01*
X23426Y987001D01*
X19286Y984234D01*
X15766Y980714D01*
X12999Y976573D01*
X11094Y971973D01*
X10122Y967090D01*
X10000Y964600D01*
Y35400D01*
X10122Y32910D01*
X11094Y28027D01*
X12999Y23426D01*
X15766Y19286D01*
X19286Y15766D01*
X23426Y12999D01*
X28027Y11094D01*
X32910Y10122D01*
X35400Y10000D01*
X801500D01*
Y162750D01*
X334750D01*
X301000Y129000D01*
X220250D01*
X218750Y130500D01*
Y132500D01*
X220250Y134000D01*
X299000D01*
X332750Y167750D01*
X805000D01*
X806500Y166250D01*
Y10000D01*
X904600D01*
X907090Y10122D01*
X911973Y11094D01*
X916573Y12999D01*
X920714Y15766D01*
X924234Y19286D01*
X927001Y23426D01*
X928906Y28027D01*
X929878Y32910D01*
X930000Y35400D01*
Y44600D01*
Y47102D01*
X930976Y52009D01*
X932891Y56631D01*
X935670Y60792D01*
X939208Y64330D01*
X943369Y67109D01*
X947991Y69024D01*
X952898Y70000D01*
X964600D01*
X967090Y70122D01*
X971973Y71094D01*
X976573Y72999D01*
X980714Y75766D01*
X984234Y79286D01*
X987001Y83427D01*
X988906Y88027D01*
X989878Y92910D01*
X990000Y95400D01*
Y904600D01*
X989878Y907090D01*
X988906Y911973D01*
X987001Y916573D01*
X984234Y920714D01*
X980714Y924234D01*
X976573Y927001D01*
X971973Y928906D01*
X967090Y929878D01*
X964600Y930000D01*
X952898D01*
X947991Y930976D01*
X943369Y932891D01*
X939208Y935670D01*
X935670Y939208D01*
X932891Y943369D01*
X930976Y947991D01*
X930000Y952898D01*
Y955400D01*
Y964600D01*
X929878Y967090D01*
X928906Y971973D01*
X927001Y976573D01*
X924234Y980714D01*
X920714Y984234D01*
X916573Y987001D01*
X911973Y988906D01*
X907090Y989878D01*
X904600Y990000D01*
D02*
G37*
%LPD*%
G36*
X106480Y520864D02*
Y508200D01*
X93066D01*
X81480Y519786D01*
Y533200D01*
X94144D01*
X106480Y520864D01*
D02*
G37*
G36*
X63480Y519786D02*
X51894Y508200D01*
X38480D01*
Y520864D01*
X50816Y533200D01*
X63480D01*
Y519786D01*
D02*
G37*
G36*
X106480Y477536D02*
X94144Y465200D01*
X81480D01*
Y478614D01*
X93066Y490200D01*
X106480D01*
Y477536D01*
D02*
G37*
G36*
X63480Y478614D02*
Y465200D01*
X50816D01*
X38480Y477536D01*
Y490200D01*
X51894D01*
X63480Y478614D01*
D02*
G37*
D62*
X506000Y221750D02*
D03*
Y240750D02*
D03*
X668620Y136150D02*
D03*
Y117150D02*
D03*
X690210Y136100D02*
D03*
Y117100D02*
D03*
X428190Y121060D02*
D03*
Y140060D02*
D03*
X406600Y121110D02*
D03*
Y140110D02*
D03*
X428250Y312860D02*
D03*
Y293860D02*
D03*
X429410Y243860D02*
D03*
Y224860D02*
D03*
X245840Y245430D02*
D03*
Y226430D02*
D03*
X337160Y245460D02*
D03*
Y226460D02*
D03*
X246000Y314750D02*
D03*
Y295750D02*
D03*
X336360Y312020D02*
D03*
Y293020D02*
D03*
X240030Y633730D02*
D03*
Y614730D02*
D03*
X335280Y641350D02*
D03*
Y622350D02*
D03*
X580390Y655320D02*
D03*
Y674320D02*
D03*
X570230Y504190D02*
D03*
Y523190D02*
D03*
X347980Y455320D02*
D03*
Y474320D02*
D03*
X529090Y870750D02*
D03*
Y851750D02*
D03*
X273090Y870230D02*
D03*
Y851230D02*
D03*
X530000Y981000D02*
D03*
Y962000D02*
D03*
X274570Y979990D02*
D03*
Y960990D02*
D03*
X618490Y738480D02*
D03*
Y719480D02*
D03*
X497840Y844500D02*
D03*
Y825500D02*
D03*
Y810260D02*
D03*
Y791260D02*
D03*
X243840Y843230D02*
D03*
Y824230D02*
D03*
Y808990D02*
D03*
Y789990D02*
D03*
X497840Y954990D02*
D03*
Y935990D02*
D03*
Y920750D02*
D03*
Y901750D02*
D03*
X242570Y920750D02*
D03*
Y901750D02*
D03*
Y954990D02*
D03*
Y935990D02*
D03*
D63*
X579000Y186500D02*
D03*
X588500D02*
D03*
X598000D02*
D03*
Y211500D02*
D03*
X588500D02*
D03*
X579000D02*
D03*
D64*
X830777Y488335D02*
D03*
X827242Y484799D02*
D03*
X823706Y481264D02*
D03*
X820171Y477728D02*
D03*
X816635Y474193D02*
D03*
X813100Y470657D02*
D03*
X809564Y467122D02*
D03*
X806029Y463586D02*
D03*
X802493Y460051D02*
D03*
X798958Y456515D02*
D03*
X795422Y452980D02*
D03*
X791887Y449444D02*
D03*
X788351Y445909D02*
D03*
X784815Y442373D02*
D03*
X781280Y438838D02*
D03*
X777744Y435302D02*
D03*
X696597Y516450D02*
D03*
X700132Y519985D02*
D03*
X703668Y523521D02*
D03*
X707203Y527056D02*
D03*
X710739Y530592D02*
D03*
X714274Y534127D02*
D03*
X717810Y537663D02*
D03*
X721346Y541198D02*
D03*
X724881Y544734D02*
D03*
X728417Y548269D02*
D03*
X731952Y551805D02*
D03*
X735488Y555340D02*
D03*
X739023Y558876D02*
D03*
X742559Y562411D02*
D03*
X746094Y565947D02*
D03*
X749630Y569483D02*
D03*
D65*
Y435302D02*
D03*
X746094Y438838D02*
D03*
X742559Y442373D02*
D03*
X739023Y445909D02*
D03*
X735488Y449444D02*
D03*
X731952Y452980D02*
D03*
X728417Y456515D02*
D03*
X724881Y460051D02*
D03*
X721346Y463586D02*
D03*
X717810Y467122D02*
D03*
X714274Y470657D02*
D03*
X710739Y474193D02*
D03*
X707203Y477728D02*
D03*
X703668Y481264D02*
D03*
X700132Y484799D02*
D03*
X696597Y488335D02*
D03*
X777744Y569483D02*
D03*
X781280Y565947D02*
D03*
X784815Y562411D02*
D03*
X788351Y558876D02*
D03*
X791887Y555340D02*
D03*
X795422Y551805D02*
D03*
X798958Y548269D02*
D03*
X802493Y544734D02*
D03*
X806029Y541198D02*
D03*
X809564Y537663D02*
D03*
X813100Y534127D02*
D03*
X816635Y530592D02*
D03*
X820171Y527056D02*
D03*
X823706Y523521D02*
D03*
X827242Y519985D02*
D03*
X830777Y516450D02*
D03*
D66*
X651880Y388120D02*
D03*
X678750Y361250D02*
D03*
X695014Y377514D02*
D03*
X668143Y404384D02*
D03*
D67*
X830580Y265610D02*
D03*
Y173810D02*
D03*
X956310Y362860D02*
D03*
Y454660D02*
D03*
D68*
X718810Y56140D02*
D03*
X737810D02*
D03*
X475790Y60100D02*
D03*
X456790D02*
D03*
X975360Y496570D02*
D03*
X956360D02*
D03*
X975360Y614680D02*
D03*
X956360D02*
D03*
X975360Y530860D02*
D03*
X956360D02*
D03*
D69*
X684520Y56140D02*
D03*
X703520D02*
D03*
X741010Y105670D02*
D03*
X760010D02*
D03*
X441500Y60100D02*
D03*
X422500D02*
D03*
X478990Y109630D02*
D03*
X497990D02*
D03*
X478990Y136300D02*
D03*
X497990D02*
D03*
X741010Y132340D02*
D03*
X760010D02*
D03*
X538480Y524510D02*
D03*
X519480D02*
D03*
X322280Y244930D02*
D03*
X303280D02*
D03*
X413370Y312330D02*
D03*
X394370D02*
D03*
X414530Y243330D02*
D03*
X395530D02*
D03*
X230960Y244900D02*
D03*
X211960D02*
D03*
X231120Y314220D02*
D03*
X212120D02*
D03*
X321480Y311490D02*
D03*
X302480D02*
D03*
X923340Y530860D02*
D03*
X942340D02*
D03*
X923340Y496570D02*
D03*
X942340D02*
D03*
X608280Y505460D02*
D03*
X589280D02*
D03*
X557480Y543560D02*
D03*
X538480D02*
D03*
X551840Y635000D02*
D03*
X570840D02*
D03*
X551180Y654050D02*
D03*
X532180D02*
D03*
X618440Y674370D02*
D03*
X599440D02*
D03*
D70*
X645750Y126670D02*
D03*
X600050D02*
D03*
X383730Y130630D02*
D03*
X338030D02*
D03*
D71*
X622900Y54870D02*
D03*
X360880Y58830D02*
D03*
D72*
X706110Y134100D02*
D03*
X725110D02*
D03*
X715610Y117100D02*
D03*
X453590Y121060D02*
D03*
X463090Y138060D02*
D03*
X444090D02*
D03*
D73*
X887680Y261620D02*
D03*
Y236220D02*
D03*
Y210820D02*
D03*
Y185420D02*
D03*
X970280Y261620D02*
D03*
Y236220D02*
D03*
Y210820D02*
D03*
D74*
Y185420D02*
D03*
D75*
X673404Y546488D02*
D03*
X689568Y562652D02*
D03*
X637250Y403250D02*
D03*
X653415Y419414D02*
D03*
X824272Y426152D02*
D03*
X840436Y442317D02*
D03*
X710000Y362750D02*
D03*
X693836Y346586D02*
D03*
X718305Y591389D02*
D03*
X702140Y575224D02*
D03*
D76*
X477520Y836930D02*
D03*
X454660D02*
D03*
X408940Y605790D02*
D03*
X386080D02*
D03*
X346710D02*
D03*
X369570D02*
D03*
X313690Y598170D02*
D03*
X290830D02*
D03*
X251460D02*
D03*
X274320D02*
D03*
X891540Y880110D02*
D03*
X868680D02*
D03*
X621030Y655320D02*
D03*
X598170D02*
D03*
X609600Y524510D02*
D03*
X586740D02*
D03*
X85090Y454660D02*
D03*
X62230D02*
D03*
X588010Y852170D02*
D03*
X610870D02*
D03*
X454660Y816610D02*
D03*
X477520D02*
D03*
Y796290D02*
D03*
X454660D02*
D03*
X334010Y850900D02*
D03*
X356870D02*
D03*
X200660Y835660D02*
D03*
X223520D02*
D03*
X200660Y815340D02*
D03*
X223520D02*
D03*
Y795020D02*
D03*
X200660D02*
D03*
X588010Y962660D02*
D03*
X610870D02*
D03*
X454660Y947420D02*
D03*
X477520D02*
D03*
X454660Y927100D02*
D03*
X477520D02*
D03*
Y906780D02*
D03*
X454660D02*
D03*
X222250D02*
D03*
X199390D02*
D03*
Y947420D02*
D03*
X222250D02*
D03*
X199390Y927100D02*
D03*
X222250D02*
D03*
X332740Y962660D02*
D03*
X355600D02*
D03*
D77*
X160020Y618490D02*
D03*
X294640Y347980D02*
D03*
X409250Y585000D02*
D03*
X313750Y576250D02*
D03*
X514000Y547250D02*
D03*
X527250Y627250D02*
D03*
X365760Y440690D02*
D03*
X515620Y712470D02*
D03*
X488950Y504190D02*
D03*
D78*
X446750Y290250D02*
D03*
Y313110D02*
D03*
X447910Y221250D02*
D03*
Y244110D02*
D03*
X264340Y222820D02*
D03*
Y245680D02*
D03*
X355660Y222850D02*
D03*
Y245710D02*
D03*
X264500Y292140D02*
D03*
Y315000D02*
D03*
X354860Y289410D02*
D03*
Y312270D02*
D03*
X791210Y900430D02*
D03*
Y923290D02*
D03*
X542290Y600710D02*
D03*
Y577850D02*
D03*
X598170Y740410D02*
D03*
Y717550D02*
D03*
X262890Y402590D02*
D03*
Y425450D02*
D03*
Y382270D02*
D03*
Y359410D02*
D03*
X646430Y828040D02*
D03*
Y805180D02*
D03*
X392430Y826770D02*
D03*
Y803910D02*
D03*
X646430Y938530D02*
D03*
Y915670D02*
D03*
X391160Y938530D02*
D03*
Y915670D02*
D03*
D79*
X790600Y264160D02*
D03*
X809600D02*
D03*
X942340Y614680D02*
D03*
X923340D02*
D03*
X824180Y845820D02*
D03*
X805180D02*
D03*
D80*
X260210Y617470D02*
D03*
X283210D02*
D03*
X306210D02*
D03*
X355460Y625090D02*
D03*
X378460D02*
D03*
X401460D02*
D03*
D81*
X283210Y680470D02*
D03*
X378460Y688090D02*
D03*
D82*
X335280Y678890D02*
D03*
Y656590D02*
D03*
X240030Y671270D02*
D03*
Y648970D02*
D03*
D83*
X891260Y861060D02*
D03*
X868960D02*
D03*
X588010Y543560D02*
D03*
X610310D02*
D03*
X599440Y635000D02*
D03*
X621740D02*
D03*
D84*
X863600Y902180D02*
D03*
Y932180D02*
D03*
D85*
X807580Y977900D02*
D03*
X830580D02*
D03*
D86*
X784830D02*
D03*
X853330D02*
D03*
D87*
X787080Y953400D02*
D03*
X851080D02*
D03*
D88*
X806080Y951150D02*
D03*
X812580D02*
D03*
X819080D02*
D03*
X825580D02*
D03*
X832080D02*
D03*
D89*
X807420Y924560D02*
D03*
X813920D02*
D03*
X820420D02*
D03*
X826920D02*
D03*
X833420D02*
D03*
X839920D02*
D03*
X846420D02*
D03*
Y865800D02*
D03*
X839920D02*
D03*
X833420D02*
D03*
X826920D02*
D03*
X820420D02*
D03*
X813920D02*
D03*
X807420D02*
D03*
D90*
X706758Y388499D02*
D03*
X720193Y401934D02*
D03*
D91*
X559693Y562219D02*
D03*
X572393D02*
D03*
X585093D02*
D03*
X597793D02*
D03*
Y616219D02*
D03*
X585093D02*
D03*
X572393D02*
D03*
X559693D02*
D03*
D92*
X676910Y472440D02*
D03*
X693074Y456275D02*
D03*
X817986Y581511D02*
D03*
X834150Y565346D02*
D03*
X765002Y399211D02*
D03*
X781167Y383047D02*
D03*
X749736Y383945D02*
D03*
X765900Y367780D02*
D03*
D93*
X548960Y299490D02*
D03*
X588960D02*
D03*
X840740D02*
D03*
X800740D02*
D03*
X558800Y699490D02*
D03*
X598800D02*
D03*
X791530Y699540D02*
D03*
X831530D02*
D03*
D94*
X568960Y299490D02*
D03*
X820740D02*
D03*
X578800Y699490D02*
D03*
X811530Y699540D02*
D03*
D95*
X499060Y419820D02*
D03*
Y379820D02*
D03*
X899060Y422360D02*
D03*
Y382360D02*
D03*
Y623340D02*
D03*
Y583340D02*
D03*
X499060Y616990D02*
D03*
Y576990D02*
D03*
D96*
Y399820D02*
D03*
X899060Y402360D02*
D03*
Y603340D02*
D03*
X499060Y596990D02*
D03*
D97*
X347980Y506680D02*
D03*
Y487680D02*
D03*
X549950Y852134D02*
D03*
Y871134D02*
D03*
X293950Y851614D02*
D03*
Y870614D02*
D03*
X550860Y962384D02*
D03*
Y981384D02*
D03*
X295430Y961374D02*
D03*
Y980374D02*
D03*
D98*
X220980Y410210D02*
D03*
Y450210D02*
D03*
D99*
X128300Y535940D02*
D03*
X227300D02*
D03*
D100*
X116720Y436880D02*
D03*
X172720D02*
D03*
D101*
X284730Y415430D02*
D03*
Y392430D02*
D03*
Y369430D02*
D03*
D102*
X347730Y392430D02*
D03*
D103*
X948690Y805130D02*
D03*
Y786130D02*
D03*
Y750620D02*
D03*
Y769620D02*
D03*
D104*
X464820Y854710D02*
D03*
X480820D02*
D03*
X480060Y778510D02*
D03*
X464060D02*
D03*
X210820Y853440D02*
D03*
X226820D02*
D03*
X226060Y777240D02*
D03*
X210060D02*
D03*
X464820Y965200D02*
D03*
X480820D02*
D03*
X480060Y889000D02*
D03*
X464060D02*
D03*
X209550Y965200D02*
D03*
X225550D02*
D03*
X224790Y889000D02*
D03*
X208790D02*
D03*
D105*
X554340Y809230D02*
D03*
X517540D02*
D03*
Y826530D02*
D03*
X554340D02*
D03*
X300340Y807960D02*
D03*
X263540D02*
D03*
Y825260D02*
D03*
X300340D02*
D03*
X554340Y919720D02*
D03*
X517540D02*
D03*
Y937020D02*
D03*
X554340D02*
D03*
X299070Y919720D02*
D03*
X262270D02*
D03*
Y937020D02*
D03*
X299070D02*
D03*
D106*
X570920Y835660D02*
D03*
Y822960D02*
D03*
Y810260D02*
D03*
Y797560D02*
D03*
X625420Y835660D02*
D03*
Y822960D02*
D03*
Y810260D02*
D03*
Y797560D02*
D03*
X316920Y834390D02*
D03*
Y821690D02*
D03*
Y808990D02*
D03*
Y796290D02*
D03*
X371420Y834390D02*
D03*
Y821690D02*
D03*
Y808990D02*
D03*
Y796290D02*
D03*
X570920Y946150D02*
D03*
Y933450D02*
D03*
Y920750D02*
D03*
Y908050D02*
D03*
X625420Y946150D02*
D03*
Y933450D02*
D03*
Y920750D02*
D03*
Y908050D02*
D03*
X315650Y946150D02*
D03*
Y933450D02*
D03*
Y920750D02*
D03*
Y908050D02*
D03*
X370150Y946150D02*
D03*
Y933450D02*
D03*
Y920750D02*
D03*
Y908050D02*
D03*
D107*
X960000Y40000D02*
D03*
Y960000D02*
D03*
X408940Y500000D02*
D03*
D108*
X677250Y230750D02*
D03*
X626450D02*
D03*
X702650D02*
D03*
X651850D02*
D03*
X739500Y899350D02*
D03*
Y950150D02*
D03*
Y873950D02*
D03*
Y924750D02*
D03*
X975360Y819150D02*
D03*
Y793750D02*
D03*
Y768350D02*
D03*
Y742950D02*
D03*
Y717550D02*
D03*
Y692150D02*
D03*
D109*
X270510Y525400D02*
D03*
Y500000D02*
D03*
Y474600D02*
D03*
D110*
X35570Y704210D02*
D03*
Y744210D02*
D03*
Y784210D02*
D03*
Y824210D02*
D03*
Y864210D02*
D03*
Y904210D02*
D03*
X75570Y724210D02*
D03*
Y764210D02*
D03*
Y804210D02*
D03*
Y844210D02*
D03*
Y884210D02*
D03*
X115570Y704210D02*
D03*
Y744210D02*
D03*
Y784210D02*
D03*
Y824210D02*
D03*
Y864210D02*
D03*
Y904210D02*
D03*
X35570Y664210D02*
D03*
Y944210D02*
D03*
X75570Y684210D02*
D03*
Y924210D02*
D03*
X115570Y664210D02*
D03*
X35570Y95280D02*
D03*
Y135280D02*
D03*
Y175280D02*
D03*
Y215280D02*
D03*
Y255280D02*
D03*
Y295280D02*
D03*
X75570Y115280D02*
D03*
Y155280D02*
D03*
Y195280D02*
D03*
Y235280D02*
D03*
Y275280D02*
D03*
X115570Y95280D02*
D03*
Y135280D02*
D03*
Y175280D02*
D03*
Y215280D02*
D03*
Y255280D02*
D03*
Y295280D02*
D03*
X35570Y55280D02*
D03*
Y335280D02*
D03*
X75570Y75280D02*
D03*
Y315280D02*
D03*
X115570Y55280D02*
D03*
D111*
Y944210D02*
D03*
Y335280D02*
D03*
D112*
X960000Y62860D02*
D03*
X943836Y56164D02*
D03*
X937140Y40000D02*
D03*
X943836Y23835D02*
D03*
X960000Y17140D02*
D03*
X976164Y23835D02*
D03*
X982860Y40000D02*
D03*
X976164Y56164D02*
D03*
X943836Y976164D02*
D03*
X960000Y982860D02*
D03*
X976164Y976164D02*
D03*
X982860Y960000D02*
D03*
X976164Y943836D02*
D03*
X960000Y937140D02*
D03*
X943836Y943836D02*
D03*
X937140Y960000D02*
D03*
X392775Y516164D02*
D03*
X408940Y522860D02*
D03*
X425104Y516164D02*
D03*
X431800Y500000D02*
D03*
X425104Y483835D02*
D03*
X408940Y477140D02*
D03*
X392775Y483835D02*
D03*
X386080Y500000D02*
D03*
M02*
