G04*
G04 #@! TF.GenerationSoftware,Altium Limited,Altium Designer,24.5.2 (23)*
G04*
G04 Layer_Color=128*
%FSLAX44Y44*%
%MOMM*%
G71*
G04*
G04 #@! TF.SameCoordinates,49661B99-7F85-447B-B4A6-A33B5E3A9DE8*
G04*
G04*
G04 #@! TF.FilePolarity,Positive*
G04*
G01*
G75*
%ADD17C,0.1270*%
D17*
X942500Y40000D02*
X977500D01*
X960000Y22500D02*
Y57500D01*
X942500Y960000D02*
X977500D01*
X960000Y942500D02*
Y977500D01*
X671750Y230750D02*
X682750D01*
X677250Y225250D02*
Y236250D01*
X620950Y230750D02*
X631950D01*
X626450Y225250D02*
Y236250D01*
X697150Y230750D02*
X708150D01*
X702650Y225250D02*
Y236250D01*
X646350Y230750D02*
X657350D01*
X651850Y225250D02*
Y236250D01*
X734000Y899350D02*
X745000D01*
X739500Y893850D02*
Y904850D01*
X734000Y950150D02*
X745000D01*
X739500Y944650D02*
Y955650D01*
X734000Y873950D02*
X745000D01*
X739500Y868450D02*
Y879450D01*
X734000Y924750D02*
X745000D01*
X739500Y919250D02*
Y930250D01*
X264760Y525400D02*
X276260D01*
X270510Y519650D02*
Y531150D01*
X264760Y500000D02*
X276260D01*
X270510Y494250D02*
Y505750D01*
X264760Y474600D02*
X276260D01*
X270510Y468850D02*
Y480350D01*
X26820Y704210D02*
X44320D01*
X35570Y695460D02*
Y712960D01*
X26820Y744210D02*
X44320D01*
X35570Y735460D02*
Y752960D01*
X26820Y784210D02*
X44320D01*
X35570Y775460D02*
Y792960D01*
X26820Y824210D02*
X44320D01*
X35570Y815460D02*
Y832960D01*
X26820Y864210D02*
X44320D01*
X35570Y855460D02*
Y872960D01*
X26820Y904210D02*
X44320D01*
X35570Y895460D02*
Y912960D01*
X66820Y724210D02*
X84320D01*
X75570Y715460D02*
Y732960D01*
X66820Y764210D02*
X84320D01*
X75570Y755460D02*
Y772960D01*
X66820Y804210D02*
X84320D01*
X75570Y795460D02*
Y812960D01*
X66820Y844210D02*
X84320D01*
X75570Y835460D02*
Y852960D01*
X66820Y884210D02*
X84320D01*
X75570Y875460D02*
Y892960D01*
X106820Y704210D02*
X124320D01*
X115570Y695460D02*
Y712960D01*
X106820Y744210D02*
X124320D01*
X115570Y735460D02*
Y752960D01*
X106820Y784210D02*
X124320D01*
X115570Y775460D02*
Y792960D01*
X106820Y824210D02*
X124320D01*
X115570Y815460D02*
Y832960D01*
X106820Y864210D02*
X124320D01*
X115570Y855460D02*
Y872960D01*
X106820Y904210D02*
X124320D01*
X115570Y895460D02*
Y912960D01*
X26820Y664210D02*
X44320D01*
X35570Y655460D02*
Y672960D01*
X26820Y944210D02*
X44320D01*
X35570Y935460D02*
Y952960D01*
X66820Y684210D02*
X84320D01*
X75570Y675460D02*
Y692960D01*
X66820Y924210D02*
X84320D01*
X75570Y915460D02*
Y932960D01*
X106820Y664210D02*
X124320D01*
X115570Y655460D02*
Y672960D01*
X106820Y944210D02*
X124320D01*
X115570Y935460D02*
Y952960D01*
X26820Y95280D02*
X44320D01*
X35570Y86530D02*
Y104030D01*
X26820Y135280D02*
X44320D01*
X35570Y126530D02*
Y144030D01*
X26820Y175280D02*
X44320D01*
X35570Y166530D02*
Y184030D01*
X26820Y215280D02*
X44320D01*
X35570Y206530D02*
Y224030D01*
X26820Y255280D02*
X44320D01*
X35570Y246530D02*
Y264030D01*
X26820Y295280D02*
X44320D01*
X35570Y286530D02*
Y304030D01*
X66820Y115280D02*
X84320D01*
X75570Y106530D02*
Y124030D01*
X66820Y155280D02*
X84320D01*
X75570Y146530D02*
Y164030D01*
X66820Y195280D02*
X84320D01*
X75570Y186530D02*
Y204030D01*
X66820Y235280D02*
X84320D01*
X75570Y226530D02*
Y244030D01*
X66820Y275280D02*
X84320D01*
X75570Y266530D02*
Y284030D01*
X106820Y95280D02*
X124320D01*
X115570Y86530D02*
Y104030D01*
X106820Y135280D02*
X124320D01*
X115570Y126530D02*
Y144030D01*
X106820Y175280D02*
X124320D01*
X115570Y166530D02*
Y184030D01*
X106820Y215280D02*
X124320D01*
X115570Y206530D02*
Y224030D01*
X106820Y255280D02*
X124320D01*
X115570Y246530D02*
Y264030D01*
X106820Y295280D02*
X124320D01*
X115570Y286530D02*
Y304030D01*
X26820Y55280D02*
X44320D01*
X35570Y46530D02*
Y64030D01*
X26820Y335280D02*
X44320D01*
X35570Y326530D02*
Y344030D01*
X66820Y75280D02*
X84320D01*
X75570Y66530D02*
Y84030D01*
X66820Y315280D02*
X84320D01*
X75570Y306530D02*
Y324030D01*
X106820Y55280D02*
X124320D01*
X115570Y46530D02*
Y64030D01*
X106820Y335280D02*
X124320D01*
X115570Y326530D02*
Y344030D01*
X969860Y819150D02*
X980860D01*
X975360Y813650D02*
Y824650D01*
X969860Y793750D02*
X980860D01*
X975360Y788250D02*
Y799250D01*
X969860Y768350D02*
X980860D01*
X975360Y762850D02*
Y773850D01*
X969860Y742950D02*
X980860D01*
X975360Y737450D02*
Y748450D01*
X969860Y717550D02*
X980860D01*
X975360Y712050D02*
Y723050D01*
X969860Y692150D02*
X980860D01*
X975360Y686650D02*
Y697650D01*
X391440Y500000D02*
X426440D01*
X408940Y482500D02*
Y517500D01*
X974810Y917200D02*
X977810D01*
X976310Y915700D02*
Y918700D01*
X982310Y902200D02*
X985310D01*
X983810Y900700D02*
Y903700D01*
X974810Y887200D02*
X977810D01*
X976310Y885700D02*
Y888700D01*
X982310Y872200D02*
X985310D01*
X983810Y870700D02*
Y873700D01*
X974810Y857200D02*
X977810D01*
X976310Y855700D02*
Y858700D01*
X982310Y842200D02*
X985310D01*
X983810Y840700D02*
Y843700D01*
X982310Y782200D02*
X985310D01*
X983810Y780700D02*
Y783700D01*
X982310Y752200D02*
X985310D01*
X983810Y750700D02*
Y753700D01*
X974810Y677200D02*
X977810D01*
X976310Y675700D02*
Y678700D01*
X982310Y662200D02*
X985310D01*
X983810Y660700D02*
Y663700D01*
X974810Y647200D02*
X977810D01*
X976310Y645700D02*
Y648700D01*
X982310Y602200D02*
X985310D01*
X983810Y600700D02*
Y603700D01*
X974810Y587200D02*
X977810D01*
X976310Y585700D02*
Y588700D01*
X982310Y572200D02*
X985310D01*
X983810Y570700D02*
Y573700D01*
X982310Y512200D02*
X985310D01*
X983810Y510700D02*
Y513700D01*
X982310Y452200D02*
X985310D01*
X983810Y450700D02*
Y453700D01*
X974810Y437200D02*
X977810D01*
X976310Y435700D02*
Y438700D01*
X982310Y422200D02*
X985310D01*
X983810Y420700D02*
Y423700D01*
X974810Y407200D02*
X977810D01*
X976310Y405700D02*
Y408700D01*
X982310Y392200D02*
X985310D01*
X983810Y390700D02*
Y393700D01*
X974810Y377200D02*
X977810D01*
X976310Y375700D02*
Y378700D01*
X982310Y362200D02*
X985310D01*
X983810Y360700D02*
Y363700D01*
X974810Y347200D02*
X977810D01*
X976310Y345700D02*
Y348700D01*
X982310Y332200D02*
X985310D01*
X983810Y330700D02*
Y333700D01*
X974810Y317200D02*
X977810D01*
X976310Y315700D02*
Y318700D01*
X982310Y302200D02*
X985310D01*
X983810Y300700D02*
Y303700D01*
X974810Y287200D02*
X977810D01*
X976310Y285700D02*
Y288700D01*
X982310Y272200D02*
X985310D01*
X983810Y270700D02*
Y273700D01*
X974810Y167200D02*
X977810D01*
X976310Y165700D02*
Y168700D01*
X959810Y917200D02*
X962810D01*
X961310Y915700D02*
Y918700D01*
X967310Y902200D02*
X970310D01*
X968810Y900700D02*
Y903700D01*
X959810Y887200D02*
X962810D01*
X961310Y885700D02*
Y888700D01*
X967310Y872200D02*
X970310D01*
X968810Y870700D02*
Y873700D01*
X959810Y857200D02*
X962810D01*
X961310Y855700D02*
Y858700D01*
X967310Y842200D02*
X970310D01*
X968810Y840700D02*
Y843700D01*
X959810Y827200D02*
X962810D01*
X961310Y825700D02*
Y828700D01*
X959810Y797200D02*
X962810D01*
X961310Y795700D02*
Y798700D01*
X959810Y737200D02*
X962810D01*
X961310Y735700D02*
Y738700D01*
X959810Y707200D02*
X962810D01*
X961310Y705700D02*
Y708700D01*
X967310Y662200D02*
X970310D01*
X968810Y660700D02*
Y663700D01*
X959810Y647200D02*
X962810D01*
X961310Y645700D02*
Y648700D01*
X967310Y572200D02*
X970310D01*
X968810Y570700D02*
Y573700D01*
X959810Y437200D02*
X962810D01*
X961310Y435700D02*
Y438700D01*
X967310Y422200D02*
X970310D01*
X968810Y420700D02*
Y423700D01*
X959810Y407200D02*
X962810D01*
X961310Y405700D02*
Y408700D01*
X967310Y392200D02*
X970310D01*
X968810Y390700D02*
Y393700D01*
X967310Y362200D02*
X970310D01*
X968810Y360700D02*
Y363700D01*
X959810Y347200D02*
X962810D01*
X961310Y345700D02*
Y348700D01*
X967310Y332200D02*
X970310D01*
X968810Y330700D02*
Y333700D01*
X959810Y317200D02*
X962810D01*
X961310Y315700D02*
Y318700D01*
X967310Y302200D02*
X970310D01*
X968810Y300700D02*
Y303700D01*
X959810Y287200D02*
X962810D01*
X961310Y285700D02*
Y288700D01*
X959810Y167200D02*
X962810D01*
X961310Y165700D02*
Y168700D01*
X944810Y917200D02*
X947810D01*
X946310Y915700D02*
Y918700D01*
X952310Y902200D02*
X955310D01*
X953810Y900700D02*
Y903700D01*
X944810Y887200D02*
X947810D01*
X946310Y885700D02*
Y888700D01*
X952310Y872200D02*
X955310D01*
X953810Y870700D02*
Y873700D01*
X944810Y857200D02*
X947810D01*
X946310Y855700D02*
Y858700D01*
X952310Y842200D02*
X955310D01*
X953810Y840700D02*
Y843700D01*
X944810Y827200D02*
X947810D01*
X946310Y825700D02*
Y828700D01*
X944810Y737200D02*
X947810D01*
X946310Y735700D02*
Y738700D01*
X944810Y647200D02*
X947810D01*
X946310Y645700D02*
Y648700D01*
X952310Y572200D02*
X955310D01*
X953810Y570700D02*
Y573700D01*
X944810Y437200D02*
X947810D01*
X946310Y435700D02*
Y438700D01*
X952310Y422200D02*
X955310D01*
X953810Y420700D02*
Y423700D01*
X952310Y392200D02*
X955310D01*
X953810Y390700D02*
Y393700D01*
X944810Y377200D02*
X947810D01*
X946310Y375700D02*
Y378700D01*
X944810Y347200D02*
X947810D01*
X946310Y345700D02*
Y348700D01*
X952310Y332200D02*
X955310D01*
X953810Y330700D02*
Y333700D01*
X944810Y317200D02*
X947810D01*
X946310Y315700D02*
Y318700D01*
X952310Y302200D02*
X955310D01*
X953810Y300700D02*
Y303700D01*
X944810Y167200D02*
X947810D01*
X946310Y165700D02*
Y168700D01*
X929810Y917200D02*
X932810D01*
X931310Y915700D02*
Y918700D01*
X937310Y902200D02*
X940310D01*
X938810Y900700D02*
Y903700D01*
X929810Y887200D02*
X932810D01*
X931310Y885700D02*
Y888700D01*
X937310Y872200D02*
X940310D01*
X938810Y870700D02*
Y873700D01*
X929810Y857200D02*
X932810D01*
X931310Y855700D02*
Y858700D01*
X937310Y842200D02*
X940310D01*
X938810Y840700D02*
Y843700D01*
X929810Y827200D02*
X932810D01*
X931310Y825700D02*
Y828700D01*
X929810Y797200D02*
X932810D01*
X931310Y795700D02*
Y798700D01*
X929810Y737200D02*
X932810D01*
X931310Y735700D02*
Y738700D01*
X937310Y572200D02*
X940310D01*
X938810Y570700D02*
Y573700D01*
X929810Y557200D02*
X932810D01*
X931310Y555700D02*
Y558700D01*
X937310Y482200D02*
X940310D01*
X938810Y480700D02*
Y483700D01*
X929810Y377200D02*
X932810D01*
X931310Y375700D02*
Y378700D01*
X937310Y362200D02*
X940310D01*
X938810Y360700D02*
Y363700D01*
X929810Y347200D02*
X932810D01*
X931310Y345700D02*
Y348700D01*
X937310Y332200D02*
X940310D01*
X938810Y330700D02*
Y333700D01*
X929810Y317200D02*
X932810D01*
X931310Y315700D02*
Y318700D01*
X937310Y302200D02*
X940310D01*
X938810Y300700D02*
Y303700D01*
X937310Y242200D02*
X940310D01*
X938810Y240700D02*
Y243700D01*
X929810Y197200D02*
X932810D01*
X931310Y195700D02*
Y198700D01*
X937310Y182200D02*
X940310D01*
X938810Y180700D02*
Y183700D01*
X929810Y167200D02*
X932810D01*
X931310Y165700D02*
Y168700D01*
X914810Y977200D02*
X917810D01*
X916310Y975700D02*
Y978700D01*
X922310Y962200D02*
X925310D01*
X923810Y960700D02*
Y963700D01*
X914810Y947200D02*
X917810D01*
X916310Y945700D02*
Y948700D01*
X922310Y932200D02*
X925310D01*
X923810Y930700D02*
Y933700D01*
X914810Y917200D02*
X917810D01*
X916310Y915700D02*
Y918700D01*
X922310Y902200D02*
X925310D01*
X923810Y900700D02*
Y903700D01*
X914810Y887200D02*
X917810D01*
X916310Y885700D02*
Y888700D01*
X922310Y872200D02*
X925310D01*
X923810Y870700D02*
Y873700D01*
X914810Y857200D02*
X917810D01*
X916310Y855700D02*
Y858700D01*
X922310Y842200D02*
X925310D01*
X923810Y840700D02*
Y843700D01*
X914810Y647200D02*
X917810D01*
X916310Y645700D02*
Y648700D01*
X914810Y587200D02*
X917810D01*
X916310Y585700D02*
Y588700D01*
X922310Y482200D02*
X925310D01*
X923810Y480700D02*
Y483700D01*
X914810Y467200D02*
X917810D01*
X916310Y465700D02*
Y468700D01*
X922310Y452200D02*
X925310D01*
X923810Y450700D02*
Y453700D01*
X914810Y407200D02*
X917810D01*
X916310Y405700D02*
Y408700D01*
X914810Y377200D02*
X917810D01*
X916310Y375700D02*
Y378700D01*
X922310Y362200D02*
X925310D01*
X923810Y360700D02*
Y363700D01*
X914810Y347200D02*
X917810D01*
X916310Y345700D02*
Y348700D01*
X922310Y332200D02*
X925310D01*
X923810Y330700D02*
Y333700D01*
X914810Y257200D02*
X917810D01*
X916310Y255700D02*
Y258700D01*
X922310Y212200D02*
X925310D01*
X923810Y210700D02*
Y213700D01*
X914810Y197200D02*
X917810D01*
X916310Y195700D02*
Y198700D01*
X922310Y182200D02*
X925310D01*
X923810Y180700D02*
Y183700D01*
X914810Y167200D02*
X917810D01*
X916310Y165700D02*
Y168700D01*
X899810Y977200D02*
X902810D01*
X901310Y975700D02*
Y978700D01*
X907310Y962200D02*
X910310D01*
X908810Y960700D02*
Y963700D01*
X899810Y947200D02*
X902810D01*
X901310Y945700D02*
Y948700D01*
X907310Y932200D02*
X910310D01*
X908810Y930700D02*
Y933700D01*
X899810Y917200D02*
X902810D01*
X901310Y915700D02*
Y918700D01*
X907310Y902200D02*
X910310D01*
X908810Y900700D02*
Y903700D01*
X907310Y872200D02*
X910310D01*
X908810Y870700D02*
Y873700D01*
X899810Y857200D02*
X902810D01*
X901310Y855700D02*
Y858700D01*
X907310Y842200D02*
X910310D01*
X908810Y840700D02*
Y843700D01*
X899810Y827200D02*
X902810D01*
X901310Y825700D02*
Y828700D01*
X899810Y797200D02*
X902810D01*
X901310Y795700D02*
Y798700D01*
X899810Y737200D02*
X902810D01*
X901310Y735700D02*
Y738700D01*
X899810Y677200D02*
X902810D01*
X901310Y675700D02*
Y678700D01*
X899810Y557200D02*
X902810D01*
X901310Y555700D02*
Y558700D01*
X899810Y527200D02*
X902810D01*
X901310Y525700D02*
Y528700D01*
X907310Y482200D02*
X910310D01*
X908810Y480700D02*
Y483700D01*
X907310Y452200D02*
X910310D01*
X908810Y450700D02*
Y453700D01*
X907310Y362200D02*
X910310D01*
X908810Y360700D02*
Y363700D01*
X899810Y347200D02*
X902810D01*
X901310Y345700D02*
Y348700D01*
X907310Y332200D02*
X910310D01*
X908810Y330700D02*
Y333700D01*
X899810Y227200D02*
X902810D01*
X901310Y225700D02*
Y228700D01*
X907310Y212200D02*
X910310D01*
X908810Y210700D02*
Y213700D01*
X899810Y197200D02*
X902810D01*
X901310Y195700D02*
Y198700D01*
X907310Y182200D02*
X910310D01*
X908810Y180700D02*
Y183700D01*
X899810Y167200D02*
X902810D01*
X901310Y165700D02*
Y168700D01*
X884810Y977200D02*
X887810D01*
X886310Y975700D02*
Y978700D01*
X892310Y962200D02*
X895310D01*
X893810Y960700D02*
Y963700D01*
X884810Y947200D02*
X887810D01*
X886310Y945700D02*
Y948700D01*
X892310Y932200D02*
X895310D01*
X893810Y930700D02*
Y933700D01*
X884810Y917200D02*
X887810D01*
X886310Y915700D02*
Y918700D01*
X892310Y902200D02*
X895310D01*
X893810Y900700D02*
Y903700D01*
X884810Y797200D02*
X887810D01*
X886310Y795700D02*
Y798700D01*
X892310Y782200D02*
X895310D01*
X893810Y780700D02*
Y783700D01*
X884810Y767200D02*
X887810D01*
X886310Y765700D02*
Y768700D01*
X892310Y692200D02*
X895310D01*
X893810Y690700D02*
Y693700D01*
X884810Y677200D02*
X887810D01*
X886310Y675700D02*
Y678700D01*
X884810Y407200D02*
X887810D01*
X886310Y405700D02*
Y408700D01*
X884810Y377200D02*
X887810D01*
X886310Y375700D02*
Y378700D01*
X892310Y362200D02*
X895310D01*
X893810Y360700D02*
Y363700D01*
X884810Y287200D02*
X887810D01*
X886310Y285700D02*
Y288700D01*
X884810Y167200D02*
X887810D01*
X886310Y165700D02*
Y168700D01*
X869810Y977200D02*
X872810D01*
X871310Y975700D02*
Y978700D01*
X877310Y962200D02*
X880310D01*
X878810Y960700D02*
Y963700D01*
X869810Y947200D02*
X872810D01*
X871310Y945700D02*
Y948700D01*
X877310Y932200D02*
X880310D01*
X878810Y930700D02*
Y933700D01*
X869810Y917200D02*
X872810D01*
X871310Y915700D02*
Y918700D01*
X877310Y902200D02*
X880310D01*
X878810Y900700D02*
Y903700D01*
X869810Y827200D02*
X872810D01*
X871310Y825700D02*
Y828700D01*
X877310Y812200D02*
X880310D01*
X878810Y810700D02*
Y813700D01*
X869810Y797200D02*
X872810D01*
X871310Y795700D02*
Y798700D01*
X877310Y782200D02*
X880310D01*
X878810Y780700D02*
Y783700D01*
X869810Y767200D02*
X872810D01*
X871310Y765700D02*
Y768700D01*
X877310Y662200D02*
X880310D01*
X878810Y660700D02*
Y663700D01*
X869810Y167200D02*
X872810D01*
X871310Y165700D02*
Y168700D01*
X862310Y962200D02*
X865310D01*
X863810Y960700D02*
Y963700D01*
X854810Y917200D02*
X857810D01*
X856310Y915700D02*
Y918700D01*
X854810Y827200D02*
X857810D01*
X856310Y825700D02*
Y828700D01*
X862310Y812200D02*
X865310D01*
X863810Y810700D02*
Y813700D01*
X854810Y797200D02*
X857810D01*
X856310Y795700D02*
Y798700D01*
X862310Y782200D02*
X865310D01*
X863810Y780700D02*
Y783700D01*
X862310Y542200D02*
X865310D01*
X863810Y540700D02*
Y543700D01*
X854810Y527200D02*
X857810D01*
X856310Y525700D02*
Y528700D01*
X862310Y392200D02*
X865310D01*
X863810Y390700D02*
Y393700D01*
X854810Y317200D02*
X857810D01*
X856310Y315700D02*
Y318700D01*
X854810Y167200D02*
X857810D01*
X856310Y165700D02*
Y168700D01*
X847310Y902200D02*
X850310D01*
X848810Y900700D02*
Y903700D01*
X847310Y842200D02*
X850310D01*
X848810Y840700D02*
Y843700D01*
X847310Y812200D02*
X850310D01*
X848810Y810700D02*
Y813700D01*
X839810Y797200D02*
X842810D01*
X841310Y795700D02*
Y798700D01*
X847310Y782200D02*
X850310D01*
X848810Y780700D02*
Y783700D01*
X847310Y512200D02*
X850310D01*
X848810Y510700D02*
Y513700D01*
X839810Y287200D02*
X842810D01*
X841310Y285700D02*
Y288700D01*
X839810Y227200D02*
X842810D01*
X841310Y225700D02*
Y228700D01*
X832310Y812200D02*
X835310D01*
X833810Y810700D02*
Y813700D01*
X824810Y797200D02*
X827810D01*
X826310Y795700D02*
Y798700D01*
X832310Y782200D02*
X835310D01*
X833810Y780700D02*
Y783700D01*
X832310Y332200D02*
X835310D01*
X833810Y330700D02*
Y333700D01*
X824810Y287200D02*
X827810D01*
X826310Y285700D02*
Y288700D01*
X832310Y212200D02*
X835310D01*
X833810Y210700D02*
Y213700D01*
X824810Y197200D02*
X827810D01*
X826310Y195700D02*
Y198700D01*
X809810Y317200D02*
X812810D01*
X811310Y315700D02*
Y318700D01*
X809810Y287200D02*
X812810D01*
X811310Y285700D02*
Y288700D01*
X817310Y242200D02*
X820310D01*
X818810Y240700D02*
Y243700D01*
X817310Y182200D02*
X820310D01*
X818810Y180700D02*
Y183700D01*
X809810Y167200D02*
X812810D01*
X811310Y165700D02*
Y168700D01*
X802310Y962200D02*
X805310D01*
X803810Y960700D02*
Y963700D01*
X794810Y887200D02*
X797810D01*
X796310Y885700D02*
Y888700D01*
X794810Y827200D02*
X797810D01*
X796310Y825700D02*
Y828700D01*
X802310Y332200D02*
X805310D01*
X803810Y330700D02*
Y333700D01*
X802310Y242200D02*
X805310D01*
X803810Y240700D02*
Y243700D01*
X794810Y77200D02*
X797810D01*
X796310Y75700D02*
Y78700D01*
X794810Y47200D02*
X797810D01*
X796310Y45700D02*
Y48700D01*
X794810Y17200D02*
X797810D01*
X796310Y15700D02*
Y18700D01*
X779810Y857200D02*
X782810D01*
X781310Y855700D02*
Y858700D01*
X779810Y497200D02*
X782810D01*
X781310Y495700D02*
Y498700D01*
X787310Y482200D02*
X790310D01*
X788810Y480700D02*
Y483700D01*
X787310Y62200D02*
X790310D01*
X788810Y60700D02*
Y63700D01*
X779810Y47200D02*
X782810D01*
X781310Y45700D02*
Y48700D01*
X787310Y32200D02*
X790310D01*
X788810Y30700D02*
Y33700D01*
X779810Y17200D02*
X782810D01*
X781310Y15700D02*
Y18700D01*
X764810Y917200D02*
X767810D01*
X766310Y915700D02*
Y918700D01*
X772310Y902200D02*
X775310D01*
X773810Y900700D02*
Y903700D01*
X764810Y887200D02*
X767810D01*
X766310Y885700D02*
Y888700D01*
X764810Y857200D02*
X767810D01*
X766310Y855700D02*
Y858700D01*
X764810Y497200D02*
X767810D01*
X766310Y495700D02*
Y498700D01*
X772310Y482200D02*
X775310D01*
X773810Y480700D02*
Y483700D01*
X772310Y392200D02*
X775310D01*
X773810Y390700D02*
Y393700D01*
X764810Y287200D02*
X767810D01*
X766310Y285700D02*
Y288700D01*
X772310Y272200D02*
X775310D01*
X773810Y270700D02*
Y273700D01*
X764810Y257200D02*
X767810D01*
X766310Y255700D02*
Y258700D01*
X772310Y242200D02*
X775310D01*
X773810Y240700D02*
Y243700D01*
X764810Y227200D02*
X767810D01*
X766310Y225700D02*
Y228700D01*
X772310Y62200D02*
X775310D01*
X773810Y60700D02*
Y63700D01*
X764810Y47200D02*
X767810D01*
X766310Y45700D02*
Y48700D01*
X772310Y32200D02*
X775310D01*
X773810Y30700D02*
Y33700D01*
X764810Y17200D02*
X767810D01*
X766310Y15700D02*
Y18700D01*
X749810Y977200D02*
X752810D01*
X751310Y975700D02*
Y978700D01*
X757310Y932200D02*
X760310D01*
X758810Y930700D02*
Y933700D01*
X749810Y917200D02*
X752810D01*
X751310Y915700D02*
Y918700D01*
X749810Y887200D02*
X752810D01*
X751310Y885700D02*
Y888700D01*
X757310Y812200D02*
X760310D01*
X758810Y810700D02*
Y813700D01*
X749810Y497200D02*
X752810D01*
X751310Y495700D02*
Y498700D01*
X757310Y482200D02*
X760310D01*
X758810Y480700D02*
Y483700D01*
X757310Y422200D02*
X760310D01*
X758810Y420700D02*
Y423700D01*
X749810Y347200D02*
X752810D01*
X751310Y345700D02*
Y348700D01*
X749810Y287200D02*
X752810D01*
X751310Y285700D02*
Y288700D01*
X757310Y272200D02*
X760310D01*
X758810Y270700D02*
Y273700D01*
X749810Y257200D02*
X752810D01*
X751310Y255700D02*
Y258700D01*
X757310Y242200D02*
X760310D01*
X758810Y240700D02*
Y243700D01*
X749810Y227200D02*
X752810D01*
X751310Y225700D02*
Y228700D01*
X749810Y197200D02*
X752810D01*
X751310Y195700D02*
Y198700D01*
X757310Y92200D02*
X760310D01*
X758810Y90700D02*
Y93700D01*
X749810Y77200D02*
X752810D01*
X751310Y75700D02*
Y78700D01*
X757310Y32200D02*
X760310D01*
X758810Y30700D02*
Y33700D01*
X749810Y17200D02*
X752810D01*
X751310Y15700D02*
Y18700D01*
X734810Y827200D02*
X737810D01*
X736310Y825700D02*
Y828700D01*
X742310Y812200D02*
X745310D01*
X743810Y810700D02*
Y813700D01*
X742310Y482200D02*
X745310D01*
X743810Y480700D02*
Y483700D01*
X742310Y272200D02*
X745310D01*
X743810Y270700D02*
Y273700D01*
X734810Y257200D02*
X737810D01*
X736310Y255700D02*
Y258700D01*
X742310Y242200D02*
X745310D01*
X743810Y240700D02*
Y243700D01*
X734810Y227200D02*
X737810D01*
X736310Y225700D02*
Y228700D01*
X734810Y197200D02*
X737810D01*
X736310Y195700D02*
Y198700D01*
X742310Y152200D02*
X745310D01*
X743810Y150700D02*
Y153700D01*
X742310Y92200D02*
X745310D01*
X743810Y90700D02*
Y93700D01*
X734810Y77200D02*
X737810D01*
X736310Y75700D02*
Y78700D01*
X742310Y32200D02*
X745310D01*
X743810Y30700D02*
Y33700D01*
X734810Y17200D02*
X737810D01*
X736310Y15700D02*
Y18700D01*
X719810Y887200D02*
X722810D01*
X721310Y885700D02*
Y888700D01*
X719810Y827200D02*
X722810D01*
X721310Y825700D02*
Y828700D01*
X727310Y812200D02*
X730310D01*
X728810Y810700D02*
Y813700D01*
X719810Y377200D02*
X722810D01*
X721310Y375700D02*
Y378700D01*
X719810Y347200D02*
X722810D01*
X721310Y345700D02*
Y348700D01*
X727310Y332200D02*
X730310D01*
X728810Y330700D02*
Y333700D01*
X727310Y272200D02*
X730310D01*
X728810Y270700D02*
Y273700D01*
X719810Y197200D02*
X722810D01*
X721310Y195700D02*
Y198700D01*
X727310Y122200D02*
X730310D01*
X728810Y120700D02*
Y123700D01*
X727310Y92200D02*
X730310D01*
X728810Y90700D02*
Y93700D01*
X719810Y77200D02*
X722810D01*
X721310Y75700D02*
Y78700D01*
X719810Y17200D02*
X722810D01*
X721310Y15700D02*
Y18700D01*
X704810Y827200D02*
X707810D01*
X706310Y825700D02*
Y828700D01*
X712310Y812200D02*
X715310D01*
X713810Y810700D02*
Y813700D01*
X712310Y332200D02*
X715310D01*
X713810Y330700D02*
Y333700D01*
X712310Y272200D02*
X715310D01*
X713810Y270700D02*
Y273700D01*
X704810Y197200D02*
X707810D01*
X706310Y195700D02*
Y198700D01*
X712310Y92200D02*
X715310D01*
X713810Y90700D02*
Y93700D01*
X704810Y77200D02*
X707810D01*
X706310Y75700D02*
Y78700D01*
X704810Y17200D02*
X707810D01*
X706310Y15700D02*
Y18700D01*
X689810Y827200D02*
X692810D01*
X691310Y825700D02*
Y828700D01*
X697310Y812200D02*
X700310D01*
X698810Y810700D02*
Y813700D01*
X689810Y677200D02*
X692810D01*
X691310Y675700D02*
Y678700D01*
X697310Y662200D02*
X700310D01*
X698810Y660700D02*
Y663700D01*
X689810Y647200D02*
X692810D01*
X691310Y645700D02*
Y648700D01*
X697310Y632200D02*
X700310D01*
X698810Y630700D02*
Y633700D01*
X697310Y332200D02*
X700310D01*
X698810Y330700D02*
Y333700D01*
X689810Y197200D02*
X692810D01*
X691310Y195700D02*
Y198700D01*
X697310Y92200D02*
X700310D01*
X698810Y90700D02*
Y93700D01*
X689810Y77200D02*
X692810D01*
X691310Y75700D02*
Y78700D01*
X689810Y17200D02*
X692810D01*
X691310Y15700D02*
Y18700D01*
X682310Y962200D02*
X685310D01*
X683810Y960700D02*
Y963700D01*
X674810Y947200D02*
X677810D01*
X676310Y945700D02*
Y948700D01*
X682310Y932200D02*
X685310D01*
X683810Y930700D02*
Y933700D01*
X674810Y827200D02*
X677810D01*
X676310Y825700D02*
Y828700D01*
X682310Y812200D02*
X685310D01*
X683810Y810700D02*
Y813700D01*
X682310Y392200D02*
X685310D01*
X683810Y390700D02*
Y393700D01*
X674810Y377200D02*
X677810D01*
X676310Y375700D02*
Y378700D01*
X674810Y347200D02*
X677810D01*
X676310Y345700D02*
Y348700D01*
X682310Y332200D02*
X685310D01*
X683810Y330700D02*
Y333700D01*
X674810Y197200D02*
X677810D01*
X676310Y195700D02*
Y198700D01*
X682310Y92200D02*
X685310D01*
X683810Y90700D02*
Y93700D01*
X674810Y77200D02*
X677810D01*
X676310Y75700D02*
Y78700D01*
X674810Y17200D02*
X677810D01*
X676310Y15700D02*
Y18700D01*
X667310Y962200D02*
X670310D01*
X668810Y960700D02*
Y963700D01*
X667310Y902200D02*
X670310D01*
X668810Y900700D02*
Y903700D01*
X659810Y857200D02*
X662810D01*
X661310Y855700D02*
Y858700D01*
X667310Y812200D02*
X670310D01*
X668810Y810700D02*
Y813700D01*
X659810Y707200D02*
X662810D01*
X661310Y705700D02*
Y708700D01*
X667310Y692200D02*
X670310D01*
X668810Y690700D02*
Y693700D01*
X659810Y677200D02*
X662810D01*
X661310Y675700D02*
Y678700D01*
X659810Y587200D02*
X662810D01*
X661310Y585700D02*
Y588700D01*
X659810Y377200D02*
X662810D01*
X661310Y375700D02*
Y378700D01*
X659810Y347200D02*
X662810D01*
X661310Y345700D02*
Y348700D01*
X667310Y332200D02*
X670310D01*
X668810Y330700D02*
Y333700D01*
X667310Y92200D02*
X670310D01*
X668810Y90700D02*
Y93700D01*
X659810Y77200D02*
X662810D01*
X661310Y75700D02*
Y78700D01*
X659810Y17200D02*
X662810D01*
X661310Y15700D02*
Y18700D01*
X652310Y962200D02*
X655310D01*
X653810Y960700D02*
Y963700D01*
X652310Y872200D02*
X655310D01*
X653810Y870700D02*
Y873700D01*
X644810Y857200D02*
X647810D01*
X646310Y855700D02*
Y858700D01*
X652310Y632200D02*
X655310D01*
X653810Y630700D02*
Y633700D01*
X644810Y377200D02*
X647810D01*
X646310Y375700D02*
Y378700D01*
X652310Y362200D02*
X655310D01*
X653810Y360700D02*
Y363700D01*
X644810Y347200D02*
X647810D01*
X646310Y345700D02*
Y348700D01*
X644810Y197200D02*
X647810D01*
X646310Y195700D02*
Y198700D01*
X652310Y92200D02*
X655310D01*
X653810Y90700D02*
Y93700D01*
X644810Y17200D02*
X647810D01*
X646310Y15700D02*
Y18700D01*
X637310Y962200D02*
X640310D01*
X638810Y960700D02*
Y963700D01*
X629810Y887200D02*
X632810D01*
X631310Y885700D02*
Y888700D01*
X637310Y872200D02*
X640310D01*
X638810Y870700D02*
Y873700D01*
X629810Y857200D02*
X632810D01*
X631310Y855700D02*
Y858700D01*
X629810Y707200D02*
X632810D01*
X631310Y705700D02*
Y708700D01*
X637310Y602200D02*
X640310D01*
X638810Y600700D02*
Y603700D01*
X637310Y542200D02*
X640310D01*
X638810Y540700D02*
Y543700D01*
X637310Y362200D02*
X640310D01*
X638810Y360700D02*
Y363700D01*
X637310Y272200D02*
X640310D01*
X638810Y270700D02*
Y273700D01*
X629810Y197200D02*
X632810D01*
X631310Y195700D02*
Y198700D01*
X629810Y137200D02*
X632810D01*
X631310Y135700D02*
Y138700D01*
X637310Y92200D02*
X640310D01*
X638810Y90700D02*
Y93700D01*
X629810Y17200D02*
X632810D01*
X631310Y15700D02*
Y18700D01*
X622310Y962200D02*
X625310D01*
X623810Y960700D02*
Y963700D01*
X614810Y887200D02*
X617810D01*
X616310Y885700D02*
Y888700D01*
X622310Y872200D02*
X625310D01*
X623810Y870700D02*
Y873700D01*
X614810Y407200D02*
X617810D01*
X616310Y405700D02*
Y408700D01*
X622310Y392200D02*
X625310D01*
X623810Y390700D02*
Y393700D01*
X622310Y362200D02*
X625310D01*
X623810Y360700D02*
Y363700D01*
X622310Y332200D02*
X625310D01*
X623810Y330700D02*
Y333700D01*
X614810Y317200D02*
X617810D01*
X616310Y315700D02*
Y318700D01*
X614810Y137200D02*
X617810D01*
X616310Y135700D02*
Y138700D01*
X622310Y122200D02*
X625310D01*
X623810Y120700D02*
Y123700D01*
X622310Y92200D02*
X625310D01*
X623810Y90700D02*
Y93700D01*
X614810Y17200D02*
X617810D01*
X616310Y15700D02*
Y18700D01*
X607310Y932200D02*
X610310D01*
X608810Y930700D02*
Y933700D01*
X599810Y917200D02*
X602810D01*
X601310Y915700D02*
Y918700D01*
X607310Y902200D02*
X610310D01*
X608810Y900700D02*
Y903700D01*
X599810Y887200D02*
X602810D01*
X601310Y885700D02*
Y888700D01*
X607310Y632200D02*
X610310D01*
X608810Y630700D02*
Y633700D01*
X599810Y587200D02*
X602810D01*
X601310Y585700D02*
Y588700D01*
X607310Y572200D02*
X610310D01*
X608810Y570700D02*
Y573700D01*
X607310Y422200D02*
X610310D01*
X608810Y420700D02*
Y423700D01*
X599810Y317200D02*
X602810D01*
X601310Y315700D02*
Y318700D01*
X599810Y227200D02*
X602810D01*
X601310Y225700D02*
Y228700D01*
X607310Y92200D02*
X610310D01*
X608810Y90700D02*
Y93700D01*
X599810Y17200D02*
X602810D01*
X601310Y15700D02*
Y18700D01*
X584810Y797200D02*
X587810D01*
X586310Y795700D02*
Y798700D01*
X584810Y587200D02*
X587810D01*
X586310Y585700D02*
Y588700D01*
X592310Y482200D02*
X595310D01*
X593810Y480700D02*
Y483700D01*
X592310Y422200D02*
X595310D01*
X593810Y420700D02*
Y423700D01*
X584810Y407200D02*
X587810D01*
X586310Y405700D02*
Y408700D01*
X592310Y362200D02*
X595310D01*
X593810Y360700D02*
Y363700D01*
X592310Y332200D02*
X595310D01*
X593810Y330700D02*
Y333700D01*
X584810Y317200D02*
X587810D01*
X586310Y315700D02*
Y318700D01*
X584810Y287200D02*
X587810D01*
X586310Y285700D02*
Y288700D01*
X584810Y197200D02*
X587810D01*
X586310Y195700D02*
Y198700D01*
X584810Y137200D02*
X587810D01*
X586310Y135700D02*
Y138700D01*
X592310Y92200D02*
X595310D01*
X593810Y90700D02*
Y93700D01*
X584810Y77200D02*
X587810D01*
X586310Y75700D02*
Y78700D01*
X584810Y17200D02*
X587810D01*
X586310Y15700D02*
Y18700D01*
X569810Y737200D02*
X572810D01*
X571310Y735700D02*
Y738700D01*
X569810Y587200D02*
X572810D01*
X571310Y585700D02*
Y588700D01*
X577310Y542200D02*
X580310D01*
X578810Y540700D02*
Y543700D01*
X569810Y377200D02*
X572810D01*
X571310Y375700D02*
Y378700D01*
X569810Y347200D02*
X572810D01*
X571310Y345700D02*
Y348700D01*
X569810Y287200D02*
X572810D01*
X571310Y285700D02*
Y288700D01*
X569810Y197200D02*
X572810D01*
X571310Y195700D02*
Y198700D01*
X569810Y137200D02*
X572810D01*
X571310Y135700D02*
Y138700D01*
X577310Y122200D02*
X580310D01*
X578810Y120700D02*
Y123700D01*
X577310Y92200D02*
X580310D01*
X578810Y90700D02*
Y93700D01*
X569810Y77200D02*
X572810D01*
X571310Y75700D02*
Y78700D01*
X577310Y32200D02*
X580310D01*
X578810Y30700D02*
Y33700D01*
X569810Y17200D02*
X572810D01*
X571310Y15700D02*
Y18700D01*
X562310Y962200D02*
X565310D01*
X563810Y960700D02*
Y963700D01*
X562310Y902200D02*
X565310D01*
X563810Y900700D02*
Y903700D01*
X554810Y737200D02*
X557810D01*
X556310Y735700D02*
Y738700D01*
X554810Y587200D02*
X557810D01*
X556310Y585700D02*
Y588700D01*
X562310Y452200D02*
X565310D01*
X563810Y450700D02*
Y453700D01*
X562310Y392200D02*
X565310D01*
X563810Y390700D02*
Y393700D01*
X562310Y362200D02*
X565310D01*
X563810Y360700D02*
Y363700D01*
X562310Y332200D02*
X565310D01*
X563810Y330700D02*
Y333700D01*
X554810Y287200D02*
X557810D01*
X556310Y285700D02*
Y288700D01*
X562310Y272200D02*
X565310D01*
X563810Y270700D02*
Y273700D01*
X562310Y152200D02*
X565310D01*
X563810Y150700D02*
Y153700D01*
X562310Y122200D02*
X565310D01*
X563810Y120700D02*
Y123700D01*
X562310Y92200D02*
X565310D01*
X563810Y90700D02*
Y93700D01*
X554810Y77200D02*
X557810D01*
X556310Y75700D02*
Y78700D01*
X554810Y17200D02*
X557810D01*
X556310Y15700D02*
Y18700D01*
X539810Y917200D02*
X542810D01*
X541310Y915700D02*
Y918700D01*
X547310Y902200D02*
X550310D01*
X548810Y900700D02*
Y903700D01*
X539810Y827200D02*
X542810D01*
X541310Y825700D02*
Y828700D01*
X547310Y782200D02*
X550310D01*
X548810Y780700D02*
Y783700D01*
X539810Y767200D02*
X542810D01*
X541310Y765700D02*
Y768700D01*
X539810Y647200D02*
X542810D01*
X541310Y645700D02*
Y648700D01*
X539810Y617200D02*
X542810D01*
X541310Y615700D02*
Y618700D01*
X539810Y557200D02*
X542810D01*
X541310Y555700D02*
Y558700D01*
X547310Y482200D02*
X550310D01*
X548810Y480700D02*
Y483700D01*
X547310Y182200D02*
X550310D01*
X548810Y180700D02*
Y183700D01*
X547310Y152200D02*
X550310D01*
X548810Y150700D02*
Y153700D01*
X547310Y122200D02*
X550310D01*
X548810Y120700D02*
Y123700D01*
X547310Y92200D02*
X550310D01*
X548810Y90700D02*
Y93700D01*
X539810Y77200D02*
X542810D01*
X541310Y75700D02*
Y78700D01*
X539810Y17200D02*
X542810D01*
X541310Y15700D02*
Y18700D01*
X532310Y932200D02*
X535310D01*
X533810Y930700D02*
Y933700D01*
X532310Y692200D02*
X535310D01*
X533810Y690700D02*
Y693700D01*
X532310Y482200D02*
X535310D01*
X533810Y480700D02*
Y483700D01*
X532310Y422200D02*
X535310D01*
X533810Y420700D02*
Y423700D01*
X532310Y392200D02*
X535310D01*
X533810Y390700D02*
Y393700D01*
X524810Y377200D02*
X527810D01*
X526310Y375700D02*
Y378700D01*
X532310Y362200D02*
X535310D01*
X533810Y360700D02*
Y363700D01*
X524810Y347200D02*
X527810D01*
X526310Y345700D02*
Y348700D01*
X524810Y257200D02*
X527810D01*
X526310Y255700D02*
Y258700D01*
X532310Y242200D02*
X535310D01*
X533810Y240700D02*
Y243700D01*
X532310Y152200D02*
X535310D01*
X533810Y150700D02*
Y153700D01*
X532310Y122200D02*
X535310D01*
X533810Y120700D02*
Y123700D01*
X532310Y92200D02*
X535310D01*
X533810Y90700D02*
Y93700D01*
X524810Y77200D02*
X527810D01*
X526310Y75700D02*
Y78700D01*
X524810Y47200D02*
X527810D01*
X526310Y45700D02*
Y48700D01*
X509810Y977200D02*
X512810D01*
X511310Y975700D02*
Y978700D01*
X509810Y857200D02*
X512810D01*
X511310Y855700D02*
Y858700D01*
X517310Y842200D02*
X520310D01*
X518810Y840700D02*
Y843700D01*
X509810Y767200D02*
X512810D01*
X511310Y765700D02*
Y768700D01*
X509810Y737200D02*
X512810D01*
X511310Y735700D02*
Y738700D01*
X517310Y662200D02*
X520310D01*
X518810Y660700D02*
Y663700D01*
X509810Y647200D02*
X512810D01*
X511310Y645700D02*
Y648700D01*
X517310Y632200D02*
X520310D01*
X518810Y630700D02*
Y633700D01*
X517310Y482200D02*
X520310D01*
X518810Y480700D02*
Y483700D01*
X517310Y452200D02*
X520310D01*
X518810Y450700D02*
Y453700D01*
X509810Y377200D02*
X512810D01*
X511310Y375700D02*
Y378700D01*
X517310Y332200D02*
X520310D01*
X518810Y330700D02*
Y333700D01*
X509810Y317200D02*
X512810D01*
X511310Y315700D02*
Y318700D01*
X517310Y152200D02*
X520310D01*
X518810Y150700D02*
Y153700D01*
X517310Y92200D02*
X520310D01*
X518810Y90700D02*
Y93700D01*
X509810Y77200D02*
X512810D01*
X511310Y75700D02*
Y78700D01*
X509810Y47200D02*
X512810D01*
X511310Y45700D02*
Y48700D01*
X502310Y872200D02*
X505310D01*
X503810Y870700D02*
Y873700D01*
X494810Y857200D02*
X497810D01*
X496310Y855700D02*
Y858700D01*
X494810Y767200D02*
X497810D01*
X496310Y765700D02*
Y768700D01*
X494810Y707200D02*
X497810D01*
X496310Y705700D02*
Y708700D01*
X494810Y677200D02*
X497810D01*
X496310Y675700D02*
Y678700D01*
X502310Y662200D02*
X505310D01*
X503810Y660700D02*
Y663700D01*
X494810Y647200D02*
X497810D01*
X496310Y645700D02*
Y648700D01*
X502310Y632200D02*
X505310D01*
X503810Y630700D02*
Y633700D01*
X494810Y557200D02*
X497810D01*
X496310Y555700D02*
Y558700D01*
X502310Y542200D02*
X505310D01*
X503810Y540700D02*
Y543700D01*
X494810Y527200D02*
X497810D01*
X496310Y525700D02*
Y528700D01*
X502310Y482200D02*
X505310D01*
X503810Y480700D02*
Y483700D01*
X502310Y452200D02*
X505310D01*
X503810Y450700D02*
Y453700D01*
X502310Y362200D02*
X505310D01*
X503810Y360700D02*
Y363700D01*
X494810Y347200D02*
X497810D01*
X496310Y345700D02*
Y348700D01*
X502310Y332200D02*
X505310D01*
X503810Y330700D02*
Y333700D01*
X502310Y152200D02*
X505310D01*
X503810Y150700D02*
Y153700D01*
X502310Y92200D02*
X505310D01*
X503810Y90700D02*
Y93700D01*
X494810Y77200D02*
X497810D01*
X496310Y75700D02*
Y78700D01*
X494810Y47200D02*
X497810D01*
X496310Y45700D02*
Y48700D01*
X479810Y767200D02*
X482810D01*
X481310Y765700D02*
Y768700D01*
X479810Y707200D02*
X482810D01*
X481310Y705700D02*
Y708700D01*
X487310Y692200D02*
X490310D01*
X488810Y690700D02*
Y693700D01*
X487310Y452200D02*
X490310D01*
X488810Y450700D02*
Y453700D01*
X487310Y422200D02*
X490310D01*
X488810Y420700D02*
Y423700D01*
X479810Y407200D02*
X482810D01*
X481310Y405700D02*
Y408700D01*
X487310Y362200D02*
X490310D01*
X488810Y360700D02*
Y363700D01*
X479810Y347200D02*
X482810D01*
X481310Y345700D02*
Y348700D01*
X487310Y302200D02*
X490310D01*
X488810Y300700D02*
Y303700D01*
X479810Y287200D02*
X482810D01*
X481310Y285700D02*
Y288700D01*
X487310Y152200D02*
X490310D01*
X488810Y150700D02*
Y153700D01*
X487310Y122200D02*
X490310D01*
X488810Y120700D02*
Y123700D01*
X487310Y92200D02*
X490310D01*
X488810Y90700D02*
Y93700D01*
X479810Y77200D02*
X482810D01*
X481310Y75700D02*
Y78700D01*
X479810Y47200D02*
X482810D01*
X481310Y45700D02*
Y48700D01*
X472310Y722200D02*
X475310D01*
X473810Y720700D02*
Y723700D01*
X464810Y647200D02*
X467810D01*
X466310Y645700D02*
Y648700D01*
X464810Y617200D02*
X467810D01*
X466310Y615700D02*
Y618700D01*
X464810Y557200D02*
X467810D01*
X466310Y555700D02*
Y558700D01*
X464810Y527200D02*
X467810D01*
X466310Y525700D02*
Y528700D01*
X464810Y497200D02*
X467810D01*
X466310Y495700D02*
Y498700D01*
X472310Y452200D02*
X475310D01*
X473810Y450700D02*
Y453700D01*
X472310Y422200D02*
X475310D01*
X473810Y420700D02*
Y423700D01*
X464810Y407200D02*
X467810D01*
X466310Y405700D02*
Y408700D01*
X472310Y362200D02*
X475310D01*
X473810Y360700D02*
Y363700D01*
X464810Y347200D02*
X467810D01*
X466310Y345700D02*
Y348700D01*
X472310Y302200D02*
X475310D01*
X473810Y300700D02*
Y303700D01*
X464810Y287200D02*
X467810D01*
X466310Y285700D02*
Y288700D01*
X472310Y152200D02*
X475310D01*
X473810Y150700D02*
Y153700D01*
X464810Y107200D02*
X467810D01*
X466310Y105700D02*
Y108700D01*
X472310Y92200D02*
X475310D01*
X473810Y90700D02*
Y93700D01*
X464810Y77200D02*
X467810D01*
X466310Y75700D02*
Y78700D01*
X464810Y47200D02*
X467810D01*
X466310Y45700D02*
Y48700D01*
X449810Y887200D02*
X452810D01*
X451310Y885700D02*
Y888700D01*
X457310Y722200D02*
X460310D01*
X458810Y720700D02*
Y723700D01*
X449810Y677200D02*
X452810D01*
X451310Y675700D02*
Y678700D01*
X457310Y632200D02*
X460310D01*
X458810Y630700D02*
Y633700D01*
X449810Y617200D02*
X452810D01*
X451310Y615700D02*
Y618700D01*
X457310Y602200D02*
X460310D01*
X458810Y600700D02*
Y603700D01*
X457310Y572200D02*
X460310D01*
X458810Y570700D02*
Y573700D01*
X449810Y557200D02*
X452810D01*
X451310Y555700D02*
Y558700D01*
X457310Y542200D02*
X460310D01*
X458810Y540700D02*
Y543700D01*
X449810Y527200D02*
X452810D01*
X451310Y525700D02*
Y528700D01*
X457310Y512200D02*
X460310D01*
X458810Y510700D02*
Y513700D01*
X449810Y497200D02*
X452810D01*
X451310Y495700D02*
Y498700D01*
X457310Y452200D02*
X460310D01*
X458810Y450700D02*
Y453700D01*
X457310Y422200D02*
X460310D01*
X458810Y420700D02*
Y423700D01*
X449810Y407200D02*
X452810D01*
X451310Y405700D02*
Y408700D01*
X457310Y392200D02*
X460310D01*
X458810Y390700D02*
Y393700D01*
X449810Y377200D02*
X452810D01*
X451310Y375700D02*
Y378700D01*
X457310Y302200D02*
X460310D01*
X458810Y300700D02*
Y303700D01*
X457310Y152200D02*
X460310D01*
X458810Y150700D02*
Y153700D01*
X449810Y137200D02*
X452810D01*
X451310Y135700D02*
Y138700D01*
X449810Y107200D02*
X452810D01*
X451310Y105700D02*
Y108700D01*
X457310Y92200D02*
X460310D01*
X458810Y90700D02*
Y93700D01*
X449810Y77200D02*
X452810D01*
X451310Y75700D02*
Y78700D01*
X449810Y47200D02*
X452810D01*
X451310Y45700D02*
Y48700D01*
X442310Y902200D02*
X445310D01*
X443810Y900700D02*
Y903700D01*
X434810Y887200D02*
X437810D01*
X436310Y885700D02*
Y888700D01*
X442310Y812200D02*
X445310D01*
X443810Y810700D02*
Y813700D01*
X442310Y692200D02*
X445310D01*
X443810Y690700D02*
Y693700D01*
X434810Y677200D02*
X437810D01*
X436310Y675700D02*
Y678700D01*
X442310Y632200D02*
X445310D01*
X443810Y630700D02*
Y633700D01*
X434810Y617200D02*
X437810D01*
X436310Y615700D02*
Y618700D01*
X442310Y602200D02*
X445310D01*
X443810Y600700D02*
Y603700D01*
X442310Y572200D02*
X445310D01*
X443810Y570700D02*
Y573700D01*
X434810Y557200D02*
X437810D01*
X436310Y555700D02*
Y558700D01*
X442310Y542200D02*
X445310D01*
X443810Y540700D02*
Y543700D01*
X434810Y527200D02*
X437810D01*
X436310Y525700D02*
Y528700D01*
X442310Y512200D02*
X445310D01*
X443810Y510700D02*
Y513700D01*
X442310Y452200D02*
X445310D01*
X443810Y450700D02*
Y453700D01*
X442310Y422200D02*
X445310D01*
X443810Y420700D02*
Y423700D01*
X434810Y407200D02*
X437810D01*
X436310Y405700D02*
Y408700D01*
X442310Y392200D02*
X445310D01*
X443810Y390700D02*
Y393700D01*
X442310Y152200D02*
X445310D01*
X443810Y150700D02*
Y153700D01*
X434810Y107200D02*
X437810D01*
X436310Y105700D02*
Y108700D01*
X442310Y92200D02*
X445310D01*
X443810Y90700D02*
Y93700D01*
X434810Y77200D02*
X437810D01*
X436310Y75700D02*
Y78700D01*
X434810Y47200D02*
X437810D01*
X436310Y45700D02*
Y48700D01*
X419810Y887200D02*
X422810D01*
X421310Y885700D02*
Y888700D01*
X419810Y767200D02*
X422810D01*
X421310Y765700D02*
Y768700D01*
X427310Y692200D02*
X430310D01*
X428810Y690700D02*
Y693700D01*
X419810Y677200D02*
X422810D01*
X421310Y675700D02*
Y678700D01*
X427310Y632200D02*
X430310D01*
X428810Y630700D02*
Y633700D01*
X419810Y617200D02*
X422810D01*
X421310Y615700D02*
Y618700D01*
X427310Y602200D02*
X430310D01*
X428810Y600700D02*
Y603700D01*
X427310Y572200D02*
X430310D01*
X428810Y570700D02*
Y573700D01*
X419810Y557200D02*
X422810D01*
X421310Y555700D02*
Y558700D01*
X427310Y542200D02*
X430310D01*
X428810Y540700D02*
Y543700D01*
X427310Y452200D02*
X430310D01*
X428810Y450700D02*
Y453700D01*
X419810Y437200D02*
X422810D01*
X421310Y435700D02*
Y438700D01*
X427310Y362200D02*
X430310D01*
X428810Y360700D02*
Y363700D01*
X419810Y347200D02*
X422810D01*
X421310Y345700D02*
Y348700D01*
X419810Y107200D02*
X422810D01*
X421310Y105700D02*
Y108700D01*
X427310Y92200D02*
X430310D01*
X428810Y90700D02*
Y93700D01*
X419810Y77200D02*
X422810D01*
X421310Y75700D02*
Y78700D01*
X412310Y812200D02*
X415310D01*
X413810Y810700D02*
Y813700D01*
X412310Y782200D02*
X415310D01*
X413810Y780700D02*
Y783700D01*
X404810Y767200D02*
X407810D01*
X406310Y765700D02*
Y768700D01*
X412310Y692200D02*
X415310D01*
X413810Y690700D02*
Y693700D01*
X404810Y677200D02*
X407810D01*
X406310Y675700D02*
Y678700D01*
X412310Y572200D02*
X415310D01*
X413810Y570700D02*
Y573700D01*
X404810Y557200D02*
X407810D01*
X406310Y555700D02*
Y558700D01*
X412310Y542200D02*
X415310D01*
X413810Y540700D02*
Y543700D01*
X412310Y452200D02*
X415310D01*
X413810Y450700D02*
Y453700D01*
X404810Y437200D02*
X407810D01*
X406310Y435700D02*
Y438700D01*
X412310Y422200D02*
X415310D01*
X413810Y420700D02*
Y423700D01*
X404810Y347200D02*
X407810D01*
X406310Y345700D02*
Y348700D01*
X412310Y152200D02*
X415310D01*
X413810Y150700D02*
Y153700D01*
X404810Y107200D02*
X407810D01*
X406310Y105700D02*
Y108700D01*
X412310Y92200D02*
X415310D01*
X413810Y90700D02*
Y93700D01*
X404810Y77200D02*
X407810D01*
X406310Y75700D02*
Y78700D01*
X404810Y47200D02*
X407810D01*
X406310Y45700D02*
Y48700D01*
X397310Y782200D02*
X400310D01*
X398810Y780700D02*
Y783700D01*
X397310Y692200D02*
X400310D01*
X398810Y690700D02*
Y693700D01*
X397310Y662200D02*
X400310D01*
X398810Y660700D02*
Y663700D01*
X389810Y587200D02*
X392810D01*
X391310Y585700D02*
Y588700D01*
X397310Y572200D02*
X400310D01*
X398810Y570700D02*
Y573700D01*
X389810Y557200D02*
X392810D01*
X391310Y555700D02*
Y558700D01*
X397310Y542200D02*
X400310D01*
X398810Y540700D02*
Y543700D01*
X397310Y452200D02*
X400310D01*
X398810Y450700D02*
Y453700D01*
X389810Y407200D02*
X392810D01*
X391310Y405700D02*
Y408700D01*
X397310Y152200D02*
X400310D01*
X398810Y150700D02*
Y153700D01*
X389810Y107200D02*
X392810D01*
X391310Y105700D02*
Y108700D01*
X397310Y92200D02*
X400310D01*
X398810Y90700D02*
Y93700D01*
X374810Y887200D02*
X377810D01*
X376310Y885700D02*
Y888700D01*
X382310Y782200D02*
X385310D01*
X383810Y780700D02*
Y783700D01*
X374810Y647200D02*
X377810D01*
X376310Y645700D02*
Y648700D01*
X382310Y572200D02*
X385310D01*
X383810Y570700D02*
Y573700D01*
X374810Y557200D02*
X377810D01*
X376310Y555700D02*
Y558700D01*
X382310Y542200D02*
X385310D01*
X383810Y540700D02*
Y543700D01*
X374810Y527200D02*
X377810D01*
X376310Y525700D02*
Y528700D01*
X382310Y452200D02*
X385310D01*
X383810Y450700D02*
Y453700D01*
X374810Y407200D02*
X377810D01*
X376310Y405700D02*
Y408700D01*
X382310Y392200D02*
X385310D01*
X383810Y390700D02*
Y393700D01*
X382310Y362200D02*
X385310D01*
X383810Y360700D02*
Y363700D01*
X382310Y152200D02*
X385310D01*
X383810Y150700D02*
Y153700D01*
X374810Y107200D02*
X377810D01*
X376310Y105700D02*
Y108700D01*
X367310Y962200D02*
X370310D01*
X368810Y960700D02*
Y963700D01*
X359810Y887200D02*
X362810D01*
X361310Y885700D02*
Y888700D01*
X367310Y842200D02*
X370310D01*
X368810Y840700D02*
Y843700D01*
X359810Y827200D02*
X362810D01*
X361310Y825700D02*
Y828700D01*
X367310Y782200D02*
X370310D01*
X368810Y780700D02*
Y783700D01*
X367310Y752200D02*
X370310D01*
X368810Y750700D02*
Y753700D01*
X367310Y662200D02*
X370310D01*
X368810Y660700D02*
Y663700D01*
X359810Y647200D02*
X362810D01*
X361310Y645700D02*
Y648700D01*
X367310Y632200D02*
X370310D01*
X368810Y630700D02*
Y633700D01*
X359810Y557200D02*
X362810D01*
X361310Y555700D02*
Y558700D01*
X367310Y542200D02*
X370310D01*
X368810Y540700D02*
Y543700D01*
X359810Y527200D02*
X362810D01*
X361310Y525700D02*
Y528700D01*
X367310Y512200D02*
X370310D01*
X368810Y510700D02*
Y513700D01*
X359810Y497200D02*
X362810D01*
X361310Y495700D02*
Y498700D01*
X367310Y482200D02*
X370310D01*
X368810Y480700D02*
Y483700D01*
X367310Y422200D02*
X370310D01*
X368810Y420700D02*
Y423700D01*
X359810Y407200D02*
X362810D01*
X361310Y405700D02*
Y408700D01*
X367310Y392200D02*
X370310D01*
X368810Y390700D02*
Y393700D01*
X359810Y347200D02*
X362810D01*
X361310Y345700D02*
Y348700D01*
X367310Y152200D02*
X370310D01*
X368810Y150700D02*
Y153700D01*
X359810Y137200D02*
X362810D01*
X361310Y135700D02*
Y138700D01*
X367310Y122200D02*
X370310D01*
X368810Y120700D02*
Y123700D01*
X359810Y107200D02*
X362810D01*
X361310Y105700D02*
Y108700D01*
X344810Y947200D02*
X347810D01*
X346310Y945700D02*
Y948700D01*
X352310Y932200D02*
X355310D01*
X353810Y930700D02*
Y933700D01*
X352310Y902200D02*
X355310D01*
X353810Y900700D02*
Y903700D01*
X344810Y887200D02*
X347810D01*
X346310Y885700D02*
Y888700D01*
X352310Y812200D02*
X355310D01*
X353810Y810700D02*
Y813700D01*
X352310Y782200D02*
X355310D01*
X353810Y780700D02*
Y783700D01*
X352310Y662200D02*
X355310D01*
X353810Y660700D02*
Y663700D01*
X344810Y557200D02*
X347810D01*
X346310Y555700D02*
Y558700D01*
X344810Y497200D02*
X347810D01*
X346310Y495700D02*
Y498700D01*
X344810Y437200D02*
X347810D01*
X346310Y435700D02*
Y438700D01*
X352310Y422200D02*
X355310D01*
X353810Y420700D02*
Y423700D01*
X344810Y347200D02*
X347810D01*
X346310Y345700D02*
Y348700D01*
X352310Y152200D02*
X355310D01*
X353810Y150700D02*
Y153700D01*
X352310Y122200D02*
X355310D01*
X353810Y120700D02*
Y123700D01*
X344810Y107200D02*
X347810D01*
X346310Y105700D02*
Y108700D01*
X329810Y827200D02*
X332810D01*
X331310Y825700D02*
Y828700D01*
X337310Y812200D02*
X340310D01*
X338810Y810700D02*
Y813700D01*
X337310Y782200D02*
X340310D01*
X338810Y780700D02*
Y783700D01*
X329810Y557200D02*
X332810D01*
X331310Y555700D02*
Y558700D01*
X329810Y527200D02*
X332810D01*
X331310Y525700D02*
Y528700D01*
X329810Y467200D02*
X332810D01*
X331310Y465700D02*
Y468700D01*
X329810Y437200D02*
X332810D01*
X331310Y435700D02*
Y438700D01*
X337310Y422200D02*
X340310D01*
X338810Y420700D02*
Y423700D01*
X329810Y407200D02*
X332810D01*
X331310Y405700D02*
Y408700D01*
X329810Y347200D02*
X332810D01*
X331310Y345700D02*
Y348700D01*
X337310Y302200D02*
X340310D01*
X338810Y300700D02*
Y303700D01*
X337310Y152200D02*
X340310D01*
X338810Y150700D02*
Y153700D01*
X329810Y107200D02*
X332810D01*
X331310Y105700D02*
Y108700D01*
X322310Y902200D02*
X325310D01*
X323810Y900700D02*
Y903700D01*
X314810Y887200D02*
X317810D01*
X316310Y885700D02*
Y888700D01*
X322310Y872200D02*
X325310D01*
X323810Y870700D02*
Y873700D01*
X322310Y782200D02*
X325310D01*
X323810Y780700D02*
Y783700D01*
X322310Y662200D02*
X325310D01*
X323810Y660700D02*
Y663700D01*
X314810Y647200D02*
X317810D01*
X316310Y645700D02*
Y648700D01*
X322310Y632200D02*
X325310D01*
X323810Y630700D02*
Y633700D01*
X314810Y617200D02*
X317810D01*
X316310Y615700D02*
Y618700D01*
X314810Y557200D02*
X317810D01*
X316310Y555700D02*
Y558700D01*
X322310Y542200D02*
X325310D01*
X323810Y540700D02*
Y543700D01*
X314810Y527200D02*
X317810D01*
X316310Y525700D02*
Y528700D01*
X322310Y512200D02*
X325310D01*
X323810Y510700D02*
Y513700D01*
X314810Y437200D02*
X317810D01*
X316310Y435700D02*
Y438700D01*
X322310Y422200D02*
X325310D01*
X323810Y420700D02*
Y423700D01*
X314810Y407200D02*
X317810D01*
X316310Y405700D02*
Y408700D01*
X322310Y392200D02*
X325310D01*
X323810Y390700D02*
Y393700D01*
X314810Y137200D02*
X317810D01*
X316310Y135700D02*
Y138700D01*
X322310Y122200D02*
X325310D01*
X323810Y120700D02*
Y123700D01*
X314810Y107200D02*
X317810D01*
X316310Y105700D02*
Y108700D01*
X314810Y77200D02*
X317810D01*
X316310Y75700D02*
Y78700D01*
X322310Y62200D02*
X325310D01*
X323810Y60700D02*
Y63700D01*
X314810Y47200D02*
X317810D01*
X316310Y45700D02*
Y48700D01*
X322310Y32200D02*
X325310D01*
X323810Y30700D02*
Y33700D01*
X307310Y962200D02*
X310310D01*
X308810Y960700D02*
Y963700D01*
X299810Y887200D02*
X302810D01*
X301310Y885700D02*
Y888700D01*
X307310Y872200D02*
X310310D01*
X308810Y870700D02*
Y873700D01*
X307310Y842200D02*
X310310D01*
X308810Y840700D02*
Y843700D01*
X299810Y797200D02*
X302810D01*
X301310Y795700D02*
Y798700D01*
X307310Y782200D02*
X310310D01*
X308810Y780700D02*
Y783700D01*
X307310Y722200D02*
X310310D01*
X308810Y720700D02*
Y723700D01*
X299810Y587200D02*
X302810D01*
X301310Y585700D02*
Y588700D01*
X299810Y557200D02*
X302810D01*
X301310Y555700D02*
Y558700D01*
X307310Y542200D02*
X310310D01*
X308810Y540700D02*
Y543700D01*
X307310Y452200D02*
X310310D01*
X308810Y450700D02*
Y453700D01*
X299810Y437200D02*
X302810D01*
X301310Y435700D02*
Y438700D01*
X307310Y422200D02*
X310310D01*
X308810Y420700D02*
Y423700D01*
X299810Y407200D02*
X302810D01*
X301310Y405700D02*
Y408700D01*
X307310Y392200D02*
X310310D01*
X308810Y390700D02*
Y393700D01*
X307310Y152200D02*
X310310D01*
X308810Y150700D02*
Y153700D01*
X307310Y122200D02*
X310310D01*
X308810Y120700D02*
Y123700D01*
X299810Y107200D02*
X302810D01*
X301310Y105700D02*
Y108700D01*
X299810Y77200D02*
X302810D01*
X301310Y75700D02*
Y78700D01*
X307310Y62200D02*
X310310D01*
X308810Y60700D02*
Y63700D01*
X299810Y47200D02*
X302810D01*
X301310Y45700D02*
Y48700D01*
X307310Y32200D02*
X310310D01*
X308810Y30700D02*
Y33700D01*
X284810Y947200D02*
X287810D01*
X286310Y945700D02*
Y948700D01*
X292310Y902200D02*
X295310D01*
X293810Y900700D02*
Y903700D01*
X284810Y887200D02*
X287810D01*
X286310Y885700D02*
Y888700D01*
X284810Y827200D02*
X287810D01*
X286310Y825700D02*
Y828700D01*
X284810Y797200D02*
X287810D01*
X286310Y795700D02*
Y798700D01*
X292310Y782200D02*
X295310D01*
X293810Y780700D02*
Y783700D01*
X292310Y572200D02*
X295310D01*
X293810Y570700D02*
Y573700D01*
X292310Y542200D02*
X295310D01*
X293810Y540700D02*
Y543700D01*
X292310Y122200D02*
X295310D01*
X293810Y120700D02*
Y123700D01*
X284810Y107200D02*
X287810D01*
X286310Y105700D02*
Y108700D01*
X284810Y77200D02*
X287810D01*
X286310Y75700D02*
Y78700D01*
X292310Y62200D02*
X295310D01*
X293810Y60700D02*
Y63700D01*
X284810Y47200D02*
X287810D01*
X286310Y45700D02*
Y48700D01*
X292310Y32200D02*
X295310D01*
X293810Y30700D02*
Y33700D01*
X269810Y947200D02*
X272810D01*
X271310Y945700D02*
Y948700D01*
X277310Y932200D02*
X280310D01*
X278810Y930700D02*
Y933700D01*
X277310Y902200D02*
X280310D01*
X278810Y900700D02*
Y903700D01*
X269810Y887200D02*
X272810D01*
X271310Y885700D02*
Y888700D01*
X277310Y812200D02*
X280310D01*
X278810Y810700D02*
Y813700D01*
X269810Y797200D02*
X272810D01*
X271310Y795700D02*
Y798700D01*
X277310Y782200D02*
X280310D01*
X278810Y780700D02*
Y783700D01*
X269810Y647200D02*
X272810D01*
X271310Y645700D02*
Y648700D01*
X277310Y572200D02*
X280310D01*
X278810Y570700D02*
Y573700D01*
X269810Y347200D02*
X272810D01*
X271310Y345700D02*
Y348700D01*
X277310Y302200D02*
X280310D01*
X278810Y300700D02*
Y303700D01*
X277310Y212200D02*
X280310D01*
X278810Y210700D02*
Y213700D01*
X277310Y122200D02*
X280310D01*
X278810Y120700D02*
Y123700D01*
X269810Y107200D02*
X272810D01*
X271310Y105700D02*
Y108700D01*
X269810Y77200D02*
X272810D01*
X271310Y75700D02*
Y78700D01*
X277310Y62200D02*
X280310D01*
X278810Y60700D02*
Y63700D01*
X269810Y17200D02*
X272810D01*
X271310Y15700D02*
Y18700D01*
X262310Y902200D02*
X265310D01*
X263810Y900700D02*
Y903700D01*
X254810Y887200D02*
X257810D01*
X256310Y885700D02*
Y888700D01*
X262310Y782200D02*
X265310D01*
X263810Y780700D02*
Y783700D01*
X262310Y752200D02*
X265310D01*
X263810Y750700D02*
Y753700D01*
X262310Y602200D02*
X265310D01*
X263810Y600700D02*
Y603700D01*
X254810Y347200D02*
X257810D01*
X256310Y345700D02*
Y348700D01*
X262310Y122200D02*
X265310D01*
X263810Y120700D02*
Y123700D01*
X254810Y107200D02*
X257810D01*
X256310Y105700D02*
Y108700D01*
X254810Y77200D02*
X257810D01*
X256310Y75700D02*
Y78700D01*
X262310Y62200D02*
X265310D01*
X263810Y60700D02*
Y63700D01*
X254810Y17200D02*
X257810D01*
X256310Y15700D02*
Y18700D01*
X239810Y887200D02*
X242810D01*
X241310Y885700D02*
Y888700D01*
X247310Y872200D02*
X250310D01*
X248810Y870700D02*
Y873700D01*
X247310Y752200D02*
X250310D01*
X248810Y750700D02*
Y753700D01*
X247310Y482200D02*
X250310D01*
X248810Y480700D02*
Y483700D01*
X239810Y407200D02*
X242810D01*
X241310Y405700D02*
Y408700D01*
X247310Y392200D02*
X250310D01*
X248810Y390700D02*
Y393700D01*
X239810Y377200D02*
X242810D01*
X241310Y375700D02*
Y378700D01*
X239810Y347200D02*
X242810D01*
X241310Y345700D02*
Y348700D01*
X247310Y212200D02*
X250310D01*
X248810Y210700D02*
Y213700D01*
X247310Y122200D02*
X250310D01*
X248810Y120700D02*
Y123700D01*
X239810Y107200D02*
X242810D01*
X241310Y105700D02*
Y108700D01*
X239810Y77200D02*
X242810D01*
X241310Y75700D02*
Y78700D01*
X247310Y32200D02*
X250310D01*
X248810Y30700D02*
Y33700D01*
X239810Y17200D02*
X242810D01*
X241310Y15700D02*
Y18700D01*
X232310Y872200D02*
X235310D01*
X233810Y870700D02*
Y873700D01*
X232310Y752200D02*
X235310D01*
X233810Y750700D02*
Y753700D01*
X224810Y677200D02*
X227810D01*
X226310Y675700D02*
Y678700D01*
X224810Y617200D02*
X227810D01*
X226310Y615700D02*
Y618700D01*
X232310Y602200D02*
X235310D01*
X233810Y600700D02*
Y603700D01*
X232310Y422200D02*
X235310D01*
X233810Y420700D02*
Y423700D01*
X232310Y392200D02*
X235310D01*
X233810Y390700D02*
Y393700D01*
X224810Y377200D02*
X227810D01*
X226310Y375700D02*
Y378700D01*
X224810Y347200D02*
X227810D01*
X226310Y345700D02*
Y348700D01*
X232310Y212200D02*
X235310D01*
X233810Y210700D02*
Y213700D01*
X232310Y122200D02*
X235310D01*
X233810Y120700D02*
Y123700D01*
X224810Y107200D02*
X227810D01*
X226310Y105700D02*
Y108700D01*
X224810Y77200D02*
X227810D01*
X226310Y75700D02*
Y78700D01*
X232310Y32200D02*
X235310D01*
X233810Y30700D02*
Y33700D01*
X224810Y17200D02*
X227810D01*
X226310Y15700D02*
Y18700D01*
X209810Y827200D02*
X212810D01*
X211310Y825700D02*
Y828700D01*
X217310Y752200D02*
X220310D01*
X218810Y750700D02*
Y753700D01*
X209810Y677200D02*
X212810D01*
X211310Y675700D02*
Y678700D01*
X209810Y617200D02*
X212810D01*
X211310Y615700D02*
Y618700D01*
X217310Y602200D02*
X220310D01*
X218810Y600700D02*
Y603700D01*
X209810Y377200D02*
X212810D01*
X211310Y375700D02*
Y378700D01*
X217310Y212200D02*
X220310D01*
X218810Y210700D02*
Y213700D01*
X209810Y137200D02*
X212810D01*
X211310Y135700D02*
Y138700D01*
X217310Y122200D02*
X220310D01*
X218810Y120700D02*
Y123700D01*
X209810Y107200D02*
X212810D01*
X211310Y105700D02*
Y108700D01*
X209810Y77200D02*
X212810D01*
X211310Y75700D02*
Y78700D01*
X217310Y32200D02*
X220310D01*
X218810Y30700D02*
Y33700D01*
X209810Y17200D02*
X212810D01*
X211310Y15700D02*
Y18700D01*
X194810Y887200D02*
X197810D01*
X196310Y885700D02*
Y888700D01*
X202310Y752200D02*
X205310D01*
X203810Y750700D02*
Y753700D01*
X194810Y677200D02*
X197810D01*
X196310Y675700D02*
Y678700D01*
X194810Y617200D02*
X197810D01*
X196310Y615700D02*
Y618700D01*
X202310Y602200D02*
X205310D01*
X203810Y600700D02*
Y603700D01*
X194810Y467200D02*
X197810D01*
X196310Y465700D02*
Y468700D01*
X202310Y452200D02*
X205310D01*
X203810Y450700D02*
Y453700D01*
X194810Y437200D02*
X197810D01*
X196310Y435700D02*
Y438700D01*
X202310Y392200D02*
X205310D01*
X203810Y390700D02*
Y393700D01*
X194810Y377200D02*
X197810D01*
X196310Y375700D02*
Y378700D01*
X202310Y362200D02*
X205310D01*
X203810Y360700D02*
Y363700D01*
X194810Y347200D02*
X197810D01*
X196310Y345700D02*
Y348700D01*
X194810Y317200D02*
X197810D01*
X196310Y315700D02*
Y318700D01*
X202310Y212200D02*
X205310D01*
X203810Y210700D02*
Y213700D01*
X202310Y122200D02*
X205310D01*
X203810Y120700D02*
Y123700D01*
X194810Y107200D02*
X197810D01*
X196310Y105700D02*
Y108700D01*
X194810Y77200D02*
X197810D01*
X196310Y75700D02*
Y78700D01*
X202310Y32200D02*
X205310D01*
X203810Y30700D02*
Y33700D01*
X194810Y17200D02*
X197810D01*
X196310Y15700D02*
Y18700D01*
X187310Y962200D02*
X190310D01*
X188810Y960700D02*
Y963700D01*
X187310Y932200D02*
X190310D01*
X188810Y930700D02*
Y933700D01*
X187310Y902200D02*
X190310D01*
X188810Y900700D02*
Y903700D01*
X179810Y887200D02*
X182810D01*
X181310Y885700D02*
Y888700D01*
X179810Y707200D02*
X182810D01*
X181310Y705700D02*
Y708700D01*
X179810Y677200D02*
X182810D01*
X181310Y675700D02*
Y678700D01*
X179810Y617200D02*
X182810D01*
X181310Y615700D02*
Y618700D01*
X187310Y602200D02*
X190310D01*
X188810Y600700D02*
Y603700D01*
X179810Y467200D02*
X182810D01*
X181310Y465700D02*
Y468700D01*
X187310Y452200D02*
X190310D01*
X188810Y450700D02*
Y453700D01*
X187310Y392200D02*
X190310D01*
X188810Y390700D02*
Y393700D01*
X179810Y377200D02*
X182810D01*
X181310Y375700D02*
Y378700D01*
X187310Y362200D02*
X190310D01*
X188810Y360700D02*
Y363700D01*
X179810Y347200D02*
X182810D01*
X181310Y345700D02*
Y348700D01*
X187310Y302200D02*
X190310D01*
X188810Y300700D02*
Y303700D01*
X179810Y287200D02*
X182810D01*
X181310Y285700D02*
Y288700D01*
X179810Y227200D02*
X182810D01*
X181310Y225700D02*
Y228700D01*
X187310Y122200D02*
X190310D01*
X188810Y120700D02*
Y123700D01*
X179810Y107200D02*
X182810D01*
X181310Y105700D02*
Y108700D01*
X179810Y77200D02*
X182810D01*
X181310Y75700D02*
Y78700D01*
X187310Y32200D02*
X190310D01*
X188810Y30700D02*
Y33700D01*
X179810Y17200D02*
X182810D01*
X181310Y15700D02*
Y18700D01*
X172310Y962200D02*
X175310D01*
X173810Y960700D02*
Y963700D01*
X172310Y782200D02*
X175310D01*
X173810Y780700D02*
Y783700D01*
X164810Y707200D02*
X167810D01*
X166310Y705700D02*
Y708700D01*
X164810Y677200D02*
X167810D01*
X166310Y675700D02*
Y678700D01*
X172310Y662200D02*
X175310D01*
X173810Y660700D02*
Y663700D01*
X164810Y647200D02*
X167810D01*
X166310Y645700D02*
Y648700D01*
X172310Y632200D02*
X175310D01*
X173810Y630700D02*
Y633700D01*
X172310Y602200D02*
X175310D01*
X173810Y600700D02*
Y603700D01*
X164810Y467200D02*
X167810D01*
X166310Y465700D02*
Y468700D01*
X172310Y452200D02*
X175310D01*
X173810Y450700D02*
Y453700D01*
X172310Y392200D02*
X175310D01*
X173810Y390700D02*
Y393700D01*
X164810Y377200D02*
X167810D01*
X166310Y375700D02*
Y378700D01*
X172310Y362200D02*
X175310D01*
X173810Y360700D02*
Y363700D01*
X164810Y347200D02*
X167810D01*
X166310Y345700D02*
Y348700D01*
X172310Y332200D02*
X175310D01*
X173810Y330700D02*
Y333700D01*
X164810Y317200D02*
X167810D01*
X166310Y315700D02*
Y318700D01*
X164810Y287200D02*
X167810D01*
X166310Y285700D02*
Y288700D01*
X164810Y77200D02*
X167810D01*
X166310Y75700D02*
Y78700D01*
X172310Y32200D02*
X175310D01*
X173810Y30700D02*
Y33700D01*
X164810Y17200D02*
X167810D01*
X166310Y15700D02*
Y18700D01*
X157310Y962200D02*
X160310D01*
X158810Y960700D02*
Y963700D01*
X149810Y947200D02*
X152810D01*
X151310Y945700D02*
Y948700D01*
X149810Y887200D02*
X152810D01*
X151310Y885700D02*
Y888700D01*
X157310Y722200D02*
X160310D01*
X158810Y720700D02*
Y723700D01*
X149810Y677200D02*
X152810D01*
X151310Y675700D02*
Y678700D01*
X157310Y662200D02*
X160310D01*
X158810Y660700D02*
Y663700D01*
X149810Y647200D02*
X152810D01*
X151310Y645700D02*
Y648700D01*
X157310Y632200D02*
X160310D01*
X158810Y630700D02*
Y633700D01*
X157310Y602200D02*
X160310D01*
X158810Y600700D02*
Y603700D01*
X149810Y467200D02*
X152810D01*
X151310Y465700D02*
Y468700D01*
X157310Y452200D02*
X160310D01*
X158810Y450700D02*
Y453700D01*
X157310Y392200D02*
X160310D01*
X158810Y390700D02*
Y393700D01*
X157310Y362200D02*
X160310D01*
X158810Y360700D02*
Y363700D01*
X157310Y332200D02*
X160310D01*
X158810Y330700D02*
Y333700D01*
X149810Y227200D02*
X152810D01*
X151310Y225700D02*
Y228700D01*
X149810Y77200D02*
X152810D01*
X151310Y75700D02*
Y78700D01*
X157310Y32200D02*
X160310D01*
X158810Y30700D02*
Y33700D01*
X149810Y17200D02*
X152810D01*
X151310Y15700D02*
Y18700D01*
X142310Y962200D02*
X145310D01*
X143810Y960700D02*
Y963700D01*
X134810Y947200D02*
X137810D01*
X136310Y945700D02*
Y948700D01*
X142310Y932200D02*
X145310D01*
X143810Y930700D02*
Y933700D01*
X142310Y812200D02*
X145310D01*
X143810Y810700D02*
Y813700D01*
X134810Y767200D02*
X137810D01*
X136310Y765700D02*
Y768700D01*
X134810Y707200D02*
X137810D01*
X136310Y705700D02*
Y708700D01*
X142310Y692200D02*
X145310D01*
X143810Y690700D02*
Y693700D01*
X134810Y677200D02*
X137810D01*
X136310Y675700D02*
Y678700D01*
X142310Y662200D02*
X145310D01*
X143810Y660700D02*
Y663700D01*
X134810Y647200D02*
X137810D01*
X136310Y645700D02*
Y648700D01*
X142310Y632200D02*
X145310D01*
X143810Y630700D02*
Y633700D01*
X142310Y602200D02*
X145310D01*
X143810Y600700D02*
Y603700D01*
X134810Y467200D02*
X137810D01*
X136310Y465700D02*
Y468700D01*
X142310Y452200D02*
X145310D01*
X143810Y450700D02*
Y453700D01*
X134810Y287200D02*
X137810D01*
X136310Y285700D02*
Y288700D01*
X134810Y227200D02*
X137810D01*
X136310Y225700D02*
Y228700D01*
X134810Y77200D02*
X137810D01*
X136310Y75700D02*
Y78700D01*
X142310Y32200D02*
X145310D01*
X143810Y30700D02*
Y33700D01*
X134810Y17200D02*
X137810D01*
X136310Y15700D02*
Y18700D01*
X127310Y962200D02*
X130310D01*
X128810Y960700D02*
Y963700D01*
X127310Y812200D02*
X130310D01*
X128810Y810700D02*
Y813700D01*
X119810Y767200D02*
X122810D01*
X121310Y765700D02*
Y768700D01*
X127310Y692200D02*
X130310D01*
X128810Y690700D02*
Y693700D01*
X127310Y632200D02*
X130310D01*
X128810Y630700D02*
Y633700D01*
X127310Y602200D02*
X130310D01*
X128810Y600700D02*
Y603700D01*
X127310Y392200D02*
X130310D01*
X128810Y390700D02*
Y393700D01*
X119810Y377200D02*
X122810D01*
X121310Y375700D02*
Y378700D01*
X127310Y362200D02*
X130310D01*
X128810Y360700D02*
Y363700D01*
X119810Y317200D02*
X122810D01*
X121310Y315700D02*
Y318700D01*
X119810Y77200D02*
X122810D01*
X121310Y75700D02*
Y78700D01*
X127310Y32200D02*
X130310D01*
X128810Y30700D02*
Y33700D01*
X119810Y17200D02*
X122810D01*
X121310Y15700D02*
Y18700D01*
X104810Y767200D02*
X107810D01*
X106310Y765700D02*
Y768700D01*
X104810Y557200D02*
X107810D01*
X106310Y555700D02*
Y558700D01*
X104810Y527200D02*
X107810D01*
X106310Y525700D02*
Y528700D01*
X112310Y392200D02*
X115310D01*
X113810Y390700D02*
Y393700D01*
X104810Y377200D02*
X107810D01*
X106310Y375700D02*
Y378700D01*
X112310Y362200D02*
X115310D01*
X113810Y360700D02*
Y363700D01*
X104810Y317200D02*
X107810D01*
X106310Y315700D02*
Y318700D01*
X104810Y77200D02*
X107810D01*
X106310Y75700D02*
Y78700D01*
X112310Y32200D02*
X115310D01*
X113810Y30700D02*
Y33700D01*
X104810Y17200D02*
X107810D01*
X106310Y15700D02*
Y18700D01*
X97310Y962200D02*
X100310D01*
X98810Y960700D02*
Y963700D01*
X89810Y947200D02*
X92810D01*
X91310Y945700D02*
Y948700D01*
X89810Y827200D02*
X92810D01*
X91310Y825700D02*
Y828700D01*
X97310Y812200D02*
X100310D01*
X98810Y810700D02*
Y813700D01*
X97310Y752200D02*
X100310D01*
X98810Y750700D02*
Y753700D01*
X97310Y692200D02*
X100310D01*
X98810Y690700D02*
Y693700D01*
X89810Y647200D02*
X92810D01*
X91310Y645700D02*
Y648700D01*
X89810Y587200D02*
X92810D01*
X91310Y585700D02*
Y588700D01*
X97310Y542200D02*
X100310D01*
X98810Y540700D02*
Y543700D01*
X97310Y392200D02*
X100310D01*
X98810Y390700D02*
Y393700D01*
X97310Y362200D02*
X100310D01*
X98810Y360700D02*
Y363700D01*
X97310Y302200D02*
X100310D01*
X98810Y300700D02*
Y303700D01*
X89810Y287200D02*
X92810D01*
X91310Y285700D02*
Y288700D01*
X89810Y227200D02*
X92810D01*
X91310Y225700D02*
Y228700D01*
X89810Y137200D02*
X92810D01*
X91310Y135700D02*
Y138700D01*
X97310Y62200D02*
X100310D01*
X98810Y60700D02*
Y63700D01*
X89810Y47200D02*
X92810D01*
X91310Y45700D02*
Y48700D01*
X97310Y32200D02*
X100310D01*
X98810Y30700D02*
Y33700D01*
X89810Y17200D02*
X92810D01*
X91310Y15700D02*
Y18700D01*
X82310Y962200D02*
X85310D01*
X83810Y960700D02*
Y963700D01*
X74810Y947200D02*
X77810D01*
X76310Y945700D02*
Y948700D01*
X82310Y902200D02*
X85310D01*
X83810Y900700D02*
Y903700D01*
X82310Y782200D02*
X85310D01*
X83810Y780700D02*
Y783700D01*
X82310Y632200D02*
X85310D01*
X83810Y630700D02*
Y633700D01*
X74810Y587200D02*
X77810D01*
X76310Y585700D02*
Y588700D01*
X74810Y137200D02*
X77810D01*
X76310Y135700D02*
Y138700D01*
X74810Y47200D02*
X77810D01*
X76310Y45700D02*
Y48700D01*
X82310Y32200D02*
X85310D01*
X83810Y30700D02*
Y33700D01*
X74810Y17200D02*
X77810D01*
X76310Y15700D02*
Y18700D01*
X67310Y962200D02*
X70310D01*
X68810Y960700D02*
Y963700D01*
X59810Y947200D02*
X62810D01*
X61310Y945700D02*
Y948700D01*
X67310Y902200D02*
X70310D01*
X68810Y900700D02*
Y903700D01*
X59810Y857200D02*
X62810D01*
X61310Y855700D02*
Y858700D01*
X59810Y827200D02*
X62810D01*
X61310Y825700D02*
Y828700D01*
X67310Y782200D02*
X70310D01*
X68810Y780700D02*
Y783700D01*
X59810Y737200D02*
X62810D01*
X61310Y735700D02*
Y738700D01*
X59810Y707200D02*
X62810D01*
X61310Y705700D02*
Y708700D01*
X59810Y137200D02*
X62810D01*
X61310Y135700D02*
Y138700D01*
X59810Y47200D02*
X62810D01*
X61310Y45700D02*
Y48700D01*
X67310Y32200D02*
X70310D01*
X68810Y30700D02*
Y33700D01*
X59810Y17200D02*
X62810D01*
X61310Y15700D02*
Y18700D01*
X44810Y977200D02*
X47810D01*
X46310Y975700D02*
Y978700D01*
X52310Y932200D02*
X55310D01*
X53810Y930700D02*
Y933700D01*
X52310Y902200D02*
X55310D01*
X53810Y900700D02*
Y903700D01*
X52310Y842200D02*
X55310D01*
X53810Y840700D02*
Y843700D01*
X52310Y812200D02*
X55310D01*
X53810Y810700D02*
Y813700D01*
X44810Y797200D02*
X47810D01*
X46310Y795700D02*
Y798700D01*
X52310Y782200D02*
X55310D01*
X53810Y780700D02*
Y783700D01*
X44810Y767200D02*
X47810D01*
X46310Y765700D02*
Y768700D01*
X52310Y752200D02*
X55310D01*
X53810Y750700D02*
Y753700D01*
X52310Y722200D02*
X55310D01*
X53810Y720700D02*
Y723700D01*
X44810Y467200D02*
X47810D01*
X46310Y465700D02*
Y468700D01*
X44810Y407200D02*
X47810D01*
X46310Y405700D02*
Y408700D01*
X52310Y392200D02*
X55310D01*
X53810Y390700D02*
Y393700D01*
X44810Y377200D02*
X47810D01*
X46310Y375700D02*
Y378700D01*
X52310Y362200D02*
X55310D01*
X53810Y360700D02*
Y363700D01*
X44810Y317200D02*
X47810D01*
X46310Y315700D02*
Y318700D01*
X52310Y272200D02*
X55310D01*
X53810Y270700D02*
Y273700D01*
X52310Y242200D02*
X55310D01*
X53810Y240700D02*
Y243700D01*
X44810Y197200D02*
X47810D01*
X46310Y195700D02*
Y198700D01*
X52310Y122200D02*
X55310D01*
X53810Y120700D02*
Y123700D01*
X44810Y77200D02*
X47810D01*
X46310Y75700D02*
Y78700D01*
X52310Y62200D02*
X55310D01*
X53810Y60700D02*
Y63700D01*
X52310Y32200D02*
X55310D01*
X53810Y30700D02*
Y33700D01*
X44810Y17200D02*
X47810D01*
X46310Y15700D02*
Y18700D01*
X29810Y977200D02*
X32810D01*
X31310Y975700D02*
Y978700D01*
X37310Y962200D02*
X40310D01*
X38810Y960700D02*
Y963700D01*
X37310Y842200D02*
X40310D01*
X38810Y840700D02*
Y843700D01*
X29810Y767200D02*
X32810D01*
X31310Y765700D02*
Y768700D01*
X37310Y722200D02*
X40310D01*
X38810Y720700D02*
Y723700D01*
X37310Y602200D02*
X40310D01*
X38810Y600700D02*
Y603700D01*
X29810Y587200D02*
X32810D01*
X31310Y585700D02*
Y588700D01*
X37310Y572200D02*
X40310D01*
X38810Y570700D02*
Y573700D01*
X29810Y557200D02*
X32810D01*
X31310Y555700D02*
Y558700D01*
X29810Y437200D02*
X32810D01*
X31310Y435700D02*
Y438700D01*
X29810Y317200D02*
X32810D01*
X31310Y315700D02*
Y318700D01*
X29810Y197200D02*
X32810D01*
X31310Y195700D02*
Y198700D01*
X29810Y77200D02*
X32810D01*
X31310Y75700D02*
Y78700D01*
X37310Y32200D02*
X40310D01*
X38810Y30700D02*
Y33700D01*
X29810Y17200D02*
X32810D01*
X31310Y15700D02*
Y18700D01*
X22310Y962200D02*
X25310D01*
X23810Y960700D02*
Y963700D01*
X14810Y947200D02*
X17810D01*
X16310Y945700D02*
Y948700D01*
X14810Y917200D02*
X17810D01*
X16310Y915700D02*
Y918700D01*
X14810Y887200D02*
X17810D01*
X16310Y885700D02*
Y888700D01*
X14810Y857200D02*
X17810D01*
X16310Y855700D02*
Y858700D01*
X22310Y842200D02*
X25310D01*
X23810Y840700D02*
Y843700D01*
X14810Y827200D02*
X17810D01*
X16310Y825700D02*
Y828700D01*
X22310Y812200D02*
X25310D01*
X23810Y810700D02*
Y813700D01*
X14810Y797200D02*
X17810D01*
X16310Y795700D02*
Y798700D01*
X14810Y767200D02*
X17810D01*
X16310Y765700D02*
Y768700D01*
X14810Y737200D02*
X17810D01*
X16310Y735700D02*
Y738700D01*
X22310Y722200D02*
X25310D01*
X23810Y720700D02*
Y723700D01*
X14810Y707200D02*
X17810D01*
X16310Y705700D02*
Y708700D01*
X14810Y677200D02*
X17810D01*
X16310Y675700D02*
Y678700D01*
X14810Y647200D02*
X17810D01*
X16310Y645700D02*
Y648700D01*
X22310Y632200D02*
X25310D01*
X23810Y630700D02*
Y633700D01*
X14810Y527200D02*
X17810D01*
X16310Y525700D02*
Y528700D01*
X14810Y317200D02*
X17810D01*
X16310Y315700D02*
Y318700D01*
X14810Y287200D02*
X17810D01*
X16310Y285700D02*
Y288700D01*
X22310Y272200D02*
X25310D01*
X23810Y270700D02*
Y273700D01*
X14810Y257200D02*
X17810D01*
X16310Y255700D02*
Y258700D01*
X14810Y227200D02*
X17810D01*
X16310Y225700D02*
Y228700D01*
X14810Y197200D02*
X17810D01*
X16310Y195700D02*
Y198700D01*
X14810Y167200D02*
X17810D01*
X16310Y165700D02*
Y168700D01*
X22310Y152200D02*
X25310D01*
X23810Y150700D02*
Y153700D01*
X14810Y137200D02*
X17810D01*
X16310Y135700D02*
Y138700D01*
X14810Y107200D02*
X17810D01*
X16310Y105700D02*
Y108700D01*
X14810Y77200D02*
X17810D01*
X16310Y75700D02*
Y78700D01*
X14810Y47200D02*
X17810D01*
X16310Y45700D02*
Y48700D01*
X22310Y32200D02*
X25310D01*
X23810Y30700D02*
Y33700D01*
X518500Y222000D02*
X521500D01*
X520000Y220500D02*
Y223500D01*
X463750Y262250D02*
X466750D01*
X465250Y260750D02*
Y263750D01*
Y253750D02*
X468250D01*
X466750Y252250D02*
Y255250D01*
X461000Y242250D02*
X464000D01*
X462500Y240750D02*
Y243750D01*
X577250Y175250D02*
X580250D01*
X578750Y173750D02*
Y176750D01*
X570000Y213000D02*
X573000D01*
X571500Y211500D02*
Y214500D01*
X587500Y175250D02*
X590500D01*
X589000Y173750D02*
Y176750D01*
X670847Y527347D02*
X673847D01*
X672347Y525847D02*
Y528847D01*
X691479Y528553D02*
X694479D01*
X692979Y527053D02*
Y530053D01*
X693500Y538500D02*
X696500D01*
X695000Y537000D02*
Y540000D01*
X662688Y527562D02*
X665687D01*
X664187Y526063D02*
Y529062D01*
X711750Y503250D02*
X714750D01*
X713250Y501750D02*
Y504750D01*
X688000Y472750D02*
X691000D01*
X689500Y471250D02*
Y474250D01*
X757750Y529000D02*
X760750D01*
X759250Y527500D02*
Y530500D01*
X767500Y516000D02*
X770500D01*
X769000Y514500D02*
Y517500D01*
X722250Y493500D02*
X725250D01*
X723750Y492000D02*
Y495000D01*
X457199Y312111D02*
X460199D01*
X458699Y310611D02*
Y313611D01*
X275000Y244000D02*
X278000D01*
X276500Y242500D02*
Y245500D01*
X365750Y245750D02*
X368750D01*
X367250Y244250D02*
Y247250D01*
X476625Y315625D02*
X479625D01*
X478125Y314125D02*
Y317125D01*
X645750Y547750D02*
X648750D01*
X647250Y546250D02*
Y549250D01*
X605062Y495798D02*
X608062D01*
X606562Y494298D02*
Y497298D01*
X426750Y285500D02*
X429750D01*
X428250Y284000D02*
Y287000D01*
X334250Y284000D02*
X337250D01*
X335750Y282500D02*
Y285500D01*
X366750Y310250D02*
X369750D01*
X368250Y308750D02*
Y311750D01*
X427750Y216000D02*
X430750D01*
X429250Y214500D02*
Y217500D01*
X687165Y426395D02*
X690165D01*
X688665Y424895D02*
Y427895D01*
X536250Y272250D02*
X539250D01*
X537750Y270750D02*
Y273750D01*
X335750Y217750D02*
X338750D01*
X337250Y216250D02*
Y219250D01*
X262250Y212250D02*
X265250D01*
X263750Y210750D02*
Y213750D01*
X378750Y240750D02*
X381750D01*
X380250Y239250D02*
Y242250D01*
X286750Y244500D02*
X289750D01*
X288250Y243000D02*
Y246000D01*
X379500Y314750D02*
X382500D01*
X381000Y313250D02*
Y316250D01*
X244500Y303500D02*
X247500D01*
X246000Y302000D02*
Y305000D01*
X469600Y967247D02*
X472600D01*
X471100Y965747D02*
Y968747D01*
X674250Y412500D02*
X677250D01*
X675750Y411000D02*
Y414000D01*
X670250Y353250D02*
X673250D01*
X671750Y351750D02*
Y354750D01*
X758000Y145000D02*
X761000D01*
X759500Y143500D02*
Y146500D01*
X758000Y176250D02*
X761000D01*
X759500Y174750D02*
Y177750D01*
X745250Y176500D02*
X748250D01*
X746750Y175000D02*
Y178000D01*
X727000Y165250D02*
X730000D01*
X728500Y163750D02*
Y166750D01*
X809750Y500750D02*
X812750D01*
X811250Y499250D02*
Y502250D01*
X825270Y572770D02*
X828270D01*
X826770Y571270D02*
Y574270D01*
X609250Y126500D02*
X612250D01*
X610750Y125000D02*
Y128000D01*
X688000D02*
X691000D01*
X689500Y126500D02*
Y129500D01*
X372500Y6000D02*
X375500D01*
X374000Y4500D02*
Y7500D01*
X302500Y6000D02*
X305500D01*
X304000Y4500D02*
Y7500D01*
X442500Y6000D02*
X445500D01*
X444000Y4500D02*
Y7500D01*
X282500Y6000D02*
X285500D01*
X284000Y4500D02*
Y7500D01*
X352500Y6000D02*
X355500D01*
X354000Y4500D02*
Y7500D01*
X422500Y6000D02*
X425500D01*
X424000Y4500D02*
Y7500D01*
X262500Y6000D02*
X265500D01*
X264000Y4500D02*
Y7500D01*
X482500Y6000D02*
X485500D01*
X484000Y4500D02*
Y7500D01*
X512500Y6000D02*
X515500D01*
X514000Y4500D02*
Y7500D01*
X332500Y6000D02*
X335500D01*
X334000Y4500D02*
Y7500D01*
X412500Y6000D02*
X415500D01*
X414000Y4500D02*
Y7500D01*
X292500Y6000D02*
X295500D01*
X294000Y4500D02*
Y7500D01*
X362500Y6000D02*
X365500D01*
X364000Y4500D02*
Y7500D01*
X432500Y6000D02*
X435500D01*
X434000Y4500D02*
Y7500D01*
X342500Y6000D02*
X345500D01*
X344000Y4500D02*
Y7500D01*
X272500Y6000D02*
X275500D01*
X274000Y4500D02*
Y7500D01*
X492500Y6000D02*
X495500D01*
X494000Y4500D02*
Y7500D01*
X522500Y6000D02*
X525500D01*
X524000Y4500D02*
Y7500D01*
X312500Y6000D02*
X315500D01*
X314000Y4500D02*
Y7500D01*
X452500Y6000D02*
X455500D01*
X454000Y4500D02*
Y7500D01*
X382500Y6000D02*
X385500D01*
X384000Y4500D02*
Y7500D01*
X402500Y6000D02*
X405500D01*
X404000Y4500D02*
Y7500D01*
X252500Y6000D02*
X255500D01*
X254000Y4500D02*
Y7500D01*
X322500Y6000D02*
X325500D01*
X324000Y4500D02*
Y7500D01*
X472500Y6000D02*
X475500D01*
X474000Y4500D02*
Y7500D01*
X502500Y6000D02*
X505500D01*
X504000Y4500D02*
Y7500D01*
X462500Y6000D02*
X465500D01*
X464000Y4500D02*
Y7500D01*
X392500Y6000D02*
X395500D01*
X394000Y4500D02*
Y7500D01*
X727000Y165250D02*
X730000D01*
X728500Y163750D02*
Y166750D01*
X717000Y165250D02*
X720000D01*
X718500Y163750D02*
Y166750D01*
X707000Y165250D02*
X710000D01*
X708500Y163750D02*
Y166750D01*
X697000Y165250D02*
X700000D01*
X698500Y163750D02*
Y166750D01*
X687000Y165250D02*
X690000D01*
X688500Y163750D02*
Y166750D01*
X677000Y165250D02*
X680000D01*
X678500Y163750D02*
Y166750D01*
X667000Y165250D02*
X670000D01*
X668500Y163750D02*
Y166750D01*
X657000Y165250D02*
X660000D01*
X658500Y163750D02*
Y166750D01*
X647000Y165250D02*
X650000D01*
X648500Y163750D02*
Y166750D01*
X637750Y165250D02*
X640750D01*
X639250Y163750D02*
Y166750D01*
X627750Y165250D02*
X630750D01*
X629250Y163750D02*
Y166750D01*
X617750Y165250D02*
X620750D01*
X619250Y163750D02*
Y166750D01*
X607750Y165250D02*
X610750D01*
X609250Y163750D02*
Y166750D01*
X597750Y165250D02*
X600750D01*
X599250Y163750D02*
Y166750D01*
X587750Y165250D02*
X590750D01*
X589250Y163750D02*
Y166750D01*
X577750Y165250D02*
X580750D01*
X579250Y163750D02*
Y166750D01*
X567750Y165250D02*
X570750D01*
X569250Y163750D02*
Y166750D01*
X557750Y165250D02*
X560750D01*
X559250Y163750D02*
Y166750D01*
X547750Y165250D02*
X550750D01*
X549250Y163750D02*
Y166750D01*
X537750Y165250D02*
X540750D01*
X539250Y163750D02*
Y166750D01*
X528500Y165250D02*
X531500D01*
X530000Y163750D02*
Y166750D01*
X518500Y165250D02*
X521500D01*
X520000Y163750D02*
Y166750D01*
X508500Y165250D02*
X511500D01*
X510000Y163750D02*
Y166750D01*
X498500Y165250D02*
X501500D01*
X500000Y163750D02*
Y166750D01*
X488500Y165250D02*
X491500D01*
X490000Y163750D02*
Y166750D01*
X478500Y165250D02*
X481500D01*
X480000Y163750D02*
Y166750D01*
X468500Y165250D02*
X471500D01*
X470000Y163750D02*
Y166750D01*
X458500Y165250D02*
X461500D01*
X460000Y163750D02*
Y166750D01*
X448500Y165250D02*
X451500D01*
X450000Y163750D02*
Y166750D01*
X438500Y165250D02*
X441500D01*
X440000Y163750D02*
Y166750D01*
X428500Y165250D02*
X431500D01*
X430000Y163750D02*
Y166750D01*
X419250Y165250D02*
X422250D01*
X420750Y163750D02*
Y166750D01*
X409250Y165250D02*
X412250D01*
X410750Y163750D02*
Y166750D01*
X399250Y165250D02*
X402250D01*
X400750Y163750D02*
Y166750D01*
X389250Y165250D02*
X392250D01*
X390750Y163750D02*
Y166750D01*
X379250Y165250D02*
X382250D01*
X380750Y163750D02*
Y166750D01*
X369250Y165250D02*
X372250D01*
X370750Y163750D02*
Y166750D01*
X359250Y165250D02*
X362250D01*
X360750Y163750D02*
Y166750D01*
X349250Y165250D02*
X352250D01*
X350750Y163750D02*
Y166750D01*
X339250Y165250D02*
X342250D01*
X340750Y163750D02*
Y166750D01*
X301250Y134250D02*
X304250D01*
X302750Y132750D02*
Y135750D01*
X308000Y141000D02*
X311000D01*
X309500Y139500D02*
Y142500D01*
X315500Y148500D02*
X318500D01*
X317000Y147000D02*
Y150000D01*
X322500Y155500D02*
X325500D01*
X324000Y154000D02*
Y157000D01*
X329500Y162500D02*
X332500D01*
X331000Y161000D02*
Y164000D01*
X260250Y131500D02*
X263250D01*
X261750Y130000D02*
Y133000D01*
X230250Y131500D02*
X233250D01*
X231750Y130000D02*
Y133000D01*
X250250Y131500D02*
X253250D01*
X251750Y130000D02*
Y133000D01*
X240250Y131500D02*
X243250D01*
X241750Y130000D02*
Y133000D01*
X280250Y131500D02*
X283250D01*
X281750Y130000D02*
Y133000D01*
X290250Y131500D02*
X293250D01*
X291750Y130000D02*
Y133000D01*
X270250Y131500D02*
X273250D01*
X271750Y130000D02*
Y133000D01*
X220250Y131500D02*
X223250D01*
X221750Y130000D02*
Y133000D01*
X802500Y165250D02*
X805500D01*
X804000Y163750D02*
Y166750D01*
X802500Y156000D02*
X805500D01*
X804000Y154500D02*
Y157500D01*
X802500Y146000D02*
X805500D01*
X804000Y144500D02*
Y147500D01*
X802500Y136000D02*
X805500D01*
X804000Y134500D02*
Y137500D01*
X802500Y126000D02*
X805500D01*
X804000Y124500D02*
Y127500D01*
X802500Y116000D02*
X805500D01*
X804000Y114500D02*
Y117500D01*
X802500Y106000D02*
X805500D01*
X804000Y104500D02*
Y107500D01*
X802500Y96000D02*
X805500D01*
X804000Y94500D02*
Y97500D01*
X802500Y86000D02*
X805500D01*
X804000Y84500D02*
Y87500D01*
X802500Y76000D02*
X805500D01*
X804000Y74500D02*
Y77500D01*
X802500Y66000D02*
X805500D01*
X804000Y64500D02*
Y67500D01*
X802500Y56000D02*
X805500D01*
X804000Y54500D02*
Y57500D01*
X802500Y46000D02*
X805500D01*
X804000Y44500D02*
Y47500D01*
X802500Y36000D02*
X805500D01*
X804000Y34500D02*
Y37500D01*
X802500Y26000D02*
X805500D01*
X804000Y24500D02*
Y27500D01*
X802500Y16000D02*
X805500D01*
X804000Y14500D02*
Y17500D01*
X802500Y6000D02*
X805500D01*
X804000Y4500D02*
Y7500D01*
X802500Y6000D02*
X805500D01*
X804000Y4500D02*
Y7500D01*
X708750Y155250D02*
X711750D01*
X710250Y153750D02*
Y156750D01*
X840510Y173990D02*
X843510D01*
X842010Y172490D02*
Y175490D01*
X770250Y111750D02*
X773250D01*
X771750Y110250D02*
Y113250D01*
X812500Y6000D02*
X815500D01*
X814000Y4500D02*
Y7500D01*
X822500Y6000D02*
X825500D01*
X824000Y4500D02*
Y7500D01*
X347750Y129500D02*
X350750D01*
X349250Y128000D02*
Y131000D01*
X426750Y147500D02*
X429750D01*
X428250Y146000D02*
Y149000D01*
X484500Y60250D02*
X487500D01*
X486000Y58750D02*
Y61750D01*
X512750Y114750D02*
X515750D01*
X514250Y113250D02*
Y116250D01*
X748250Y56000D02*
X751250D01*
X749750Y54500D02*
Y57500D01*
X958500Y62860D02*
X961500D01*
X960000Y61360D02*
Y64360D01*
X942336Y56164D02*
X945335D01*
X943836Y54665D02*
Y57664D01*
X935640Y40000D02*
X938640D01*
X937140Y38500D02*
Y41500D01*
X942336Y23835D02*
X945335D01*
X943836Y22336D02*
Y25336D01*
X958500Y17140D02*
X961500D01*
X960000Y15640D02*
Y18640D01*
X974665Y23835D02*
X977664D01*
X976164Y22336D02*
Y25336D01*
X981360Y40000D02*
X984360D01*
X982860Y38500D02*
Y41500D01*
X974665Y56164D02*
X977664D01*
X976164Y54665D02*
Y57664D01*
X942336Y976164D02*
X945335D01*
X943836Y974665D02*
Y977664D01*
X958500Y982860D02*
X961500D01*
X960000Y981360D02*
Y984360D01*
X974665Y976164D02*
X977664D01*
X976164Y974665D02*
Y977664D01*
X981360Y960000D02*
X984360D01*
X982860Y958500D02*
Y961500D01*
X974665Y943836D02*
X977664D01*
X976164Y942336D02*
Y945335D01*
X958500Y937140D02*
X961500D01*
X960000Y935640D02*
Y938640D01*
X942336Y943836D02*
X945335D01*
X943836Y942336D02*
Y945335D01*
X935640Y960000D02*
X938640D01*
X937140Y958500D02*
Y961500D01*
X992500Y994000D02*
X995500D01*
X994000Y992500D02*
Y995500D01*
X982500Y994000D02*
X985500D01*
X984000Y992500D02*
Y995500D01*
X972500Y994000D02*
X975500D01*
X974000Y992500D02*
Y995500D01*
X962500Y994000D02*
X965500D01*
X964000Y992500D02*
Y995500D01*
X952500Y994000D02*
X955500D01*
X954000Y992500D02*
Y995500D01*
X942500Y994000D02*
X945500D01*
X944000Y992500D02*
Y995500D01*
X932500Y994000D02*
X935500D01*
X934000Y992500D02*
Y995500D01*
X922500Y994000D02*
X925500D01*
X924000Y992500D02*
Y995500D01*
X912500Y994000D02*
X915500D01*
X914000Y992500D02*
Y995500D01*
X902500Y994000D02*
X905500D01*
X904000Y992500D02*
Y995500D01*
X892500Y994000D02*
X895500D01*
X894000Y992500D02*
Y995500D01*
X882500Y994000D02*
X885500D01*
X884000Y992500D02*
Y995500D01*
X872500Y994000D02*
X875500D01*
X874000Y992500D02*
Y995500D01*
X762500Y994000D02*
X765500D01*
X764000Y992500D02*
Y995500D01*
X752500Y994000D02*
X755500D01*
X754000Y992500D02*
Y995500D01*
X742500Y994000D02*
X745500D01*
X744000Y992500D02*
Y995500D01*
X732500Y994000D02*
X735500D01*
X734000Y992500D02*
Y995500D01*
X722500Y994000D02*
X725500D01*
X724000Y992500D02*
Y995500D01*
X712500Y994000D02*
X715500D01*
X714000Y992500D02*
Y995500D01*
X702500Y994000D02*
X705500D01*
X704000Y992500D02*
Y995500D01*
X692500Y994000D02*
X695500D01*
X694000Y992500D02*
Y995500D01*
X682500Y994000D02*
X685500D01*
X684000Y992500D02*
Y995500D01*
X672500Y994000D02*
X675500D01*
X674000Y992500D02*
Y995500D01*
X662500Y994000D02*
X665500D01*
X664000Y992500D02*
Y995500D01*
X652500Y994000D02*
X655500D01*
X654000Y992500D02*
Y995500D01*
X642500Y994000D02*
X645500D01*
X644000Y992500D02*
Y995500D01*
X632500Y994000D02*
X635500D01*
X634000Y992500D02*
Y995500D01*
X622500Y994000D02*
X625500D01*
X624000Y992500D02*
Y995500D01*
X612500Y994000D02*
X615500D01*
X614000Y992500D02*
Y995500D01*
X602500Y994000D02*
X605500D01*
X604000Y992500D02*
Y995500D01*
X592500Y994000D02*
X595500D01*
X594000Y992500D02*
Y995500D01*
X582500Y994000D02*
X585500D01*
X584000Y992500D02*
Y995500D01*
X572500Y994000D02*
X575500D01*
X574000Y992500D02*
Y995500D01*
X562500Y994000D02*
X565500D01*
X564000Y992500D02*
Y995500D01*
X552500Y994000D02*
X555500D01*
X554000Y992500D02*
Y995500D01*
X542500Y994000D02*
X545500D01*
X544000Y992500D02*
Y995500D01*
X532500Y994000D02*
X535500D01*
X534000Y992500D02*
Y995500D01*
X522500Y994000D02*
X525500D01*
X524000Y992500D02*
Y995500D01*
X512500Y994000D02*
X515500D01*
X514000Y992500D02*
Y995500D01*
X502500Y994000D02*
X505500D01*
X504000Y992500D02*
Y995500D01*
X492500Y994000D02*
X495500D01*
X494000Y992500D02*
Y995500D01*
X482500Y994000D02*
X485500D01*
X484000Y992500D02*
Y995500D01*
X472500Y994000D02*
X475500D01*
X474000Y992500D02*
Y995500D01*
X462500Y994000D02*
X465500D01*
X464000Y992500D02*
Y995500D01*
X452500Y994000D02*
X455500D01*
X454000Y992500D02*
Y995500D01*
X442500Y994000D02*
X445500D01*
X444000Y992500D02*
Y995500D01*
X432500Y994000D02*
X435500D01*
X434000Y992500D02*
Y995500D01*
X422500Y994000D02*
X425500D01*
X424000Y992500D02*
Y995500D01*
X412500Y994000D02*
X415500D01*
X414000Y992500D02*
Y995500D01*
X402500Y994000D02*
X405500D01*
X404000Y992500D02*
Y995500D01*
X392500Y994000D02*
X395500D01*
X394000Y992500D02*
Y995500D01*
X382500Y994000D02*
X385500D01*
X384000Y992500D02*
Y995500D01*
X372500Y994000D02*
X375500D01*
X374000Y992500D02*
Y995500D01*
X362500Y994000D02*
X365500D01*
X364000Y992500D02*
Y995500D01*
X352500Y994000D02*
X355500D01*
X354000Y992500D02*
Y995500D01*
X342500Y994000D02*
X345500D01*
X344000Y992500D02*
Y995500D01*
X332500Y994000D02*
X335500D01*
X334000Y992500D02*
Y995500D01*
X322500Y994000D02*
X325500D01*
X324000Y992500D02*
Y995500D01*
X312500Y994000D02*
X315500D01*
X314000Y992500D02*
Y995500D01*
X302500Y994000D02*
X305500D01*
X304000Y992500D02*
Y995500D01*
X292500Y994000D02*
X295500D01*
X294000Y992500D02*
Y995500D01*
X282500Y994000D02*
X285500D01*
X284000Y992500D02*
Y995500D01*
X272500Y994000D02*
X275500D01*
X274000Y992500D02*
Y995500D01*
X262500Y994000D02*
X265500D01*
X264000Y992500D02*
Y995500D01*
X252500Y994000D02*
X255500D01*
X254000Y992500D02*
Y995500D01*
X242500Y994000D02*
X245500D01*
X244000Y992500D02*
Y995500D01*
X232500Y994000D02*
X235500D01*
X234000Y992500D02*
Y995500D01*
X222500Y994000D02*
X225500D01*
X224000Y992500D02*
Y995500D01*
X212500Y994000D02*
X215500D01*
X214000Y992500D02*
Y995500D01*
X202500Y994000D02*
X205500D01*
X204000Y992500D02*
Y995500D01*
X192500Y994000D02*
X195500D01*
X194000Y992500D02*
Y995500D01*
X182500Y994000D02*
X185500D01*
X184000Y992500D02*
Y995500D01*
X172500Y994000D02*
X175500D01*
X174000Y992500D02*
Y995500D01*
X162500Y994000D02*
X165500D01*
X164000Y992500D02*
Y995500D01*
X152500Y994000D02*
X155500D01*
X154000Y992500D02*
Y995500D01*
X142500Y994000D02*
X145500D01*
X144000Y992500D02*
Y995500D01*
X132500Y994000D02*
X135500D01*
X134000Y992500D02*
Y995500D01*
X122500Y994000D02*
X125500D01*
X124000Y992500D02*
Y995500D01*
X112500Y994000D02*
X115500D01*
X114000Y992500D02*
Y995500D01*
X102500Y994000D02*
X105500D01*
X104000Y992500D02*
Y995500D01*
X92500Y994000D02*
X95500D01*
X94000Y992500D02*
Y995500D01*
X82500Y994000D02*
X85500D01*
X84000Y992500D02*
Y995500D01*
X72500Y994000D02*
X75500D01*
X74000Y992500D02*
Y995500D01*
X62500Y994000D02*
X65500D01*
X64000Y992500D02*
Y995500D01*
X52500Y994000D02*
X55500D01*
X54000Y992500D02*
Y995500D01*
X42500Y994000D02*
X45500D01*
X44000Y992500D02*
Y995500D01*
X32500Y994000D02*
X35500D01*
X34000Y992500D02*
Y995500D01*
X22500Y994000D02*
X25500D01*
X24000Y992500D02*
Y995500D01*
X12500Y994000D02*
X15500D01*
X14000Y992500D02*
Y995500D01*
X982500Y6000D02*
X985500D01*
X984000Y4500D02*
Y7500D01*
X972500Y6000D02*
X975500D01*
X974000Y4500D02*
Y7500D01*
X962500Y6000D02*
X965500D01*
X964000Y4500D02*
Y7500D01*
X952500Y6000D02*
X955500D01*
X954000Y4500D02*
Y7500D01*
X942500Y6000D02*
X945500D01*
X944000Y4500D02*
Y7500D01*
X932500Y6000D02*
X935500D01*
X934000Y4500D02*
Y7500D01*
X922500Y6000D02*
X925500D01*
X924000Y4500D02*
Y7500D01*
X912500Y6000D02*
X915500D01*
X914000Y4500D02*
Y7500D01*
X902500Y6000D02*
X905500D01*
X904000Y4500D02*
Y7500D01*
X892500Y6000D02*
X895500D01*
X894000Y4500D02*
Y7500D01*
X882500Y6000D02*
X885500D01*
X884000Y4500D02*
Y7500D01*
X872500Y6000D02*
X875500D01*
X874000Y4500D02*
Y7500D01*
X862500Y6000D02*
X865500D01*
X864000Y4500D02*
Y7500D01*
X852500Y6000D02*
X855500D01*
X854000Y4500D02*
Y7500D01*
X842500Y6000D02*
X845500D01*
X844000Y4500D02*
Y7500D01*
X832500Y6000D02*
X835500D01*
X834000Y4500D02*
Y7500D01*
X792500Y6000D02*
X795500D01*
X794000Y4500D02*
Y7500D01*
X782500Y6000D02*
X785500D01*
X784000Y4500D02*
Y7500D01*
X772500Y6000D02*
X775500D01*
X774000Y4500D02*
Y7500D01*
X762500Y6000D02*
X765500D01*
X764000Y4500D02*
Y7500D01*
X752500Y6000D02*
X755500D01*
X754000Y4500D02*
Y7500D01*
X742500Y6000D02*
X745500D01*
X744000Y4500D02*
Y7500D01*
X732500Y6000D02*
X735500D01*
X734000Y4500D02*
Y7500D01*
X722500Y6000D02*
X725500D01*
X724000Y4500D02*
Y7500D01*
X712500Y6000D02*
X715500D01*
X714000Y4500D02*
Y7500D01*
X702500Y6000D02*
X705500D01*
X704000Y4500D02*
Y7500D01*
X692500Y6000D02*
X695500D01*
X694000Y4500D02*
Y7500D01*
X682500Y6000D02*
X685500D01*
X684000Y4500D02*
Y7500D01*
X672500Y6000D02*
X675500D01*
X674000Y4500D02*
Y7500D01*
X662500Y6000D02*
X665500D01*
X664000Y4500D02*
Y7500D01*
X652500Y6000D02*
X655500D01*
X654000Y4500D02*
Y7500D01*
X642500Y6000D02*
X645500D01*
X644000Y4500D02*
Y7500D01*
X632500Y6000D02*
X635500D01*
X634000Y4500D02*
Y7500D01*
X622500Y6000D02*
X625500D01*
X624000Y4500D02*
Y7500D01*
X612500Y6000D02*
X615500D01*
X614000Y4500D02*
Y7500D01*
X602500Y6000D02*
X605500D01*
X604000Y4500D02*
Y7500D01*
X592500Y6000D02*
X595500D01*
X594000Y4500D02*
Y7500D01*
X582500Y6000D02*
X585500D01*
X584000Y4500D02*
Y7500D01*
X572500Y6000D02*
X575500D01*
X574000Y4500D02*
Y7500D01*
X562500Y6000D02*
X565500D01*
X564000Y4500D02*
Y7500D01*
X552500Y6000D02*
X555500D01*
X554000Y4500D02*
Y7500D01*
X542500Y6000D02*
X545500D01*
X544000Y4500D02*
Y7500D01*
X532500Y6000D02*
X535500D01*
X534000Y4500D02*
Y7500D01*
X242500Y6000D02*
X245500D01*
X244000Y4500D02*
Y7500D01*
X232500Y6000D02*
X235500D01*
X234000Y4500D02*
Y7500D01*
X222500Y6000D02*
X225500D01*
X224000Y4500D02*
Y7500D01*
X212500Y6000D02*
X215500D01*
X214000Y4500D02*
Y7500D01*
X202500Y6000D02*
X205500D01*
X204000Y4500D02*
Y7500D01*
X192500Y6000D02*
X195500D01*
X194000Y4500D02*
Y7500D01*
X182500Y6000D02*
X185500D01*
X184000Y4500D02*
Y7500D01*
X172500Y6000D02*
X175500D01*
X174000Y4500D02*
Y7500D01*
X162500Y6000D02*
X165500D01*
X164000Y4500D02*
Y7500D01*
X152500Y6000D02*
X155500D01*
X154000Y4500D02*
Y7500D01*
X142500Y6000D02*
X145500D01*
X144000Y4500D02*
Y7500D01*
X132500Y6000D02*
X135500D01*
X134000Y4500D02*
Y7500D01*
X122500Y6000D02*
X125500D01*
X124000Y4500D02*
Y7500D01*
X112500Y6000D02*
X115500D01*
X114000Y4500D02*
Y7500D01*
X102500Y6000D02*
X105500D01*
X104000Y4500D02*
Y7500D01*
X92500Y6000D02*
X95500D01*
X94000Y4500D02*
Y7500D01*
X82500Y6000D02*
X85500D01*
X84000Y4500D02*
Y7500D01*
X72500Y6000D02*
X75500D01*
X74000Y4500D02*
Y7500D01*
X62500Y6000D02*
X65500D01*
X64000Y4500D02*
Y7500D01*
X52500Y6000D02*
X55500D01*
X54000Y4500D02*
Y7500D01*
X42500Y6000D02*
X45500D01*
X44000Y4500D02*
Y7500D01*
X32500Y6000D02*
X35500D01*
X34000Y4500D02*
Y7500D01*
X22500Y6000D02*
X25500D01*
X24000Y4500D02*
Y7500D01*
X12500Y6000D02*
X15500D01*
X14000Y4500D02*
Y7500D01*
X992500Y6000D02*
X995500D01*
X994000Y4500D02*
Y7500D01*
X992500Y16000D02*
X995500D01*
X994000Y14500D02*
Y17500D01*
X992500Y26000D02*
X995500D01*
X994000Y24500D02*
Y27500D01*
X992500Y36000D02*
X995500D01*
X994000Y34500D02*
Y37500D01*
X992500Y46000D02*
X995500D01*
X994000Y44500D02*
Y47500D01*
X992500Y56000D02*
X995500D01*
X994000Y54500D02*
Y57500D01*
X992500Y66000D02*
X995500D01*
X994000Y64500D02*
Y67500D01*
X992500Y76000D02*
X995500D01*
X994000Y74500D02*
Y77500D01*
X992500Y86000D02*
X995500D01*
X994000Y84500D02*
Y87500D01*
X992500Y96000D02*
X995500D01*
X994000Y94500D02*
Y97500D01*
X992500Y106000D02*
X995500D01*
X994000Y104500D02*
Y107500D01*
X992500Y116000D02*
X995500D01*
X994000Y114500D02*
Y117500D01*
X992500Y126000D02*
X995500D01*
X994000Y124500D02*
Y127500D01*
X992500Y136000D02*
X995500D01*
X994000Y134500D02*
Y137500D01*
X992500Y146000D02*
X995500D01*
X994000Y144500D02*
Y147500D01*
X992500Y156000D02*
X995500D01*
X994000Y154500D02*
Y157500D01*
X992500Y166000D02*
X995500D01*
X994000Y164500D02*
Y167500D01*
X992500Y176000D02*
X995500D01*
X994000Y174500D02*
Y177500D01*
X992500Y186000D02*
X995500D01*
X994000Y184500D02*
Y187500D01*
X992500Y196000D02*
X995500D01*
X994000Y194500D02*
Y197500D01*
X992500Y206000D02*
X995500D01*
X994000Y204500D02*
Y207500D01*
X992500Y216000D02*
X995500D01*
X994000Y214500D02*
Y217500D01*
X992500Y226000D02*
X995500D01*
X994000Y224500D02*
Y227500D01*
X992500Y236000D02*
X995500D01*
X994000Y234500D02*
Y237500D01*
X992500Y246000D02*
X995500D01*
X994000Y244500D02*
Y247500D01*
X992500Y256000D02*
X995500D01*
X994000Y254500D02*
Y257500D01*
X992500Y266000D02*
X995500D01*
X994000Y264500D02*
Y267500D01*
X992500Y276000D02*
X995500D01*
X994000Y274500D02*
Y277500D01*
X992500Y286000D02*
X995500D01*
X994000Y284500D02*
Y287500D01*
X992500Y296000D02*
X995500D01*
X994000Y294500D02*
Y297500D01*
X992500Y306000D02*
X995500D01*
X994000Y304500D02*
Y307500D01*
X992500Y316000D02*
X995500D01*
X994000Y314500D02*
Y317500D01*
X992500Y326000D02*
X995500D01*
X994000Y324500D02*
Y327500D01*
X992500Y336000D02*
X995500D01*
X994000Y334500D02*
Y337500D01*
X992500Y346000D02*
X995500D01*
X994000Y344500D02*
Y347500D01*
X992500Y356000D02*
X995500D01*
X994000Y354500D02*
Y357500D01*
X992500Y366000D02*
X995500D01*
X994000Y364500D02*
Y367500D01*
X992500Y376000D02*
X995500D01*
X994000Y374500D02*
Y377500D01*
X992500Y386000D02*
X995500D01*
X994000Y384500D02*
Y387500D01*
X992500Y396000D02*
X995500D01*
X994000Y394500D02*
Y397500D01*
X992500Y406000D02*
X995500D01*
X994000Y404500D02*
Y407500D01*
X992500Y416000D02*
X995500D01*
X994000Y414500D02*
Y417500D01*
X992500Y426000D02*
X995500D01*
X994000Y424500D02*
Y427500D01*
X992500Y436000D02*
X995500D01*
X994000Y434500D02*
Y437500D01*
X992500Y446000D02*
X995500D01*
X994000Y444500D02*
Y447500D01*
X992500Y456000D02*
X995500D01*
X994000Y454500D02*
Y457500D01*
X992500Y466000D02*
X995500D01*
X994000Y464500D02*
Y467500D01*
X992500Y476000D02*
X995500D01*
X994000Y474500D02*
Y477500D01*
X992500Y486000D02*
X995500D01*
X994000Y484500D02*
Y487500D01*
X992500Y496000D02*
X995500D01*
X994000Y494500D02*
Y497500D01*
X992500Y506000D02*
X995500D01*
X994000Y504500D02*
Y507500D01*
X992500Y516000D02*
X995500D01*
X994000Y514500D02*
Y517500D01*
X992500Y526000D02*
X995500D01*
X994000Y524500D02*
Y527500D01*
X992500Y536000D02*
X995500D01*
X994000Y534500D02*
Y537500D01*
X992500Y546000D02*
X995500D01*
X994000Y544500D02*
Y547500D01*
X992500Y556000D02*
X995500D01*
X994000Y554500D02*
Y557500D01*
X992500Y566000D02*
X995500D01*
X994000Y564500D02*
Y567500D01*
X992500Y576000D02*
X995500D01*
X994000Y574500D02*
Y577500D01*
X992500Y586000D02*
X995500D01*
X994000Y584500D02*
Y587500D01*
X992500Y596000D02*
X995500D01*
X994000Y594500D02*
Y597500D01*
X992500Y606000D02*
X995500D01*
X994000Y604500D02*
Y607500D01*
X992500Y616000D02*
X995500D01*
X994000Y614500D02*
Y617500D01*
X992500Y626000D02*
X995500D01*
X994000Y624500D02*
Y627500D01*
X992500Y636000D02*
X995500D01*
X994000Y634500D02*
Y637500D01*
X992500Y646000D02*
X995500D01*
X994000Y644500D02*
Y647500D01*
X992500Y656000D02*
X995500D01*
X994000Y654500D02*
Y657500D01*
X992500Y666000D02*
X995500D01*
X994000Y664500D02*
Y667500D01*
X992500Y676000D02*
X995500D01*
X994000Y674500D02*
Y677500D01*
X992500Y686000D02*
X995500D01*
X994000Y684500D02*
Y687500D01*
X992500Y696000D02*
X995500D01*
X994000Y694500D02*
Y697500D01*
X992500Y706000D02*
X995500D01*
X994000Y704500D02*
Y707500D01*
X992500Y716000D02*
X995500D01*
X994000Y714500D02*
Y717500D01*
X992500Y726000D02*
X995500D01*
X994000Y724500D02*
Y727500D01*
X992500Y736000D02*
X995500D01*
X994000Y734500D02*
Y737500D01*
X992500Y746000D02*
X995500D01*
X994000Y744500D02*
Y747500D01*
X992500Y756000D02*
X995500D01*
X994000Y754500D02*
Y757500D01*
X992500Y766000D02*
X995500D01*
X994000Y764500D02*
Y767500D01*
X992500Y776000D02*
X995500D01*
X994000Y774500D02*
Y777500D01*
X992500Y786000D02*
X995500D01*
X994000Y784500D02*
Y787500D01*
X992500Y796000D02*
X995500D01*
X994000Y794500D02*
Y797500D01*
X992500Y806000D02*
X995500D01*
X994000Y804500D02*
Y807500D01*
X992500Y816000D02*
X995500D01*
X994000Y814500D02*
Y817500D01*
X992500Y826000D02*
X995500D01*
X994000Y824500D02*
Y827500D01*
X992500Y836000D02*
X995500D01*
X994000Y834500D02*
Y837500D01*
X992500Y846000D02*
X995500D01*
X994000Y844500D02*
Y847500D01*
X992500Y856000D02*
X995500D01*
X994000Y854500D02*
Y857500D01*
X992500Y866000D02*
X995500D01*
X994000Y864500D02*
Y867500D01*
X992500Y876000D02*
X995500D01*
X994000Y874500D02*
Y877500D01*
X992500Y886000D02*
X995500D01*
X994000Y884500D02*
Y887500D01*
X992500Y896000D02*
X995500D01*
X994000Y894500D02*
Y897500D01*
X992500Y906000D02*
X995500D01*
X994000Y904500D02*
Y907500D01*
X992500Y916000D02*
X995500D01*
X994000Y914500D02*
Y917500D01*
X992500Y926000D02*
X995500D01*
X994000Y924500D02*
Y927500D01*
X992500Y936000D02*
X995500D01*
X994000Y934500D02*
Y937500D01*
X992500Y946000D02*
X995500D01*
X994000Y944500D02*
Y947500D01*
X992500Y956000D02*
X995500D01*
X994000Y954500D02*
Y957500D01*
X992500Y966000D02*
X995500D01*
X994000Y964500D02*
Y967500D01*
X992500Y976000D02*
X995500D01*
X994000Y974500D02*
Y977500D01*
X992500Y986000D02*
X995500D01*
X994000Y984500D02*
Y987500D01*
X4500Y994000D02*
X7500D01*
X6000Y992500D02*
Y995500D01*
X4500Y986000D02*
X7500D01*
X6000Y984500D02*
Y987500D01*
X4500Y976000D02*
X7500D01*
X6000Y974500D02*
Y977500D01*
X4500Y966000D02*
X7500D01*
X6000Y964500D02*
Y967500D01*
X4500Y956000D02*
X7500D01*
X6000Y954500D02*
Y957500D01*
X4500Y946000D02*
X7500D01*
X6000Y944500D02*
Y947500D01*
X4500Y936000D02*
X7500D01*
X6000Y934500D02*
Y937500D01*
X4500Y926000D02*
X7500D01*
X6000Y924500D02*
Y927500D01*
X4500Y916000D02*
X7500D01*
X6000Y914500D02*
Y917500D01*
X4500Y906000D02*
X7500D01*
X6000Y904500D02*
Y907500D01*
X4500Y896000D02*
X7500D01*
X6000Y894500D02*
Y897500D01*
X4500Y886000D02*
X7500D01*
X6000Y884500D02*
Y887500D01*
X4500Y876000D02*
X7500D01*
X6000Y874500D02*
Y877500D01*
X4500Y866000D02*
X7500D01*
X6000Y864500D02*
Y867500D01*
X4500Y856000D02*
X7500D01*
X6000Y854500D02*
Y857500D01*
X4500Y846000D02*
X7500D01*
X6000Y844500D02*
Y847500D01*
X4500Y836000D02*
X7500D01*
X6000Y834500D02*
Y837500D01*
X4500Y826000D02*
X7500D01*
X6000Y824500D02*
Y827500D01*
X4500Y816000D02*
X7500D01*
X6000Y814500D02*
Y817500D01*
X4500Y806000D02*
X7500D01*
X6000Y804500D02*
Y807500D01*
X4500Y796000D02*
X7500D01*
X6000Y794500D02*
Y797500D01*
X4500Y786000D02*
X7500D01*
X6000Y784500D02*
Y787500D01*
X4500Y776000D02*
X7500D01*
X6000Y774500D02*
Y777500D01*
X4500Y766000D02*
X7500D01*
X6000Y764500D02*
Y767500D01*
X4500Y756000D02*
X7500D01*
X6000Y754500D02*
Y757500D01*
X4500Y746000D02*
X7500D01*
X6000Y744500D02*
Y747500D01*
X4500Y736000D02*
X7500D01*
X6000Y734500D02*
Y737500D01*
X4500Y726000D02*
X7500D01*
X6000Y724500D02*
Y727500D01*
X4500Y716000D02*
X7500D01*
X6000Y714500D02*
Y717500D01*
X4500Y706000D02*
X7500D01*
X6000Y704500D02*
Y707500D01*
X4500Y696000D02*
X7500D01*
X6000Y694500D02*
Y697500D01*
X4500Y686000D02*
X7500D01*
X6000Y684500D02*
Y687500D01*
X4500Y676000D02*
X7500D01*
X6000Y674500D02*
Y677500D01*
X4500Y666000D02*
X7500D01*
X6000Y664500D02*
Y667500D01*
X4500Y656000D02*
X7500D01*
X6000Y654500D02*
Y657500D01*
X4500Y646000D02*
X7500D01*
X6000Y644500D02*
Y647500D01*
X4500Y636000D02*
X7500D01*
X6000Y634500D02*
Y637500D01*
X4500Y626000D02*
X7500D01*
X6000Y624500D02*
Y627500D01*
X4500Y616000D02*
X7500D01*
X6000Y614500D02*
Y617500D01*
X4500Y606000D02*
X7500D01*
X6000Y604500D02*
Y607500D01*
X4500Y596000D02*
X7500D01*
X6000Y594500D02*
Y597500D01*
X4500Y586000D02*
X7500D01*
X6000Y584500D02*
Y587500D01*
X4500Y576000D02*
X7500D01*
X6000Y574500D02*
Y577500D01*
X4500Y566000D02*
X7500D01*
X6000Y564500D02*
Y567500D01*
X4500Y556000D02*
X7500D01*
X6000Y554500D02*
Y557500D01*
X4500Y546000D02*
X7500D01*
X6000Y544500D02*
Y547500D01*
X4500Y536000D02*
X7500D01*
X6000Y534500D02*
Y537500D01*
X4500Y526000D02*
X7500D01*
X6000Y524500D02*
Y527500D01*
X4500Y516000D02*
X7500D01*
X6000Y514500D02*
Y517500D01*
X4500Y506000D02*
X7500D01*
X6000Y504500D02*
Y507500D01*
X4500Y496000D02*
X7500D01*
X6000Y494500D02*
Y497500D01*
X4500Y486000D02*
X7500D01*
X6000Y484500D02*
Y487500D01*
X4500Y476000D02*
X7500D01*
X6000Y474500D02*
Y477500D01*
X4500Y466000D02*
X7500D01*
X6000Y464500D02*
Y467500D01*
X4500Y456000D02*
X7500D01*
X6000Y454500D02*
Y457500D01*
X4500Y446000D02*
X7500D01*
X6000Y444500D02*
Y447500D01*
X4500Y436000D02*
X7500D01*
X6000Y434500D02*
Y437500D01*
X4500Y426000D02*
X7500D01*
X6000Y424500D02*
Y427500D01*
X4500Y416000D02*
X7500D01*
X6000Y414500D02*
Y417500D01*
X4500Y406000D02*
X7500D01*
X6000Y404500D02*
Y407500D01*
X4500Y396000D02*
X7500D01*
X6000Y394500D02*
Y397500D01*
X4500Y386000D02*
X7500D01*
X6000Y384500D02*
Y387500D01*
X4500Y376000D02*
X7500D01*
X6000Y374500D02*
Y377500D01*
X4500Y366000D02*
X7500D01*
X6000Y364500D02*
Y367500D01*
X4500Y356000D02*
X7500D01*
X6000Y354500D02*
Y357500D01*
X4500Y346000D02*
X7500D01*
X6000Y344500D02*
Y347500D01*
X4500Y336000D02*
X7500D01*
X6000Y334500D02*
Y337500D01*
X4500Y326000D02*
X7500D01*
X6000Y324500D02*
Y327500D01*
X4500Y316000D02*
X7500D01*
X6000Y314500D02*
Y317500D01*
X4500Y306000D02*
X7500D01*
X6000Y304500D02*
Y307500D01*
X4500Y296000D02*
X7500D01*
X6000Y294500D02*
Y297500D01*
X4500Y286000D02*
X7500D01*
X6000Y284500D02*
Y287500D01*
X4500Y276000D02*
X7500D01*
X6000Y274500D02*
Y277500D01*
X4500Y266000D02*
X7500D01*
X6000Y264500D02*
Y267500D01*
X4500Y256000D02*
X7500D01*
X6000Y254500D02*
Y257500D01*
X4500Y246000D02*
X7500D01*
X6000Y244500D02*
Y247500D01*
X4500Y236000D02*
X7500D01*
X6000Y234500D02*
Y237500D01*
X4500Y226000D02*
X7500D01*
X6000Y224500D02*
Y227500D01*
X4500Y216000D02*
X7500D01*
X6000Y214500D02*
Y217500D01*
X4500Y206000D02*
X7500D01*
X6000Y204500D02*
Y207500D01*
X4500Y196000D02*
X7500D01*
X6000Y194500D02*
Y197500D01*
X4500Y186000D02*
X7500D01*
X6000Y184500D02*
Y187500D01*
X4500Y176000D02*
X7500D01*
X6000Y174500D02*
Y177500D01*
X4500Y166000D02*
X7500D01*
X6000Y164500D02*
Y167500D01*
X4500Y156000D02*
X7500D01*
X6000Y154500D02*
Y157500D01*
X4500Y146000D02*
X7500D01*
X6000Y144500D02*
Y147500D01*
X4500Y136000D02*
X7500D01*
X6000Y134500D02*
Y137500D01*
X4500Y126000D02*
X7500D01*
X6000Y124500D02*
Y127500D01*
X4500Y116000D02*
X7500D01*
X6000Y114500D02*
Y117500D01*
X4500Y106000D02*
X7500D01*
X6000Y104500D02*
Y107500D01*
X4500Y96000D02*
X7500D01*
X6000Y94500D02*
Y97500D01*
X4500Y86000D02*
X7500D01*
X6000Y84500D02*
Y87500D01*
X4500Y76000D02*
X7500D01*
X6000Y74500D02*
Y77500D01*
X4500Y66000D02*
X7500D01*
X6000Y64500D02*
Y67500D01*
X4500Y56000D02*
X7500D01*
X6000Y54500D02*
Y57500D01*
X4500Y46000D02*
X7500D01*
X6000Y44500D02*
Y47500D01*
X4500Y36000D02*
X7500D01*
X6000Y34500D02*
Y37500D01*
X4500Y26000D02*
X7500D01*
X6000Y24500D02*
Y27500D01*
X4500Y16000D02*
X7500D01*
X6000Y14500D02*
Y17500D01*
X4500Y6000D02*
X7500D01*
X6000Y4500D02*
Y7500D01*
X43500Y501750D02*
X46500D01*
X45000Y500250D02*
Y503250D01*
X16500Y513500D02*
X19500D01*
X18000Y512000D02*
Y515000D01*
X51000Y454660D02*
X54000D01*
X52500Y453160D02*
Y456160D01*
X57570Y486410D02*
X60570D01*
X59070Y484910D02*
Y487910D01*
X871750Y527500D02*
X874750D01*
X873250Y526000D02*
Y529000D01*
X809614Y518000D02*
X812615D01*
X811115Y516500D02*
Y519500D01*
X854480Y535940D02*
X857480D01*
X855980Y534440D02*
Y537440D01*
X872000Y563750D02*
X875000D01*
X873500Y562250D02*
Y565250D01*
X884868Y522750D02*
X887868D01*
X886368Y521250D02*
Y524250D01*
X844500Y498500D02*
X847500D01*
X846000Y497000D02*
Y500000D01*
X804791Y523366D02*
X807792D01*
X806292Y521866D02*
Y524865D01*
X841000Y491500D02*
X844000D01*
X842500Y490000D02*
Y493000D01*
X833500Y470000D02*
X836500D01*
X835000Y468500D02*
Y471500D01*
X810077Y552403D02*
X813077D01*
X811577Y550903D02*
Y553903D01*
X837970Y542290D02*
X840970D01*
X839470Y540790D02*
Y543790D01*
X432840Y962660D02*
X435840D01*
X434340Y961160D02*
Y964160D01*
X804954Y807454D02*
X807953D01*
X806453Y805954D02*
Y808953D01*
X87400Y537210D02*
X90400D01*
X88900Y535710D02*
Y538710D01*
X756000Y445750D02*
X759000D01*
X757500Y444250D02*
Y447250D01*
X913500Y496000D02*
X916500D01*
X915000Y494500D02*
Y497500D01*
X855325Y369890D02*
X858325D01*
X856825Y368390D02*
Y371390D01*
X654500Y327500D02*
X657500D01*
X656000Y326000D02*
Y329000D01*
X590000Y378500D02*
X593000D01*
X591500Y377000D02*
Y380000D01*
X612750Y324500D02*
X615750D01*
X614250Y323000D02*
Y326000D01*
X579750Y385750D02*
X582750D01*
X581250Y384250D02*
Y387250D01*
X730750Y498500D02*
X733750D01*
X732250Y497000D02*
Y500000D01*
X407000Y837000D02*
X410000D01*
X408500Y835500D02*
Y838500D01*
X420140Y828040D02*
X423140D01*
X421640Y826540D02*
Y829540D01*
X620890Y635000D02*
X623890D01*
X622390Y633500D02*
Y636500D01*
X601750Y562610D02*
X604750D01*
X603250Y561110D02*
Y564110D01*
X886250Y175000D02*
X889250D01*
X887750Y173500D02*
Y176500D01*
X854750Y349000D02*
X857750D01*
X856250Y347500D02*
Y350500D01*
X855500Y330750D02*
X858500D01*
X857000Y329250D02*
Y332250D01*
X869000Y305250D02*
X872000D01*
X870500Y303750D02*
Y306750D01*
X873250Y292500D02*
X876250D01*
X874750Y291000D02*
Y294000D01*
X790189Y384108D02*
X793189D01*
X791689Y382607D02*
Y385607D01*
X822500Y350500D02*
X825500D01*
X824000Y349000D02*
Y352000D01*
X741511Y462239D02*
X744511D01*
X743011Y460739D02*
Y463739D01*
X753750Y455500D02*
X756750D01*
X755250Y454000D02*
Y457000D01*
X747844Y459258D02*
X750844D01*
X749344Y457758D02*
Y460758D01*
X733830Y469900D02*
X736830D01*
X735330Y468400D02*
Y471400D01*
X743500Y405000D02*
X746500D01*
X745000Y403500D02*
Y406500D01*
X739687Y390788D02*
X742687D01*
X741187Y389288D02*
Y392288D01*
X243250Y187655D02*
X246250D01*
X244750Y186155D02*
Y189155D01*
X186750Y181750D02*
X189750D01*
X188250Y180250D02*
Y183250D01*
X153250Y167250D02*
X156250D01*
X154750Y165750D02*
Y168750D01*
X165000Y174250D02*
X168000D01*
X166500Y172750D02*
Y175750D01*
X139325Y161250D02*
X142325D01*
X140825Y159750D02*
Y162750D01*
X779750Y276250D02*
X782750D01*
X781250Y274750D02*
Y277750D01*
X731739Y343761D02*
X734739D01*
X733239Y342261D02*
Y345261D01*
X726250Y437250D02*
X729250D01*
X727750Y435750D02*
Y438750D01*
X780500Y461000D02*
X783500D01*
X782000Y459500D02*
Y462500D01*
X800000Y477250D02*
X803000D01*
X801500Y475750D02*
Y478750D01*
X439750Y376000D02*
X442750D01*
X441250Y374500D02*
Y377500D01*
X346480Y519430D02*
X349480D01*
X347980Y517930D02*
Y520930D01*
X789710Y933450D02*
X792710D01*
X791210Y931950D02*
Y934950D01*
X796060Y845820D02*
X799060D01*
X797560Y844320D02*
Y847320D01*
X775250Y777250D02*
X778250D01*
X776750Y775750D02*
Y778750D01*
X817000Y809250D02*
X820000D01*
X818500Y807750D02*
Y810750D01*
X766000Y779250D02*
X769000D01*
X767500Y777750D02*
Y780750D01*
X838000Y665500D02*
X841000D01*
X839500Y664000D02*
Y667000D01*
X880750Y712750D02*
X883750D01*
X882250Y711250D02*
Y714250D01*
X870500Y712000D02*
X873500D01*
X872000Y710500D02*
Y713500D01*
X753500Y685500D02*
X756500D01*
X755000Y684000D02*
Y687000D01*
X748750Y656250D02*
X751750D01*
X750250Y654750D02*
Y657750D01*
X750500Y622750D02*
X753500D01*
X752000Y621250D02*
Y624250D01*
X749070Y692150D02*
X752070D01*
X750570Y690650D02*
Y693650D01*
X758000Y582250D02*
X761000D01*
X759500Y580750D02*
Y583750D01*
X750750Y584250D02*
X753750D01*
X752250Y582750D02*
Y585750D01*
X304570Y908050D02*
X307570D01*
X306070Y906550D02*
Y909550D01*
X208050Y906780D02*
X211050D01*
X209550Y905280D02*
Y908280D01*
X208050Y927100D02*
X211050D01*
X209550Y925600D02*
Y928600D01*
X208050Y947420D02*
X211050D01*
X209550Y945920D02*
Y948920D01*
X628282Y737732D02*
X631282D01*
X629782Y736232D02*
Y739232D01*
X527132Y862382D02*
X530132D01*
X528632Y860882D02*
Y863882D01*
X468950Y856180D02*
X471950D01*
X470450Y854680D02*
Y857680D01*
X558570Y797560D02*
X561570D01*
X560070Y796060D02*
Y799060D01*
X390930Y814070D02*
X393930D01*
X392430Y812570D02*
Y815570D01*
X672879Y631018D02*
X675879D01*
X674379Y629519D02*
Y632519D01*
X274090Y618490D02*
X277090D01*
X275590Y616990D02*
Y619990D01*
X911680Y729665D02*
X914680D01*
X913180Y728165D02*
Y731165D01*
X944000Y362000D02*
X947000D01*
X945500Y360500D02*
Y363500D01*
X616990Y685800D02*
X619990D01*
X618490Y684300D02*
Y687300D01*
X330529Y753786D02*
X333529D01*
X332029Y752287D02*
Y755286D01*
X350713Y753786D02*
X353713D01*
X352213Y752287D02*
Y755286D01*
X343174Y753786D02*
X346174D01*
X344674Y752287D02*
Y755286D01*
X322990Y753786D02*
X325990D01*
X324490Y752287D02*
Y755286D01*
X653000Y551000D02*
X656000D01*
X654500Y549500D02*
Y552500D01*
X681250Y630000D02*
X684250D01*
X682750Y628500D02*
Y631500D01*
X215670Y775801D02*
X218670D01*
X217170Y774301D02*
Y777301D01*
X719500Y562000D02*
X722500D01*
X721000Y560500D02*
Y563500D01*
X974250Y600250D02*
X977250D01*
X975750Y598750D02*
Y601750D01*
X914250Y530750D02*
X917250D01*
X915750Y529250D02*
Y532250D01*
X846010Y450000D02*
X849010D01*
X847510Y448500D02*
Y451500D01*
X275250Y315000D02*
X278250D01*
X276750Y313500D02*
Y316500D01*
X712692Y549766D02*
X715692D01*
X714192Y548266D02*
Y551266D01*
X263000Y302000D02*
X266000D01*
X264500Y300500D02*
Y303500D01*
X789250Y251500D02*
X792250D01*
X790750Y250000D02*
Y253000D01*
X17000Y617000D02*
X20000D01*
X18500Y615500D02*
Y618500D01*
X509750Y876500D02*
X512750D01*
X511250Y875000D02*
Y878000D01*
X463320Y814500D02*
X466320D01*
X464820Y813000D02*
Y816000D01*
X319000Y851250D02*
X322000D01*
X320500Y849750D02*
Y852750D01*
X657250Y972000D02*
X660250D01*
X658750Y970500D02*
Y973500D01*
X920000Y731750D02*
X923000D01*
X921500Y730250D02*
Y733250D01*
X385750Y983630D02*
X388750D01*
X387250Y982130D02*
Y985130D01*
X367000Y976500D02*
X370000D01*
X368500Y975000D02*
Y978000D01*
X261750Y984250D02*
X264750D01*
X263250Y982750D02*
Y985750D01*
X273750Y877500D02*
X276750D01*
X275250Y876000D02*
Y879000D01*
X383310Y891540D02*
X386310D01*
X384810Y890040D02*
Y893040D01*
X389660Y925830D02*
X392660D01*
X391160Y924330D02*
Y927330D01*
X394740Y863600D02*
X397740D01*
X396240Y862100D02*
Y865100D01*
X402360Y938530D02*
X405360D01*
X403860Y937030D02*
Y940030D01*
X656360Y937260D02*
X659360D01*
X657860Y935760D02*
Y938760D01*
X658900Y821690D02*
X661900D01*
X660400Y820190D02*
Y823190D01*
X755420Y358140D02*
X758420D01*
X756920Y356640D02*
Y359640D01*
X586510Y873760D02*
X589510D01*
X588010Y872260D02*
Y875260D01*
X599210Y852170D02*
X602210D01*
X600710Y850670D02*
Y853670D01*
X644930Y815340D02*
X647930D01*
X646430Y813840D02*
Y816840D01*
X345210Y852170D02*
X348210D01*
X346710Y850670D02*
Y853670D01*
X799870Y566420D02*
X802870D01*
X801370Y564920D02*
Y567920D01*
X797330Y574040D02*
X800330D01*
X798830Y572540D02*
Y575540D01*
X547140Y524510D02*
X550140D01*
X548640Y523010D02*
Y526010D01*
X787170Y585470D02*
X790170D01*
X788670Y583970D02*
Y586970D01*
X620800Y643890D02*
X623800D01*
X622300Y642390D02*
Y645390D01*
X562380Y654050D02*
X565380D01*
X563880Y652550D02*
Y655550D01*
X728956Y566030D02*
X731955D01*
X730455Y564529D02*
Y567529D01*
X943380Y453390D02*
X946380D01*
X944880Y451890D02*
Y454890D01*
X463320Y835660D02*
X466320D01*
X464820Y834160D02*
Y837160D01*
X802410Y630270D02*
X805410D01*
X803910Y628770D02*
Y631770D01*
X431570Y852170D02*
X434570D01*
X433070Y850670D02*
Y853670D01*
X463320Y922370D02*
X466320D01*
X464820Y920870D02*
Y923870D01*
X423950Y928370D02*
X426950D01*
X425450Y926870D02*
Y929870D01*
X463320Y947420D02*
X466320D01*
X464820Y945920D02*
Y948920D01*
X463320Y906780D02*
X466320D01*
X464820Y905280D02*
Y908280D01*
X469670Y887561D02*
X472670D01*
X471170Y886061D02*
Y889061D01*
X835228Y530127D02*
X838228D01*
X836728Y528627D02*
Y531627D01*
X846860Y599440D02*
X849860D01*
X848360Y597940D02*
Y600940D01*
X176837Y721084D02*
X179837D01*
X178337Y719584D02*
Y722583D01*
X187632Y710634D02*
X190632D01*
X189132Y709134D02*
Y712134D01*
X181682Y715266D02*
X184682D01*
X183182Y713766D02*
Y716766D01*
X188890Y729802D02*
X191890D01*
X190390Y728302D02*
Y731302D01*
X183558Y735134D02*
X186558D01*
X185058Y733634D02*
Y736634D01*
X171505Y726415D02*
X174505D01*
X173005Y724915D02*
Y727915D01*
X178227Y740465D02*
X181227D01*
X179727Y738965D02*
Y741965D01*
X408710Y626110D02*
X411710D01*
X410210Y624610D02*
Y627610D01*
X281710Y692150D02*
X284710D01*
X283210Y690650D02*
Y693650D01*
X238530Y679450D02*
X241530D01*
X240030Y677950D02*
Y680950D01*
X342670Y679450D02*
X345670D01*
X344170Y677950D02*
Y680950D01*
X330349Y707322D02*
X333349D01*
X331849Y705822D02*
Y708822D01*
X288060Y586740D02*
X291060D01*
X289560Y585240D02*
Y588240D01*
X274090Y586740D02*
X277090D01*
X275590Y585240D02*
Y588240D01*
X247420Y563880D02*
X250420D01*
X248920Y562380D02*
Y565380D01*
X219480Y392430D02*
X222480D01*
X220980Y390930D02*
Y393930D01*
X150900Y436880D02*
X153900D01*
X152400Y435380D02*
Y438380D01*
X357910Y392430D02*
X360910D01*
X359410Y390930D02*
Y393930D01*
X249960Y382270D02*
X252960D01*
X251460Y380770D02*
Y383770D01*
X249960Y402590D02*
X252960D01*
X251460Y401090D02*
Y404090D01*
X282980Y400050D02*
X285980D01*
X284480Y398550D02*
Y401550D01*
X282980Y384810D02*
X285980D01*
X284480Y383310D02*
Y386310D01*
X528500Y973430D02*
X531500D01*
X530000Y971930D02*
Y974930D01*
X559840Y908050D02*
X562840D01*
X561340Y906550D02*
Y909550D01*
X599210Y961390D02*
X602210D01*
X600710Y959890D02*
Y962890D01*
X343940Y964580D02*
X346940D01*
X345440Y963080D02*
Y966080D01*
X305840Y796290D02*
X308840D01*
X307340Y794790D02*
Y797790D01*
X644930Y925830D02*
X647930D01*
X646430Y924330D02*
Y927330D01*
X694460Y568960D02*
X697460D01*
X695960Y567460D02*
Y570460D01*
X756690Y406400D02*
X759690D01*
X758190Y404900D02*
Y407900D01*
X953540Y185420D02*
X956540D01*
X955040Y183920D02*
Y186920D01*
X135712Y776522D02*
X138712D01*
X137212Y775022D02*
Y778022D01*
X143094Y774986D02*
X146094D01*
X144594Y773486D02*
Y776486D01*
X149219Y770589D02*
X152219D01*
X150719Y769089D02*
Y772089D01*
X154550Y765258D02*
X157550D01*
X156050Y763758D02*
Y766758D01*
X159882Y759926D02*
X162882D01*
X161382Y758426D02*
Y761426D01*
X165214Y754594D02*
X168214D01*
X166714Y753094D02*
Y756095D01*
X193924Y730662D02*
X196924D01*
X195424Y729162D02*
Y732162D01*
X201304Y729119D02*
X204304D01*
X202804Y727619D02*
Y730619D01*
X208841Y728912D02*
X211841D01*
X210341Y727412D02*
Y730412D01*
X216381Y728912D02*
X219381D01*
X217881Y727412D02*
Y730412D01*
X223921Y728912D02*
X226921D01*
X225421Y727412D02*
Y730412D01*
X231461Y728912D02*
X234461D01*
X232961Y727412D02*
Y730412D01*
X239001Y728912D02*
X242001D01*
X240501Y727412D02*
Y730412D01*
X246541Y728912D02*
X249541D01*
X248041Y727412D02*
Y730412D01*
X254081Y728912D02*
X257081D01*
X255581Y727412D02*
Y730412D01*
X261621Y728912D02*
X264621D01*
X263121Y727412D02*
Y730412D01*
X269161Y728912D02*
X272161D01*
X270661Y727412D02*
Y730412D01*
X276701Y728918D02*
X279701D01*
X278201Y727418D02*
Y730418D01*
X284127Y730223D02*
X287127D01*
X285627Y728724D02*
Y731723D01*
X284589Y722698D02*
X287589D01*
X286089Y721198D02*
Y724198D01*
X277049Y722698D02*
X280049D01*
X278549Y721198D02*
Y724198D01*
X269509Y722698D02*
X272509D01*
X271009Y721198D02*
Y724198D01*
X261969Y722698D02*
X264969D01*
X263469Y721198D02*
Y724198D01*
X254429Y722698D02*
X257429D01*
X255929Y721198D02*
Y724198D01*
X246889Y722698D02*
X249889D01*
X248389Y721198D02*
Y724198D01*
X239349Y722698D02*
X242349D01*
X240849Y721198D02*
Y724198D01*
X231809Y722698D02*
X234809D01*
X233309Y721198D02*
Y724198D01*
X224269Y722698D02*
X227269D01*
X225769Y721198D02*
Y724198D01*
X216729Y722698D02*
X219729D01*
X218229Y721198D02*
Y724198D01*
X209189Y722698D02*
X212189D01*
X210689Y721198D02*
Y724198D01*
X201649Y722698D02*
X204649D01*
X203149Y721198D02*
Y724198D01*
X194355Y724608D02*
X197355D01*
X195855Y723108D02*
Y726108D01*
X172617Y745504D02*
X175617D01*
X174117Y744004D02*
Y747004D01*
X166047Y749203D02*
X169047D01*
X167547Y747703D02*
Y750703D01*
X158837Y751408D02*
X161837D01*
X160337Y749908D02*
Y752908D01*
X151313Y751898D02*
X154313D01*
X152813Y750398D02*
Y753398D01*
X143773Y751898D02*
X146773D01*
X145273Y750398D02*
Y753398D01*
X136233Y751898D02*
X139233D01*
X137733Y750398D02*
Y753398D01*
X136820Y736522D02*
X139820D01*
X138320Y735022D02*
Y738022D01*
X144360Y736522D02*
X147360D01*
X145860Y735022D02*
Y738022D01*
X151900Y736522D02*
X154900D01*
X153400Y735022D02*
Y738022D01*
X159346Y735340D02*
X162346D01*
X160846Y733840D02*
Y736840D01*
X165688Y731260D02*
X168687D01*
X167188Y729760D02*
Y732760D01*
X194649Y707876D02*
X197649D01*
X196149Y706376D02*
Y709376D01*
X202169Y707322D02*
X205169D01*
X203669Y705822D02*
Y708822D01*
X209709Y707322D02*
X212709D01*
X211209Y705822D02*
Y708822D01*
X217249Y707322D02*
X220249D01*
X218749Y705822D02*
Y708822D01*
X224789Y707322D02*
X227789D01*
X226289Y705822D02*
Y708822D01*
X232329Y707322D02*
X235329D01*
X233829Y705822D02*
Y708822D01*
X239869Y707322D02*
X242869D01*
X241369Y705822D02*
Y708822D01*
X247409Y707322D02*
X250409D01*
X248909Y705822D02*
Y708822D01*
X254949Y707322D02*
X257949D01*
X256449Y705822D02*
Y708822D01*
X262489Y707322D02*
X265489D01*
X263989Y705822D02*
Y708822D01*
X270029Y707322D02*
X273029D01*
X271529Y705822D02*
Y708822D01*
X277569Y707322D02*
X280569D01*
X279069Y705822D02*
Y708822D01*
X285109Y707322D02*
X288109D01*
X286609Y705822D02*
Y708822D01*
X292649Y707322D02*
X295649D01*
X294149Y705822D02*
Y708822D01*
X300189Y707322D02*
X303189D01*
X301689Y705822D02*
Y708822D01*
X307729Y707322D02*
X310729D01*
X309229Y705822D02*
Y708822D01*
X315269Y707322D02*
X318269D01*
X316769Y705822D02*
Y708822D01*
X322809Y707322D02*
X325809D01*
X324309Y705822D02*
Y708822D01*
X337889Y707322D02*
X340889D01*
X339389Y705822D02*
Y708822D01*
X345429Y707322D02*
X348429D01*
X346929Y705822D02*
Y708822D01*
X352969Y707322D02*
X355969D01*
X354469Y705822D02*
Y708822D01*
X360509Y707322D02*
X363509D01*
X362009Y705822D02*
Y708822D01*
X368049Y707322D02*
X371049D01*
X369549Y705822D02*
Y708822D01*
X375589Y707322D02*
X378589D01*
X377089Y705822D02*
Y708822D01*
X383129Y707322D02*
X386129D01*
X384629Y705822D02*
Y708822D01*
X390669Y707322D02*
X393669D01*
X392169Y705822D02*
Y708822D01*
X398209Y707322D02*
X401209D01*
X399709Y705822D02*
Y708822D01*
X405749Y707322D02*
X408749D01*
X407249Y705822D02*
Y708822D01*
X413289Y707322D02*
X416289D01*
X414789Y705822D02*
Y708822D01*
X420829Y707322D02*
X423829D01*
X422329Y705822D02*
Y708822D01*
X428369Y707322D02*
X431369D01*
X429869Y705822D02*
Y708822D01*
X435906Y707119D02*
X438906D01*
X437406Y705619D02*
Y708619D01*
X443153Y705037D02*
X446153D01*
X444653Y703537D02*
Y706537D01*
X449274Y700634D02*
X452274D01*
X450774Y699134D02*
Y702134D01*
X454605Y695303D02*
X457606D01*
X456105Y693802D02*
Y696803D01*
X459937Y689971D02*
X462937D01*
X461437Y688471D02*
Y691471D01*
X465269Y684639D02*
X468269D01*
X466769Y683139D02*
Y686139D01*
X469546Y678430D02*
X472546D01*
X471046Y676930D02*
Y679930D01*
X470872Y671008D02*
X473872D01*
X472372Y669508D02*
Y672507D01*
X470872Y663468D02*
X473872D01*
X472372Y661968D02*
Y664968D01*
X470872Y655928D02*
X473872D01*
X472372Y654428D02*
Y657428D01*
X470872Y648388D02*
X473872D01*
X472372Y646888D02*
Y649888D01*
X470872Y640848D02*
X473872D01*
X472372Y639348D02*
Y642348D01*
X470872Y633308D02*
X473872D01*
X472372Y631808D02*
Y634808D01*
X470872Y625768D02*
X473872D01*
X472372Y624268D02*
Y627268D01*
X470872Y618228D02*
X473872D01*
X472372Y616728D02*
Y619728D01*
X470872Y610688D02*
X473872D01*
X472372Y609188D02*
Y612188D01*
X470872Y603148D02*
X473872D01*
X472372Y601648D02*
Y604648D01*
X470872Y595608D02*
X473872D01*
X472372Y594108D02*
Y597108D01*
X470872Y588068D02*
X473872D01*
X472372Y586568D02*
Y589568D01*
X470872Y580528D02*
X473872D01*
X472372Y579028D02*
Y582028D01*
X470872Y572988D02*
X473872D01*
X472372Y571488D02*
Y574488D01*
X470872Y565448D02*
X473872D01*
X472372Y563948D02*
Y566948D01*
X470872Y557908D02*
X473872D01*
X472372Y556408D02*
Y559408D01*
X470872Y550368D02*
X473872D01*
X472372Y548868D02*
Y551868D01*
X470872Y542828D02*
X473872D01*
X472372Y541328D02*
Y544328D01*
X470872Y535288D02*
X473872D01*
X472372Y533788D02*
Y536788D01*
X470872Y527748D02*
X473872D01*
X472372Y526248D02*
Y529248D01*
X470872Y520208D02*
X473872D01*
X472372Y518708D02*
Y521708D01*
X471428Y512688D02*
X474428D01*
X472928Y511188D02*
Y514188D01*
X474897Y505993D02*
X477897D01*
X476397Y504493D02*
Y507494D01*
X482370Y495300D02*
X485370D01*
X483870Y493800D02*
Y496800D01*
X494098Y496502D02*
X497098D01*
X495598Y495002D02*
Y498002D01*
X501638Y496502D02*
X504638D01*
X503138Y495002D02*
Y498002D01*
X509178Y496502D02*
X512178D01*
X510678Y495002D02*
Y498002D01*
X516718Y496502D02*
X519718D01*
X518218Y495002D02*
Y498002D01*
X524258Y496502D02*
X527258D01*
X525758Y495002D02*
Y498002D01*
X531798Y496502D02*
X534798D01*
X533298Y495002D02*
Y498002D01*
X539338Y496502D02*
X542338D01*
X540838Y495002D02*
Y498002D01*
X546878Y496502D02*
X549878D01*
X548378Y495002D02*
Y498002D01*
X554418Y496502D02*
X557418D01*
X555918Y495002D02*
Y498002D01*
X554004Y511878D02*
X557004D01*
X555504Y510378D02*
Y513378D01*
X546464Y511878D02*
X549464D01*
X547964Y510378D02*
Y513378D01*
X523844Y511878D02*
X526844D01*
X525344Y510378D02*
Y513378D01*
X516304Y511878D02*
X519304D01*
X517804Y510378D02*
Y513378D01*
X508764Y511878D02*
X511764D01*
X510264Y510378D02*
Y513378D01*
X501224Y511878D02*
X504224D01*
X502724Y510378D02*
Y513378D01*
X493684Y511878D02*
X496684D01*
X495184Y510378D02*
Y513378D01*
X487050Y515462D02*
X490050D01*
X488550Y513962D02*
Y516962D01*
X486248Y522959D02*
X489248D01*
X487748Y521459D02*
Y524459D01*
X486248Y530499D02*
X489248D01*
X487748Y528999D02*
Y531999D01*
X486248Y538039D02*
X489248D01*
X487748Y536539D02*
Y539539D01*
X486248Y545579D02*
X489248D01*
X487748Y544079D02*
Y547079D01*
X486248Y553119D02*
X489248D01*
X487748Y551619D02*
Y554619D01*
X486248Y560659D02*
X489248D01*
X487748Y559159D02*
Y562159D01*
X486248Y568199D02*
X489248D01*
X487748Y566699D02*
Y569699D01*
X486248Y575739D02*
X489248D01*
X487748Y574239D02*
Y577239D01*
X486248Y583279D02*
X489248D01*
X487748Y581779D02*
Y584779D01*
X486248Y590819D02*
X489248D01*
X487748Y589319D02*
Y592319D01*
X486248Y598359D02*
X489248D01*
X487748Y596859D02*
Y599859D01*
X486248Y605899D02*
X489248D01*
X487748Y604399D02*
Y607399D01*
X486248Y613439D02*
X489248D01*
X487748Y611939D02*
Y614939D01*
X486248Y620979D02*
X489248D01*
X487748Y619479D02*
Y622479D01*
X486248Y628519D02*
X489248D01*
X487748Y627019D02*
Y630019D01*
X486248Y636059D02*
X489248D01*
X487748Y634559D02*
Y637559D01*
X486248Y643599D02*
X489248D01*
X487748Y642099D02*
Y645099D01*
X486248Y651139D02*
X489248D01*
X487748Y649639D02*
Y652639D01*
X486248Y658679D02*
X489248D01*
X487748Y657179D02*
Y660179D01*
X486248Y666219D02*
X489248D01*
X487748Y664719D02*
Y667719D01*
X486139Y673758D02*
X489139D01*
X487639Y672258D02*
Y675258D01*
X484859Y681189D02*
X487859D01*
X486359Y679689D02*
Y682689D01*
X481856Y688104D02*
X484855D01*
X483355Y686604D02*
Y689604D01*
X477401Y694188D02*
X480401D01*
X478901Y692688D02*
Y695688D01*
X472101Y699551D02*
X475101D01*
X473601Y698051D02*
Y701051D01*
X466769Y704883D02*
X469770D01*
X468270Y703382D02*
Y706383D01*
X461438Y710214D02*
X464438D01*
X462938Y708714D02*
Y711714D01*
X455860Y715287D02*
X458860D01*
X457360Y713787D02*
Y716787D01*
X449375Y719133D02*
X452374D01*
X450874Y717633D02*
Y720633D01*
X442249Y721599D02*
X445249D01*
X443749Y720099D02*
Y723099D01*
X434784Y722660D02*
X437784D01*
X436284Y721160D02*
Y724159D01*
X427244Y722698D02*
X430244D01*
X428744Y721198D02*
Y724198D01*
X419704Y722698D02*
X422704D01*
X421204Y721198D02*
Y724198D01*
X412164Y722698D02*
X415164D01*
X413664Y721198D02*
Y724198D01*
X404624Y722698D02*
X407624D01*
X406124Y721198D02*
Y724198D01*
X397084Y722698D02*
X400084D01*
X398584Y721198D02*
Y724198D01*
X389544Y722698D02*
X392544D01*
X391044Y721198D02*
Y724198D01*
X382004Y722698D02*
X385004D01*
X383504Y721198D02*
Y724198D01*
X374464Y722698D02*
X377464D01*
X375964Y721198D02*
Y724198D01*
X366950Y723320D02*
X369950D01*
X368450Y721820D02*
Y724820D01*
X372008Y728912D02*
X375008D01*
X373508Y727412D02*
Y730412D01*
X379548Y728912D02*
X382548D01*
X381048Y727412D02*
Y730412D01*
X387088Y728912D02*
X390088D01*
X388588Y727412D02*
Y730412D01*
X394628Y728912D02*
X397628D01*
X396128Y727412D02*
Y730412D01*
X402168Y728912D02*
X405168D01*
X403668Y727412D02*
Y730412D01*
X409708Y728912D02*
X412708D01*
X411208Y727412D02*
Y730412D01*
X417248Y728912D02*
X420248D01*
X418748Y727412D02*
Y730412D01*
X424788Y728912D02*
X427788D01*
X426288Y727412D02*
Y730412D01*
X432328Y728912D02*
X435328D01*
X433828Y727412D02*
Y730412D01*
X439868Y728912D02*
X442868D01*
X441368Y727412D02*
Y730412D01*
X447408Y728912D02*
X450408D01*
X448908Y727412D02*
Y730412D01*
X454948Y728912D02*
X457948D01*
X456448Y727412D02*
Y730412D01*
X462488Y728912D02*
X465488D01*
X463988Y727412D02*
Y730412D01*
X470028Y728912D02*
X473028D01*
X471528Y727412D02*
Y730412D01*
X477568Y728912D02*
X480568D01*
X479068Y727412D02*
Y730412D01*
X485044Y727936D02*
X488044D01*
X486544Y726436D02*
Y729436D01*
X491539Y724107D02*
X494539D01*
X493039Y722607D02*
Y725607D01*
X496907Y718811D02*
X499907D01*
X498407Y717311D02*
Y720311D01*
X502238Y713480D02*
X505238D01*
X503738Y711980D02*
Y714980D01*
X505230Y707390D02*
X508230D01*
X506730Y705890D02*
Y708890D01*
X506404Y699674D02*
X509404D01*
X507904Y698174D02*
Y701174D01*
X507349Y692193D02*
X510349D01*
X508849Y690693D02*
Y693693D01*
X509827Y685072D02*
X512826D01*
X511326Y683572D02*
Y686572D01*
X513965Y678769D02*
X516965D01*
X515465Y677269D02*
Y680269D01*
X519353Y673495D02*
X522353D01*
X520853Y671995D02*
Y674995D01*
X525828Y669631D02*
X528828D01*
X527328Y668131D02*
Y671131D01*
X533001Y667308D02*
X536001D01*
X534501Y665807D02*
Y668808D01*
X540511Y666632D02*
X543511D01*
X542011Y665132D02*
Y668132D01*
X555591Y666632D02*
X558591D01*
X557091Y665132D02*
Y668132D01*
X563131Y666632D02*
X566131D01*
X564631Y665132D02*
Y668132D01*
X565298Y682008D02*
X568298D01*
X566798Y680508D02*
Y683508D01*
X557758Y682008D02*
X560758D01*
X559258Y680508D02*
Y683508D01*
X550218Y682008D02*
X553218D01*
X551718Y680508D02*
Y683508D01*
X542678Y682008D02*
X545678D01*
X544178Y680508D02*
Y683508D01*
X535162Y682614D02*
X538162D01*
X536662Y681114D02*
Y684114D01*
X528430Y686009D02*
X531430D01*
X529930Y684509D02*
Y687509D01*
X523710Y691889D02*
X526710D01*
X525210Y690389D02*
Y693389D01*
X521852Y699197D02*
X524852D01*
X523352Y697697D02*
Y700697D01*
X521808Y706737D02*
X524808D01*
X523308Y705237D02*
Y708237D01*
X520470Y720090D02*
X523470D01*
X521970Y718590D02*
Y721590D01*
X511770Y725692D02*
X514770D01*
X513270Y724192D02*
Y727192D01*
X506438Y731023D02*
X509439D01*
X507938Y729523D02*
Y732523D01*
X501007Y736253D02*
X504007D01*
X502507Y734753D02*
Y737753D01*
X494803Y740538D02*
X497803D01*
X496303Y739038D02*
Y742038D01*
X487745Y743191D02*
X490745D01*
X489245Y741691D02*
Y744691D01*
X480284Y744277D02*
X483284D01*
X481783Y742777D02*
Y745777D01*
X472744Y744288D02*
X475743D01*
X474244Y742788D02*
Y745788D01*
X465204Y744288D02*
X468204D01*
X466704Y742788D02*
Y745788D01*
X457664Y744288D02*
X460664D01*
X459164Y742788D02*
Y745788D01*
X450124Y744288D02*
X453124D01*
X451624Y742788D02*
Y745788D01*
X442584Y744288D02*
X445584D01*
X444084Y742788D02*
Y745788D01*
X435044Y744288D02*
X438044D01*
X436544Y742788D02*
Y745788D01*
X427504Y744288D02*
X430504D01*
X429004Y742788D02*
Y745788D01*
X419964Y744288D02*
X422964D01*
X421464Y742788D02*
Y745788D01*
X412424Y744288D02*
X415424D01*
X413924Y742788D02*
Y745788D01*
X404884Y744288D02*
X407884D01*
X406384Y742788D02*
Y745788D01*
X397344Y744288D02*
X400344D01*
X398844Y742788D02*
Y745788D01*
X389804Y744288D02*
X392804D01*
X391304Y742788D02*
Y745788D01*
X382264Y744288D02*
X385264D01*
X383764Y742788D02*
Y745788D01*
X374724Y744288D02*
X377724D01*
X376224Y742788D02*
Y745788D01*
X367184Y744279D02*
X370184D01*
X368684Y742779D02*
Y745779D01*
X359806Y742721D02*
X362806D01*
X361306Y741221D02*
Y744221D01*
X356995Y749717D02*
X359995D01*
X358495Y748217D02*
Y751217D01*
X336820Y749736D02*
X339820D01*
X338320Y748236D02*
Y751236D01*
X316509Y749933D02*
X319509D01*
X318009Y748434D02*
Y751433D01*
X310122Y753941D02*
X313122D01*
X311622Y752441D02*
Y755441D01*
X302586Y753686D02*
X305586D01*
X304086Y752186D02*
Y755186D01*
X295713Y750587D02*
X298713D01*
X297213Y749087D02*
Y752087D01*
X289089Y754190D02*
X292089D01*
X290589Y752690D02*
Y755690D01*
X281597Y753342D02*
X284597D01*
X283097Y751842D02*
Y754842D01*
X275890Y748414D02*
X278890D01*
X277390Y746914D02*
Y749914D01*
X269579Y744288D02*
X272579D01*
X271079Y742788D02*
Y745788D01*
X262039Y744288D02*
X265039D01*
X263539Y742788D02*
Y745788D01*
X254499Y744288D02*
X257499D01*
X255999Y742788D02*
Y745788D01*
X246959Y744288D02*
X249959D01*
X248459Y742788D02*
Y745788D01*
X239419Y744288D02*
X242419D01*
X240919Y742788D02*
Y745788D01*
X231879Y744288D02*
X234879D01*
X233379Y742788D02*
Y745788D01*
X224340Y744288D02*
X227339D01*
X225840Y742788D02*
Y745788D01*
X216800Y744288D02*
X219799D01*
X218300Y742788D02*
Y745788D01*
X209259Y744288D02*
X212260D01*
X210760Y742788D02*
Y745788D01*
X201724Y744564D02*
X204725D01*
X203225Y743064D02*
Y746064D01*
X194703Y747311D02*
X197703D01*
X196203Y745811D02*
Y748811D01*
X189145Y752407D02*
X192145D01*
X190645Y750907D02*
Y753907D01*
X183814Y757738D02*
X186814D01*
X185314Y756238D02*
Y759238D01*
X178482Y763070D02*
X181482D01*
X179982Y761570D02*
Y764570D01*
X173151Y768401D02*
X176151D01*
X174651Y766901D02*
Y769901D01*
X167819Y773733D02*
X170819D01*
X169319Y772233D02*
Y775233D01*
X162488Y779064D02*
X165487D01*
X163988Y777564D02*
Y780564D01*
X157023Y784260D02*
X160023D01*
X158523Y782760D02*
Y785760D01*
X150733Y788418D02*
X153734D01*
X152233Y786918D02*
Y789918D01*
X143629Y790944D02*
X146629D01*
X145129Y789444D02*
Y792444D01*
X136149Y791895D02*
X139149D01*
X137649Y790395D02*
Y793395D01*
X509040Y524510D02*
X512040D01*
X510540Y523010D02*
Y526010D01*
X376960Y699770D02*
X379960D01*
X378460Y698270D02*
Y701270D01*
X384580Y594360D02*
X387580D01*
X386080Y592860D02*
Y595860D01*
X369340Y594360D02*
X372340D01*
X370840Y592860D02*
Y595860D01*
X384580Y624840D02*
X387580D01*
X386080Y623340D02*
Y626340D01*
X215670Y855417D02*
X218670D01*
X217170Y853917D02*
Y856917D01*
X209320Y835660D02*
X212320D01*
X210820Y834160D02*
Y837160D01*
X209320Y795020D02*
X212320D01*
X210820Y793520D02*
Y796520D01*
X209320Y815340D02*
X212320D01*
X210820Y813840D02*
Y816840D01*
X215670Y967177D02*
X218670D01*
X217170Y965677D02*
Y968677D01*
X214400Y887730D02*
X217400D01*
X215900Y886230D02*
Y889230D01*
X469665Y778515D02*
X472665D01*
X471165Y777015D02*
Y780015D01*
X463320Y796290D02*
X466320D01*
X464820Y794790D02*
Y797790D01*
X451890Y768350D02*
X454890D01*
X453390Y766850D02*
Y769850D01*
X790980Y469900D02*
X793980D01*
X792480Y468400D02*
Y471400D01*
X815110Y434340D02*
X818110D01*
X816610Y432840D02*
Y435840D01*
X523010Y654050D02*
X526010D01*
X524510Y652550D02*
Y655550D01*
X540790Y567690D02*
X543790D01*
X542290Y566190D02*
Y569190D01*
X609370Y535940D02*
X612370D01*
X610870Y534440D02*
Y537440D01*
X614450Y543560D02*
X617450D01*
X615950Y542060D02*
Y545060D01*
X947190Y742950D02*
X950190D01*
X948690Y741450D02*
Y744450D01*
X947190Y814070D02*
X950190D01*
X948690Y812570D02*
Y815570D01*
X900200Y880110D02*
X903200D01*
X901700Y878610D02*
Y881610D01*
X48030Y538480D02*
X51030D01*
X49530Y536980D02*
Y539980D01*
X391275Y516164D02*
X394276D01*
X392775Y514664D02*
Y517664D01*
X407440Y522860D02*
X410440D01*
X408940Y521360D02*
Y524360D01*
X423605Y516164D02*
X426604D01*
X425104Y514664D02*
Y517664D01*
X430300Y500000D02*
X433300D01*
X431800Y498500D02*
Y501500D01*
X423605Y483835D02*
X426604D01*
X425104Y482336D02*
Y485336D01*
X407440Y477140D02*
X410440D01*
X408940Y475640D02*
Y478640D01*
X391275Y483835D02*
X394276D01*
X392775Y482336D02*
Y485336D01*
X384580Y500000D02*
X387580D01*
X386080Y498500D02*
Y501500D01*
M02*
