G04*
G04 #@! TF.GenerationSoftware,Altium Limited,Altium Designer,24.5.2 (23)*
G04*
G04 Layer_Color=16711935*
%FSLAX44Y44*%
%MOMM*%
G71*
G04*
G04 #@! TF.SameCoordinates,49661B99-7F85-447B-B4A6-A33B5E3A9DE8*
G04*
G04*
G04 #@! TF.FilePolarity,Negative*
G04*
G01*
G75*
G04:AMPARAMS|DCode=69|XSize=1.15mm|YSize=1.85mm|CornerRadius=0.2mm|HoleSize=0mm|Usage=FLASHONLY|Rotation=0.000|XOffset=0mm|YOffset=0mm|HoleType=Round|Shape=RoundedRectangle|*
%AMROUNDEDRECTD69*
21,1,1.1500,1.4500,0,0,0.0*
21,1,0.7500,1.8500,0,0,0.0*
1,1,0.4000,0.3750,-0.7250*
1,1,0.4000,-0.3750,-0.7250*
1,1,0.4000,-0.3750,0.7250*
1,1,0.4000,0.3750,0.7250*
%
%ADD69ROUNDEDRECTD69*%
G04:AMPARAMS|DCode=78|XSize=1.55mm|YSize=1.85mm|CornerRadius=0.25mm|HoleSize=0mm|Usage=FLASHONLY|Rotation=270.000|XOffset=0mm|YOffset=0mm|HoleType=Round|Shape=RoundedRectangle|*
%AMROUNDEDRECTD78*
21,1,1.5500,1.3500,0,0,270.0*
21,1,1.0500,1.8500,0,0,270.0*
1,1,0.5000,-0.6750,-0.5250*
1,1,0.5000,-0.6750,0.5250*
1,1,0.5000,0.6750,0.5250*
1,1,0.5000,0.6750,-0.5250*
%
%ADD78ROUNDEDRECTD78*%
G04:AMPARAMS|DCode=82|XSize=0.78mm|YSize=0.98mm|CornerRadius=0.1538mm|HoleSize=0mm|Usage=FLASHONLY|Rotation=270.000|XOffset=0mm|YOffset=0mm|HoleType=Round|Shape=RoundedRectangle|*
%AMROUNDEDRECTD82*
21,1,0.7800,0.6725,0,0,270.0*
21,1,0.4725,0.9800,0,0,270.0*
1,1,0.3075,-0.3363,-0.2362*
1,1,0.3075,-0.3363,0.2362*
1,1,0.3075,0.3363,0.2362*
1,1,0.3075,0.3363,-0.2362*
%
%ADD82ROUNDEDRECTD82*%
%ADD84R,1.9900X1.9500*%
%ADD103R,1.8500X1.1500*%
%ADD107C,6.1500*%
%ADD108C,1.9400*%
%ADD109C,1.8750*%
%ADD110C,2.7750*%
%ADD111R,2.7750X2.7750*%
%ADD112C,0.6500*%
%ADD128R,1.8500X1.5500*%
G04:AMPARAMS|DCode=129|XSize=1.42mm|YSize=2.25mm|CornerRadius=0.2338mm|HoleSize=0mm|Usage=FLASHONLY|Rotation=270.000|XOffset=0mm|YOffset=0mm|HoleType=Round|Shape=RoundedRectangle|*
%AMROUNDEDRECTD129*
21,1,1.4200,1.7825,0,0,270.0*
21,1,0.9525,2.2500,0,0,270.0*
1,1,0.4675,-0.8913,-0.4763*
1,1,0.4675,-0.8913,0.4763*
1,1,0.4675,0.8913,0.4763*
1,1,0.4675,0.8913,-0.4763*
%
%ADD129ROUNDEDRECTD129*%
G36*
X996365Y997043D02*
X997043Y996365D01*
X997410Y995479D01*
Y995000D01*
Y5000D01*
Y4521D01*
X997043Y3635D01*
X996365Y2957D01*
X995480Y2590D01*
X4521D01*
X3635Y2957D01*
X2957Y3635D01*
X2590Y4521D01*
Y5000D01*
Y995000D01*
Y995480D01*
X2957Y996365D01*
X3635Y997043D01*
X4521Y997410D01*
X995479D01*
X996365Y997043D01*
D02*
G37*
%LPC*%
G36*
X904600Y990000D02*
X35400D01*
X32910Y989878D01*
X28027Y988906D01*
X23426Y987001D01*
X19286Y984234D01*
X15766Y980714D01*
X12999Y976573D01*
X11094Y971973D01*
X10122Y967090D01*
X10000Y964600D01*
Y35400D01*
X10122Y32910D01*
X11094Y28027D01*
X12999Y23426D01*
X15766Y19286D01*
X19286Y15766D01*
X23426Y12999D01*
X28027Y11094D01*
X32910Y10122D01*
X35400Y10000D01*
X801500D01*
Y167750D01*
X805000D01*
X806500Y166250D01*
Y10000D01*
X904600D01*
X907090Y10122D01*
X911973Y11094D01*
X916573Y12999D01*
X920714Y15766D01*
X924234Y19286D01*
X927001Y23426D01*
X928906Y28027D01*
X929878Y32910D01*
X930000Y35400D01*
Y44600D01*
Y47102D01*
X930976Y52009D01*
X932891Y56631D01*
X935670Y60792D01*
X939208Y64330D01*
X943369Y67109D01*
X947991Y69024D01*
X952898Y70000D01*
X964600D01*
X967090Y70122D01*
X971973Y71094D01*
X976573Y72999D01*
X980714Y75766D01*
X984234Y79286D01*
X987001Y83427D01*
X988906Y88027D01*
X989878Y92910D01*
X990000Y95400D01*
Y904600D01*
X989878Y907090D01*
X988906Y911973D01*
X987001Y916573D01*
X984234Y920714D01*
X980714Y924234D01*
X976573Y927001D01*
X971973Y928906D01*
X967090Y929878D01*
X964600Y930000D01*
X952898D01*
X947991Y930976D01*
X943369Y932891D01*
X939208Y935670D01*
X935670Y939208D01*
X932891Y943369D01*
X930976Y947991D01*
X930000Y952898D01*
Y955400D01*
Y964600D01*
X929878Y967090D01*
X928906Y971973D01*
X927001Y976573D01*
X924234Y980714D01*
X920714Y984234D01*
X916573Y987001D01*
X911973Y988906D01*
X907090Y989878D01*
X904600Y990000D01*
D02*
G37*
%LPD*%
G36*
X731000Y163368D02*
X729500Y162750D01*
X335000D01*
X301250Y129000D01*
X220500D01*
X219000Y130500D01*
Y132500D01*
X220500Y134000D01*
X299250D01*
X333000Y167750D01*
X731000D01*
Y163368D01*
D02*
G37*
D69*
X702650Y256650D02*
D03*
X721650D02*
D03*
X676500Y255250D02*
D03*
X657500D02*
D03*
X156500Y827250D02*
D03*
X175500D02*
D03*
X156680Y806120D02*
D03*
X175680D02*
D03*
D78*
X292100Y476250D02*
D03*
Y499110D02*
D03*
X250190Y525400D02*
D03*
Y502540D02*
D03*
X231140Y525400D02*
D03*
Y502540D02*
D03*
D82*
X446750Y288960D02*
D03*
Y311260D02*
D03*
X447910Y219960D02*
D03*
Y242260D02*
D03*
X355660Y221560D02*
D03*
Y243860D02*
D03*
X354860Y288120D02*
D03*
Y310420D02*
D03*
X264340Y221530D02*
D03*
Y243830D02*
D03*
X264500Y290850D02*
D03*
Y313150D02*
D03*
D84*
X111760Y638810D02*
D03*
Y608810D02*
D03*
D103*
X891540Y477520D02*
D03*
Y458520D02*
D03*
Y422300D02*
D03*
Y441300D02*
D03*
D107*
X960000Y40000D02*
D03*
Y960000D02*
D03*
X408940Y500000D02*
D03*
D108*
X677250Y230750D02*
D03*
X626450D02*
D03*
X702650D02*
D03*
X651850D02*
D03*
X739500Y899350D02*
D03*
Y950150D02*
D03*
Y873950D02*
D03*
Y924750D02*
D03*
X975360Y819150D02*
D03*
Y793750D02*
D03*
Y768350D02*
D03*
Y742950D02*
D03*
Y717550D02*
D03*
Y692150D02*
D03*
D109*
X270510Y525400D02*
D03*
Y500000D02*
D03*
Y474600D02*
D03*
D110*
X35570Y704210D02*
D03*
Y744210D02*
D03*
Y784210D02*
D03*
Y824210D02*
D03*
Y864210D02*
D03*
Y904210D02*
D03*
X75570Y724210D02*
D03*
Y764210D02*
D03*
Y804210D02*
D03*
Y844210D02*
D03*
Y884210D02*
D03*
X115570Y704210D02*
D03*
Y744210D02*
D03*
Y784210D02*
D03*
Y824210D02*
D03*
Y864210D02*
D03*
Y904210D02*
D03*
X35570Y664210D02*
D03*
Y944210D02*
D03*
X75570Y684210D02*
D03*
Y924210D02*
D03*
X115570Y664210D02*
D03*
X35570Y95280D02*
D03*
Y135280D02*
D03*
Y175280D02*
D03*
Y215280D02*
D03*
Y255280D02*
D03*
Y295280D02*
D03*
X75570Y115280D02*
D03*
Y155280D02*
D03*
Y195280D02*
D03*
Y235280D02*
D03*
Y275280D02*
D03*
X115570Y95280D02*
D03*
Y135280D02*
D03*
Y175280D02*
D03*
Y215280D02*
D03*
Y255280D02*
D03*
Y295280D02*
D03*
X35570Y55280D02*
D03*
Y335280D02*
D03*
X75570Y75280D02*
D03*
Y315280D02*
D03*
X115570Y55280D02*
D03*
D111*
Y944210D02*
D03*
Y335280D02*
D03*
D112*
X960000Y62860D02*
D03*
X943836Y56164D02*
D03*
X937140Y40000D02*
D03*
X943836Y23835D02*
D03*
X960000Y17140D02*
D03*
X976164Y23835D02*
D03*
X982860Y40000D02*
D03*
X976164Y56164D02*
D03*
X943836Y976164D02*
D03*
X960000Y982860D02*
D03*
X976164Y976164D02*
D03*
X982860Y960000D02*
D03*
X976164Y943836D02*
D03*
X960000Y937140D02*
D03*
X943836Y943836D02*
D03*
X937140Y960000D02*
D03*
X392775Y516164D02*
D03*
X408940Y522860D02*
D03*
X425104Y516164D02*
D03*
X431800Y500000D02*
D03*
X425104Y483835D02*
D03*
X408940Y477140D02*
D03*
X392775Y483835D02*
D03*
X386080Y500000D02*
D03*
D128*
X869520Y455930D02*
D03*
Y478790D02*
D03*
D129*
X87630Y567360D02*
D03*
Y607060D02*
D03*
M02*
