G04*
G04 #@! TF.GenerationSoftware,Altium Limited,Altium Designer,24.5.2 (23)*
G04*
G04 Layer_Color=16711935*
%FSLAX44Y44*%
%MOMM*%
G71*
G04*
G04 #@! TF.SameCoordinates,49661B99-7F85-447B-B4A6-A33B5E3A9DE8*
G04*
G04*
G04 #@! TF.FilePolarity,Positive*
G04*
G01*
G75*
%ADD10C,0.2540*%
%ADD11C,0.2500*%
%ADD12C,0.1000*%
%ADD13C,0.2000*%
%ADD14C,0.4000*%
%ADD16C,0.1750*%
%ADD17C,0.1270*%
%ADD131C,0.1500*%
D10*
X1000000Y995000D02*
X999330Y997500D01*
X997500Y999330D01*
X995000Y1000000D01*
Y0D02*
X997500Y670D01*
X999330Y2500D01*
X1000000Y5000D01*
X5000Y1000000D02*
X2500Y999330D01*
X670Y997500D01*
X0Y995000D01*
Y5000D02*
X670Y2500D01*
X2500Y670D01*
X5000Y0D01*
X995000D01*
X5000Y1000000D02*
X995000D01*
X1000000Y5000D02*
Y995000D01*
X0Y5000D02*
Y995000D01*
X590400Y37170D02*
Y98170D01*
X655400D01*
Y37170D02*
Y98170D01*
X590400Y37170D02*
X655400D01*
X328380Y41130D02*
Y102130D01*
X393380D01*
Y41130D02*
Y102130D01*
X328380Y41130D02*
X393380D01*
X-249020Y1023456D02*
X-260883D01*
X-266814Y1017525D01*
X-260883Y1011593D01*
X-249020D01*
X-266814Y1005662D02*
X-254951D01*
X-249020Y999731D01*
X-254951Y993799D01*
X-266814D01*
X-257917D01*
Y1005662D01*
X-249020Y987868D02*
X-266814D01*
Y976005D01*
X-249020Y970074D02*
X-263848D01*
X-266814Y967108D01*
Y961177D01*
X-263848Y958211D01*
X-249020D01*
Y940417D02*
Y952280D01*
X-266814D01*
Y940417D01*
X-257917Y952280D02*
Y946348D01*
X141603Y1108361D02*
X159386D01*
X141603Y1096506D01*
X159386D01*
X141603Y1090578D02*
X153458D01*
X159386Y1084650D01*
X153458Y1078723D01*
X141603D01*
X150494D01*
Y1090578D01*
X141603Y1072795D02*
X159386D01*
X153458Y1066867D01*
X159386Y1060940D01*
X141603D01*
X159386Y1043157D02*
Y1055012D01*
X141603D01*
Y1043157D01*
X150494Y1055012D02*
Y1049084D01*
X-249020Y414526D02*
X-260883D01*
X-266814Y408595D01*
X-260883Y402663D01*
X-249020D01*
X-266814Y396732D02*
X-254951D01*
X-249020Y390801D01*
X-254951Y384869D01*
X-266814D01*
X-257917D01*
Y396732D01*
X-249020Y378938D02*
X-266814D01*
Y367075D01*
X-249020Y361144D02*
X-263848D01*
X-266814Y358178D01*
Y352247D01*
X-263848Y349281D01*
X-249020D01*
Y331487D02*
Y343349D01*
X-266814D01*
Y331487D01*
X-257917Y343349D02*
Y337418D01*
X141603Y499431D02*
X159386D01*
X141603Y487576D01*
X159386D01*
X141603Y481648D02*
X153458D01*
X159386Y475720D01*
X153458Y469793D01*
X141603D01*
X150494D01*
Y481648D01*
X141603Y463865D02*
X159386D01*
X153458Y457937D01*
X159386Y452010D01*
X141603D01*
X159386Y434226D02*
Y446082D01*
X141603D01*
Y434226D01*
X150494Y446082D02*
Y440154D01*
D11*
X983477Y819005D02*
X983074Y821550D01*
X981905Y823845D01*
X980083Y825667D01*
X977788Y826836D01*
X975244Y827239D01*
X972699Y826836D01*
X970404Y825667D01*
X968583Y823845D01*
X967413Y821550D01*
X967010Y819005D01*
X967413Y816461D01*
X968583Y814166D01*
X970404Y812344D01*
X972699Y811175D01*
X975244Y810772D01*
X977788Y811175D01*
X980083Y812344D01*
X981905Y814166D01*
X983074Y816461D01*
X983477Y819005D01*
D12*
X614170Y800610D02*
X613500Y803110D01*
X611670Y804940D01*
X609170Y805610D01*
X606670Y804940D01*
X604840Y803110D01*
X604170Y800610D01*
X604840Y798110D01*
X606670Y796280D01*
X609170Y795610D01*
X611670Y796280D01*
X613500Y798110D01*
X614170Y800610D01*
X360170Y799340D02*
X359500Y801840D01*
X357670Y803670D01*
X355170Y804340D01*
X352670Y803670D01*
X350840Y801840D01*
X350170Y799340D01*
X350840Y796840D01*
X352670Y795010D01*
X355170Y794340D01*
X357670Y795010D01*
X359500Y796840D01*
X360170Y799340D01*
X614170Y911100D02*
X613500Y913600D01*
X611670Y915430D01*
X609170Y916100D01*
X606670Y915430D01*
X604840Y913600D01*
X604170Y911100D01*
X604840Y908600D01*
X606670Y906770D01*
X609170Y906100D01*
X611670Y906770D01*
X613500Y908600D01*
X614170Y911100D01*
X358900D02*
X358230Y913600D01*
X356400Y915430D01*
X353900Y916100D01*
X351400Y915430D01*
X349570Y913600D01*
X348900Y911100D01*
X349570Y908600D01*
X351400Y906770D01*
X353900Y906100D01*
X356400Y906770D01*
X358230Y908600D01*
X358900Y911100D01*
X574000Y191250D02*
Y206750D01*
X603000D01*
Y191250D02*
Y206750D01*
X574000Y191250D02*
X603000D01*
X574000Y200750D02*
X583500Y191250D01*
X830862Y498857D02*
Y505928D01*
X763687Y573103D02*
X834398Y502392D01*
X692976D02*
X763687Y573103D01*
X692976Y502392D02*
X763687Y431682D01*
X834398Y502392D01*
X667083Y411808D02*
X702438Y376453D01*
X679811Y353825D02*
X702438Y376453D01*
X644455Y389181D02*
X679811Y353825D01*
X644455Y389181D02*
X667083Y411808D01*
X848080Y189710D02*
Y249710D01*
X813080Y189710D02*
X848080D01*
X813080D02*
Y249710D01*
X848080D01*
X718310Y62390D02*
X738310D01*
Y49890D02*
Y62390D01*
X718310Y49890D02*
X738310D01*
X718310D02*
Y62390D01*
Y58220D02*
X722480Y62390D01*
X456290Y62180D02*
X460460Y66350D01*
X456290Y53850D02*
Y66350D01*
Y53850D02*
X476290D01*
Y66350D01*
X456290D02*
X476290D01*
X250710Y631470D02*
Y666470D01*
X315710D01*
Y631470D02*
Y666470D01*
X250710Y631470D02*
X315710D01*
X250710Y654470D02*
X273710Y631470D01*
X345960Y639090D02*
Y674090D01*
X410960D01*
Y639090D02*
Y674090D01*
X345960Y639090D02*
X410960D01*
X345960Y662090D02*
X368960Y639090D01*
X955860Y490320D02*
X975860D01*
X955860D02*
Y502820D01*
X975860D01*
Y490320D02*
Y502820D01*
X971690Y490320D02*
X975860Y494490D01*
X955860Y608430D02*
X975860D01*
X955860D02*
Y620930D01*
X975860D01*
Y608430D02*
Y620930D01*
X971690Y608430D02*
X975860Y612600D01*
X955860Y524610D02*
X975860D01*
X955860D02*
Y537110D01*
X975860D01*
Y524610D02*
Y537110D01*
X971690Y524610D02*
X975860Y528780D01*
X801920Y879680D02*
X808420Y873180D01*
X801920D02*
X851920D01*
Y917180D01*
X801920D02*
X851920D01*
X801920Y873180D02*
Y917180D01*
X554243Y569719D02*
Y608719D01*
X603243D01*
Y569719D02*
Y608719D01*
X554243Y569719D02*
X603243D01*
X554243Y582419D02*
X566943Y569719D01*
X354230Y487180D02*
Y507180D01*
X341730Y487180D02*
X354230D01*
X341730D02*
Y507180D01*
X354230D01*
X350060D02*
X354230Y503010D01*
X543700Y851634D02*
Y871634D01*
X556200D01*
Y851634D02*
Y871634D01*
X543700Y851634D02*
X556200D01*
X543700Y855804D02*
X547870Y851634D01*
X287700Y851114D02*
Y871114D01*
X300200D01*
Y851114D02*
Y871114D01*
X287700Y851114D02*
X300200D01*
X287700Y855284D02*
X291870Y851114D01*
X544610Y961884D02*
Y981884D01*
X557110D01*
Y961884D02*
Y981884D01*
X544610Y961884D02*
X557110D01*
X544610Y966054D02*
X548780Y961884D01*
X289180Y960874D02*
Y980874D01*
X301680D01*
Y960874D02*
Y980874D01*
X289180Y960874D02*
X301680D01*
X289180Y965044D02*
X293350Y960874D01*
X194480Y403710D02*
X247480D01*
X194480D02*
Y443460D01*
X207730Y456710D01*
X234230D01*
X247480Y443460D01*
Y403710D02*
Y443460D01*
X298730Y424930D02*
X333730D01*
Y359930D02*
Y424930D01*
X298730Y359930D02*
X333730D01*
X298730D02*
Y424930D01*
Y401930D02*
X321730Y424930D01*
X938810Y378760D02*
Y438760D01*
X973810D01*
Y378760D02*
Y438760D01*
X938810Y378760D02*
X973810D01*
X464820Y858710D02*
X480820D01*
Y850710D02*
Y858710D01*
X464820Y850710D02*
X480820D01*
X464820D02*
Y858710D01*
X464060Y774510D02*
X480060D01*
X464060D02*
Y782510D01*
X480060D01*
Y774510D02*
Y782510D01*
X560690Y801980D02*
Y833780D01*
X511190D02*
X560690D01*
X511190Y801980D02*
Y833780D01*
Y801980D02*
X560690D01*
X578170Y841610D02*
X618170D01*
X578170Y791610D02*
X618170D01*
X578170D02*
Y841610D01*
X618170Y791610D02*
Y841610D01*
X210820Y857440D02*
X226820D01*
Y849440D02*
Y857440D01*
X210820Y849440D02*
X226820D01*
X210820D02*
Y857440D01*
X210060Y773240D02*
X226060D01*
X210060D02*
Y781240D01*
X226060D01*
Y773240D02*
Y781240D01*
X306690Y800710D02*
Y832510D01*
X257190D02*
X306690D01*
X257190Y800710D02*
Y832510D01*
Y800710D02*
X306690D01*
X324170Y840340D02*
X364170D01*
X324170Y790340D02*
X364170D01*
X324170D02*
Y840340D01*
X364170Y790340D02*
Y840340D01*
X464820Y969200D02*
X480820D01*
Y961200D02*
Y969200D01*
X464820Y961200D02*
X480820D01*
X464820D02*
Y969200D01*
X464060Y885000D02*
X480060D01*
X464060D02*
Y893000D01*
X480060D01*
Y885000D02*
Y893000D01*
X560690Y912470D02*
Y944270D01*
X511190D02*
X560690D01*
X511190Y912470D02*
Y944270D01*
Y912470D02*
X560690D01*
X578170Y952100D02*
X618170D01*
X578170Y902100D02*
X618170D01*
X578170D02*
Y952100D01*
X618170Y902100D02*
Y952100D01*
X209550Y969200D02*
X225550D01*
Y961200D02*
Y969200D01*
X209550Y961200D02*
X225550D01*
X209550D02*
Y969200D01*
X208790Y885000D02*
X224790D01*
X208790D02*
Y893000D01*
X224790D01*
Y885000D02*
Y893000D01*
X305420Y912470D02*
Y944270D01*
X255920D02*
X305420D01*
X255920Y912470D02*
Y944270D01*
Y912470D02*
X305420D01*
X322900Y952100D02*
X362900D01*
X322900Y902100D02*
X362900D01*
X322900D02*
Y952100D01*
X362900Y902100D02*
Y952100D01*
D13*
X33480Y519200D02*
X31480D01*
X33480D01*
X701110Y118850D02*
X730110D01*
X701110D02*
Y132350D01*
X730110D01*
Y118850D02*
Y132350D01*
X468090Y122810D02*
Y136310D01*
X439090D02*
X468090D01*
X439090Y122810D02*
Y136310D01*
Y122810D02*
X468090D01*
X859080Y949400D02*
Y1005400D01*
X779080D02*
X859080D01*
X779080Y949400D02*
Y1005400D01*
Y949400D02*
X859080D01*
X597960Y294490D02*
Y304490D01*
X539960D02*
X597960D01*
X539960Y294490D02*
Y304490D01*
Y294490D02*
X597960D01*
X791740D02*
Y304490D01*
Y294490D02*
X849740D01*
Y304490D01*
X791740D02*
X849740D01*
X494060Y370820D02*
X504060D01*
Y428820D01*
X494060D02*
X504060D01*
X494060Y370820D02*
Y428820D01*
X894060Y373360D02*
X904060D01*
Y431360D01*
X894060D02*
X904060D01*
X894060Y373360D02*
Y431360D01*
Y574340D02*
X904060D01*
Y632340D01*
X894060D02*
X904060D01*
X894060Y574340D02*
Y632340D01*
X494060Y567990D02*
X504060D01*
Y625990D01*
X494060D02*
X504060D01*
X494060Y567990D02*
Y625990D01*
X607800Y694490D02*
Y704490D01*
X549800D02*
X607800D01*
X549800Y694490D02*
Y704490D01*
Y694490D02*
X607800D01*
X840530Y694540D02*
Y704540D01*
X782530D02*
X840530D01*
X782530Y694540D02*
Y704540D01*
Y694540D02*
X840530D01*
X335510Y442000D02*
Y558000D01*
X250510Y442000D02*
X335510D01*
X250510D02*
Y558000D01*
X335510D01*
X176220Y403880D02*
Y469880D01*
X113220D02*
X176220D01*
X113220Y403880D02*
Y469880D01*
Y403880D02*
X176220D01*
X960360Y676650D02*
X990360D01*
Y834294D01*
X960360D02*
X990360D01*
X960360Y676650D02*
Y834294D01*
D14*
X117070Y944710D02*
X115688Y946612D01*
X113452Y945886D01*
Y943534D01*
X115688Y942808D01*
X117070Y944710D01*
Y335780D02*
X115688Y337682D01*
X113452Y336956D01*
Y334604D01*
X115688Y333878D01*
X117070Y335780D01*
D16*
X494570Y213470D02*
Y249030D01*
Y213470D02*
X517430D01*
Y249030D01*
X494570D02*
X517430D01*
X438250Y282610D02*
Y317610D01*
X455250D01*
Y282610D02*
Y317610D01*
X438250Y282610D02*
X455250D01*
X446750Y296610D02*
Y303360D01*
X449750Y300360D01*
X443750D02*
X446750Y303360D01*
X439410Y213610D02*
Y248610D01*
X456410D01*
Y213610D02*
Y248610D01*
X439410Y213610D02*
X456410D01*
X447910Y227610D02*
Y234360D01*
X450910Y231360D01*
X444910D02*
X447910Y234360D01*
X347160Y215210D02*
Y250210D01*
X364160D01*
Y215210D02*
Y250210D01*
X347160Y215210D02*
X364160D01*
X355660Y229210D02*
Y235960D01*
X358660Y232960D01*
X352660D02*
X355660Y235960D01*
X346360Y281770D02*
Y316770D01*
X363360D01*
Y281770D02*
Y316770D01*
X346360Y281770D02*
X363360D01*
X354860Y295770D02*
Y302520D01*
X357860Y299520D01*
X351860D02*
X354860Y302520D01*
X255840Y215180D02*
Y250180D01*
X272840D01*
Y215180D02*
Y250180D01*
X255840Y215180D02*
X272840D01*
X264340Y229180D02*
Y235930D01*
X267340Y232930D01*
X261340D02*
X264340Y235930D01*
X256000Y284500D02*
Y319500D01*
X273000D01*
Y284500D02*
Y319500D01*
X256000Y284500D02*
X273000D01*
X264500Y298500D02*
Y305250D01*
X267500Y302250D01*
X261500D02*
X264500Y305250D01*
X676240Y44710D02*
Y67570D01*
X711800D01*
Y44710D02*
Y67570D01*
X676240Y44710D02*
X711800D01*
X732730Y117100D02*
X768290D01*
X732730Y94240D02*
Y117100D01*
Y94240D02*
X768290D01*
Y117100D01*
X680050Y108870D02*
Y144430D01*
X657190D02*
X680050D01*
X657190Y108870D02*
Y144430D01*
Y108870D02*
X680050D01*
X701640Y108820D02*
Y144380D01*
X678780D02*
X701640D01*
X678780Y108820D02*
Y144380D01*
Y108820D02*
X701640D01*
X414220Y48670D02*
X449780D01*
Y71530D01*
X414220D02*
X449780D01*
X414220Y48670D02*
Y71530D01*
X416760Y112780D02*
X439620D01*
X416760D02*
Y148340D01*
X439620D01*
Y112780D02*
Y148340D01*
X395170Y112830D02*
X418030D01*
X395170D02*
Y148390D01*
X418030D01*
Y112830D02*
Y148390D01*
X470710Y121060D02*
X506270D01*
X470710Y98200D02*
Y121060D01*
Y98200D02*
X506270D01*
Y121060D01*
X470710Y147730D02*
X506270D01*
X470710Y124870D02*
Y147730D01*
Y124870D02*
X506270D01*
Y147730D01*
X732730Y143770D02*
X768290D01*
X732730Y120910D02*
Y143770D01*
Y120910D02*
X768290D01*
Y143770D01*
X694370Y245220D02*
X729930D01*
X694370D02*
Y268080D01*
X729930D01*
Y245220D02*
Y268080D01*
X649220Y266680D02*
X684780D01*
Y243820D02*
Y266680D01*
X649220Y243820D02*
X684780D01*
X649220D02*
Y266680D01*
X674302Y531221D02*
X704835Y561754D01*
X688670Y577918D02*
X704835Y561754D01*
X658137Y547385D02*
X688670Y577918D01*
X658137Y547385D02*
X674302Y531221D01*
X148220Y815820D02*
X183780D01*
X148220D02*
Y838680D01*
X183780D01*
Y815820D02*
Y838680D01*
X148400Y794690D02*
X183960D01*
X148400D02*
Y817550D01*
X183960D01*
Y794690D02*
Y817550D01*
X444500Y848360D02*
X487680D01*
X444500Y825500D02*
Y848360D01*
Y825500D02*
X487680D01*
Y848360D01*
X546760Y513080D02*
Y535940D01*
X511200Y513080D02*
X546760D01*
X511200D02*
Y535940D01*
X546760D01*
X330560Y233500D02*
Y256360D01*
X295000Y233500D02*
X330560D01*
X295000D02*
Y256360D01*
X330560D01*
X416820Y321140D02*
X439680D01*
Y285580D02*
Y321140D01*
X416820Y285580D02*
X439680D01*
X416820D02*
Y321140D01*
X421650Y300900D02*
Y323760D01*
X386090Y300900D02*
X421650D01*
X386090D02*
Y323760D01*
X421650D01*
X435320Y323270D02*
X458180D01*
Y280090D02*
Y323270D01*
X435320Y280090D02*
X458180D01*
X435320D02*
Y323270D01*
X417980Y252140D02*
X440840D01*
Y216580D02*
Y252140D01*
X417980Y216580D02*
X440840D01*
X417980D02*
Y252140D01*
X422810Y231900D02*
Y254760D01*
X387250Y231900D02*
X422810D01*
X387250D02*
Y254760D01*
X422810D01*
X436480Y254270D02*
X459340D01*
Y211090D02*
Y254270D01*
X436480Y211090D02*
X459340D01*
X436480D02*
Y254270D01*
X234410Y253710D02*
X257270D01*
Y218150D02*
Y253710D01*
X234410Y218150D02*
X257270D01*
X234410D02*
Y253710D01*
X239240Y233470D02*
Y256330D01*
X203680Y233470D02*
X239240D01*
X203680D02*
Y256330D01*
X239240D01*
X252910Y255840D02*
X275770D01*
Y212660D02*
Y255840D01*
X252910Y212660D02*
X275770D01*
X252910D02*
Y255840D01*
X325730Y253740D02*
X348590D01*
Y218180D02*
Y253740D01*
X325730Y218180D02*
X348590D01*
X325730D02*
Y253740D01*
X344230Y255870D02*
X367090D01*
Y212690D02*
Y255870D01*
X344230Y212690D02*
X367090D01*
X344230D02*
Y255870D01*
X234570Y323030D02*
X257430D01*
Y287470D02*
Y323030D01*
X234570Y287470D02*
X257430D01*
X234570D02*
Y323030D01*
X239400Y302790D02*
Y325650D01*
X203840Y302790D02*
X239400D01*
X203840D02*
Y325650D01*
X239400D01*
X253070Y325160D02*
X275930D01*
Y281980D02*
Y325160D01*
X253070Y281980D02*
X275930D01*
X253070D02*
Y325160D01*
X329760Y300060D02*
Y322920D01*
X294200Y300060D02*
X329760D01*
X294200D02*
Y322920D01*
X329760D01*
X324930Y320300D02*
X347790D01*
Y284740D02*
Y320300D01*
X324930Y284740D02*
X347790D01*
X324930D02*
Y320300D01*
X343430Y322430D02*
X366290D01*
Y279250D02*
Y322430D01*
X343430Y279250D02*
X366290D01*
X343430D02*
Y322430D01*
X782320Y275590D02*
X817880D01*
X782320Y252730D02*
Y275590D01*
Y252730D02*
X817880D01*
Y275590D01*
X858090Y488950D02*
X880950D01*
X858090Y445770D02*
Y488950D01*
Y445770D02*
X880950D01*
Y488950D01*
X880110Y485800D02*
X902970D01*
X880110Y450240D02*
Y485800D01*
Y450240D02*
X902970D01*
Y485800D01*
X880110Y414020D02*
X902970D01*
Y449580D01*
X880110D02*
X902970D01*
X880110Y414020D02*
Y449580D01*
X375920Y617220D02*
X419100D01*
X375920Y594360D02*
Y617220D01*
Y594360D02*
X419100D01*
Y617220D01*
X336550Y594360D02*
X379730D01*
Y617220D01*
X336550D02*
X379730D01*
X336550Y594360D02*
Y617220D01*
X326780Y650240D02*
Y685240D01*
Y650240D02*
X343780D01*
Y685240D01*
X326780D02*
X343780D01*
X335280Y664490D02*
Y671240D01*
Y664490D02*
X338280Y667490D01*
X332280D02*
X335280Y664490D01*
X231530Y642620D02*
Y677620D01*
Y642620D02*
X248530D01*
Y677620D01*
X231530D02*
X248530D01*
X240030Y656870D02*
Y663620D01*
Y656870D02*
X243030Y659870D01*
X237030D02*
X240030Y656870D01*
X280670Y609600D02*
X323850D01*
X280670Y586740D02*
Y609600D01*
Y586740D02*
X323850D01*
Y609600D01*
X241300Y586740D02*
X284480D01*
Y609600D01*
X241300D02*
X284480D01*
X241300Y586740D02*
Y609600D01*
X251460Y606450D02*
Y642010D01*
X228600D02*
X251460D01*
X228600Y606450D02*
Y642010D01*
Y606450D02*
X251460D01*
X346710Y614070D02*
Y649630D01*
X323850D02*
X346710D01*
X323850Y614070D02*
Y649630D01*
Y614070D02*
X346710D01*
X915060Y519430D02*
Y542290D01*
X950620D01*
Y519430D02*
Y542290D01*
X915060Y519430D02*
X950620D01*
X915060Y485140D02*
Y508000D01*
X950620D01*
Y485140D02*
Y508000D01*
X915060Y485140D02*
X950620D01*
X915060Y603250D02*
X950620D01*
Y626110D01*
X915060D02*
X950620D01*
X915060Y603250D02*
Y626110D01*
X796900Y834390D02*
X832460D01*
Y857250D01*
X796900D02*
X832460D01*
X796900Y834390D02*
Y857250D01*
X779780Y933450D02*
X802640D01*
Y890270D02*
Y933450D01*
X779780Y890270D02*
X802640D01*
X779780D02*
Y933450D01*
X880360Y858060D02*
X883360Y861060D01*
X880360Y864060D02*
X883360Y861060D01*
X876610D02*
X883360D01*
X862610Y852560D02*
Y869560D01*
X897610D01*
Y852560D02*
Y869560D01*
X862610Y852560D02*
X897610D01*
X858520Y868680D02*
Y891540D01*
X901700D01*
Y868680D02*
Y891540D01*
X858520Y868680D02*
X901700D01*
X851600Y944180D02*
X875600D01*
Y890180D02*
Y944180D01*
X851600Y890180D02*
X875600D01*
X851600D02*
Y944180D01*
X652516Y434681D02*
X668681Y418516D01*
X638148Y387984D02*
X668681Y418516D01*
X621983Y404148D02*
X638148Y387984D01*
X621983Y404148D02*
X652516Y434681D01*
X692821Y390726D02*
X708986Y374562D01*
X692821Y390726D02*
X717966Y415871D01*
X734130Y399706D01*
X708986Y374562D02*
X734130Y399706D01*
X595910Y543560D02*
X598910Y546560D01*
X595910Y543560D02*
X598910Y540560D01*
X595910Y543560D02*
X602660D01*
X616660Y535060D02*
Y552060D01*
X581660Y535060D02*
X616660D01*
X581660D02*
Y552060D01*
X616660D01*
X588010Y643890D02*
Y666750D01*
X631190D01*
Y643890D02*
Y666750D01*
X588010Y643890D02*
X631190D01*
X607340Y635000D02*
X610340Y638000D01*
X607340Y635000D02*
X610340Y632000D01*
X607340Y635000D02*
X614090D01*
X628090Y626500D02*
Y643500D01*
X593090Y626500D02*
X628090D01*
X593090D02*
Y643500D01*
X628090D01*
X568960Y647040D02*
X591820D01*
X568960D02*
Y682600D01*
X591820D01*
Y647040D02*
Y682600D01*
X576580Y513080D02*
Y535940D01*
X619760D01*
Y513080D02*
Y535940D01*
X576580Y513080D02*
X619760D01*
X616560Y494030D02*
Y516890D01*
X581000Y494030D02*
X616560D01*
X581000D02*
Y516890D01*
X616560D01*
X558800Y495910D02*
X581660D01*
X558800D02*
Y531470D01*
X581660D01*
Y495910D02*
Y531470D01*
X565760Y532130D02*
Y554990D01*
X530200Y532130D02*
X565760D01*
X530200D02*
Y554990D01*
X565760D01*
X543560Y623570D02*
Y646430D01*
X579120D01*
Y623570D02*
Y646430D01*
X543560Y623570D02*
X579120D01*
X559460Y642620D02*
Y665480D01*
X523900Y642620D02*
X559460D01*
X523900D02*
Y665480D01*
X559460D01*
X530860Y567690D02*
X553720D01*
X530860D02*
Y610870D01*
X553720D01*
Y567690D02*
Y610870D01*
X692176Y441009D02*
X708341Y457174D01*
X661644Y471542D02*
X692176Y441009D01*
X661644Y471542D02*
X677808Y487706D01*
X708341Y457174D01*
X839538Y457583D02*
X855703Y441418D01*
X825170Y410886D02*
X855703Y441418D01*
X809006Y427050D02*
X825170Y410886D01*
X809006Y427050D02*
X839538Y457583D01*
X833252Y550080D02*
X849417Y566244D01*
X802719Y580612D02*
X833252Y550080D01*
X802719Y580612D02*
X818884Y596777D01*
X849417Y566244D01*
X780269Y367780D02*
X796433Y383945D01*
X749736Y398313D02*
X780269Y367780D01*
X749736Y398313D02*
X765900Y414478D01*
X796433Y383945D01*
X765002Y352514D02*
X781167Y368678D01*
X734469Y383047D02*
X765002Y352514D01*
X734469Y383047D02*
X750634Y399211D01*
X781167Y368678D01*
X678569Y347484D02*
X694734Y331319D01*
X678569Y347484D02*
X709102Y378017D01*
X725266Y361852D01*
X694734Y331319D02*
X725266Y361852D01*
X686874Y576122D02*
X703038Y559958D01*
X686874Y576122D02*
X717407Y606655D01*
X733571Y590491D01*
X703038Y559958D02*
X733571Y590491D01*
X336550Y447040D02*
X359410D01*
X336550D02*
Y482600D01*
X359410D01*
Y447040D02*
Y482600D01*
X280670Y509270D02*
X303530D01*
X280670Y466090D02*
Y509270D01*
Y466090D02*
X303530D01*
Y509270D01*
X517660Y879030D02*
X540520D01*
Y843470D02*
Y879030D01*
X517660Y843470D02*
X540520D01*
X517660D02*
Y879030D01*
X261660Y878510D02*
X284520D01*
Y842950D02*
Y878510D01*
X261660Y842950D02*
X284520D01*
X261660D02*
Y878510D01*
X518570Y989280D02*
X541430D01*
Y953720D02*
Y989280D01*
X518570Y953720D02*
X541430D01*
X518570D02*
Y989280D01*
X263140Y988270D02*
X286000D01*
Y952710D02*
Y988270D01*
X263140Y952710D02*
X286000D01*
X263140D02*
Y988270D01*
X626720Y662940D02*
Y685800D01*
X591160Y662940D02*
X626720D01*
X591160D02*
Y685800D01*
X626720D01*
X238760Y492380D02*
X261620D01*
Y535560D01*
X238760D02*
X261620D01*
X238760Y492380D02*
Y535560D01*
X219710Y492380D02*
X242570D01*
Y535560D01*
X219710D02*
X242570D01*
X219710Y492380D02*
Y535560D01*
X52070Y443230D02*
Y466090D01*
X95250D01*
Y443230D02*
Y466090D01*
X52070Y443230D02*
X95250D01*
X123760Y596810D02*
Y650810D01*
X99760Y596810D02*
X123760D01*
X99760D02*
Y650810D01*
X123760D01*
X586740Y707390D02*
X609600D01*
X586740D02*
Y750570D01*
X609600D01*
Y707390D02*
Y750570D01*
X607060Y746760D02*
X629920D01*
Y711200D02*
Y746760D01*
X607060Y711200D02*
X629920D01*
X607060D02*
Y746760D01*
X960120Y777850D02*
Y813410D01*
X937260D02*
X960120D01*
X937260Y777850D02*
Y813410D01*
Y777850D02*
X960120D01*
X937260Y742340D02*
Y777900D01*
Y742340D02*
X960120D01*
Y777900D01*
X937260D02*
X960120D01*
X251460Y435610D02*
X274320D01*
Y392430D02*
Y435610D01*
X251460Y392430D02*
X274320D01*
X251460D02*
Y435610D01*
Y349250D02*
X274320D01*
X251460D02*
Y392430D01*
X274320D01*
Y349250D02*
Y392430D01*
X635000Y795020D02*
X657860D01*
X635000D02*
Y838200D01*
X657860D01*
Y795020D02*
Y838200D01*
X621030Y840740D02*
Y863600D01*
X577850Y840740D02*
X621030D01*
X577850D02*
Y863600D01*
X621030D01*
X486410Y852780D02*
X509270D01*
Y817220D02*
Y852780D01*
X486410Y817220D02*
X509270D01*
X486410D02*
Y852780D01*
X487680Y805180D02*
Y828040D01*
X444500Y805180D02*
X487680D01*
X444500D02*
Y828040D01*
X487680D01*
X486410Y818540D02*
X509270D01*
Y782980D02*
Y818540D01*
X486410Y782980D02*
X509270D01*
X486410D02*
Y818540D01*
X444500Y784860D02*
Y807720D01*
X487680D01*
Y784860D02*
Y807720D01*
X444500Y784860D02*
X487680D01*
X381000Y793750D02*
X403860D01*
X381000D02*
Y836930D01*
X403860D01*
Y793750D02*
Y836930D01*
X367030Y839470D02*
Y862330D01*
X323850Y839470D02*
X367030D01*
X323850D02*
Y862330D01*
X367030D01*
X233680Y824230D02*
Y847090D01*
X190500Y824230D02*
X233680D01*
X190500D02*
Y847090D01*
X233680D01*
X232410Y851510D02*
X255270D01*
Y815950D02*
Y851510D01*
X232410Y815950D02*
X255270D01*
X232410D02*
Y851510D01*
X233680Y803910D02*
Y826770D01*
X190500Y803910D02*
X233680D01*
X190500D02*
Y826770D01*
X233680D01*
X232410Y817270D02*
X255270D01*
Y781710D02*
Y817270D01*
X232410Y781710D02*
X255270D01*
X232410D02*
Y817270D01*
X190500Y783590D02*
Y806450D01*
X233680D01*
Y783590D02*
Y806450D01*
X190500Y783590D02*
X233680D01*
X635000Y905510D02*
X657860D01*
X635000D02*
Y948690D01*
X657860D01*
Y905510D02*
Y948690D01*
X621030Y951230D02*
Y974090D01*
X577850Y951230D02*
X621030D01*
X577850D02*
Y974090D01*
X621030D01*
X487680Y935990D02*
Y958850D01*
X444500Y935990D02*
X487680D01*
X444500D02*
Y958850D01*
X487680D01*
X486410Y963270D02*
X509270D01*
Y927710D02*
Y963270D01*
X486410Y927710D02*
X509270D01*
X486410D02*
Y963270D01*
X487680Y915670D02*
Y938530D01*
X444500Y915670D02*
X487680D01*
X444500D02*
Y938530D01*
X487680D01*
X486410Y929030D02*
X509270D01*
Y893470D02*
Y929030D01*
X486410Y893470D02*
X509270D01*
X486410D02*
Y929030D01*
X444500Y895350D02*
Y918210D01*
X487680D01*
Y895350D02*
Y918210D01*
X444500Y895350D02*
X487680D01*
X231140Y929030D02*
X254000D01*
Y893470D02*
Y929030D01*
X231140Y893470D02*
X254000D01*
X231140D02*
Y929030D01*
Y963270D02*
X254000D01*
Y927710D02*
Y963270D01*
X231140Y927710D02*
X254000D01*
X231140D02*
Y963270D01*
X189230Y895350D02*
Y918210D01*
X232410D01*
Y895350D02*
Y918210D01*
X189230Y895350D02*
X232410D01*
Y935990D02*
Y958850D01*
X189230Y935990D02*
X232410D01*
X189230D02*
Y958850D01*
X232410D01*
Y915670D02*
Y938530D01*
X189230Y915670D02*
X232410D01*
X189230D02*
Y938530D01*
X232410D01*
X365760Y951230D02*
Y974090D01*
X322580Y951230D02*
X365760D01*
X322580D02*
Y974090D01*
X365760D01*
X379730Y905510D02*
X402590D01*
X379730D02*
Y948690D01*
X402590D01*
Y905510D02*
Y948690D01*
X965363Y760648D02*
X962031D01*
X963697D01*
Y752318D01*
X962031Y750652D01*
X960365D01*
X958699Y752318D01*
X975360Y750652D02*
X968696D01*
X975360Y757316D01*
Y758982D01*
X973694Y760648D01*
X970362D01*
X968696Y758982D01*
X978692D02*
X980358Y760648D01*
X983691D01*
X985357Y758982D01*
Y752318D01*
X983691Y750652D01*
X980358D01*
X978692Y752318D01*
Y758982D01*
X988689Y750652D02*
X992021D01*
X990355D01*
Y760648D01*
X988689Y758982D01*
X82632Y604704D02*
X92628D01*
Y599706D01*
X90962Y598040D01*
X84298D01*
X82632Y599706D01*
Y604704D01*
X92628Y594708D02*
Y591375D01*
Y593041D01*
X82632D01*
X84298Y594708D01*
Y586377D02*
X82632Y584711D01*
Y581379D01*
X84298Y579712D01*
X90962D01*
X92628Y581379D01*
Y584711D01*
X90962Y586377D01*
X84298D01*
Y576380D02*
X82632Y574714D01*
Y571382D01*
X84298Y569716D01*
X90962D01*
X92628Y571382D01*
Y574714D01*
X90962Y576380D01*
X84298D01*
D17*
X42480Y529200D02*
X102480D01*
Y469200D02*
Y529200D01*
X42480Y469200D02*
X102480D01*
X42480D02*
Y529200D01*
X-242930Y587210D02*
X-49930D01*
X-242930D02*
Y1021210D01*
X-49930D01*
Y1108210D01*
Y587210D02*
Y1021210D01*
Y500210D02*
Y587210D01*
Y500210D02*
X136070D01*
Y1108210D01*
X-49930D02*
X136070D01*
X-242930Y-21720D02*
X-49930D01*
X-242930D02*
Y412280D01*
X-49930D01*
Y499280D01*
Y-21720D02*
Y412280D01*
Y-108720D02*
Y-21720D01*
Y-108720D02*
X136070D01*
Y499280D01*
X-49930D02*
X136070D01*
D131*
X501002Y248744D02*
X510998D01*
Y243746D01*
X509332Y242080D01*
X506000D01*
X504334Y243746D01*
Y248744D01*
Y245412D02*
X501002Y242080D01*
X510998Y232083D02*
Y238748D01*
X506000D01*
X507666Y235415D01*
Y233749D01*
X506000Y232083D01*
X502668D01*
X501002Y233749D01*
Y237081D01*
X502668Y238748D01*
X501002Y228751D02*
Y225418D01*
Y227085D01*
X510998D01*
X509332Y228751D01*
X501002Y213756D02*
Y220420D01*
X507666Y213756D01*
X509332D01*
X510998Y215422D01*
Y218754D01*
X509332Y220420D01*
X451748Y281658D02*
X441752D01*
Y286656D01*
X443418Y288322D01*
X450082D01*
X451748Y286656D01*
Y281658D01*
Y298319D02*
Y291654D01*
X446750D01*
X448416Y294987D01*
Y296653D01*
X446750Y298319D01*
X443418D01*
X441752Y296653D01*
Y293321D01*
X443418Y291654D01*
X450082Y301651D02*
X451748Y303317D01*
Y306649D01*
X450082Y308316D01*
X443418D01*
X441752Y306649D01*
Y303317D01*
X443418Y301651D01*
X450082D01*
X451748Y318312D02*
Y311648D01*
X446750D01*
X448416Y314980D01*
Y316646D01*
X446750Y318312D01*
X443418D01*
X441752Y316646D01*
Y313314D01*
X443418Y311648D01*
X452908Y212658D02*
X442912D01*
Y217656D01*
X444578Y219322D01*
X451242D01*
X452908Y217656D01*
Y212658D01*
Y229319D02*
Y222654D01*
X447910D01*
X449576Y225987D01*
Y227653D01*
X447910Y229319D01*
X444578D01*
X442912Y227653D01*
Y224321D01*
X444578Y222654D01*
X451242Y232651D02*
X452908Y234317D01*
Y237649D01*
X451242Y239316D01*
X444578D01*
X442912Y237649D01*
Y234317D01*
X444578Y232651D01*
X451242D01*
X442912Y247646D02*
X452908D01*
X447910Y242648D01*
Y249312D01*
X360658Y214258D02*
X350662D01*
Y219256D01*
X352328Y220922D01*
X358992D01*
X360658Y219256D01*
Y214258D01*
Y230919D02*
Y224254D01*
X355660D01*
X357326Y227586D01*
Y229253D01*
X355660Y230919D01*
X352328D01*
X350662Y229253D01*
Y225920D01*
X352328Y224254D01*
X358992Y234251D02*
X360658Y235917D01*
Y239249D01*
X358992Y240916D01*
X352328D01*
X350662Y239249D01*
Y235917D01*
X352328Y234251D01*
X358992D01*
Y244248D02*
X360658Y245914D01*
Y249246D01*
X358992Y250912D01*
X357326D01*
X355660Y249246D01*
Y247580D01*
Y249246D01*
X353994Y250912D01*
X352328D01*
X350662Y249246D01*
Y245914D01*
X352328Y244248D01*
X359858Y280818D02*
X349862D01*
Y285816D01*
X351528Y287482D01*
X358192D01*
X359858Y285816D01*
Y280818D01*
Y297479D02*
Y290814D01*
X354860D01*
X356526Y294147D01*
Y295813D01*
X354860Y297479D01*
X351528D01*
X349862Y295813D01*
Y292481D01*
X351528Y290814D01*
X358192Y300811D02*
X359858Y302477D01*
Y305810D01*
X358192Y307476D01*
X351528D01*
X349862Y305810D01*
Y302477D01*
X351528Y300811D01*
X358192D01*
X349862Y317472D02*
Y310808D01*
X356526Y317472D01*
X358192D01*
X359858Y315806D01*
Y312474D01*
X358192Y310808D01*
X269338Y215894D02*
X259342D01*
Y220892D01*
X261008Y222558D01*
X267672D01*
X269338Y220892D01*
Y215894D01*
Y232555D02*
Y225891D01*
X264340D01*
X266006Y229223D01*
Y230889D01*
X264340Y232555D01*
X261008D01*
X259342Y230889D01*
Y227557D01*
X261008Y225891D01*
X267672Y235887D02*
X269338Y237553D01*
Y240886D01*
X267672Y242552D01*
X261008D01*
X259342Y240886D01*
Y237553D01*
X261008Y235887D01*
X267672D01*
X259342Y245884D02*
Y249216D01*
Y247550D01*
X269338D01*
X267672Y245884D01*
X269498Y283547D02*
X259502D01*
Y288546D01*
X261168Y290212D01*
X267832D01*
X269498Y288546D01*
Y283547D01*
Y300209D02*
Y293544D01*
X264500D01*
X266166Y296877D01*
Y298543D01*
X264500Y300209D01*
X261168D01*
X259502Y298543D01*
Y295210D01*
X261168Y293544D01*
X267832Y303541D02*
X269498Y305207D01*
Y308540D01*
X267832Y310206D01*
X261168D01*
X259502Y308540D01*
Y305207D01*
X261168Y303541D01*
X267832D01*
Y313538D02*
X269498Y315204D01*
Y318536D01*
X267832Y320202D01*
X261168D01*
X259502Y318536D01*
Y315204D01*
X261168Y313538D01*
X267832D01*
X675693Y51142D02*
Y61138D01*
X680691D01*
X682357Y59472D01*
Y56140D01*
X680691Y54474D01*
X675693D01*
X679025D02*
X682357Y51142D01*
X692354Y61138D02*
X689022Y59472D01*
X685689Y56140D01*
Y52808D01*
X687355Y51142D01*
X690688D01*
X692354Y52808D01*
Y54474D01*
X690688Y56140D01*
X685689D01*
X695686Y59472D02*
X697352Y61138D01*
X700685D01*
X702351Y59472D01*
Y52808D01*
X700685Y51142D01*
X697352D01*
X695686Y52808D01*
Y59472D01*
X705683Y52808D02*
X707349Y51142D01*
X710681D01*
X712347Y52808D01*
Y59472D01*
X710681Y61138D01*
X707349D01*
X705683Y59472D01*
Y57806D01*
X707349Y56140D01*
X712347D01*
X768837Y110668D02*
Y100672D01*
X763839D01*
X762173Y102338D01*
Y105670D01*
X763839Y107336D01*
X768837D01*
X765505D02*
X762173Y110668D01*
X752176Y100672D02*
X755508Y102338D01*
X758841Y105670D01*
Y109002D01*
X757175Y110668D01*
X753842D01*
X752176Y109002D01*
Y107336D01*
X753842Y105670D01*
X758841D01*
X748844Y102338D02*
X747178Y100672D01*
X743846D01*
X742179Y102338D01*
Y109002D01*
X743846Y110668D01*
X747178D01*
X748844Y109002D01*
Y102338D01*
X733849Y110668D02*
Y100672D01*
X738847Y105670D01*
X732183D01*
X673618Y108323D02*
X663622D01*
Y113321D01*
X665288Y114987D01*
X668620D01*
X670286Y113321D01*
Y108323D01*
Y111655D02*
X673618Y114987D01*
X663622Y124984D02*
X665288Y121652D01*
X668620Y118319D01*
X671952D01*
X673618Y119986D01*
Y123318D01*
X671952Y124984D01*
X670286D01*
X668620Y123318D01*
Y118319D01*
X665288Y128316D02*
X663622Y129982D01*
Y133315D01*
X665288Y134981D01*
X671952D01*
X673618Y133315D01*
Y129982D01*
X671952Y128316D01*
X665288D01*
X663622Y144977D02*
Y138313D01*
X668620D01*
X666954Y141645D01*
Y143311D01*
X668620Y144977D01*
X671952D01*
X673618Y143311D01*
Y139979D01*
X671952Y138313D01*
X695208Y108273D02*
X685212D01*
Y113271D01*
X686878Y114937D01*
X690210D01*
X691876Y113271D01*
Y108273D01*
Y111605D02*
X695208Y114937D01*
X685212Y124934D02*
X686878Y121602D01*
X690210Y118269D01*
X693542D01*
X695208Y119936D01*
Y123268D01*
X693542Y124934D01*
X691876D01*
X690210Y123268D01*
Y118269D01*
X686878Y128266D02*
X685212Y129932D01*
Y133265D01*
X686878Y134931D01*
X693542D01*
X695208Y133265D01*
Y129932D01*
X693542Y128266D01*
X686878D01*
X685212Y138263D02*
Y144927D01*
X686878D01*
X693542Y138263D01*
X695208D01*
X413673Y55102D02*
Y65098D01*
X418671D01*
X420337Y63432D01*
Y60100D01*
X418671Y58434D01*
X413673D01*
X417005D02*
X420337Y55102D01*
X430334Y65098D02*
X427002Y63432D01*
X423669Y60100D01*
Y56768D01*
X425336Y55102D01*
X428668D01*
X430334Y56768D01*
Y58434D01*
X428668Y60100D01*
X423669D01*
X433666Y63432D02*
X435332Y65098D01*
X438665D01*
X440331Y63432D01*
Y56768D01*
X438665Y55102D01*
X435332D01*
X433666Y56768D01*
Y63432D01*
X443663D02*
X445329Y65098D01*
X448661D01*
X450327Y63432D01*
Y61766D01*
X448661Y60100D01*
X450327Y58434D01*
Y56768D01*
X448661Y55102D01*
X445329D01*
X443663Y56768D01*
Y58434D01*
X445329Y60100D01*
X443663Y61766D01*
Y63432D01*
X445329Y60100D02*
X448661D01*
X433188Y112233D02*
X423192D01*
Y117231D01*
X424858Y118897D01*
X428190D01*
X429856Y117231D01*
Y112233D01*
Y115565D02*
X433188Y118897D01*
X423192Y128894D02*
X424858Y125562D01*
X428190Y122229D01*
X431522D01*
X433188Y123896D01*
Y127228D01*
X431522Y128894D01*
X429856D01*
X428190Y127228D01*
Y122229D01*
X424858Y132226D02*
X423192Y133892D01*
Y137225D01*
X424858Y138891D01*
X431522D01*
X433188Y137225D01*
Y133892D01*
X431522Y132226D01*
X424858D01*
Y142223D02*
X423192Y143889D01*
Y147221D01*
X424858Y148888D01*
X426524D01*
X428190Y147221D01*
Y145555D01*
Y147221D01*
X429856Y148888D01*
X431522D01*
X433188Y147221D01*
Y143889D01*
X431522Y142223D01*
X411598Y113949D02*
X401602D01*
Y118947D01*
X403268Y120613D01*
X406600D01*
X408266Y118947D01*
Y113949D01*
Y117281D02*
X411598Y120613D01*
X401602Y130610D02*
X403268Y127278D01*
X406600Y123946D01*
X409932D01*
X411598Y125612D01*
Y128944D01*
X409932Y130610D01*
X408266D01*
X406600Y128944D01*
Y123946D01*
X403268Y133942D02*
X401602Y135608D01*
Y138941D01*
X403268Y140607D01*
X409932D01*
X411598Y138941D01*
Y135608D01*
X409932Y133942D01*
X403268D01*
X411598Y143939D02*
Y147271D01*
Y145605D01*
X401602D01*
X403268Y143939D01*
X506817Y114628D02*
Y104632D01*
X501819D01*
X500153Y106298D01*
Y109630D01*
X501819Y111296D01*
X506817D01*
X503485D02*
X500153Y114628D01*
X490156Y104632D02*
X493488Y106298D01*
X496821Y109630D01*
Y112962D01*
X495154Y114628D01*
X491822D01*
X490156Y112962D01*
Y111296D01*
X491822Y109630D01*
X496821D01*
X486824Y106298D02*
X485158Y104632D01*
X481825D01*
X480159Y106298D01*
Y112962D01*
X481825Y114628D01*
X485158D01*
X486824Y112962D01*
Y106298D01*
X476827D02*
X475161Y104632D01*
X471829D01*
X470163Y106298D01*
Y112962D01*
X471829Y114628D01*
X475161D01*
X476827Y112962D01*
Y106298D01*
X506817Y141298D02*
Y131302D01*
X501819D01*
X500153Y132968D01*
Y136300D01*
X501819Y137966D01*
X506817D01*
X503485D02*
X500153Y141298D01*
X490156Y131302D02*
X493488Y132968D01*
X496821Y136300D01*
Y139632D01*
X495154Y141298D01*
X491822D01*
X490156Y139632D01*
Y137966D01*
X491822Y136300D01*
X496821D01*
X486824Y132968D02*
X485158Y131302D01*
X481825D01*
X480159Y132968D01*
Y139632D01*
X481825Y141298D01*
X485158D01*
X486824Y139632D01*
Y132968D01*
X470163Y141298D02*
X476827D01*
X470163Y134634D01*
Y132968D01*
X471829Y131302D01*
X475161D01*
X476827Y132968D01*
X768837Y137338D02*
Y127342D01*
X763839D01*
X762173Y129008D01*
Y132340D01*
X763839Y134006D01*
X768837D01*
X765505D02*
X762173Y137338D01*
X752176Y127342D02*
X755508Y129008D01*
X758841Y132340D01*
Y135672D01*
X757175Y137338D01*
X753842D01*
X752176Y135672D01*
Y134006D01*
X753842Y132340D01*
X758841D01*
X748844Y129008D02*
X747178Y127342D01*
X743846D01*
X742179Y129008D01*
Y135672D01*
X743846Y137338D01*
X747178D01*
X748844Y135672D01*
Y129008D01*
X732183Y127342D02*
X735515Y129008D01*
X738847Y132340D01*
Y135672D01*
X737181Y137338D01*
X733849D01*
X732183Y135672D01*
Y134006D01*
X733849Y132340D01*
X738847D01*
X729644Y251652D02*
Y261648D01*
X724646D01*
X722980Y259982D01*
Y256650D01*
X724646Y254984D01*
X729644D01*
X726312D02*
X722980Y251652D01*
X712983D02*
X719648D01*
X712983Y258316D01*
Y259982D01*
X714649Y261648D01*
X717981D01*
X719648Y259982D01*
X709651Y251652D02*
X706319D01*
X707985D01*
Y261648D01*
X709651Y259982D01*
X701320D02*
X699654Y261648D01*
X696322D01*
X694656Y259982D01*
Y258316D01*
X696322Y256650D01*
X697988D01*
X696322D01*
X694656Y254984D01*
Y253318D01*
X696322Y251652D01*
X699654D01*
X701320Y253318D01*
X649506Y260248D02*
Y250252D01*
X654504D01*
X656170Y251918D01*
Y255250D01*
X654504Y256916D01*
X649506D01*
X652838D02*
X656170Y260248D01*
X666167D02*
X659502D01*
X666167Y253584D01*
Y251918D01*
X664501Y250252D01*
X661169D01*
X659502Y251918D01*
X669499Y260248D02*
X672831D01*
X671165D01*
Y250252D01*
X669499Y251918D01*
X684494Y260248D02*
X677830D01*
X684494Y253584D01*
Y251918D01*
X682828Y250252D01*
X679496D01*
X677830Y251918D01*
X672650Y550446D02*
X670294D01*
X667937Y548090D01*
Y545734D01*
X672650Y541021D01*
X675006D01*
X677362Y543377D01*
Y545734D01*
X685609Y551624D02*
X680897Y546912D01*
Y556337D01*
X679719Y557515D01*
X677362Y557515D01*
X675006Y555159D01*
Y552803D01*
X687966Y553981D02*
X690322Y556337D01*
X689144Y555159D01*
X682075Y562228D01*
Y559871D01*
X693856D02*
X696212Y562228D01*
X695034Y561049D01*
X687966Y568118D01*
Y565762D01*
X181828Y822252D02*
Y832248D01*
X176830D01*
X175164Y830582D01*
Y827250D01*
X176830Y825584D01*
X181828D01*
X178496D02*
X175164Y822252D01*
X165167D02*
X171831D01*
X165167Y828916D01*
Y830582D01*
X166833Y832248D01*
X170165D01*
X171831Y830582D01*
X161835Y822252D02*
X158502D01*
X160168D01*
Y832248D01*
X161835Y830582D01*
X153504Y822252D02*
X150172D01*
X151838D01*
Y832248D01*
X153504Y830582D01*
X184507Y801122D02*
Y811118D01*
X179509D01*
X177843Y809452D01*
Y806120D01*
X179509Y804454D01*
X184507D01*
X181175D02*
X177843Y801122D01*
X167846D02*
X174511D01*
X167846Y807786D01*
Y809452D01*
X169512Y811118D01*
X172845D01*
X174511Y809452D01*
X164514D02*
X162848Y811118D01*
X159515D01*
X157849Y809452D01*
Y802788D01*
X159515Y801122D01*
X162848D01*
X164514Y802788D01*
Y809452D01*
X154517Y802788D02*
X152851Y801122D01*
X149519D01*
X147853Y802788D01*
Y809452D01*
X149519Y811118D01*
X152851D01*
X154517Y809452D01*
Y807786D01*
X152851Y806120D01*
X147853D01*
X476920Y833598D02*
X478586Y831932D01*
X481918D01*
X483584Y833598D01*
Y840262D01*
X481918Y841928D01*
X478586D01*
X476920Y840262D01*
X473588Y833598D02*
X471921Y831932D01*
X468589D01*
X466923Y833598D01*
Y835264D01*
X468589Y836930D01*
X470255D01*
X468589D01*
X466923Y838596D01*
Y840262D01*
X468589Y841928D01*
X471921D01*
X473588Y840262D01*
X463591Y841928D02*
X460258D01*
X461925D01*
Y831932D01*
X463591Y833598D01*
X455260Y840262D02*
X453594Y841928D01*
X450262D01*
X448596Y840262D01*
Y833598D01*
X450262Y831932D01*
X453594D01*
X455260Y833598D01*
Y835264D01*
X453594Y836930D01*
X448596D01*
X547307Y529508D02*
Y519512D01*
X542309D01*
X540643Y521178D01*
Y524510D01*
X542309Y526176D01*
X547307D01*
X543975D02*
X540643Y529508D01*
X532312D02*
Y519512D01*
X537311Y524510D01*
X530646D01*
X527314Y521178D02*
X525648Y519512D01*
X522315D01*
X520649Y521178D01*
Y527842D01*
X522315Y529508D01*
X525648D01*
X527314Y527842D01*
Y521178D01*
X510653Y519512D02*
X517317D01*
Y524510D01*
X513985Y522844D01*
X512319D01*
X510653Y524510D01*
Y527842D01*
X512319Y529508D01*
X515651D01*
X517317Y527842D01*
X331107Y249928D02*
Y239932D01*
X326109D01*
X324443Y241598D01*
Y244930D01*
X326109Y246596D01*
X331107D01*
X327775D02*
X324443Y249928D01*
X314446Y239932D02*
X321110D01*
Y244930D01*
X317778Y243264D01*
X316112D01*
X314446Y244930D01*
Y248262D01*
X316112Y249928D01*
X319444D01*
X321110Y248262D01*
X311114Y241598D02*
X309448Y239932D01*
X306115D01*
X304449Y241598D01*
Y248262D01*
X306115Y249928D01*
X309448D01*
X311114Y248262D01*
Y241598D01*
X296119Y249928D02*
Y239932D01*
X301117Y244930D01*
X294452D01*
X423252Y319188D02*
X433248D01*
Y314190D01*
X431582Y312524D01*
X428250D01*
X426584Y314190D01*
Y319188D01*
Y315856D02*
X423252Y312524D01*
X433248Y302527D02*
Y309191D01*
X428250D01*
X429916Y305859D01*
Y304193D01*
X428250Y302527D01*
X424918D01*
X423252Y304193D01*
Y307525D01*
X424918Y309191D01*
X423252Y299195D02*
Y295862D01*
Y297528D01*
X433248D01*
X431582Y299195D01*
X423252Y290864D02*
Y287532D01*
Y289198D01*
X433248D01*
X431582Y290864D01*
X421364Y317328D02*
Y307332D01*
X416366D01*
X414700Y308998D01*
Y312330D01*
X416366Y313996D01*
X421364D01*
X418032D02*
X414700Y317328D01*
X404703Y307332D02*
X411367D01*
Y312330D01*
X408035Y310664D01*
X406369D01*
X404703Y312330D01*
Y315662D01*
X406369Y317328D01*
X409701D01*
X411367Y315662D01*
X401371Y317328D02*
X398038D01*
X399705D01*
Y307332D01*
X401371Y308998D01*
X393040D02*
X391374Y307332D01*
X388042D01*
X386376Y308998D01*
Y315662D01*
X388042Y317328D01*
X391374D01*
X393040Y315662D01*
Y308998D01*
X450082Y313343D02*
X451748Y315009D01*
Y318341D01*
X450082Y320007D01*
X443418D01*
X441752Y318341D01*
Y315009D01*
X443418Y313343D01*
X451748Y303346D02*
Y310011D01*
X446750D01*
X448416Y306678D01*
Y305012D01*
X446750Y303346D01*
X443418D01*
X441752Y305012D01*
Y308344D01*
X443418Y310011D01*
X450082Y300014D02*
X451748Y298348D01*
Y295016D01*
X450082Y293349D01*
X443418D01*
X441752Y295016D01*
Y298348D01*
X443418Y300014D01*
X450082D01*
X451748Y283353D02*
Y290017D01*
X446750D01*
X448416Y286685D01*
Y285019D01*
X446750Y283353D01*
X443418D01*
X441752Y285019D01*
Y288351D01*
X443418Y290017D01*
X424412Y252687D02*
X434408D01*
Y247689D01*
X432742Y246023D01*
X429410D01*
X427744Y247689D01*
Y252687D01*
Y249355D02*
X424412Y246023D01*
X434408Y236026D02*
Y242691D01*
X429410D01*
X431076Y239358D01*
Y237692D01*
X429410Y236026D01*
X426078D01*
X424412Y237692D01*
Y241024D01*
X426078Y242691D01*
X432742Y232694D02*
X434408Y231028D01*
Y227696D01*
X432742Y226029D01*
X426078D01*
X424412Y227696D01*
Y231028D01*
X426078Y232694D01*
X432742D01*
X426078Y222697D02*
X424412Y221031D01*
Y217699D01*
X426078Y216033D01*
X432742D01*
X434408Y217699D01*
Y221031D01*
X432742Y222697D01*
X431076D01*
X429410Y221031D01*
Y216033D01*
X423357Y248328D02*
Y238332D01*
X418359D01*
X416693Y239998D01*
Y243330D01*
X418359Y244996D01*
X423357D01*
X420025D02*
X416693Y248328D01*
X406696Y238332D02*
X413360D01*
Y243330D01*
X410028Y241664D01*
X408362D01*
X406696Y243330D01*
Y246662D01*
X408362Y248328D01*
X411694D01*
X413360Y246662D01*
X403364Y239998D02*
X401698Y238332D01*
X398365D01*
X396699Y239998D01*
Y246662D01*
X398365Y248328D01*
X401698D01*
X403364Y246662D01*
Y239998D01*
X393367D02*
X391701Y238332D01*
X388369D01*
X386702Y239998D01*
Y241664D01*
X388369Y243330D01*
X386702Y244996D01*
Y246662D01*
X388369Y248328D01*
X391701D01*
X393367Y246662D01*
Y244996D01*
X391701Y243330D01*
X393367Y241664D01*
Y239998D01*
X391701Y243330D02*
X388369D01*
X451242Y244343D02*
X452908Y246009D01*
Y249341D01*
X451242Y251007D01*
X444578D01*
X442912Y249341D01*
Y246009D01*
X444578Y244343D01*
X452908Y234346D02*
Y241011D01*
X447910D01*
X449576Y237678D01*
Y236012D01*
X447910Y234346D01*
X444578D01*
X442912Y236012D01*
Y239345D01*
X444578Y241011D01*
X451242Y231014D02*
X452908Y229348D01*
Y226015D01*
X451242Y224349D01*
X444578D01*
X442912Y226015D01*
Y229348D01*
X444578Y231014D01*
X451242D01*
X442912Y216019D02*
X452908D01*
X447910Y221017D01*
Y214353D01*
X240842Y254257D02*
X250838D01*
Y249259D01*
X249172Y247593D01*
X245840D01*
X244174Y249259D01*
Y254257D01*
Y250925D02*
X240842Y247593D01*
X250838Y237596D02*
Y244261D01*
X245840D01*
X247506Y240928D01*
Y239262D01*
X245840Y237596D01*
X242508D01*
X240842Y239262D01*
Y242594D01*
X242508Y244261D01*
X249172Y234264D02*
X250838Y232598D01*
Y229265D01*
X249172Y227599D01*
X242508D01*
X240842Y229265D01*
Y232598D01*
X242508Y234264D01*
X249172D01*
X250838Y224267D02*
Y217603D01*
X249172D01*
X242508Y224267D01*
X240842D01*
X239787Y249898D02*
Y239902D01*
X234789D01*
X233123Y241568D01*
Y244900D01*
X234789Y246566D01*
X239787D01*
X236455D02*
X233123Y249898D01*
X223126Y239902D02*
X229791D01*
Y244900D01*
X226458Y243234D01*
X224792D01*
X223126Y244900D01*
Y248232D01*
X224792Y249898D01*
X228125D01*
X229791Y248232D01*
X219794Y241568D02*
X218128Y239902D01*
X214795D01*
X213129Y241568D01*
Y248232D01*
X214795Y249898D01*
X218128D01*
X219794Y248232D01*
Y241568D01*
X203133Y239902D02*
X209797D01*
Y244900D01*
X206465Y243234D01*
X204799D01*
X203133Y244900D01*
Y248232D01*
X204799Y249898D01*
X208131D01*
X209797Y248232D01*
X267672Y245913D02*
X269338Y247579D01*
Y250911D01*
X267672Y252577D01*
X261008D01*
X259342Y250911D01*
Y247579D01*
X261008Y245913D01*
X269338Y235916D02*
Y242581D01*
X264340D01*
X266006Y239248D01*
Y237582D01*
X264340Y235916D01*
X261008D01*
X259342Y237582D01*
Y240914D01*
X261008Y242581D01*
X267672Y232584D02*
X269338Y230918D01*
Y227585D01*
X267672Y225919D01*
X261008D01*
X259342Y227585D01*
Y230918D01*
X261008Y232584D01*
X267672D01*
Y222587D02*
X269338Y220921D01*
Y217589D01*
X267672Y215923D01*
X266006D01*
X264340Y217589D01*
Y219255D01*
Y217589D01*
X262674Y215923D01*
X261008D01*
X259342Y217589D01*
Y220921D01*
X261008Y222587D01*
X332161Y254287D02*
X342158D01*
Y249289D01*
X340492Y247623D01*
X337160D01*
X335494Y249289D01*
Y254287D01*
Y250955D02*
X332161Y247623D01*
X342158Y237626D02*
Y244291D01*
X337160D01*
X338826Y240958D01*
Y239292D01*
X337160Y237626D01*
X333828D01*
X332161Y239292D01*
Y242624D01*
X333828Y244291D01*
X340492Y234294D02*
X342158Y232628D01*
Y229295D01*
X340492Y227629D01*
X333828D01*
X332161Y229295D01*
Y232628D01*
X333828Y234294D01*
X340492D01*
X342158Y217633D02*
X340492Y220965D01*
X337160Y224297D01*
X333828D01*
X332161Y222631D01*
Y219299D01*
X333828Y217633D01*
X335494D01*
X337160Y219299D01*
Y224297D01*
X358992Y245943D02*
X360658Y247609D01*
Y250941D01*
X358992Y252607D01*
X352328D01*
X350662Y250941D01*
Y247609D01*
X352328Y245943D01*
X360658Y235946D02*
Y242611D01*
X355660D01*
X357326Y239278D01*
Y237612D01*
X355660Y235946D01*
X352328D01*
X350662Y237612D01*
Y240944D01*
X352328Y242611D01*
X358992Y232614D02*
X360658Y230948D01*
Y227615D01*
X358992Y225949D01*
X352328D01*
X350662Y227615D01*
Y230948D01*
X352328Y232614D01*
X358992D01*
X350662Y215952D02*
Y222617D01*
X357326Y215952D01*
X358992D01*
X360658Y217619D01*
Y220951D01*
X358992Y222617D01*
X241002Y323577D02*
X250998D01*
Y318579D01*
X249332Y316913D01*
X246000D01*
X244334Y318579D01*
Y323577D01*
Y320245D02*
X241002Y316913D01*
X250998Y306916D02*
Y313581D01*
X246000D01*
X247666Y310248D01*
Y308582D01*
X246000Y306916D01*
X242668D01*
X241002Y308582D01*
Y311915D01*
X242668Y313581D01*
X249332Y303584D02*
X250998Y301918D01*
Y298585D01*
X249332Y296919D01*
X242668D01*
X241002Y298585D01*
Y301918D01*
X242668Y303584D01*
X249332D01*
Y293587D02*
X250998Y291921D01*
Y288589D01*
X249332Y286923D01*
X247666D01*
X246000Y288589D01*
Y290255D01*
Y288589D01*
X244334Y286923D01*
X242668D01*
X241002Y288589D01*
Y291921D01*
X242668Y293587D01*
X238281Y319218D02*
Y309222D01*
X233283D01*
X231617Y310888D01*
Y314220D01*
X233283Y315886D01*
X238281D01*
X234949D02*
X231617Y319218D01*
X221620Y309222D02*
X228284D01*
Y314220D01*
X224952Y312554D01*
X223286D01*
X221620Y314220D01*
Y317552D01*
X223286Y319218D01*
X226618D01*
X228284Y317552D01*
X218288Y310888D02*
X216622Y309222D01*
X213289D01*
X211623Y310888D01*
Y317552D01*
X213289Y319218D01*
X216622D01*
X218288Y317552D01*
Y310888D01*
X208291Y319218D02*
X204959D01*
X206625D01*
Y309222D01*
X208291Y310888D01*
X267832Y313567D02*
X269498Y315233D01*
Y318565D01*
X267832Y320231D01*
X261168D01*
X259502Y318565D01*
Y315233D01*
X261168Y313567D01*
X269498Y303570D02*
Y310235D01*
X264500D01*
X266166Y306902D01*
Y305236D01*
X264500Y303570D01*
X261168D01*
X259502Y305236D01*
Y308568D01*
X261168Y310235D01*
X267832Y300238D02*
X269498Y298572D01*
Y295239D01*
X267832Y293573D01*
X261168D01*
X259502Y295239D01*
Y298572D01*
X261168Y300238D01*
X267832D01*
X259502Y290241D02*
Y286909D01*
Y288575D01*
X269498D01*
X267832Y290241D01*
X330307Y316488D02*
Y306492D01*
X325309D01*
X323643Y308158D01*
Y311490D01*
X325309Y313156D01*
X330307D01*
X326975D02*
X323643Y316488D01*
X313646Y306492D02*
X320311D01*
Y311490D01*
X316978Y309824D01*
X315312D01*
X313646Y311490D01*
Y314822D01*
X315312Y316488D01*
X318645D01*
X320311Y314822D01*
X310314Y308158D02*
X308648Y306492D01*
X305315D01*
X303649Y308158D01*
Y314822D01*
X305315Y316488D01*
X308648D01*
X310314Y314822D01*
Y308158D01*
X300317D02*
X298651Y306492D01*
X295319D01*
X293652Y308158D01*
Y314822D01*
X295319Y316488D01*
X298651D01*
X300317Y314822D01*
Y308158D01*
X331362Y320847D02*
X341358D01*
Y315849D01*
X339692Y314183D01*
X336360D01*
X334694Y315849D01*
Y320847D01*
Y317515D02*
X331362Y314183D01*
X341358Y304186D02*
Y310851D01*
X336360D01*
X338026Y307518D01*
Y305852D01*
X336360Y304186D01*
X333028D01*
X331362Y305852D01*
Y309184D01*
X333028Y310851D01*
X339692Y300854D02*
X341358Y299188D01*
Y295855D01*
X339692Y294189D01*
X333028D01*
X331362Y295855D01*
Y299188D01*
X333028Y300854D01*
X339692D01*
X331362Y284193D02*
Y290857D01*
X338026Y284193D01*
X339692D01*
X341358Y285859D01*
Y289191D01*
X339692Y290857D01*
X358192Y312503D02*
X359858Y314169D01*
Y317501D01*
X358192Y319167D01*
X351528D01*
X349862Y317501D01*
Y314169D01*
X351528Y312503D01*
X359858Y302506D02*
Y309171D01*
X354860D01*
X356526Y305838D01*
Y304172D01*
X354860Y302506D01*
X351528D01*
X349862Y304172D01*
Y307505D01*
X351528Y309171D01*
X358192Y299174D02*
X359858Y297508D01*
Y294175D01*
X358192Y292509D01*
X351528D01*
X349862Y294175D01*
Y297508D01*
X351528Y299174D01*
X358192D01*
Y289177D02*
X359858Y287511D01*
Y284179D01*
X358192Y282513D01*
X351528D01*
X349862Y284179D01*
Y287511D01*
X351528Y289177D01*
X358192D01*
X817594Y269158D02*
Y259162D01*
X812596D01*
X810930Y260828D01*
Y264160D01*
X812596Y265826D01*
X817594D01*
X814262D02*
X810930Y269158D01*
X800933D02*
X807598D01*
X800933Y262494D01*
Y260828D01*
X802599Y259162D01*
X805931D01*
X807598Y260828D01*
X797601Y269158D02*
X794268D01*
X795935D01*
Y259162D01*
X797601Y260828D01*
X789270D02*
X787604Y259162D01*
X784272D01*
X782606Y260828D01*
Y267492D01*
X784272Y269158D01*
X787604D01*
X789270Y267492D01*
Y260828D01*
X866188Y479023D02*
X864522Y480689D01*
Y484021D01*
X866188Y485687D01*
X872852D01*
X874518Y484021D01*
Y480689D01*
X872852Y479023D01*
X874518Y469026D02*
Y475691D01*
X867854Y469026D01*
X866188D01*
X864522Y470692D01*
Y474025D01*
X866188Y475691D01*
Y465694D02*
X864522Y464028D01*
Y460695D01*
X866188Y459029D01*
X872852D01*
X874518Y460695D01*
Y464028D01*
X872852Y465694D01*
X866188D01*
X864522Y449033D02*
Y455697D01*
X869520D01*
X867854Y452365D01*
Y450699D01*
X869520Y449033D01*
X872852D01*
X874518Y450699D01*
Y454031D01*
X872852Y455697D01*
X896538Y486347D02*
X886542D01*
Y481349D01*
X888208Y479683D01*
X891540D01*
X893206Y481349D01*
Y486347D01*
Y483015D02*
X896538Y479683D01*
Y469686D02*
Y476351D01*
X889874Y469686D01*
X888208D01*
X886542Y471352D01*
Y474684D01*
X888208Y476351D01*
Y466354D02*
X886542Y464688D01*
Y461355D01*
X888208Y459689D01*
X894872D01*
X896538Y461355D01*
Y464688D01*
X894872Y466354D01*
X888208D01*
Y456357D02*
X886542Y454691D01*
Y451359D01*
X888208Y449692D01*
X889874D01*
X891540Y451359D01*
X893206Y449692D01*
X894872D01*
X896538Y451359D01*
Y454691D01*
X894872Y456357D01*
X893206D01*
X891540Y454691D01*
X889874Y456357D01*
X888208D01*
X891540Y454691D02*
Y451359D01*
X886542Y413473D02*
X896538D01*
Y418471D01*
X894872Y420137D01*
X891540D01*
X889874Y418471D01*
Y413473D01*
Y416805D02*
X886542Y420137D01*
Y430134D02*
Y423469D01*
X893206Y430134D01*
X894872D01*
X896538Y428468D01*
Y425135D01*
X894872Y423469D01*
Y433466D02*
X896538Y435132D01*
Y438465D01*
X894872Y440131D01*
X888208D01*
X886542Y438465D01*
Y435132D01*
X888208Y433466D01*
X894872D01*
X896538Y450127D02*
X894872Y446795D01*
X891540Y443463D01*
X888208D01*
X886542Y445129D01*
Y448461D01*
X888208Y450127D01*
X889874D01*
X891540Y448461D01*
Y443463D01*
X408340Y602458D02*
X410006Y600792D01*
X413338D01*
X415004Y602458D01*
Y609122D01*
X413338Y610788D01*
X410006D01*
X408340Y609122D01*
X405008Y610788D02*
X401675D01*
X403341D01*
Y600792D01*
X405008Y602458D01*
X396677D02*
X395011Y600792D01*
X391679D01*
X390012Y602458D01*
Y609122D01*
X391679Y610788D01*
X395011D01*
X396677Y609122D01*
Y602458D01*
X386680Y609122D02*
X385014Y610788D01*
X381682D01*
X380016Y609122D01*
Y602458D01*
X381682Y600792D01*
X385014D01*
X386680Y602458D01*
Y604124D01*
X385014Y605790D01*
X380016D01*
X347310Y609122D02*
X345644Y610788D01*
X342312D01*
X340646Y609122D01*
Y602458D01*
X342312Y600792D01*
X345644D01*
X347310Y602458D01*
X350642Y600792D02*
X353975D01*
X352309D01*
Y610788D01*
X350642Y609122D01*
X358973D02*
X360639Y610788D01*
X363971D01*
X365638Y609122D01*
Y602458D01*
X363971Y600792D01*
X360639D01*
X358973Y602458D01*
Y609122D01*
X368970D02*
X370636Y610788D01*
X373968D01*
X375634Y609122D01*
Y607456D01*
X373968Y605790D01*
X375634Y604124D01*
Y602458D01*
X373968Y600792D01*
X370636D01*
X368970Y602458D01*
Y604124D01*
X370636Y605790D01*
X368970Y607456D01*
Y609122D01*
X370636Y605790D02*
X373968D01*
X340278Y685359D02*
X330282D01*
Y680361D01*
X331948Y678695D01*
X338612D01*
X340278Y680361D01*
Y685359D01*
X330282Y675362D02*
Y672030D01*
Y673696D01*
X340278D01*
X338612Y675362D01*
Y667032D02*
X340278Y665366D01*
Y662033D01*
X338612Y660367D01*
X331948D01*
X330282Y662033D01*
Y665366D01*
X331948Y667032D01*
X338612D01*
X330282Y650371D02*
Y657035D01*
X336946Y650371D01*
X338612D01*
X340278Y652037D01*
Y655369D01*
X338612Y657035D01*
X245028Y676073D02*
X235032D01*
Y671075D01*
X236698Y669409D01*
X243362D01*
X245028Y671075D01*
Y676073D01*
X235032Y666076D02*
Y662744D01*
Y664410D01*
X245028D01*
X243362Y666076D01*
Y657746D02*
X245028Y656080D01*
Y652747D01*
X243362Y651081D01*
X236698D01*
X235032Y652747D01*
Y656080D01*
X236698Y657746D01*
X243362D01*
X235032Y647749D02*
Y644417D01*
Y646083D01*
X245028D01*
X243362Y647749D01*
X313090Y594838D02*
X314756Y593172D01*
X318088D01*
X319754Y594838D01*
Y601502D01*
X318088Y603168D01*
X314756D01*
X313090Y601502D01*
X309758Y603168D02*
X306425D01*
X308091D01*
Y593172D01*
X309758Y594838D01*
X301427D02*
X299761Y593172D01*
X296429D01*
X294762Y594838D01*
Y601502D01*
X296429Y603168D01*
X299761D01*
X301427Y601502D01*
Y594838D01*
X291430Y593172D02*
X284766D01*
Y594838D01*
X291430Y601502D01*
Y603168D01*
X252060Y601502D02*
X250394Y603168D01*
X247062D01*
X245396Y601502D01*
Y594838D01*
X247062Y593172D01*
X250394D01*
X252060Y594838D01*
X255392Y593172D02*
X258725D01*
X257059D01*
Y603168D01*
X255392Y601502D01*
X263723D02*
X265389Y603168D01*
X268722D01*
X270388Y601502D01*
Y594838D01*
X268722Y593172D01*
X265389D01*
X263723Y594838D01*
Y601502D01*
X280384Y603168D02*
X277052Y601502D01*
X273720Y598170D01*
Y594838D01*
X275386Y593172D01*
X278718D01*
X280384Y594838D01*
Y596504D01*
X278718Y598170D01*
X273720D01*
X245028Y608402D02*
X235032D01*
Y613400D01*
X236698Y615066D01*
X240030D01*
X241696Y613400D01*
Y608402D01*
Y611734D02*
X245028Y615066D01*
Y618399D02*
Y621731D01*
Y620065D01*
X235032D01*
X236698Y618399D01*
Y626729D02*
X235032Y628395D01*
Y631728D01*
X236698Y633394D01*
X243362D01*
X245028Y631728D01*
Y628395D01*
X243362Y626729D01*
X236698D01*
X245028Y636726D02*
Y640058D01*
Y638392D01*
X235032D01*
X236698Y636726D01*
X340278Y614356D02*
X330282D01*
Y619354D01*
X331948Y621020D01*
X335280D01*
X336946Y619354D01*
Y614356D01*
Y617688D02*
X340278Y621020D01*
Y624352D02*
Y627685D01*
Y626018D01*
X330282D01*
X331948Y624352D01*
Y632683D02*
X330282Y634349D01*
Y637681D01*
X331948Y639347D01*
X338612D01*
X340278Y637681D01*
Y634349D01*
X338612Y632683D01*
X331948D01*
X340278Y649344D02*
Y642680D01*
X333614Y649344D01*
X331948D01*
X330282Y647678D01*
Y644346D01*
X331948Y642680D01*
X914513Y525862D02*
Y535858D01*
X919511D01*
X921177Y534192D01*
Y530860D01*
X919511Y529194D01*
X914513D01*
X917845D02*
X921177Y525862D01*
X931174D02*
X924509D01*
X931174Y532526D01*
Y534192D01*
X929508Y535858D01*
X926176D01*
X924509Y534192D01*
X934506D02*
X936172Y535858D01*
X939504D01*
X941171Y534192D01*
Y527528D01*
X939504Y525862D01*
X936172D01*
X934506Y527528D01*
Y534192D01*
X949501Y525862D02*
Y535858D01*
X944503Y530860D01*
X951167D01*
X915346Y491572D02*
Y501568D01*
X920344D01*
X922010Y499902D01*
Y496570D01*
X920344Y494904D01*
X915346D01*
X918678D02*
X922010Y491572D01*
X932007D02*
X925342D01*
X932007Y498236D01*
Y499902D01*
X930341Y501568D01*
X927009D01*
X925342Y499902D01*
X935339Y491572D02*
X938671D01*
X937005D01*
Y501568D01*
X935339Y499902D01*
X943670Y501568D02*
X950334D01*
Y499902D01*
X943670Y493238D01*
Y491572D01*
X915346Y609682D02*
Y619678D01*
X920344D01*
X922010Y618012D01*
Y614680D01*
X920344Y613014D01*
X915346D01*
X918678D02*
X922010Y609682D01*
X932007D02*
X925342D01*
X932007Y616346D01*
Y618012D01*
X930341Y619678D01*
X927009D01*
X925342Y618012D01*
X935339Y609682D02*
X938671D01*
X937005D01*
Y619678D01*
X935339Y618012D01*
X950334Y619678D02*
X947002Y618012D01*
X943670Y614680D01*
Y611348D01*
X945336Y609682D01*
X948668D01*
X950334Y611348D01*
Y613014D01*
X948668Y614680D01*
X943670D01*
X796353Y840822D02*
Y850818D01*
X801351D01*
X803017Y849152D01*
Y845820D01*
X801351Y844154D01*
X796353D01*
X799685D02*
X803017Y840822D01*
X813014D02*
X806349D01*
X813014Y847486D01*
Y849152D01*
X811348Y850818D01*
X808016D01*
X806349Y849152D01*
X816346D02*
X818012Y850818D01*
X821345D01*
X823011Y849152D01*
Y842488D01*
X821345Y840822D01*
X818012D01*
X816346Y842488D01*
Y849152D01*
X833007Y850818D02*
X826343D01*
Y845820D01*
X829675Y847486D01*
X831341D01*
X833007Y845820D01*
Y842488D01*
X831341Y840822D01*
X828009D01*
X826343Y842488D01*
X794542Y923523D02*
X796208Y925189D01*
Y928521D01*
X794542Y930187D01*
X787878D01*
X786212Y928521D01*
Y925189D01*
X787878Y923523D01*
X786212Y913526D02*
Y920191D01*
X792876Y913526D01*
X794542D01*
X796208Y915192D01*
Y918524D01*
X794542Y920191D01*
Y910194D02*
X796208Y908528D01*
Y905195D01*
X794542Y903529D01*
X787878D01*
X786212Y905195D01*
Y908528D01*
X787878Y910194D01*
X794542D01*
X786212Y895199D02*
X796208D01*
X791210Y900197D01*
Y893533D01*
X861658Y866058D02*
Y856062D01*
X866656D01*
X868322Y857728D01*
Y864392D01*
X866656Y866058D01*
X861658D01*
X878319Y856062D02*
X871654D01*
X878319Y862726D01*
Y864392D01*
X876653Y866058D01*
X873320D01*
X871654Y864392D01*
X881651D02*
X883317Y866058D01*
X886649D01*
X888316Y864392D01*
Y857728D01*
X886649Y856062D01*
X883317D01*
X881651Y857728D01*
Y864392D01*
X891648D02*
X893314Y866058D01*
X896646D01*
X898312Y864392D01*
Y857728D01*
X896646Y856062D01*
X893314D01*
X891648Y857728D01*
Y864392D01*
X870113Y883442D02*
X868447Y885108D01*
X865115D01*
X863449Y883442D01*
Y876778D01*
X865115Y875112D01*
X868447D01*
X870113Y876778D01*
X880110Y875112D02*
X873446D01*
X880110Y881776D01*
Y883442D01*
X878444Y885108D01*
X875112D01*
X873446Y883442D01*
X883442D02*
X885108Y885108D01*
X888441D01*
X890107Y883442D01*
Y876778D01*
X888441Y875112D01*
X885108D01*
X883442Y876778D01*
Y883442D01*
X893439Y875112D02*
X896771D01*
X895105D01*
Y885108D01*
X893439Y883442D01*
X868598Y928843D02*
Y935507D01*
X863600D01*
Y932175D01*
Y935507D01*
X858602D01*
Y918846D02*
Y925511D01*
X865266Y918846D01*
X866932D01*
X868598Y920512D01*
Y923845D01*
X866932Y925511D01*
Y915514D02*
X868598Y913848D01*
Y910515D01*
X866932Y908849D01*
X860268D01*
X858602Y910515D01*
Y913848D01*
X860268Y915514D01*
X866932D01*
Y905517D02*
X868598Y903851D01*
Y900519D01*
X866932Y898852D01*
X860268D01*
X858602Y900519D01*
Y903851D01*
X860268Y905517D01*
X866932D01*
X655935Y417223D02*
X658292D01*
X660648Y419579D01*
Y421935D01*
X655935Y426648D01*
X653579D01*
X651223Y424292D01*
Y421935D01*
X642976Y416045D02*
X647689Y420757D01*
Y411332D01*
X648867Y410154D01*
X651223Y410154D01*
X653579Y412510D01*
Y414867D01*
X646510Y407798D02*
Y405442D01*
X644154Y403085D01*
X641798Y403085D01*
X637085Y407798D01*
X637085Y410154D01*
X639442Y412510D01*
X641798D01*
X646510Y407798D01*
X640620Y399551D02*
X635907Y394838D01*
X634729Y396017D01*
Y405442D01*
X633551Y406620D01*
X704051Y378722D02*
X696982Y385791D01*
X700516Y389326D01*
X702872D01*
X705229Y386969D01*
Y384613D01*
X701694Y381079D01*
X704051Y383435D02*
X708763D01*
X715832Y390504D02*
X711120Y385791D01*
Y395216D01*
X709941Y396394D01*
X707585Y396395D01*
X705229Y394038D01*
Y391682D01*
X712298Y398751D02*
Y401107D01*
X714654Y403463D01*
X717010Y403463D01*
X721723Y398751D01*
X721723Y396395D01*
X719366Y394038D01*
X717010D01*
X712298Y398751D01*
X718188Y406998D02*
X722901Y411710D01*
X724079Y410532D01*
Y401107D01*
X725257Y399929D01*
X617612Y538562D02*
Y548558D01*
X612614D01*
X610948Y546892D01*
Y540228D01*
X612614Y538562D01*
X617612D01*
X602617Y548558D02*
Y538562D01*
X607616Y543560D01*
X600951D01*
X597619Y540228D02*
X595953Y538562D01*
X592620D01*
X590954Y540228D01*
Y546892D01*
X592620Y548558D01*
X595953D01*
X597619Y546892D01*
Y540228D01*
X587622D02*
X585956Y538562D01*
X582624D01*
X580957Y540228D01*
Y546892D01*
X582624Y548558D01*
X585956D01*
X587622Y546892D01*
Y540228D01*
X597937Y658652D02*
X596271Y660318D01*
X592939D01*
X591273Y658652D01*
Y651988D01*
X592939Y650322D01*
X596271D01*
X597937Y651988D01*
X606268Y650322D02*
Y660318D01*
X601269Y655320D01*
X607934D01*
X611266Y658652D02*
X612932Y660318D01*
X616264D01*
X617931Y658652D01*
Y651988D01*
X616264Y650322D01*
X612932D01*
X611266Y651988D01*
Y658652D01*
X627927Y650322D02*
X621263D01*
X627927Y656986D01*
Y658652D01*
X626261Y660318D01*
X622929D01*
X621263Y658652D01*
X627376Y630002D02*
Y639998D01*
X622378D01*
X620712Y638332D01*
Y631668D01*
X622378Y630002D01*
X627376D01*
X612381Y639998D02*
Y630002D01*
X617379Y635000D01*
X610715D01*
X607383Y631668D02*
X605717Y630002D01*
X602384D01*
X600718Y631668D01*
Y638332D01*
X602384Y639998D01*
X605717D01*
X607383Y638332D01*
Y631668D01*
X597386Y639998D02*
X594054D01*
X595720D01*
Y630002D01*
X597386Y631668D01*
X585388Y646493D02*
X575392D01*
Y651491D01*
X577058Y653157D01*
X580390D01*
X582056Y651491D01*
Y646493D01*
Y649825D02*
X585388Y653157D01*
Y661488D02*
X575392D01*
X580390Y656489D01*
Y663154D01*
X577058Y666486D02*
X575392Y668152D01*
Y671485D01*
X577058Y673151D01*
X583722D01*
X585388Y671485D01*
Y668152D01*
X583722Y666486D01*
X577058D01*
Y676483D02*
X575392Y678149D01*
Y681481D01*
X577058Y683147D01*
X578724D01*
X580390Y681481D01*
Y679815D01*
Y681481D01*
X582056Y683147D01*
X583722D01*
X585388Y681481D01*
Y678149D01*
X583722Y676483D01*
X586507Y527842D02*
X584841Y529508D01*
X581509D01*
X579843Y527842D01*
Y521178D01*
X581509Y519512D01*
X584841D01*
X586507Y521178D01*
X594838Y519512D02*
Y529508D01*
X589839Y524510D01*
X596504D01*
X599836Y527842D02*
X601502Y529508D01*
X604835D01*
X606501Y527842D01*
Y521178D01*
X604835Y519512D01*
X601502D01*
X599836Y521178D01*
Y527842D01*
X609833D02*
X611499Y529508D01*
X614831D01*
X616497Y527842D01*
Y521178D01*
X614831Y519512D01*
X611499D01*
X609833Y521178D01*
Y527842D01*
X617107Y510458D02*
Y500462D01*
X612109D01*
X610443Y502128D01*
Y505460D01*
X612109Y507126D01*
X617107D01*
X613775D02*
X610443Y510458D01*
X602112D02*
Y500462D01*
X607111Y505460D01*
X600446D01*
X597114Y502128D02*
X595448Y500462D01*
X592116D01*
X590449Y502128D01*
Y508792D01*
X592116Y510458D01*
X595448D01*
X597114Y508792D01*
Y502128D01*
X582119Y510458D02*
Y500462D01*
X587117Y505460D01*
X580453D01*
X575228Y495363D02*
X565232D01*
Y500361D01*
X566898Y502027D01*
X570230D01*
X571896Y500361D01*
Y495363D01*
Y498695D02*
X575228Y502027D01*
Y510358D02*
X565232D01*
X570230Y505359D01*
Y512024D01*
X566898Y515356D02*
X565232Y517022D01*
Y520354D01*
X566898Y522021D01*
X573562D01*
X575228Y520354D01*
Y517022D01*
X573562Y515356D01*
X566898D01*
X575228Y532017D02*
Y525353D01*
X568564Y532017D01*
X566898D01*
X565232Y530351D01*
Y527019D01*
X566898Y525353D01*
X566307Y548558D02*
Y538562D01*
X561309D01*
X559643Y540228D01*
Y543560D01*
X561309Y545226D01*
X566307D01*
X562975D02*
X559643Y548558D01*
X551312D02*
Y538562D01*
X556311Y543560D01*
X549646D01*
X546314Y540228D02*
X544648Y538562D01*
X541315D01*
X539649Y540228D01*
Y546892D01*
X541315Y548558D01*
X544648D01*
X546314Y546892D01*
Y540228D01*
X536317D02*
X534651Y538562D01*
X531319D01*
X529653Y540228D01*
Y546892D01*
X531319Y548558D01*
X534651D01*
X536317Y546892D01*
Y540228D01*
X544679Y630002D02*
Y639998D01*
X549677D01*
X551343Y638332D01*
Y635000D01*
X549677Y633334D01*
X544679D01*
X548011D02*
X551343Y630002D01*
X559674D02*
Y639998D01*
X554675Y635000D01*
X561340D01*
X564672Y638332D02*
X566338Y639998D01*
X569671D01*
X571337Y638332D01*
Y631668D01*
X569671Y630002D01*
X566338D01*
X564672Y631668D01*
Y638332D01*
X574669Y630002D02*
X578001D01*
X576335D01*
Y639998D01*
X574669Y638332D01*
X560007Y659048D02*
Y649052D01*
X555009D01*
X553343Y650718D01*
Y654050D01*
X555009Y655716D01*
X560007D01*
X556675D02*
X553343Y659048D01*
X545012D02*
Y649052D01*
X550011Y654050D01*
X543346D01*
X540014Y650718D02*
X538348Y649052D01*
X535015D01*
X533349Y650718D01*
Y657382D01*
X535015Y659048D01*
X538348D01*
X540014Y657382D01*
Y650718D01*
X523353Y649052D02*
X526685Y650718D01*
X530017Y654050D01*
Y657382D01*
X528351Y659048D01*
X525019D01*
X523353Y657382D01*
Y655716D01*
X525019Y654050D01*
X530017D01*
X538958Y579283D02*
X537292Y577617D01*
Y574285D01*
X538958Y572619D01*
X545622D01*
X547288Y574285D01*
Y577617D01*
X545622Y579283D01*
X547288Y587614D02*
X537292D01*
X542290Y582616D01*
Y589280D01*
X538958Y592612D02*
X537292Y594278D01*
Y597611D01*
X538958Y599277D01*
X545622D01*
X547288Y597611D01*
Y594278D01*
X545622Y592612D01*
X538958D01*
X547288Y602609D02*
Y605941D01*
Y604275D01*
X537292D01*
X538958Y602609D01*
X690883Y453755D02*
Y451398D01*
X693239Y449042D01*
X695595D01*
X700308Y453755D01*
Y456111D01*
X697952Y458467D01*
X695595D01*
X689705Y466714D02*
X694417Y462001D01*
X684992D01*
X683814Y460823D01*
X683814Y458467D01*
X686170Y456111D01*
X688527D01*
X681458Y463180D02*
X679101D01*
X676745Y465536D01*
X676745Y467892D01*
X681458Y472605D01*
X683814Y472605D01*
X686170Y470248D01*
Y467892D01*
X681458Y463180D01*
X679101Y474961D02*
Y477317D01*
X676745Y479674D01*
X674389Y479674D01*
X669677Y474961D01*
X669677Y472605D01*
X672033Y470248D01*
X674389D01*
X675567Y471427D01*
Y473783D01*
X672033Y477317D01*
X842957Y440125D02*
X845313D01*
X847670Y442481D01*
Y444837D01*
X842957Y449550D01*
X840601D01*
X838245Y447194D01*
Y444837D01*
X829998Y438947D02*
X834710Y443659D01*
Y434234D01*
X835889Y433056D01*
X838245Y433056D01*
X840601Y435412D01*
Y437769D01*
X833532Y430700D02*
Y428344D01*
X831176Y425987D01*
X828820Y425987D01*
X824107Y430700D01*
X824107Y433056D01*
X826463Y435412D01*
X828820D01*
X833532Y430700D01*
X826463Y423631D02*
Y421275D01*
X824107Y418918D01*
X821751Y418918D01*
X817038Y423631D01*
X817038Y425987D01*
X819395Y428344D01*
X821751D01*
X826463Y423631D01*
X831959Y562825D02*
Y560469D01*
X834315Y558112D01*
X836671D01*
X841384Y562825D01*
Y565181D01*
X839027Y567537D01*
X836671D01*
X830780Y575784D02*
X835493Y571072D01*
X826068D01*
X824890Y569894D01*
X824890Y567537D01*
X827246Y565181D01*
X829602D01*
X822533Y572250D02*
X820177D01*
X817821Y574606D01*
X817821Y576963D01*
X822533Y581675D01*
X824890Y581675D01*
X827246Y579319D01*
Y576963D01*
X822533Y572250D01*
X809574Y582853D02*
X813109Y581675D01*
X817821D01*
X820177Y584031D01*
Y586388D01*
X817821Y588744D01*
X815465Y588744D01*
X814287Y587566D01*
Y585210D01*
X817821Y581675D01*
X778975Y380526D02*
Y378170D01*
X781331Y375813D01*
X783688D01*
X788400Y380526D01*
Y382882D01*
X786044Y385238D01*
X783688D01*
X777797Y393485D02*
X782510Y388773D01*
X773084D01*
X771906Y387595D01*
X771906Y385238D01*
X774263Y382882D01*
X776619D01*
X769550Y389951D02*
X767194D01*
X764837Y392307D01*
X764838Y394663D01*
X769550Y399376D01*
X771906Y399376D01*
X774263Y397020D01*
Y394663D01*
X769550Y389951D01*
X762481Y397020D02*
X760125D01*
X757769Y399376D01*
X757769Y401732D01*
X758947Y402910D01*
X761303D01*
X762481Y401732D01*
X761303Y402910D01*
Y405267D01*
X762481Y406445D01*
X764837Y406445D01*
X767194Y404089D01*
Y401732D01*
X763709Y365259D02*
Y362903D01*
X766065Y360547D01*
X768421D01*
X773134Y365259D01*
Y367616D01*
X770777Y369972D01*
X768421D01*
X762531Y378219D02*
X767243Y373506D01*
X757818D01*
X756640Y372328D01*
X756640Y369972D01*
X758996Y367616D01*
X761352D01*
X754284Y374684D02*
X751927D01*
X749571Y377041D01*
X749571Y379397D01*
X754284Y384109D01*
X756640Y384109D01*
X758996Y381753D01*
Y379397D01*
X754284Y374684D01*
X748393Y392356D02*
X753105Y387644D01*
X743680D01*
X742502Y386466D01*
X742502Y384109D01*
X744858Y381753D01*
X747215D01*
X691315Y348777D02*
X688958D01*
X686602Y346421D01*
Y344065D01*
X691315Y339352D01*
X693671D01*
X696027Y341708D01*
Y344065D01*
X704274Y349955D02*
X699561Y345243D01*
Y354668D01*
X698383Y355846D01*
X696027Y355846D01*
X693671Y353490D01*
Y351133D01*
X700740Y358202D02*
Y360559D01*
X703096Y362915D01*
X705452Y362915D01*
X710165Y358202D01*
X710165Y355846D01*
X707808Y353490D01*
X705452D01*
X700740Y358202D01*
X707808Y365271D02*
Y367627D01*
X710165Y369983D01*
X712521Y369983D01*
X713699Y368805D01*
Y366449D01*
X716055D01*
X717233Y365271D01*
X717234Y362915D01*
X714877Y360559D01*
X712521D01*
X711343Y361737D01*
Y364093D01*
X708987D01*
X707808Y365271D01*
X711343Y364093D02*
X713699Y366449D01*
X700209Y578005D02*
X697852D01*
X695496Y575649D01*
Y573292D01*
X700209Y568580D01*
X702565D01*
X704921Y570936D01*
Y573292D01*
X713168Y579183D02*
X708456Y574470D01*
Y583896D01*
X707277Y585074D01*
X704921Y585074D01*
X702565Y582718D01*
Y580361D01*
X715524Y581539D02*
X717880Y583896D01*
X716702Y582718D01*
X709634Y589786D01*
Y587430D01*
X715524Y593321D02*
Y595677D01*
X717880Y598033D01*
X720237D01*
X724949Y593321D01*
X724949Y590964D01*
X722593Y588608D01*
X720237D01*
X715524Y593321D01*
X352978Y447326D02*
X342982D01*
Y452324D01*
X344648Y453990D01*
X347980D01*
X349646Y452324D01*
Y447326D01*
Y450658D02*
X352978Y453990D01*
Y457322D02*
Y460655D01*
Y458988D01*
X342982D01*
X344648Y457322D01*
Y465653D02*
X342982Y467319D01*
Y470651D01*
X344648Y472318D01*
X351312D01*
X352978Y470651D01*
Y467319D01*
X351312Y465653D01*
X344648D01*
Y475650D02*
X342982Y477316D01*
Y480648D01*
X344648Y482314D01*
X351312D01*
X352978Y480648D01*
Y477316D01*
X351312Y475650D01*
X344648D01*
X288768Y498510D02*
X287102Y500176D01*
Y503508D01*
X288768Y505174D01*
X295432D01*
X297098Y503508D01*
Y500176D01*
X295432Y498510D01*
X297098Y495177D02*
Y491845D01*
Y493511D01*
X287102D01*
X288768Y495177D01*
Y486847D02*
X287102Y485181D01*
Y481848D01*
X288768Y480182D01*
X295432D01*
X297098Y481848D01*
Y485181D01*
X295432Y486847D01*
X288768D01*
Y476850D02*
X287102Y475184D01*
Y471852D01*
X288768Y470186D01*
X290434D01*
X292100Y471852D01*
Y473518D01*
Y471852D01*
X293766Y470186D01*
X295432D01*
X297098Y471852D01*
Y475184D01*
X295432Y476850D01*
X524092Y879577D02*
X534088D01*
Y874579D01*
X532422Y872913D01*
X529090D01*
X527424Y874579D01*
Y879577D01*
Y876245D02*
X524092Y872913D01*
Y862916D02*
Y869581D01*
X530756Y862916D01*
X532422D01*
X534088Y864582D01*
Y867915D01*
X532422Y869581D01*
Y859584D02*
X534088Y857918D01*
Y854585D01*
X532422Y852919D01*
X525758D01*
X524092Y854585D01*
Y857918D01*
X525758Y859584D01*
X532422D01*
Y849587D02*
X534088Y847921D01*
Y844589D01*
X532422Y842923D01*
X530756D01*
X529090Y844589D01*
Y846255D01*
Y844589D01*
X527424Y842923D01*
X525758D01*
X524092Y844589D01*
Y847921D01*
X525758Y849587D01*
X268092Y879057D02*
X278088D01*
Y874059D01*
X276422Y872393D01*
X273090D01*
X271424Y874059D01*
Y879057D01*
Y875725D02*
X268092Y872393D01*
Y862396D02*
Y869061D01*
X274756Y862396D01*
X276422D01*
X278088Y864062D01*
Y867394D01*
X276422Y869061D01*
Y859064D02*
X278088Y857398D01*
Y854065D01*
X276422Y852399D01*
X269758D01*
X268092Y854065D01*
Y857398D01*
X269758Y859064D01*
X276422D01*
X268092Y842403D02*
Y849067D01*
X274756Y842403D01*
X276422D01*
X278088Y844069D01*
Y847401D01*
X276422Y849067D01*
X525002Y988161D02*
X534998D01*
Y983163D01*
X533332Y981497D01*
X530000D01*
X528334Y983163D01*
Y988161D01*
Y984829D02*
X525002Y981497D01*
Y971500D02*
Y978165D01*
X531666Y971500D01*
X533332D01*
X534998Y973166D01*
Y976498D01*
X533332Y978165D01*
Y968168D02*
X534998Y966501D01*
Y963169D01*
X533332Y961503D01*
X526668D01*
X525002Y963169D01*
Y966501D01*
X526668Y968168D01*
X533332D01*
X525002Y958171D02*
Y954839D01*
Y956505D01*
X534998D01*
X533332Y958171D01*
X269572Y988817D02*
X279568D01*
Y983819D01*
X277902Y982153D01*
X274570D01*
X272904Y983819D01*
Y988817D01*
Y985485D02*
X269572Y982153D01*
Y972156D02*
Y978821D01*
X276236Y972156D01*
X277902D01*
X279568Y973822D01*
Y977154D01*
X277902Y978821D01*
Y968824D02*
X279568Y967158D01*
Y963826D01*
X277902Y962159D01*
X271238D01*
X269572Y963826D01*
Y967158D01*
X271238Y968824D01*
X277902D01*
Y958827D02*
X279568Y957161D01*
Y953829D01*
X277902Y952163D01*
X271238D01*
X269572Y953829D01*
Y957161D01*
X271238Y958827D01*
X277902D01*
X627267Y679368D02*
Y669372D01*
X622269D01*
X620603Y671038D01*
Y674370D01*
X622269Y676036D01*
X627267D01*
X623935D02*
X620603Y679368D01*
X612272D02*
Y669372D01*
X617271Y674370D01*
X610606D01*
X607274Y671038D02*
X605608Y669372D01*
X602276D01*
X600609Y671038D01*
Y677702D01*
X602276Y679368D01*
X605608D01*
X607274Y677702D01*
Y671038D01*
X597277Y669372D02*
X590613D01*
Y671038D01*
X597277Y677702D01*
Y679368D01*
X253522Y504806D02*
X255188Y503140D01*
Y499808D01*
X253522Y498142D01*
X246858D01*
X245192Y499808D01*
Y503140D01*
X246858Y504806D01*
X245192Y508139D02*
Y511471D01*
Y509805D01*
X255188D01*
X253522Y508139D01*
Y516469D02*
X255188Y518135D01*
Y521468D01*
X253522Y523134D01*
X246858D01*
X245192Y521468D01*
Y518135D01*
X246858Y516469D01*
X253522D01*
X245192Y526466D02*
Y529798D01*
Y528132D01*
X255188D01*
X253522Y526466D01*
X234472Y503140D02*
X236138Y501474D01*
Y498142D01*
X234472Y496476D01*
X227808D01*
X226142Y498142D01*
Y501474D01*
X227808Y503140D01*
X226142Y506472D02*
Y509805D01*
Y508139D01*
X236138D01*
X234472Y506472D01*
Y514803D02*
X236138Y516469D01*
Y519801D01*
X234472Y521468D01*
X227808D01*
X226142Y519801D01*
Y516469D01*
X227808Y514803D01*
X234472D01*
X226142Y531464D02*
Y524800D01*
X232806Y531464D01*
X234472D01*
X236138Y529798D01*
Y526466D01*
X234472Y524800D01*
X62830Y457992D02*
X61164Y459658D01*
X57832D01*
X56166Y457992D01*
Y451328D01*
X57832Y449662D01*
X61164D01*
X62830Y451328D01*
X66162Y449662D02*
X69495D01*
X67829D01*
Y459658D01*
X66162Y457992D01*
X74493D02*
X76159Y459658D01*
X79492D01*
X81158Y457992D01*
Y451328D01*
X79492Y449662D01*
X76159D01*
X74493Y451328D01*
Y457992D01*
X84490D02*
X86156Y459658D01*
X89488D01*
X91154Y457992D01*
Y451328D01*
X89488Y449662D01*
X86156D01*
X84490Y451328D01*
Y457992D01*
X106762Y634640D02*
Y641304D01*
X111760D01*
Y637972D01*
Y641304D01*
X116758D01*
Y631308D02*
Y627975D01*
Y629641D01*
X106762D01*
X108428Y631308D01*
Y622977D02*
X106762Y621311D01*
Y617979D01*
X108428Y616312D01*
X115092D01*
X116758Y617979D01*
Y621311D01*
X115092Y622977D01*
X108428D01*
Y612980D02*
X106762Y611314D01*
Y607982D01*
X108428Y606316D01*
X115092D01*
X116758Y607982D01*
Y611314D01*
X115092Y612980D01*
X108428D01*
X594838Y718983D02*
X593172Y717317D01*
Y713985D01*
X594838Y712319D01*
X601502D01*
X603168Y713985D01*
Y717317D01*
X601502Y718983D01*
X603168Y722316D02*
Y725648D01*
Y723982D01*
X593172D01*
X594838Y722316D01*
X603168Y730646D02*
Y733978D01*
Y732312D01*
X593172D01*
X594838Y730646D01*
X603168Y745641D02*
Y738977D01*
X596504Y745641D01*
X594838D01*
X593172Y743975D01*
Y740643D01*
X594838Y738977D01*
X613492Y746474D02*
X623488D01*
Y741476D01*
X621822Y739810D01*
X618490D01*
X616824Y741476D01*
Y746474D01*
Y743142D02*
X613492Y739810D01*
Y736478D02*
Y733145D01*
Y734811D01*
X623488D01*
X621822Y736478D01*
Y728147D02*
X623488Y726481D01*
Y723148D01*
X621822Y721482D01*
X615158D01*
X613492Y723148D01*
Y726481D01*
X615158Y728147D01*
X621822D01*
Y718150D02*
X623488Y716484D01*
Y713152D01*
X621822Y711486D01*
X620156D01*
X618490Y713152D01*
Y714818D01*
Y713152D01*
X616824Y711486D01*
X615158D01*
X613492Y713152D01*
Y716484D01*
X615158Y718150D01*
X953688Y778136D02*
X943692D01*
Y783134D01*
X945358Y784800D01*
X948690D01*
X950356Y783134D01*
Y778136D01*
Y781468D02*
X953688Y784800D01*
Y794797D02*
Y788132D01*
X947024Y794797D01*
X945358D01*
X943692Y793131D01*
Y789799D01*
X945358Y788132D01*
X953688Y798129D02*
Y801461D01*
Y799795D01*
X943692D01*
X945358Y798129D01*
X953688Y811458D02*
X943692D01*
X948690Y806460D01*
Y813124D01*
X943692Y777614D02*
X953688D01*
Y772616D01*
X952022Y770950D01*
X948690D01*
X947024Y772616D01*
Y777614D01*
Y774282D02*
X943692Y770950D01*
Y760953D02*
Y767617D01*
X950356Y760953D01*
X952022D01*
X953688Y762619D01*
Y765951D01*
X952022Y767617D01*
X943692Y757621D02*
Y754288D01*
Y755955D01*
X953688D01*
X952022Y757621D01*
X953688Y742626D02*
Y749290D01*
X948690D01*
X950356Y745958D01*
Y744292D01*
X948690Y742626D01*
X945358D01*
X943692Y744292D01*
Y747624D01*
X945358Y749290D01*
X266222Y424017D02*
X267888Y425683D01*
Y429015D01*
X266222Y430681D01*
X259558D01*
X257892Y429015D01*
Y425683D01*
X259558Y424017D01*
X257892Y420685D02*
Y417352D01*
Y419018D01*
X267888D01*
X266222Y420685D01*
X257892Y412354D02*
Y409022D01*
Y410688D01*
X267888D01*
X266222Y412354D01*
Y404023D02*
X267888Y402357D01*
Y399025D01*
X266222Y397359D01*
X259558D01*
X257892Y399025D01*
Y402357D01*
X259558Y404023D01*
X266222D01*
X259558Y362509D02*
X257892Y360843D01*
Y357511D01*
X259558Y355845D01*
X266222D01*
X267888Y357511D01*
Y360843D01*
X266222Y362509D01*
X267888Y365842D02*
Y369174D01*
Y367508D01*
X257892D01*
X259558Y365842D01*
X267888Y374172D02*
Y377505D01*
Y375838D01*
X257892D01*
X259558Y374172D01*
X267888Y382503D02*
Y385835D01*
Y384169D01*
X257892D01*
X259558Y382503D01*
X643098Y805780D02*
X641432Y804114D01*
Y800782D01*
X643098Y799116D01*
X649762D01*
X651428Y800782D01*
Y804114D01*
X649762Y805780D01*
X643098Y809112D02*
X641432Y810779D01*
Y814111D01*
X643098Y815777D01*
X644764D01*
X646430Y814111D01*
Y812445D01*
Y814111D01*
X648096Y815777D01*
X649762D01*
X651428Y814111D01*
Y810779D01*
X649762Y809112D01*
X651428Y819109D02*
Y822441D01*
Y820775D01*
X641432D01*
X643098Y819109D01*
X641432Y827440D02*
Y834104D01*
X643098D01*
X649762Y827440D01*
X651428D01*
X610270Y848838D02*
X611936Y847172D01*
X615268D01*
X616934Y848838D01*
Y855502D01*
X615268Y857168D01*
X611936D01*
X610270Y855502D01*
X606938Y848838D02*
X605271Y847172D01*
X601939D01*
X600273Y848838D01*
Y850504D01*
X601939Y852170D01*
X603605D01*
X601939D01*
X600273Y853836D01*
Y855502D01*
X601939Y857168D01*
X605271D01*
X606938Y855502D01*
X596941Y857168D02*
X593609D01*
X595275D01*
Y847172D01*
X596941Y848838D01*
X581946Y847172D02*
X588610D01*
Y852170D01*
X585278Y850504D01*
X583612D01*
X581946Y852170D01*
Y855502D01*
X583612Y857168D01*
X586944D01*
X588610Y855502D01*
X492842Y853327D02*
X502838D01*
Y848329D01*
X501172Y846663D01*
X497840D01*
X496174Y848329D01*
Y853327D01*
Y849995D02*
X492842Y846663D01*
X501172Y843331D02*
X502838Y841665D01*
Y838332D01*
X501172Y836666D01*
X499506D01*
X497840Y838332D01*
Y839998D01*
Y838332D01*
X496174Y836666D01*
X494508D01*
X492842Y838332D01*
Y841665D01*
X494508Y843331D01*
X501172Y833334D02*
X502838Y831668D01*
Y828335D01*
X501172Y826669D01*
X494508D01*
X492842Y828335D01*
Y831668D01*
X494508Y833334D01*
X501172D01*
X502838Y823337D02*
Y816673D01*
X501172D01*
X494508Y823337D01*
X492842D01*
X476920Y813278D02*
X478586Y811612D01*
X481918D01*
X483584Y813278D01*
Y819942D01*
X481918Y821608D01*
X478586D01*
X476920Y819942D01*
X473588Y813278D02*
X471921Y811612D01*
X468589D01*
X466923Y813278D01*
Y814944D01*
X468589Y816610D01*
X470255D01*
X468589D01*
X466923Y818276D01*
Y819942D01*
X468589Y821608D01*
X471921D01*
X473588Y819942D01*
X463591Y821608D02*
X460258D01*
X461925D01*
Y811612D01*
X463591Y813278D01*
X455260D02*
X453594Y811612D01*
X450262D01*
X448596Y813278D01*
Y814944D01*
X450262Y816610D01*
X451928D01*
X450262D01*
X448596Y818276D01*
Y819942D01*
X450262Y821608D01*
X453594D01*
X455260Y819942D01*
X492842Y819087D02*
X502838D01*
Y814089D01*
X501172Y812423D01*
X497840D01*
X496174Y814089D01*
Y819087D01*
Y815755D02*
X492842Y812423D01*
X501172Y809091D02*
X502838Y807424D01*
Y804092D01*
X501172Y802426D01*
X499506D01*
X497840Y804092D01*
Y805758D01*
Y804092D01*
X496174Y802426D01*
X494508D01*
X492842Y804092D01*
Y807424D01*
X494508Y809091D01*
X501172Y799094D02*
X502838Y797428D01*
Y794095D01*
X501172Y792429D01*
X494508D01*
X492842Y794095D01*
Y797428D01*
X494508Y799094D01*
X501172D01*
X502838Y782432D02*
Y789097D01*
X497840D01*
X499506Y785765D01*
Y784099D01*
X497840Y782432D01*
X494508D01*
X492842Y784099D01*
Y787431D01*
X494508Y789097D01*
X456926Y799622D02*
X455260Y801288D01*
X451928D01*
X450262Y799622D01*
Y792958D01*
X451928Y791292D01*
X455260D01*
X456926Y792958D01*
X460259Y799622D02*
X461925Y801288D01*
X465257D01*
X466923Y799622D01*
Y797956D01*
X465257Y796290D01*
X463591D01*
X465257D01*
X466923Y794624D01*
Y792958D01*
X465257Y791292D01*
X461925D01*
X460259Y792958D01*
X470255Y791292D02*
X473588D01*
X471922D01*
Y801288D01*
X470255Y799622D01*
X478586Y791292D02*
X481918D01*
X480252D01*
Y801288D01*
X478586Y799622D01*
X389098Y804510D02*
X387432Y802844D01*
Y799512D01*
X389098Y797846D01*
X395762D01*
X397428Y799512D01*
Y802844D01*
X395762Y804510D01*
X389098Y807842D02*
X387432Y809509D01*
Y812841D01*
X389098Y814507D01*
X390764D01*
X392430Y812841D01*
Y811175D01*
Y812841D01*
X394096Y814507D01*
X395762D01*
X397428Y812841D01*
Y809509D01*
X395762Y807842D01*
X397428Y817839D02*
Y821171D01*
Y819505D01*
X387432D01*
X389098Y817839D01*
X387432Y832834D02*
X389098Y829502D01*
X392430Y826170D01*
X395762D01*
X397428Y827836D01*
Y831168D01*
X395762Y832834D01*
X394096D01*
X392430Y831168D01*
Y826170D01*
X356270Y847568D02*
X357936Y845902D01*
X361268D01*
X362934Y847568D01*
Y854232D01*
X361268Y855898D01*
X357936D01*
X356270Y854232D01*
X352938Y847568D02*
X351271Y845902D01*
X347939D01*
X346273Y847568D01*
Y849234D01*
X347939Y850900D01*
X349605D01*
X347939D01*
X346273Y852566D01*
Y854232D01*
X347939Y855898D01*
X351271D01*
X352938Y854232D01*
X342941Y855898D02*
X339608D01*
X341275D01*
Y845902D01*
X342941Y847568D01*
X329612Y855898D02*
Y845902D01*
X334610Y850900D01*
X327946D01*
X222920Y832328D02*
X224586Y830662D01*
X227918D01*
X229584Y832328D01*
Y838992D01*
X227918Y840658D01*
X224586D01*
X222920Y838992D01*
X219588Y832328D02*
X217921Y830662D01*
X214589D01*
X212923Y832328D01*
Y833994D01*
X214589Y835660D01*
X216255D01*
X214589D01*
X212923Y837326D01*
Y838992D01*
X214589Y840658D01*
X217921D01*
X219588Y838992D01*
X209591Y840658D02*
X206259D01*
X207925D01*
Y830662D01*
X209591Y832328D01*
X201260D02*
X199594Y830662D01*
X196262D01*
X194596Y832328D01*
Y833994D01*
X196262Y835660D01*
X194596Y837326D01*
Y838992D01*
X196262Y840658D01*
X199594D01*
X201260Y838992D01*
Y837326D01*
X199594Y835660D01*
X201260Y833994D01*
Y832328D01*
X199594Y835660D02*
X196262D01*
X238842Y852057D02*
X248838D01*
Y847059D01*
X247172Y845393D01*
X243840D01*
X242174Y847059D01*
Y852057D01*
Y848725D02*
X238842Y845393D01*
X247172Y842061D02*
X248838Y840395D01*
Y837062D01*
X247172Y835396D01*
X245506D01*
X243840Y837062D01*
Y838728D01*
Y837062D01*
X242174Y835396D01*
X240508D01*
X238842Y837062D01*
Y840395D01*
X240508Y842061D01*
X247172Y832064D02*
X248838Y830398D01*
Y827066D01*
X247172Y825399D01*
X240508D01*
X238842Y827066D01*
Y830398D01*
X240508Y832064D01*
X247172D01*
X248838Y815403D02*
X247172Y818735D01*
X243840Y822067D01*
X240508D01*
X238842Y820401D01*
Y817069D01*
X240508Y815403D01*
X242174D01*
X243840Y817069D01*
Y822067D01*
X222920Y812008D02*
X224586Y810342D01*
X227918D01*
X229584Y812008D01*
Y818672D01*
X227918Y820338D01*
X224586D01*
X222920Y818672D01*
X219588Y812008D02*
X217921Y810342D01*
X214589D01*
X212923Y812008D01*
Y813674D01*
X214589Y815340D01*
X216255D01*
X214589D01*
X212923Y817006D01*
Y818672D01*
X214589Y820338D01*
X217921D01*
X219588Y818672D01*
X209591Y820338D02*
X206259D01*
X207925D01*
Y810342D01*
X209591Y812008D01*
X194596Y820338D02*
X201260D01*
X194596Y813674D01*
Y812008D01*
X196262Y810342D01*
X199594D01*
X201260Y812008D01*
X238842Y817817D02*
X248838D01*
Y812819D01*
X247172Y811153D01*
X243840D01*
X242174Y812819D01*
Y817817D01*
Y814485D02*
X238842Y811153D01*
X247172Y807821D02*
X248838Y806154D01*
Y802822D01*
X247172Y801156D01*
X245506D01*
X243840Y802822D01*
Y804488D01*
Y802822D01*
X242174Y801156D01*
X240508D01*
X238842Y802822D01*
Y806154D01*
X240508Y807821D01*
X247172Y797824D02*
X248838Y796158D01*
Y792825D01*
X247172Y791159D01*
X240508D01*
X238842Y792825D01*
Y796158D01*
X240508Y797824D01*
X247172D01*
X238842Y782829D02*
X248838D01*
X243840Y787827D01*
Y781162D01*
X201260Y798352D02*
X199594Y800018D01*
X196262D01*
X194596Y798352D01*
Y791688D01*
X196262Y790022D01*
X199594D01*
X201260Y791688D01*
X204592Y798352D02*
X206259Y800018D01*
X209591D01*
X211257Y798352D01*
Y796686D01*
X209591Y795020D01*
X207925D01*
X209591D01*
X211257Y793354D01*
Y791688D01*
X209591Y790022D01*
X206259D01*
X204592Y791688D01*
X214589Y790022D02*
X217922D01*
X216255D01*
Y800018D01*
X214589Y798352D01*
X222920D02*
X224586Y800018D01*
X227918D01*
X229584Y798352D01*
Y791688D01*
X227918Y790022D01*
X224586D01*
X222920Y791688D01*
Y798352D01*
X643098Y915437D02*
X641432Y913771D01*
Y910439D01*
X643098Y908773D01*
X649762D01*
X651428Y910439D01*
Y913771D01*
X649762Y915437D01*
X643098Y918769D02*
X641432Y920435D01*
Y923768D01*
X643098Y925434D01*
X644764D01*
X646430Y923768D01*
Y922102D01*
Y923768D01*
X648096Y925434D01*
X649762D01*
X651428Y923768D01*
Y920435D01*
X649762Y918769D01*
X643098Y928766D02*
X641432Y930432D01*
Y933764D01*
X643098Y935431D01*
X649762D01*
X651428Y933764D01*
Y930432D01*
X649762Y928766D01*
X643098D01*
X641432Y938763D02*
Y945427D01*
X643098D01*
X649762Y938763D01*
X651428D01*
X611103Y959328D02*
X612769Y957662D01*
X616101D01*
X617767Y959328D01*
Y965992D01*
X616101Y967658D01*
X612769D01*
X611103Y965992D01*
X607771Y959328D02*
X606105Y957662D01*
X602772D01*
X601106Y959328D01*
Y960994D01*
X602772Y962660D01*
X604438D01*
X602772D01*
X601106Y964326D01*
Y965992D01*
X602772Y967658D01*
X606105D01*
X607771Y965992D01*
X597774Y959328D02*
X596108Y957662D01*
X592775D01*
X591109Y959328D01*
Y965992D01*
X592775Y967658D01*
X596108D01*
X597774Y965992D01*
Y959328D01*
X581113Y957662D02*
X587777D01*
Y962660D01*
X584445Y960994D01*
X582779D01*
X581113Y962660D01*
Y965992D01*
X582779Y967658D01*
X586111D01*
X587777Y965992D01*
X477753Y944088D02*
X479419Y942422D01*
X482751D01*
X484417Y944088D01*
Y950752D01*
X482751Y952418D01*
X479419D01*
X477753Y950752D01*
X474421Y944088D02*
X472755Y942422D01*
X469422D01*
X467756Y944088D01*
Y945754D01*
X469422Y947420D01*
X471088D01*
X469422D01*
X467756Y949086D01*
Y950752D01*
X469422Y952418D01*
X472755D01*
X474421Y950752D01*
X464424Y944088D02*
X462758Y942422D01*
X459426D01*
X457759Y944088D01*
Y950752D01*
X459426Y952418D01*
X462758D01*
X464424Y950752D01*
Y944088D01*
X454427Y950752D02*
X452761Y952418D01*
X449429D01*
X447763Y950752D01*
Y944088D01*
X449429Y942422D01*
X452761D01*
X454427Y944088D01*
Y945754D01*
X452761Y947420D01*
X447763D01*
X492842Y963817D02*
X502838D01*
Y958819D01*
X501172Y957153D01*
X497840D01*
X496174Y958819D01*
Y963817D01*
Y960485D02*
X492842Y957153D01*
X501172Y953821D02*
X502838Y952154D01*
Y948822D01*
X501172Y947156D01*
X499506D01*
X497840Y948822D01*
Y950488D01*
Y948822D01*
X496174Y947156D01*
X494508D01*
X492842Y948822D01*
Y952154D01*
X494508Y953821D01*
X501172Y943824D02*
X502838Y942158D01*
Y938826D01*
X501172Y937159D01*
X494508D01*
X492842Y938826D01*
Y942158D01*
X494508Y943824D01*
X501172D01*
Y933827D02*
X502838Y932161D01*
Y928829D01*
X501172Y927163D01*
X499506D01*
X497840Y928829D01*
Y930495D01*
Y928829D01*
X496174Y927163D01*
X494508D01*
X492842Y928829D01*
Y932161D01*
X494508Y933827D01*
X477753Y923768D02*
X479419Y922102D01*
X482751D01*
X484417Y923768D01*
Y930432D01*
X482751Y932098D01*
X479419D01*
X477753Y930432D01*
X474421Y923768D02*
X472755Y922102D01*
X469422D01*
X467756Y923768D01*
Y925434D01*
X469422Y927100D01*
X471088D01*
X469422D01*
X467756Y928766D01*
Y930432D01*
X469422Y932098D01*
X472755D01*
X474421Y930432D01*
X464424Y923768D02*
X462758Y922102D01*
X459426D01*
X457759Y923768D01*
Y930432D01*
X459426Y932098D01*
X462758D01*
X464424Y930432D01*
Y923768D01*
X454427D02*
X452761Y922102D01*
X449429D01*
X447763Y923768D01*
Y925434D01*
X449429Y927100D01*
X451095D01*
X449429D01*
X447763Y928766D01*
Y930432D01*
X449429Y932098D01*
X452761D01*
X454427Y930432D01*
X492842Y927911D02*
X502838D01*
Y922913D01*
X501172Y921247D01*
X497840D01*
X496174Y922913D01*
Y927911D01*
Y924579D02*
X492842Y921247D01*
X501172Y917915D02*
X502838Y916248D01*
Y912916D01*
X501172Y911250D01*
X499506D01*
X497840Y912916D01*
Y914582D01*
Y912916D01*
X496174Y911250D01*
X494508D01*
X492842Y912916D01*
Y916248D01*
X494508Y917915D01*
X501172Y907918D02*
X502838Y906252D01*
Y902919D01*
X501172Y901253D01*
X494508D01*
X492842Y902919D01*
Y906252D01*
X494508Y907918D01*
X501172D01*
X492842Y897921D02*
Y894589D01*
Y896255D01*
X502838D01*
X501172Y897921D01*
X456093Y910112D02*
X454427Y911778D01*
X451095D01*
X449429Y910112D01*
Y903448D01*
X451095Y901782D01*
X454427D01*
X456093Y903448D01*
X459426Y910112D02*
X461092Y911778D01*
X464424D01*
X466090Y910112D01*
Y908446D01*
X464424Y906780D01*
X462758D01*
X464424D01*
X466090Y905114D01*
Y903448D01*
X464424Y901782D01*
X461092D01*
X459426Y903448D01*
X469422Y910112D02*
X471088Y911778D01*
X474421D01*
X476087Y910112D01*
Y903448D01*
X474421Y901782D01*
X471088D01*
X469422Y903448D01*
Y910112D01*
X479419Y901782D02*
X482751D01*
X481085D01*
Y911778D01*
X479419Y910112D01*
X237572Y929577D02*
X247568D01*
Y924579D01*
X245902Y922913D01*
X242570D01*
X240904Y924579D01*
Y929577D01*
Y926245D02*
X237572Y922913D01*
X245902Y919581D02*
X247568Y917915D01*
Y914582D01*
X245902Y912916D01*
X244236D01*
X242570Y914582D01*
Y916248D01*
Y914582D01*
X240904Y912916D01*
X239238D01*
X237572Y914582D01*
Y917915D01*
X239238Y919581D01*
X245902Y909584D02*
X247568Y907918D01*
Y904585D01*
X245902Y902919D01*
X239238D01*
X237572Y904585D01*
Y907918D01*
X239238Y909584D01*
X245902D01*
Y899587D02*
X247568Y897921D01*
Y894589D01*
X245902Y892923D01*
X239238D01*
X237572Y894589D01*
Y897921D01*
X239238Y899587D01*
X245902D01*
X237572Y963817D02*
X247568D01*
Y958819D01*
X245902Y957153D01*
X242570D01*
X240904Y958819D01*
Y963817D01*
Y960485D02*
X237572Y957153D01*
X245902Y953821D02*
X247568Y952154D01*
Y948822D01*
X245902Y947156D01*
X244236D01*
X242570Y948822D01*
Y950488D01*
Y948822D01*
X240904Y947156D01*
X239238D01*
X237572Y948822D01*
Y952154D01*
X239238Y953821D01*
X245902Y943824D02*
X247568Y942158D01*
Y938826D01*
X245902Y937159D01*
X239238D01*
X237572Y938826D01*
Y942158D01*
X239238Y943824D01*
X245902D01*
X237572Y927163D02*
Y933827D01*
X244236Y927163D01*
X245902D01*
X247568Y928829D01*
Y932161D01*
X245902Y933827D01*
X199157Y910112D02*
X197491Y911778D01*
X194159D01*
X192493Y910112D01*
Y903448D01*
X194159Y901782D01*
X197491D01*
X199157Y903448D01*
X202489Y910112D02*
X204156Y911778D01*
X207488D01*
X209154Y910112D01*
Y908446D01*
X207488Y906780D01*
X205822D01*
X207488D01*
X209154Y905114D01*
Y903448D01*
X207488Y901782D01*
X204156D01*
X202489Y903448D01*
X212486Y910112D02*
X214152Y911778D01*
X217484D01*
X219151Y910112D01*
Y903448D01*
X217484Y901782D01*
X214152D01*
X212486Y903448D01*
Y910112D01*
X222483D02*
X224149Y911778D01*
X227481D01*
X229147Y910112D01*
Y903448D01*
X227481Y901782D01*
X224149D01*
X222483Y903448D01*
Y910112D01*
Y944088D02*
X224149Y942422D01*
X227481D01*
X229147Y944088D01*
Y950752D01*
X227481Y952418D01*
X224149D01*
X222483Y950752D01*
X219151Y944088D02*
X217484Y942422D01*
X214152D01*
X212486Y944088D01*
Y945754D01*
X214152Y947420D01*
X215818D01*
X214152D01*
X212486Y949086D01*
Y950752D01*
X214152Y952418D01*
X217484D01*
X219151Y950752D01*
X209154Y944088D02*
X207488Y942422D01*
X204156D01*
X202489Y944088D01*
Y950752D01*
X204156Y952418D01*
X207488D01*
X209154Y950752D01*
Y944088D01*
X199157D02*
X197491Y942422D01*
X194159D01*
X192493Y944088D01*
Y945754D01*
X194159Y947420D01*
X192493Y949086D01*
Y950752D01*
X194159Y952418D01*
X197491D01*
X199157Y950752D01*
Y949086D01*
X197491Y947420D01*
X199157Y945754D01*
Y944088D01*
X197491Y947420D02*
X194159D01*
X222483Y923768D02*
X224149Y922102D01*
X227481D01*
X229147Y923768D01*
Y930432D01*
X227481Y932098D01*
X224149D01*
X222483Y930432D01*
X219151Y923768D02*
X217484Y922102D01*
X214152D01*
X212486Y923768D01*
Y925434D01*
X214152Y927100D01*
X215818D01*
X214152D01*
X212486Y928766D01*
Y930432D01*
X214152Y932098D01*
X217484D01*
X219151Y930432D01*
X209154Y923768D02*
X207488Y922102D01*
X204156D01*
X202489Y923768D01*
Y930432D01*
X204156Y932098D01*
X207488D01*
X209154Y930432D01*
Y923768D01*
X192493Y932098D02*
X199157D01*
X192493Y925434D01*
Y923768D01*
X194159Y922102D01*
X197491D01*
X199157Y923768D01*
X355833Y959328D02*
X357499Y957662D01*
X360831D01*
X362497Y959328D01*
Y965992D01*
X360831Y967658D01*
X357499D01*
X355833Y965992D01*
X352501Y959328D02*
X350835Y957662D01*
X347502D01*
X345836Y959328D01*
Y960994D01*
X347502Y962660D01*
X349168D01*
X347502D01*
X345836Y964326D01*
Y965992D01*
X347502Y967658D01*
X350835D01*
X352501Y965992D01*
X342504Y959328D02*
X340838Y957662D01*
X337505D01*
X335839Y959328D01*
Y965992D01*
X337505Y967658D01*
X340838D01*
X342504Y965992D01*
Y959328D01*
X327509Y967658D02*
Y957662D01*
X332507Y962660D01*
X325843D01*
X387828Y915437D02*
X386162Y913771D01*
Y910439D01*
X387828Y908773D01*
X394492D01*
X396158Y910439D01*
Y913771D01*
X394492Y915437D01*
X387828Y918769D02*
X386162Y920435D01*
Y923768D01*
X387828Y925434D01*
X389494D01*
X391160Y923768D01*
Y922102D01*
Y923768D01*
X392826Y925434D01*
X394492D01*
X396158Y923768D01*
Y920435D01*
X394492Y918769D01*
X387828Y928766D02*
X386162Y930432D01*
Y933764D01*
X387828Y935431D01*
X394492D01*
X396158Y933764D01*
Y930432D01*
X394492Y928766D01*
X387828D01*
X386162Y945427D02*
X387828Y942095D01*
X391160Y938763D01*
X394492D01*
X396158Y940429D01*
Y943761D01*
X394492Y945427D01*
X392826D01*
X391160Y943761D01*
Y938763D01*
M02*
