M48
;Layer_Color=9474304
;FILE_FORMAT=4:4
METRIC,TZ
;TYPE=PLATED
T01F00S00C0.3000
T02F00S00C1.1000
T03F00S00C1.1500
T04F00S00C1.7500
T05F00S00C3.5000
%
T01
X6000Y6000
X14000
X24000
X34000
X44000
X54000
X64000
X74000
X76310Y17200
X61310
X46310
X31310
X38810Y32200
X53810
X68810
X61310Y47200
X76310
X53810Y62200
X46310Y77200
X31310
X16310
X6000Y76000
Y86000
Y96000
Y106000
Y116000
Y126000
Y136000
Y146000
Y156000
Y166000
Y176000
Y186000
Y196000
Y206000
Y216000
X16310Y197200
X31310
X46310
X16310Y167200
X23810Y152200
X16310Y137200
Y107200
X6000Y66000
Y56000
Y46000
Y36000
Y26000
Y16000
X23810Y32200
X16310Y47200
X53810Y122200
X61310Y137200
X76310
X91310
X140825Y161250
X154750Y167250
X166500Y174250
X188250Y181750
X203810Y212200
X218810
X233810
X248810
X263750Y212250
X278810Y212200
X244750Y187655
X241750Y131500
X251750
X261750
X271750
X281750
X291750
X293810Y122200
X308810
X323810
X316310Y137200
X309500Y141000
X308810Y152200
X317000Y148500
X324000Y155500
X331000Y162500
X340750Y165250
X350750
X360750
X370750
X380750
X390750
X400750
X410750
X420750
X430000
X440000
X450000
X460000
X470000
X480000
X473810Y152200
X458810
X443810
X428250Y147500
X413810Y152200
X398810
X383810
X368810
X353810
X338810
X349250Y129500
X353810Y122200
X368810
X361310Y137200
Y107200
X376310
X391310
X406310
X421310
X436310
X451310
X466310
X473810Y92200
X458810
X443810
X428810
X413810
X398810
X406310Y77200
X421310
X436310
X451310
X466310
Y47200
X451310
X436310
X406310
X404000Y6000
X394000
X384000
X374000
X364000
X354000
X344000
X334000
X324000
X314000
X304000
X294000
X284000
X274000
X264000
X254000
X244000
X234000
X224000
X214000
X204000
X194000
X184000
X174000
X164000
X154000
X144000
X134000
X124000
X114000
X104000
X94000
X84000
X91310Y17200
X106310
X121310
X136310
X151310
X166310
X181310
X196310
X211310
X226310
X241310
X256310
X271310
X293810Y32200
X308810
X323810
X316310Y47200
X301310
X286310
X293810Y62200
X308810
X323810
X316310Y77200
X301310
X286310
X271310
X256310
X241310
X226310
X211310
X196310
X181310
X166310
X151310
X136310
X121310
X106310
X98810Y62200
X91310Y47200
X98810Y32200
X113810
X128810
X143810
X158810
X173810
X188810
X203810
X218810
X233810
X248810
X263810Y62200
X278810
X271310Y107200
X286310
X301310
X316310
X331310
X346310
X302750Y134250
X278810Y122200
X263810
X248810
X233810
X231750Y131500
X221750
X218810Y122200
X203810
X188810
X181310Y107200
X196310
X211310
X226310
X241310
X256310
X211310Y137200
X337250Y217750
X429250Y216000
X451310Y137200
X454000Y6000
X464000
X474000
X444000
X434000
X424000
X414000
X83810Y32200
X481310Y47200
X496310
X511310
X526310
Y77200
X541310
X556310
X571310
X586310
X593810Y92200
X608810
X623810
X638810
X653810
X668810
X683810
X698810
X713810
X728810
X743810
X758810
X751310Y77200
X736310
X721310
X706310
X691310
X676310
X661310
Y17200
X664000Y6000
X674000
X684000
X694000
X704000
X714000
X724000
X734000
X744000
X754000
X764000
X774000
X784000
X794000
X804000
Y16000
X796310Y17200
X781310
X766310
X751310
X736310
X721310
X706310
X691310
X676310
X646310
X644000Y6000
X654000
X634000
X624000
X614000
X604000
X594000
X584000
X574000
X564000
X554000
X544000
X534000
X524000
X514000
X504000
X494000
X484000
X486000Y60250
X481310Y77200
X496310
X511310
X518810Y92200
X533810
X548810
X563810
X578810
Y122200
X563810
X548810
X533810
X514250Y114750
X488810Y122200
Y152200
X490000Y165250
X500000
X510000
X520000
X530000
X539250
X549250
X559250
X569250
X579250
X589250
X599250
X609250
X619250
X629250
X639250
X648500
X658500
X668500
X678500
X688500
X698500
X708500
X718500
X728500
X710250Y155250
X743810Y152200
X759500Y145000
Y176250
X746750Y176500
X751310Y197200
X736310
X721310
X706310
X691310
X676310
X646310
X631310
X586310
X571310
X571500Y213000
X578750Y175250
X589000
X586310Y137200
X571310
X563810Y152200
X548810
X533810
X518810
X503810
Y92200
X488810
X541310Y17200
X556310
X571310
X586310
X601310
X616310
X631310
X578810Y32200
X610750Y126500
X616310Y137200
X631310
X623810Y122200
X689500Y128000
X728810Y122200
X771750Y111750
X804000Y116000
Y106000
Y96000
Y86000
Y76000
X796310Y77200
X804000Y66000
Y56000
Y46000
X796310Y47200
X781310
X766310
X773810Y62200
X788810
Y32200
X773810
X758810
X743810
X749750Y56000
X804000Y36000
Y26000
X814000Y6000
X824000
X834000
X844000
X854000
X864000
X874000
X871310Y167200
X856310
X842010Y173990
X818810Y182200
X811310Y167200
X804000Y165250
Y156000
Y146000
Y136000
Y126000
X826310Y197200
X833810Y212200
X548810Y182200
X887750Y175000
X886310Y167200
X901310
X916310
X931310
X946310
X961310
X976310
X994000Y166000
Y156000
Y146000
Y136000
Y126000
Y116000
Y106000
Y96000
Y86000
Y76000
Y66000
Y56000
Y46000
Y36000
Y26000
Y16000
Y6000
X984000
X974000
X964000
X954000
X944000
X934000
X924000
X914000
X904000
X894000
X884000
X943836Y23835
X937140Y40000
X943836Y56164
X960000Y62860
X976164Y56164
X982860Y40000
X976164Y23835
X960000Y17140
X955040Y185420
X938810Y182200
X923810
X908810
X901310Y197200
X916310
X931310
X923810Y212200
X908810
X994000Y216000
Y206000
Y196000
Y186000
Y176000
Y226000
Y236000
Y246000
Y256000
Y266000
Y276000
Y286000
Y296000
Y306000
Y316000
Y326000
Y336000
Y346000
Y356000
Y366000
Y376000
Y386000
Y396000
Y406000
Y416000
Y426000
Y436000
Y446000
Y456000
Y466000
Y476000
Y486000
Y496000
Y506000
Y516000
Y526000
Y536000
Y546000
Y556000
Y566000
Y576000
Y586000
Y596000
Y606000
X983810Y602200
X975750Y600250
X976310Y587200
X983810Y572200
X968810
X953810
X938810
X931310Y557200
X901310
Y527200
X915750Y530750
X915000Y496000
X908810Y482200
X923810
X938810
X944880Y453390
X946310Y437200
X961310
X976310
X983810Y452200
Y422200
X968810
X953810
X961310Y407200
X976310
X983810Y392200
X968810
X953810
X946310Y377200
X931310
X916310
X923810Y362200
X938810
X945500Y362000
X946310Y347200
X961310
X976310
X983810Y362200
X968810
X976310Y377200
X983810Y332200
X968810
X953810
X938810
X923810
X908810
X901310Y347200
X916310
X931310
Y317200
X946310
X961310
X976310
X983810Y302200
X968810
X953810
X938810
X961310Y287200
X976310
X983810Y272200
X938810Y242200
X916310Y257200
X901310Y227200
X886310Y287200
X893810Y362200
X908810
X886310Y377200
Y407200
X916310
X923810Y452200
X908810
X916310Y467200
X886368Y522750
X916310Y587200
X983810Y512200
X873250Y527500
X856310Y527200
X855980Y535940
X863810Y542200
X839470Y542290
X836728Y530127
X848810Y512200
X846000Y498500
X842500Y491500
X835000Y470000
X847510Y450000
X816610Y434340
X801500Y477250
X792480Y469900
X788810Y482200
X773810
X758810
X743810
X743011Y462239
X749344Y459258
X755250Y455500
X757500Y445750
X758810Y422200
X758190Y406400
X745000Y405000
X741187Y390788
X721310Y377200
Y347200
X733239Y343761
X728810Y332200
X713810
X698810
X683810
X668810
X656000Y327500
X661310Y347200
X676310
X671750Y353250
X653810Y362200
X638810
X623810
Y392200
X616310Y407200
X608810Y422200
X593810
X586310Y407200
X581250Y385750
X591500Y378500
X593810Y362200
Y332200
X586310Y317200
X601310
X616310
X614250Y324500
X623810Y332200
X646310Y347200
Y377200
X661310
X676310
X683810Y392200
X675750Y412500
X688665Y426395
X689500Y472750
X735330Y469900
X732250Y498500
X723750Y493500
X713250Y503250
X751310Y497200
X766310
X781310
X769000Y516000
X759250Y529000
X806292Y523366
X811115Y518000
X811250Y500750
X811577Y552403
X801370Y566420
X798830Y574040
X788670Y585470
X759500Y582250
X752250Y584250
X730455Y566030
X721000Y562000
X714192Y549766
X695000Y538500
X692979Y528553
X672347Y527347
X664187Y527562
X654500Y551000
X647250Y547750
X638810Y542200
X615950Y543560
X610870Y535940
X603250Y562610
X608810Y572200
X601310Y587200
X586310
X571310
X556310
X542290Y567690
X541310Y557200
X548640Y524510
X547964Y511878
X555504
X555918Y496502
X548378
X540838
X533298
X525758
X518218
X510678
X503138
X495598
X483870Y495300
X488550Y515462
X487748Y522959
Y530499
Y538039
Y545579
Y553119
Y560659
Y568199
Y575739
Y583279
Y590819
Y598359
Y605899
Y613439
X496310Y557200
X503810Y542200
X496310Y527200
X495184Y511878
X502724
X510264
X517804
X525344
X510540Y524510
X503810Y482200
X518810
X533810
X548810
X593810
X606562Y495798
X578810Y542200
X563810Y452200
X518810
X503810
X488810
Y422200
X481310Y407200
X488810Y362200
X503810
X496310Y347200
X481310
X503810Y332200
X518810
X511310Y317200
X488810Y302200
X481310Y287200
X537750Y272250
X563810Y272200
X556310Y287200
X571310
X586310
X638810Y272200
X713810
X728810
X743810
X758810
X773810
X781250Y276250
X766310Y287200
X751310
Y257200
X766310
X773810Y242200
X758810
X743810
X736310Y257200
Y227200
X751310
X766310
X790750Y251500
X803810Y242200
X818810
X841310Y227200
Y287200
X826310
X811310
Y317200
X803810Y332200
X833810
X857000Y330750
X856310Y317200
X870500Y305250
X874750Y292500
X856250Y349000
X856825Y369890
X863810Y392200
X791689Y384108
X773810Y392200
X756920Y358140
X751310Y347200
X824000Y350500
X782000Y461000
X727750Y437250
X695960Y568960
X661310Y587200
X638810Y602200
X848360Y599440
X826770Y572770
X873500Y563750
X563810Y392200
X571310Y377200
X563810Y362200
X571310Y347200
X563810Y332200
X526310Y347200
X533810Y362200
X526310Y377200
X511310
X533810Y392200
Y422200
X526310Y257200
X533810Y242200
X520000Y222000
X601310Y227200
X462500Y242250
X466750Y253750
X465250Y262250
X466310Y287200
X473810Y302200
X458810
X458699Y312111
X478125Y315625
X466310Y347200
X473810Y362200
X451310Y377200
X441250Y376000
X443810Y392200
X458810
X451310Y407200
X466310
X473810Y422200
X458810
X443810
X436310Y407200
X413810Y422200
X406310Y437200
X421310
X428810Y452200
X443810
X458810
X473810
X466310Y497200
X451310
X431800Y500000
X425104Y516164
X436310Y527200
X451310
X466310
X472372Y527748
Y535288
Y542828
Y550368
Y557908
X466310Y557200
X472372Y565448
Y572988
Y580528
Y588068
Y595608
Y603148
Y610688
X458810Y602200
X443810
X428810
Y572200
X443810
X458810
X451310Y557200
X436310
X421310
X406310
X391310
X376310
X361310
X346310
X331310
X316310
X301310
X308810Y542200
X323810
X316310Y527200
X331310
X323810Y512200
X347980Y519430
X361310Y527200
X376310
X383810Y542200
X398810
X413810
X428810
X443810
X458810
Y512200
X472928Y512688
X472372Y520208
X476397Y505993
X443810Y512200
X408940Y522860
X392775Y516164
X386080Y500000
X392775Y483835
X408940Y477140
X425104Y483835
X413810Y452200
X398810
X383810
X368810Y482200
X361310Y497200
X346310
X368810Y512200
Y542200
X383810Y572200
X398810
X413810
X391310Y587200
X386080Y594360
X370840
X301310Y587200
X289560Y586740
X275590
X278810Y572200
X293810
Y542200
X248920Y563880
X263810Y602200
X233810
X218810
X203810
X188810
X173810
X158810
X143810
X128810
X91310Y587200
X106310Y557200
X98810Y542200
X88900Y537210
X106310Y527200
X136310Y467200
X151310
X166310
X181310
X196310
X203810Y452200
X188810
X173810
X158810
X143810
X152400Y436880
X196310Y437200
X233810Y422200
X241310Y407200
X251460Y402590
X248810Y392200
X251460Y382270
X241310Y377200
X226310
X211310
X196310
X181310
X166310
X173810Y392200
X188810
X203810
X220980Y392430
X233810Y392200
X226310Y347200
X241310
X256310
X271310
X276750Y315000
X278810Y302200
X264500Y302000
X246000Y303500
X188810Y302200
X181310Y287200
X166310
Y317200
X173810Y332200
X158810
X166310Y347200
X181310
X196310
X203810Y362200
X188810
X173810
X158810
Y392200
X128810
X113810
X98810
X106310Y377200
X121310
X128810Y362200
X113810
X98810
X106310Y317200
X121310
X98810Y302200
X91310Y287200
X136310
Y227200
X151310
X181310
X91310
X196310Y317200
X276500Y244000
X288250Y244500
X367250Y245750
X380250Y240750
X381000Y314750
X368250Y310250
X338810Y302200
X335750Y284000
X331310Y347200
X346310
X361310
X383810Y362200
Y392200
X368810
X359410Y392430
X361310Y407200
X376310
X391310
X368810Y422200
X353810
X338810
X323810
X308810
X301310Y437200
X316310
X331310
X346310
X331310Y467200
X308810Y452200
X301310Y407200
X316310
X331310
X323810Y392200
X308810
X284480Y384810
Y400050
X248810Y482200
X406310Y347200
X421310
X428810Y362200
X428250Y285500
X53810Y272200
Y242200
X6000Y246000
Y256000
Y266000
Y276000
Y286000
Y296000
Y306000
Y316000
Y326000
Y336000
Y346000
Y356000
Y366000
Y376000
Y386000
Y396000
Y406000
Y416000
Y426000
Y436000
Y446000
Y456000
Y466000
Y476000
Y486000
Y496000
Y506000
Y516000
Y526000
Y536000
Y546000
Y556000
Y566000
Y576000
Y586000
Y596000
Y606000
X38810Y602200
X31310Y587200
X38810Y572200
X31310Y557200
X49530Y538480
X45000Y501750
X59070Y486410
X46310Y467200
X52500Y454660
X31310Y437200
X46310Y407200
X53810Y392200
X46310Y377200
X53810Y362200
X46310Y317200
X31310
X16310
Y287200
X23810Y272200
X16310Y257200
Y227200
X6000Y226000
Y236000
X18000Y513500
X16310Y527200
X76310Y587200
X18500Y617000
X6000Y616000
Y626000
Y636000
Y646000
Y656000
Y666000
Y676000
Y686000
Y696000
Y706000
Y716000
Y726000
Y736000
Y746000
Y756000
Y766000
Y776000
Y786000
Y796000
Y806000
Y816000
Y826000
Y836000
Y846000
Y856000
Y866000
Y876000
Y886000
Y896000
Y906000
Y916000
Y926000
Y936000
Y946000
Y956000
Y966000
Y976000
Y986000
Y994000
X14000
X24000
X34000
X44000
X54000
X64000
X74000
X68810Y962200
X61310Y947200
X76310
X53810Y932200
Y902200
X68810
X61310Y857200
X53810Y842200
X38810
X23810
X16310Y857200
Y887200
Y917200
Y947200
X23810Y962200
X38810
X31310Y977200
X46310
X61310Y827200
X53810Y812200
X46310Y797200
X53810Y782200
X68810
X46310Y767200
X31310
X16310
Y797200
X23810Y812200
X16310Y827200
Y737200
X23810Y722200
X38810
X53810
X61310Y737200
X53810Y752200
X61310Y707200
X16310
Y677200
Y647200
X23810Y632200
X83810
X91310Y647200
X136310
X151310
X166310
X173810Y662200
X158810
X143810
X136310Y677200
X151310
X166310
X181310
X196310
X211310
X226310
X240030Y679450
X241369Y707322
X233829
X226289
X218749
X211209
X203669
X196149Y707876
X189132Y710634
X183182Y715266
X181310Y707200
X166310
X158810Y722200
X160846Y735340
X153400Y736522
X145860
X138320
X137733Y751898
X145273
X152813
X160337Y751408
X167547Y749203
X166714Y754594
X161382Y759926
X156050Y765258
X150719Y770589
X144594Y774986
X137212Y776522
X136310Y767200
X121310
X106310
X98810Y752200
X83810Y782200
X98810Y812200
X91310Y827200
X128810Y812200
X143810
X145129Y790944
X137649Y791895
X152233Y788418
X158523Y784260
X163988Y779064
X169319Y773733
X174651Y768401
X179982Y763070
X185314Y757738
X190645Y752407
X196203Y747311
X203225Y744564
X210760Y744288
X218300
X225840
X233379
X240919
X248459
X255999
X263539
X271079
X277390Y748414
X283097Y753342
X290589Y754190
X297213Y750587
X304086Y753686
X311622Y753941
X318009Y749933
X324490Y753786
X332029
X338320Y749736
X344674Y753786
X352213
X358495Y749717
X361306Y742721
X368684Y744279
X376224Y744288
X383764
X391304
X398844
X406384
X413924
X421464
X429004
X436544
X444084
X451624
X459164
X466704
X474244
X471528Y728912
X463988
X456448
X448908
X441368
X433828
X426288
X418748
X411208
X403668
X396128
X388588
X381048
X373508
X375964Y722698
X383504
X391044
X398584
X406124
X413664
X421204
X428744
X436284Y722660
X443749Y721599
X450874Y719133
X457360Y715287
X458810Y722200
X473810
X479068Y728912
X473601Y699551
X478901Y694188
X468270Y704883
X462938Y710214
X450774Y700634
X444653Y705037
X437406Y707119
X429869Y707322
X422329
X414789
X407249
X399709
X392169
X384629
X377089
X369549
X362009
X354469
X346929
X339389
X331849
X324309
X316769
X309229
X301689
X294149
X286609
X279069
X271529
X263989
X256449
X248909
X248389Y722698
X248041Y728912
X240501
X240849Y722698
X233309
X232961Y728912
X225421
X225769Y722698
X218229
X217881Y728912
X210341
X210689Y722698
X203149
X202804Y729119
X195424Y730662
X190390Y729802
X195855Y724608
X178337Y721084
X173005Y726415
X167188Y731260
X174117Y745504
X179727Y740465
X185058Y735134
X203810Y752200
X218810
X233810
X248810
X263810
X263121Y728912
X263469Y722698
X271009
X270661Y728912
X278201Y728918
X278549Y722698
X286089
X285627Y730223
X308810Y722200
X255929Y722698
X255581Y728912
X263810Y782200
X278810
X293810
X308810
X323810
X338810
X353810
X368810
X383810
X398810
X413810
X406310Y767200
X421310
X453390Y768350
X471165Y778515
X464820Y796290
Y814500
Y835660
X470450Y856180
X471170Y887561
X451310Y887200
X436310
X421310
X443810Y902200
X464820Y906780
Y922370
Y947420
X471100Y967247
X474000Y994000
X464000
X454000
X444000
X434000
X424000
X414000
X404000
X394000
X384000
X374000
X364000
X354000
X344000
X334000
X324000
X314000
X304000
X294000
X284000
X274000
X264000
X254000
X244000
X234000
X224000
X214000
X204000
X194000
X184000
X174000
X164000
X154000
X144000
X134000
X124000
X114000
X104000
X94000
X84000
X83810Y962200
X98810
X91310Y947200
X136310
X151310
X158810Y962200
X173810
X188810
Y932200
X209550Y927100
Y906780
X188810Y902200
X181310Y887200
X196310
X215900Y887730
X241310Y887200
X256310
X271310
X275250Y877500
X286310Y887200
X301310
X316310
X323810Y902200
X306070Y908050
X293810Y902200
X278810
X263810
X278810Y932200
X271310Y947200
X286310
X308810Y962200
X345440Y964580
X346310Y947200
X353810Y932200
Y902200
X346310Y887200
X361310
X376310
X384810Y891540
X396240Y863600
X408500Y837000
X421640Y828040
X413810Y812200
X392430Y814070
X353810Y812200
X338810
X331310Y827200
X361310
X368810Y842200
X346710Y852170
X320500Y851250
X308810Y842200
Y872200
X323810
X248810
X233810
X217170Y855417
X210820Y835660
X211310Y827200
X210820Y815340
Y795020
X217170Y775801
X173810Y782200
X136310Y707200
X143810Y692200
X128810
X98810
X128810Y632200
X143810
X158810
X173810
X181310Y617200
X196310
X211310
X226310
X275590Y618490
X271310Y647200
X316310
X323810Y662200
X353810
X368810
X361310Y647200
X376310
X368810Y632200
X386080Y624840
X410210Y626110
X421310Y617200
X436310
X451310
X466310
X472372Y618228
Y625768
Y633308
Y640848
Y648388
X466310Y647200
X472372Y655928
Y663468
Y671008
X471046Y678430
X466769Y684639
X461437Y689971
X456105Y695303
X443810Y692200
X428810
X413810
X398810
X406310Y677200
X421310
X436310
X451310
X458810Y632200
X443810
X428810
X398810Y662200
X378460Y699770
X368450Y723320
X368810Y752200
X344170Y679450
X323810Y632200
X316310Y617200
X283210Y692150
X286310Y797200
X301310
X307340Y796290
X271310Y797200
X278810Y812200
X286310Y827200
X433070Y852170
X443810Y812200
X425450Y928370
X403860Y938530
X391160Y925830
X368810Y962200
X368500Y976500
X387250Y983630
X434340Y962660
X263250Y984250
X217170Y967177
X209550Y947420
X143810Y962200
X128810
X143810Y932200
X151310Y887200
X83810Y902200
X503810Y872200
X511250Y876500
X511310Y857200
X496310
X518810Y842200
X528632Y862382
X541310Y827200
X560070Y797560
X586310Y797200
X548810Y782200
X541310Y767200
X511310
X496310
X481310
X481783Y744277
X489245Y743191
X496303Y740538
X502507Y736253
X511310Y737200
X507938Y731023
X513270Y725692
X521970Y720090
X523308Y706737
X523352Y699197
X525210Y691889
X533810Y692200
X529930Y686009
X536662Y682614
X544178Y682008
X551718
X559258
X566798
X564631Y666632
X557091
X542011
X534501Y667308
X527328Y669631
X520853Y673495
X515465Y678769
X511326Y685072
X508849Y692193
X507904Y699674
X506730Y707390
X503738Y713480
X498407Y718811
X493039Y724107
X486544Y727936
X481310Y707200
X496310
X488810Y692200
X483355Y688104
X486359Y681189
X487639Y673758
X487748Y666219
Y658679
Y651139
Y643599
Y636059
Y628519
Y620979
X503810Y632200
X518810
X511310Y647200
X496310
X503810Y662200
X518810
X524510Y654050
X541310Y647200
X563880Y654050
X541310Y617200
X608810Y632200
X622390Y635000
X622300Y643890
X653810Y632200
X674379Y631018
X682750Y630000
X698810Y632200
X691310Y647200
X698810Y662200
X691310Y677200
X661310
X668810Y692200
X661310Y707200
X631310
X629782Y737732
X571310Y737200
X556310
X618490Y685800
X496310Y677200
X755000Y685500
X750570Y692150
X750250Y656250
X752000Y622750
X803910Y630270
X839500Y665500
X872000Y712000
X871310Y767200
X863810Y782200
X848810
X833810
X826310Y797200
X841310
X856310
X871310
X863810Y812200
X848810
X833810
X818500Y809250
X806453Y807454
X796310Y827200
X797560Y845820
X781310Y857200
X766310
Y887200
X751310
Y917200
X766310
X773810Y902200
X796310Y887200
X791210Y933450
X758810Y932200
X751310Y977200
X754000Y994000
X764000
X744000
X734000
X724000
X714000
X704000
X694000
X684000
X674000
X664000
X654000
X644000
X634000
X624000
X614000
X604000
X594000
X584000
X574000
X564000
X554000
X544000
X534000
X524000
X514000
X504000
X494000
X484000
X511310Y977200
X530000Y973430
X563810Y962200
X600710Y961390
X623810Y962200
X638810
X653810
X658750Y972000
X668810Y962200
X683810
X676310Y947200
X683810Y932200
X657860Y937260
X646430Y925830
X608810Y932200
X601310Y917200
X608810Y902200
X601310Y887200
X616310
X631310
X638810Y872200
X653810
X646310Y857200
X661310
X631310
X623810Y872200
X588010Y873760
X600710Y852170
X646430Y815340
X660400Y821690
X668810Y812200
X683810
X698810
X713810
X728810
X743810
X758810
X736310Y827200
X721310
X706310
X691310
X676310
X668810Y902200
X721310Y887200
X848810Y902200
X856310Y917200
X871310
Y947200
X863810Y962200
X871310Y977200
X874000Y994000
X803810Y962200
X848810Y842200
X856310Y827200
X871310
X776750Y777250
X767500Y779250
X563810Y902200
X561340Y908050
X548810Y902200
X541310Y917200
X533810Y932200
X878810
X893810
X908810
X923810
X916310Y947200
X901310
X886310
X893810Y962200
X908810
X923810
X937140Y960000
X943836Y976164
X944000Y994000
X954000
X964000
X974000
X984000
X994000
Y986000
Y976000
Y966000
Y956000
Y946000
Y936000
Y926000
Y916000
Y906000
Y896000
Y886000
Y876000
Y866000
Y856000
Y846000
Y836000
Y826000
Y816000
Y806000
Y796000
Y786000
Y776000
Y766000
Y756000
Y746000
Y736000
Y726000
Y716000
Y706000
Y696000
Y686000
Y676000
Y666000
Y656000
Y646000
Y636000
Y626000
Y616000
X976310Y647200
X961310
X946310
X916310
X901310Y677200
X886310
X893810Y692200
X882250Y712750
X901310Y737200
X913180Y729665
X921500Y731750
X931310Y737200
X946310
X948690Y742950
X961310Y737200
Y707200
X976310Y677200
X983810Y662200
X968810
X878810
X886310Y767200
X893810Y782200
X878810
X886310Y797200
X901310
X931310
X961310
X948690Y814070
X946310Y827200
X961310
X968810Y842200
X983810
X976310Y857200
X961310
X946310
X931310
X916310
X901310
X908810Y872200
X923810
X938810
X953810
X968810
X983810
X976310Y887200
X961310
X946310
X931310
X916310
X901700Y880110
X908810Y902200
X923810
X938810
X953810
X968810
X983810
X976310Y917200
X961310
X946310
X931310
X916310
X901310
X886310
X893810Y902200
X878810
Y962200
X886310Y977200
X901310
X916310
X914000Y994000
X924000
X934000
X904000
X894000
X884000
X960000Y982860
X976164Y976164
X982860Y960000
X976164Y943836
X960000Y937140
X943836Y943836
X938810Y842200
X953810
X923810
X908810
X901310Y827200
X931310
X878810Y812200
X983810Y782200
Y752200
T02
X626450Y230750
X651850
X677250
X702650
X739500Y873950
Y899350
Y924750
Y950150
X975360Y819150
Y793750
Y768350
Y742950
Y717550
Y692150
T03
X270510Y474600
Y500000
Y525400
T04
X35570Y55280
Y95280
Y135280
Y175280
Y215280
X75570Y195280
Y155280
Y115280
Y75280
X115570Y95280
Y135280
Y175280
Y215280
Y55280
Y255280
Y295280
Y335280
X75570Y315280
Y275280
Y235280
X35570Y255280
Y295280
Y335280
Y664210
Y704210
Y744210
Y784210
Y824210
Y864210
Y904210
Y944210
X75570Y924210
Y884210
Y844210
Y804210
Y764210
Y724210
Y684210
X115570Y704210
Y744210
Y784210
Y824210
Y864210
Y904210
Y944210
Y664210
T05
X960000Y40000
X408940Y500000
X960000Y960000
M30
