G04*
G04 #@! TF.GenerationSoftware,Altium Limited,Altium Designer,24.5.2 (23)*
G04*
G04 Layer_Color=32768*
%FSLAX44Y44*%
%MOMM*%
G71*
G04*
G04 #@! TF.SameCoordinates,49661B99-7F85-447B-B4A6-A33B5E3A9DE8*
G04*
G04*
G04 #@! TF.FilePolarity,Positive*
G04*
G01*
G75*
%ADD12C,0.1000*%
D12*
X137800Y595940D02*
X135189Y595769D01*
X132624Y595258D01*
X130146Y594418D01*
X127800Y593260D01*
X125625Y591807D01*
X123658Y590082D01*
X121933Y588115D01*
X120479Y585940D01*
X119322Y583594D01*
X118481Y581116D01*
X117971Y578550D01*
X117800Y575940D01*
Y495940D02*
X117971Y493330D01*
X118481Y490764D01*
X119322Y488286D01*
X120479Y485940D01*
X121933Y483765D01*
X123658Y481798D01*
X125625Y480073D01*
X127800Y478619D01*
X130146Y477462D01*
X132624Y476622D01*
X135189Y476111D01*
X137800Y475940D01*
X217800D02*
X220411Y476111D01*
X222976Y476622D01*
X225454Y477462D01*
X227800Y478619D01*
X229975Y480073D01*
X231942Y481798D01*
X233667Y483765D01*
X235121Y485940D01*
X236278Y488286D01*
X237119Y490764D01*
X237629Y493330D01*
X237800Y495940D01*
Y575940D02*
X237629Y578550D01*
X237119Y581116D01*
X236278Y583594D01*
X235121Y585940D01*
X233667Y588115D01*
X231942Y590082D01*
X229975Y591807D01*
X227800Y593260D01*
X225454Y594418D01*
X222976Y595258D01*
X220411Y595769D01*
X217800Y595940D01*
X137800Y580940D02*
X137130Y583440D01*
X135300Y585270D01*
X132800Y585940D01*
X130300Y585270D01*
X128470Y583440D01*
X127800Y580940D01*
X128470Y578440D01*
X130300Y576610D01*
X132800Y575940D01*
X135300Y576610D01*
X137130Y578440D01*
X137800Y580940D01*
X137800Y595940D02*
X217800D01*
X117800Y495940D02*
Y575940D01*
X137800Y475940D02*
X217800D01*
X237800Y495940D02*
Y575940D01*
M02*
