G04*
G04 #@! TF.GenerationSoftware,Altium Limited,Altium Designer,24.5.2 (23)*
G04*
G04 Layer_Color=255*
%FSLAX44Y44*%
%MOMM*%
G71*
G04*
G04 #@! TF.SameCoordinates,49661B99-7F85-447B-B4A6-A33B5E3A9DE8*
G04*
G04*
G04 #@! TF.FilePolarity,Positive*
G04*
G01*
G75*
G04:AMPARAMS|DCode=25|XSize=1mm|YSize=1.7mm|CornerRadius=0.125mm|HoleSize=0mm|Usage=FLASHONLY|Rotation=0.000|XOffset=0mm|YOffset=0mm|HoleType=Round|Shape=RoundedRectangle|*
%AMROUNDEDRECTD25*
21,1,1.0000,1.4500,0,0,0.0*
21,1,0.7500,1.7000,0,0,0.0*
1,1,0.2500,0.3750,-0.7250*
1,1,0.2500,-0.3750,-0.7250*
1,1,0.2500,-0.3750,0.7250*
1,1,0.2500,0.3750,0.7250*
%
%ADD25ROUNDEDRECTD25*%
G04:AMPARAMS|DCode=33|XSize=1.4mm|YSize=1.7mm|CornerRadius=0.175mm|HoleSize=0mm|Usage=FLASHONLY|Rotation=270.000|XOffset=0mm|YOffset=0mm|HoleType=Round|Shape=RoundedRectangle|*
%AMROUNDEDRECTD33*
21,1,1.4000,1.3500,0,0,270.0*
21,1,1.0500,1.7000,0,0,270.0*
1,1,0.3500,-0.6750,-0.5250*
1,1,0.3500,-0.6750,0.5250*
1,1,0.3500,0.6750,0.5250*
1,1,0.3500,0.6750,-0.5250*
%
%ADD33ROUNDEDRECTD33*%
G04:AMPARAMS|DCode=37|XSize=0.63mm|YSize=0.83mm|CornerRadius=0.0788mm|HoleSize=0mm|Usage=FLASHONLY|Rotation=270.000|XOffset=0mm|YOffset=0mm|HoleType=Round|Shape=RoundedRectangle|*
%AMROUNDEDRECTD37*
21,1,0.6300,0.6725,0,0,270.0*
21,1,0.4725,0.8300,0,0,270.0*
1,1,0.1575,-0.3363,-0.2362*
1,1,0.1575,-0.3363,0.2362*
1,1,0.1575,0.3363,0.2362*
1,1,0.1575,0.3363,-0.2362*
%
%ADD37ROUNDEDRECTD37*%
%ADD39R,1.8400X1.8000*%
%ADD58R,1.7000X1.0000*%
%ADD120C,6.0000*%
%ADD121C,1.8000*%
%ADD122C,1.7250*%
%ADD123C,2.6250*%
%ADD124R,2.6250X2.6250*%
%ADD126R,1.7000X1.4000*%
G04:AMPARAMS|DCode=127|XSize=1.27mm|YSize=2.1mm|CornerRadius=0.1588mm|HoleSize=0mm|Usage=FLASHONLY|Rotation=270.000|XOffset=0mm|YOffset=0mm|HoleType=Round|Shape=RoundedRectangle|*
%AMROUNDEDRECTD127*
21,1,1.2700,1.7825,0,0,270.0*
21,1,0.9525,2.1000,0,0,270.0*
1,1,0.3175,-0.8913,-0.4763*
1,1,0.3175,-0.8913,0.4763*
1,1,0.3175,0.8913,0.4763*
1,1,0.3175,0.8913,-0.4763*
%
%ADD127ROUNDEDRECTD127*%
D25*
X702650Y256650D02*
D03*
X721650D02*
D03*
X676500Y255250D02*
D03*
X657500D02*
D03*
X156500Y827250D02*
D03*
X175500D02*
D03*
X156680Y806120D02*
D03*
X175680D02*
D03*
D33*
X292100Y476250D02*
D03*
Y499110D02*
D03*
X250190Y525400D02*
D03*
Y502540D02*
D03*
X231140Y525400D02*
D03*
Y502540D02*
D03*
D37*
X446750Y288960D02*
D03*
Y311260D02*
D03*
X447910Y219960D02*
D03*
Y242260D02*
D03*
X355660Y221560D02*
D03*
Y243860D02*
D03*
X354860Y288120D02*
D03*
Y310420D02*
D03*
X264340Y221530D02*
D03*
Y243830D02*
D03*
X264500Y290850D02*
D03*
Y313150D02*
D03*
D39*
X111760Y638810D02*
D03*
Y608810D02*
D03*
D58*
X891540Y477520D02*
D03*
Y458520D02*
D03*
Y422300D02*
D03*
Y441300D02*
D03*
D120*
X960000Y40000D02*
D03*
Y960000D02*
D03*
X408940Y500000D02*
D03*
D121*
X677250Y230750D02*
D03*
X626450D02*
D03*
X702650D02*
D03*
X651850D02*
D03*
X739500Y899350D02*
D03*
Y950150D02*
D03*
Y873950D02*
D03*
Y924750D02*
D03*
X975360Y819150D02*
D03*
Y793750D02*
D03*
Y768350D02*
D03*
Y742950D02*
D03*
Y717550D02*
D03*
Y692150D02*
D03*
D122*
X270510Y525400D02*
D03*
Y500000D02*
D03*
Y474600D02*
D03*
D123*
X35570Y704210D02*
D03*
Y744210D02*
D03*
Y784210D02*
D03*
Y824210D02*
D03*
Y864210D02*
D03*
Y904210D02*
D03*
X75570Y724210D02*
D03*
Y764210D02*
D03*
Y804210D02*
D03*
Y844210D02*
D03*
Y884210D02*
D03*
X115570Y704210D02*
D03*
Y744210D02*
D03*
Y784210D02*
D03*
Y824210D02*
D03*
Y864210D02*
D03*
Y904210D02*
D03*
X35570Y664210D02*
D03*
Y944210D02*
D03*
X75570Y684210D02*
D03*
Y924210D02*
D03*
X115570Y664210D02*
D03*
X35570Y95280D02*
D03*
Y135280D02*
D03*
Y175280D02*
D03*
Y215280D02*
D03*
Y255280D02*
D03*
Y295280D02*
D03*
X75570Y115280D02*
D03*
Y155280D02*
D03*
Y195280D02*
D03*
Y235280D02*
D03*
Y275280D02*
D03*
X115570Y95280D02*
D03*
Y135280D02*
D03*
Y175280D02*
D03*
Y215280D02*
D03*
Y255280D02*
D03*
Y295280D02*
D03*
X35570Y55280D02*
D03*
Y335280D02*
D03*
X75570Y75280D02*
D03*
Y315280D02*
D03*
X115570Y55280D02*
D03*
D124*
Y944210D02*
D03*
Y335280D02*
D03*
D126*
X869520Y455930D02*
D03*
Y478790D02*
D03*
D127*
X87630Y567360D02*
D03*
Y607060D02*
D03*
M02*
