G04*
G04 #@! TF.GenerationSoftware,Altium Limited,Altium Designer,24.5.2 (23)*
G04*
G04 Layer_Color=255*
%FSLAX44Y44*%
%MOMM*%
G71*
G04*
G04 #@! TF.SameCoordinates,49661B99-7F85-447B-B4A6-A33B5E3A9DE8*
G04*
G04*
G04 #@! TF.FilePolarity,Positive*
G04*
G01*
G75*
G04:AMPARAMS|DCode=18|XSize=1mm|YSize=1.7mm|CornerRadius=0.125mm|HoleSize=0mm|Usage=FLASHONLY|Rotation=270.000|XOffset=0mm|YOffset=0mm|HoleType=Round|Shape=RoundedRectangle|*
%AMROUNDEDRECTD18*
21,1,1.0000,1.4500,0,0,270.0*
21,1,0.7500,1.7000,0,0,270.0*
1,1,0.2500,-0.7250,-0.3750*
1,1,0.2500,-0.7250,0.3750*
1,1,0.2500,0.7250,0.3750*
1,1,0.2500,0.7250,-0.3750*
%
%ADD18ROUNDEDRECTD18*%
%ADD19R,0.6000X1.4000*%
G04:AMPARAMS|DCode=20|XSize=1.475mm|YSize=0.3mm|CornerRadius=0mm|HoleSize=0mm|Usage=FLASHONLY|Rotation=315.000|XOffset=0mm|YOffset=0mm|HoleType=Round|Shape=Rectangle|*
%AMROTATEDRECTD20*
4,1,4,-0.6276,0.4154,-0.4154,0.6276,0.6276,-0.4154,0.4154,-0.6276,-0.6276,0.4154,0.0*
%
%ADD20ROTATEDRECTD20*%

G04:AMPARAMS|DCode=21|XSize=1.475mm|YSize=0.3mm|CornerRadius=0mm|HoleSize=0mm|Usage=FLASHONLY|Rotation=225.000|XOffset=0mm|YOffset=0mm|HoleType=Round|Shape=Rectangle|*
%AMROTATEDRECTD21*
4,1,4,0.4154,0.6276,0.6276,0.4154,-0.4154,-0.6276,-0.6276,-0.4154,0.4154,0.6276,0.0*
%
%ADD21ROTATEDRECTD21*%

G04:AMPARAMS|DCode=22|XSize=1.6mm|YSize=1.4mm|CornerRadius=0mm|HoleSize=0mm|Usage=FLASHONLY|Rotation=315.000|XOffset=0mm|YOffset=0mm|HoleType=Round|Shape=Rectangle|*
%AMROTATEDRECTD22*
4,1,4,-1.0607,0.0707,-0.0707,1.0607,1.0607,-0.0707,0.0707,-1.0607,-1.0607,0.0707,0.0*
%
%ADD22ROTATEDRECTD22*%

%ADD23R,1.6000X2.1800*%
%ADD24R,0.9000X1.4000*%
G04:AMPARAMS|DCode=25|XSize=1mm|YSize=1.7mm|CornerRadius=0.125mm|HoleSize=0mm|Usage=FLASHONLY|Rotation=0.000|XOffset=0mm|YOffset=0mm|HoleType=Round|Shape=RoundedRectangle|*
%AMROUNDEDRECTD25*
21,1,1.0000,1.4500,0,0,0.0*
21,1,0.7500,1.7000,0,0,0.0*
1,1,0.2500,0.3750,-0.7250*
1,1,0.2500,-0.3750,-0.7250*
1,1,0.2500,-0.3750,0.7250*
1,1,0.2500,0.3750,0.7250*
%
%ADD25ROUNDEDRECTD25*%
%ADD26R,1.6000X3.0000*%
%ADD27R,5.8000X6.2000*%
%ADD28R,0.6000X0.9000*%
%ADD29O,2.1600X1.5200*%
%ADD30R,2.1600X1.5200*%
G04:AMPARAMS|DCode=31|XSize=1.4mm|YSize=1.7mm|CornerRadius=0mm|HoleSize=0mm|Usage=FLASHONLY|Rotation=45.000|XOffset=0mm|YOffset=0mm|HoleType=Round|Shape=Rectangle|*
%AMROTATEDRECTD31*
4,1,4,0.1061,-1.0960,-1.0960,0.1061,-0.1061,1.0960,1.0960,-0.1061,0.1061,-1.0960,0.0*
%
%ADD31ROTATEDRECTD31*%

G04:AMPARAMS|DCode=32|XSize=1.4mm|YSize=1.7mm|CornerRadius=0.175mm|HoleSize=0mm|Usage=FLASHONLY|Rotation=180.000|XOffset=0mm|YOffset=0mm|HoleType=Round|Shape=RoundedRectangle|*
%AMROUNDEDRECTD32*
21,1,1.4000,1.3500,0,0,180.0*
21,1,1.0500,1.7000,0,0,180.0*
1,1,0.3500,-0.5250,0.6750*
1,1,0.3500,0.5250,0.6750*
1,1,0.3500,0.5250,-0.6750*
1,1,0.3500,-0.5250,-0.6750*
%
%ADD32ROUNDEDRECTD32*%
G04:AMPARAMS|DCode=33|XSize=1.4mm|YSize=1.7mm|CornerRadius=0.175mm|HoleSize=0mm|Usage=FLASHONLY|Rotation=270.000|XOffset=0mm|YOffset=0mm|HoleType=Round|Shape=RoundedRectangle|*
%AMROUNDEDRECTD33*
21,1,1.4000,1.3500,0,0,270.0*
21,1,1.0500,1.7000,0,0,270.0*
1,1,0.3500,-0.6750,-0.5250*
1,1,0.3500,-0.6750,0.5250*
1,1,0.3500,0.6750,0.5250*
1,1,0.3500,0.6750,-0.5250*
%
%ADD33ROUNDEDRECTD33*%
%ADD34R,1.0000X1.7000*%
%ADD35R,0.9500X1.7500*%
%ADD36R,3.2500X1.7500*%
G04:AMPARAMS|DCode=37|XSize=0.63mm|YSize=0.83mm|CornerRadius=0.0788mm|HoleSize=0mm|Usage=FLASHONLY|Rotation=270.000|XOffset=0mm|YOffset=0mm|HoleType=Round|Shape=RoundedRectangle|*
%AMROUNDEDRECTD37*
21,1,0.6300,0.6725,0,0,270.0*
21,1,0.4725,0.8300,0,0,270.0*
1,1,0.1575,-0.3363,-0.2362*
1,1,0.1575,-0.3363,0.2362*
1,1,0.1575,0.3363,0.2362*
1,1,0.1575,0.3363,-0.2362*
%
%ADD37ROUNDEDRECTD37*%
G04:AMPARAMS|DCode=38|XSize=0.63mm|YSize=0.83mm|CornerRadius=0.0788mm|HoleSize=0mm|Usage=FLASHONLY|Rotation=0.000|XOffset=0mm|YOffset=0mm|HoleType=Round|Shape=RoundedRectangle|*
%AMROUNDEDRECTD38*
21,1,0.6300,0.6725,0,0,0.0*
21,1,0.4725,0.8300,0,0,0.0*
1,1,0.1575,0.2362,-0.3363*
1,1,0.1575,-0.2362,-0.3363*
1,1,0.1575,-0.2362,0.3363*
1,1,0.1575,0.2362,0.3363*
%
%ADD38ROUNDEDRECTD38*%
%ADD39R,1.8400X1.8000*%
%ADD40R,1.9000X1.9000*%
%ADD41R,1.4500X1.3000*%
%ADD42R,1.6000X1.4000*%
%ADD43R,0.4000X1.3500*%
%ADD44R,0.4500X1.4750*%
G04:AMPARAMS|DCode=45|XSize=1mm|YSize=1.7mm|CornerRadius=0mm|HoleSize=0mm|Usage=FLASHONLY|Rotation=45.000|XOffset=0mm|YOffset=0mm|HoleType=Round|Shape=Rectangle|*
%AMROTATEDRECTD45*
4,1,4,0.2475,-0.9546,-0.9546,0.2475,-0.2475,0.9546,0.9546,-0.2475,0.2475,-0.9546,0.0*
%
%ADD45ROTATEDRECTD45*%

%ADD46R,0.6500X1.5000*%
G04:AMPARAMS|DCode=47|XSize=1.4mm|YSize=1.7mm|CornerRadius=0mm|HoleSize=0mm|Usage=FLASHONLY|Rotation=135.000|XOffset=0mm|YOffset=0mm|HoleType=Round|Shape=Rectangle|*
%AMROTATEDRECTD47*
4,1,4,1.0960,0.1061,-0.1061,-1.0960,-1.0960,-0.1061,0.1061,1.0960,1.0960,0.1061,0.0*
%
%ADD47ROTATEDRECTD47*%

%ADD48R,2.0000X1.1250*%
%ADD49R,1.4000X1.1250*%
%ADD50R,1.1250X2.0000*%
%ADD51R,1.1250X1.4000*%
%ADD52R,1.4000X0.9000*%
%ADD53R,1.8000X2.9000*%
%ADD54R,2.9000X5.4000*%
%ADD55R,3.5000X1.6000*%
%ADD56R,1.7500X0.9500*%
%ADD57R,1.7500X3.2500*%
%ADD58R,1.7000X1.0000*%
%ADD59R,0.7000X0.9000*%
%ADD60R,1.0000X1.1500*%
%ADD61O,1.4500X0.6000*%
%ADD77C,1.0000*%
%ADD114R,1.0000X1.0000*%
%ADD120C,6.0000*%
%ADD121C,1.8000*%
%ADD122C,1.7250*%
%ADD123C,2.6250*%
%ADD124R,2.6250X2.6250*%
D18*
X506000Y221750D02*
D03*
Y240750D02*
D03*
X668620Y136150D02*
D03*
Y117150D02*
D03*
X690210Y136100D02*
D03*
Y117100D02*
D03*
X428190Y121060D02*
D03*
Y140060D02*
D03*
X406600Y121110D02*
D03*
Y140110D02*
D03*
X428250Y312860D02*
D03*
Y293860D02*
D03*
X429410Y243860D02*
D03*
Y224860D02*
D03*
X245840Y245430D02*
D03*
Y226430D02*
D03*
X337160Y245460D02*
D03*
Y226460D02*
D03*
X246000Y314750D02*
D03*
Y295750D02*
D03*
X336360Y312020D02*
D03*
Y293020D02*
D03*
X240030Y633730D02*
D03*
Y614730D02*
D03*
X335280Y641350D02*
D03*
Y622350D02*
D03*
X580390Y655320D02*
D03*
Y674320D02*
D03*
X570230Y504190D02*
D03*
Y523190D02*
D03*
X347980Y455320D02*
D03*
Y474320D02*
D03*
X529090Y870750D02*
D03*
Y851750D02*
D03*
X273090Y870230D02*
D03*
Y851230D02*
D03*
X530000Y981000D02*
D03*
Y962000D02*
D03*
X274570Y979990D02*
D03*
Y960990D02*
D03*
X618490Y738480D02*
D03*
Y719480D02*
D03*
X497840Y844500D02*
D03*
Y825500D02*
D03*
Y810260D02*
D03*
Y791260D02*
D03*
X243840Y843230D02*
D03*
Y824230D02*
D03*
Y808990D02*
D03*
Y789990D02*
D03*
X497840Y954990D02*
D03*
Y935990D02*
D03*
Y920750D02*
D03*
Y901750D02*
D03*
X242570Y920750D02*
D03*
Y901750D02*
D03*
Y954990D02*
D03*
Y935990D02*
D03*
D19*
X579000Y186500D02*
D03*
X588500D02*
D03*
X598000D02*
D03*
Y211500D02*
D03*
X588500D02*
D03*
X579000D02*
D03*
D20*
X830777Y488335D02*
D03*
X827242Y484799D02*
D03*
X823706Y481264D02*
D03*
X820171Y477728D02*
D03*
X816635Y474193D02*
D03*
X813100Y470657D02*
D03*
X809564Y467122D02*
D03*
X806029Y463586D02*
D03*
X802493Y460051D02*
D03*
X798958Y456515D02*
D03*
X795422Y452980D02*
D03*
X791887Y449444D02*
D03*
X788351Y445909D02*
D03*
X784815Y442373D02*
D03*
X781280Y438838D02*
D03*
X777744Y435302D02*
D03*
X696597Y516450D02*
D03*
X700132Y519985D02*
D03*
X703668Y523521D02*
D03*
X707203Y527056D02*
D03*
X710739Y530592D02*
D03*
X714274Y534127D02*
D03*
X717810Y537663D02*
D03*
X721346Y541198D02*
D03*
X724881Y544734D02*
D03*
X728417Y548269D02*
D03*
X731952Y551805D02*
D03*
X735488Y555340D02*
D03*
X739023Y558876D02*
D03*
X742559Y562411D02*
D03*
X746094Y565947D02*
D03*
X749630Y569483D02*
D03*
D21*
Y435302D02*
D03*
X746094Y438838D02*
D03*
X742559Y442373D02*
D03*
X739023Y445909D02*
D03*
X735488Y449444D02*
D03*
X731952Y452980D02*
D03*
X728417Y456515D02*
D03*
X724881Y460051D02*
D03*
X721346Y463586D02*
D03*
X717810Y467122D02*
D03*
X714274Y470657D02*
D03*
X710739Y474193D02*
D03*
X707203Y477728D02*
D03*
X703668Y481264D02*
D03*
X700132Y484799D02*
D03*
X696597Y488335D02*
D03*
X777744Y569483D02*
D03*
X781280Y565947D02*
D03*
X784815Y562411D02*
D03*
X788351Y558876D02*
D03*
X791887Y555340D02*
D03*
X795422Y551805D02*
D03*
X798958Y548269D02*
D03*
X802493Y544734D02*
D03*
X806029Y541198D02*
D03*
X809564Y537663D02*
D03*
X813100Y534127D02*
D03*
X816635Y530592D02*
D03*
X820171Y527056D02*
D03*
X823706Y523521D02*
D03*
X827242Y519985D02*
D03*
X830777Y516450D02*
D03*
D22*
X651880Y388120D02*
D03*
X678750Y361250D02*
D03*
X695014Y377514D02*
D03*
X668143Y404384D02*
D03*
D23*
X830580Y265610D02*
D03*
Y173810D02*
D03*
X956310Y362860D02*
D03*
Y454660D02*
D03*
D24*
X718810Y56140D02*
D03*
X737810D02*
D03*
X475790Y60100D02*
D03*
X456790D02*
D03*
X975360Y496570D02*
D03*
X956360D02*
D03*
X975360Y614680D02*
D03*
X956360D02*
D03*
X975360Y530860D02*
D03*
X956360D02*
D03*
D25*
X684520Y56140D02*
D03*
X703520D02*
D03*
X741010Y105670D02*
D03*
X760010D02*
D03*
X441500Y60100D02*
D03*
X422500D02*
D03*
X478990Y109630D02*
D03*
X497990D02*
D03*
X478990Y136300D02*
D03*
X497990D02*
D03*
X741010Y132340D02*
D03*
X760010D02*
D03*
X538480Y524510D02*
D03*
X519480D02*
D03*
X322280Y244930D02*
D03*
X303280D02*
D03*
X413370Y312330D02*
D03*
X394370D02*
D03*
X414530Y243330D02*
D03*
X395530D02*
D03*
X230960Y244900D02*
D03*
X211960D02*
D03*
X231120Y314220D02*
D03*
X212120D02*
D03*
X321480Y311490D02*
D03*
X302480D02*
D03*
X923340Y530860D02*
D03*
X942340D02*
D03*
X923340Y496570D02*
D03*
X942340D02*
D03*
X608280Y505460D02*
D03*
X589280D02*
D03*
X557480Y543560D02*
D03*
X538480D02*
D03*
X551840Y635000D02*
D03*
X570840D02*
D03*
X551180Y654050D02*
D03*
X532180D02*
D03*
X618440Y674370D02*
D03*
X599440D02*
D03*
D26*
X645750Y126670D02*
D03*
X600050D02*
D03*
X383730Y130630D02*
D03*
X338030D02*
D03*
D27*
X622900Y54870D02*
D03*
X360880Y58830D02*
D03*
D28*
X706110Y134100D02*
D03*
X725110D02*
D03*
X715610Y117100D02*
D03*
X453590Y121060D02*
D03*
X463090Y138060D02*
D03*
X444090D02*
D03*
D29*
X887680Y261620D02*
D03*
Y236220D02*
D03*
Y210820D02*
D03*
Y185420D02*
D03*
X970280Y261620D02*
D03*
Y236220D02*
D03*
Y210820D02*
D03*
D30*
Y185420D02*
D03*
D31*
X673404Y546488D02*
D03*
X689568Y562652D02*
D03*
X637250Y403250D02*
D03*
X653415Y419414D02*
D03*
X824272Y426152D02*
D03*
X840436Y442317D02*
D03*
X710000Y362750D02*
D03*
X693836Y346586D02*
D03*
X718305Y591389D02*
D03*
X702140Y575224D02*
D03*
D32*
X477520Y836930D02*
D03*
X454660D02*
D03*
X408940Y605790D02*
D03*
X386080D02*
D03*
X346710D02*
D03*
X369570D02*
D03*
X313690Y598170D02*
D03*
X290830D02*
D03*
X251460D02*
D03*
X274320D02*
D03*
X891540Y880110D02*
D03*
X868680D02*
D03*
X621030Y655320D02*
D03*
X598170D02*
D03*
X609600Y524510D02*
D03*
X586740D02*
D03*
X85090Y454660D02*
D03*
X62230D02*
D03*
X588010Y852170D02*
D03*
X610870D02*
D03*
X454660Y816610D02*
D03*
X477520D02*
D03*
Y796290D02*
D03*
X454660D02*
D03*
X334010Y850900D02*
D03*
X356870D02*
D03*
X200660Y835660D02*
D03*
X223520D02*
D03*
X200660Y815340D02*
D03*
X223520D02*
D03*
Y795020D02*
D03*
X200660D02*
D03*
X588010Y962660D02*
D03*
X610870D02*
D03*
X454660Y947420D02*
D03*
X477520D02*
D03*
X454660Y927100D02*
D03*
X477520D02*
D03*
Y906780D02*
D03*
X454660D02*
D03*
X222250D02*
D03*
X199390D02*
D03*
Y947420D02*
D03*
X222250D02*
D03*
X199390Y927100D02*
D03*
X222250D02*
D03*
X332740Y962660D02*
D03*
X355600D02*
D03*
D33*
X446750Y290250D02*
D03*
Y313110D02*
D03*
X447910Y221250D02*
D03*
Y244110D02*
D03*
X264340Y222820D02*
D03*
Y245680D02*
D03*
X355660Y222850D02*
D03*
Y245710D02*
D03*
X264500Y292140D02*
D03*
Y315000D02*
D03*
X354860Y289410D02*
D03*
Y312270D02*
D03*
X791210Y900430D02*
D03*
Y923290D02*
D03*
X542290Y600710D02*
D03*
Y577850D02*
D03*
X598170Y740410D02*
D03*
Y717550D02*
D03*
X262890Y402590D02*
D03*
Y425450D02*
D03*
Y382270D02*
D03*
Y359410D02*
D03*
X646430Y828040D02*
D03*
Y805180D02*
D03*
X392430Y826770D02*
D03*
Y803910D02*
D03*
X646430Y938530D02*
D03*
Y915670D02*
D03*
X391160Y938530D02*
D03*
Y915670D02*
D03*
D34*
X790600Y264160D02*
D03*
X809600D02*
D03*
X942340Y614680D02*
D03*
X923340D02*
D03*
X824180Y845820D02*
D03*
X805180D02*
D03*
D35*
X260210Y617470D02*
D03*
X283210D02*
D03*
X306210D02*
D03*
X355460Y625090D02*
D03*
X378460D02*
D03*
X401460D02*
D03*
D36*
X283210Y680470D02*
D03*
X378460Y688090D02*
D03*
D37*
X335280Y678890D02*
D03*
Y656590D02*
D03*
X240030Y671270D02*
D03*
Y648970D02*
D03*
D38*
X891260Y861060D02*
D03*
X868960D02*
D03*
X588010Y543560D02*
D03*
X610310D02*
D03*
X599440Y635000D02*
D03*
X621740D02*
D03*
D39*
X863600Y902180D02*
D03*
Y932180D02*
D03*
D40*
X807580Y977900D02*
D03*
X830580D02*
D03*
D41*
X784830D02*
D03*
X853330D02*
D03*
D42*
X787080Y953400D02*
D03*
X851080D02*
D03*
D43*
X806080Y951150D02*
D03*
X812580D02*
D03*
X819080D02*
D03*
X825580D02*
D03*
X832080D02*
D03*
D44*
X807420Y924560D02*
D03*
X813920D02*
D03*
X820420D02*
D03*
X826920D02*
D03*
X833420D02*
D03*
X839920D02*
D03*
X846420D02*
D03*
Y865800D02*
D03*
X839920D02*
D03*
X833420D02*
D03*
X826920D02*
D03*
X820420D02*
D03*
X813920D02*
D03*
X807420D02*
D03*
D45*
X706758Y388499D02*
D03*
X720193Y401934D02*
D03*
D46*
X559693Y562219D02*
D03*
X572393D02*
D03*
X585093D02*
D03*
X597793D02*
D03*
Y616219D02*
D03*
X585093D02*
D03*
X572393D02*
D03*
X559693D02*
D03*
D47*
X676910Y472440D02*
D03*
X693074Y456275D02*
D03*
X817986Y581511D02*
D03*
X834150Y565346D02*
D03*
X765002Y399211D02*
D03*
X781167Y383047D02*
D03*
X749736Y383945D02*
D03*
X765900Y367780D02*
D03*
D48*
X548960Y299490D02*
D03*
X588960D02*
D03*
X840740D02*
D03*
X800740D02*
D03*
X558800Y699490D02*
D03*
X598800D02*
D03*
X791530Y699540D02*
D03*
X831530D02*
D03*
D49*
X568960Y299490D02*
D03*
X820740D02*
D03*
X578800Y699490D02*
D03*
X811530Y699540D02*
D03*
D50*
X499060Y419820D02*
D03*
Y379820D02*
D03*
X899060Y422360D02*
D03*
Y382360D02*
D03*
Y623340D02*
D03*
Y583340D02*
D03*
X499060Y616990D02*
D03*
Y576990D02*
D03*
D51*
Y399820D02*
D03*
X899060Y402360D02*
D03*
Y603340D02*
D03*
X499060Y596990D02*
D03*
D52*
X347980Y506680D02*
D03*
Y487680D02*
D03*
X549950Y852134D02*
D03*
Y871134D02*
D03*
X293950Y851614D02*
D03*
Y870614D02*
D03*
X550860Y962384D02*
D03*
Y981384D02*
D03*
X295430Y961374D02*
D03*
Y980374D02*
D03*
D53*
X220980Y410210D02*
D03*
Y450210D02*
D03*
D54*
X128300Y535940D02*
D03*
X227300D02*
D03*
D55*
X116720Y436880D02*
D03*
X172720D02*
D03*
D56*
X284730Y415430D02*
D03*
Y392430D02*
D03*
Y369430D02*
D03*
D57*
X347730Y392430D02*
D03*
D58*
X948690Y805130D02*
D03*
Y786130D02*
D03*
Y750620D02*
D03*
Y769620D02*
D03*
D59*
X464820Y854710D02*
D03*
X480820D02*
D03*
X480060Y778510D02*
D03*
X464060D02*
D03*
X210820Y853440D02*
D03*
X226820D02*
D03*
X226060Y777240D02*
D03*
X210060D02*
D03*
X464820Y965200D02*
D03*
X480820D02*
D03*
X480060Y889000D02*
D03*
X464060D02*
D03*
X209550Y965200D02*
D03*
X225550D02*
D03*
X224790Y889000D02*
D03*
X208790D02*
D03*
D60*
X554340Y809230D02*
D03*
X517540D02*
D03*
Y826530D02*
D03*
X554340D02*
D03*
X300340Y807960D02*
D03*
X263540D02*
D03*
Y825260D02*
D03*
X300340D02*
D03*
X554340Y919720D02*
D03*
X517540D02*
D03*
Y937020D02*
D03*
X554340D02*
D03*
X299070Y919720D02*
D03*
X262270D02*
D03*
Y937020D02*
D03*
X299070D02*
D03*
D61*
X570920Y835660D02*
D03*
Y822960D02*
D03*
Y810260D02*
D03*
Y797560D02*
D03*
X625420Y835660D02*
D03*
Y822960D02*
D03*
Y810260D02*
D03*
Y797560D02*
D03*
X316920Y834390D02*
D03*
Y821690D02*
D03*
Y808990D02*
D03*
Y796290D02*
D03*
X371420Y834390D02*
D03*
Y821690D02*
D03*
Y808990D02*
D03*
Y796290D02*
D03*
X570920Y946150D02*
D03*
Y933450D02*
D03*
Y920750D02*
D03*
Y908050D02*
D03*
X625420Y946150D02*
D03*
Y933450D02*
D03*
Y920750D02*
D03*
Y908050D02*
D03*
X315650Y946150D02*
D03*
Y933450D02*
D03*
Y920750D02*
D03*
Y908050D02*
D03*
X370150Y946150D02*
D03*
Y933450D02*
D03*
Y920750D02*
D03*
Y908050D02*
D03*
D77*
X160020Y618490D02*
D03*
X294640Y347980D02*
D03*
X409250Y585000D02*
D03*
X313750Y576250D02*
D03*
X514000Y547250D02*
D03*
X527250Y627250D02*
D03*
X365760Y440690D02*
D03*
X515620Y712470D02*
D03*
X488950Y504190D02*
D03*
D114*
X50980Y520700D02*
D03*
X93980Y477700D02*
D03*
X50980D02*
D03*
X93980Y520700D02*
D03*
D120*
X960000Y40000D02*
D03*
Y960000D02*
D03*
X408940Y500000D02*
D03*
D121*
X677250Y230750D02*
D03*
X626450D02*
D03*
X702650D02*
D03*
X651850D02*
D03*
X739500Y899350D02*
D03*
Y950150D02*
D03*
Y873950D02*
D03*
Y924750D02*
D03*
X975360Y819150D02*
D03*
Y793750D02*
D03*
Y768350D02*
D03*
Y742950D02*
D03*
Y717550D02*
D03*
Y692150D02*
D03*
D122*
X270510Y525400D02*
D03*
Y500000D02*
D03*
Y474600D02*
D03*
D123*
X35570Y704210D02*
D03*
Y744210D02*
D03*
Y784210D02*
D03*
Y824210D02*
D03*
Y864210D02*
D03*
Y904210D02*
D03*
X75570Y724210D02*
D03*
Y764210D02*
D03*
Y804210D02*
D03*
Y844210D02*
D03*
Y884210D02*
D03*
X115570Y704210D02*
D03*
Y744210D02*
D03*
Y784210D02*
D03*
Y824210D02*
D03*
Y864210D02*
D03*
Y904210D02*
D03*
X35570Y664210D02*
D03*
Y944210D02*
D03*
X75570Y684210D02*
D03*
Y924210D02*
D03*
X115570Y664210D02*
D03*
X35570Y95280D02*
D03*
Y135280D02*
D03*
Y175280D02*
D03*
Y215280D02*
D03*
Y255280D02*
D03*
Y295280D02*
D03*
X75570Y115280D02*
D03*
Y155280D02*
D03*
Y195280D02*
D03*
Y235280D02*
D03*
Y275280D02*
D03*
X115570Y95280D02*
D03*
Y135280D02*
D03*
Y175280D02*
D03*
Y215280D02*
D03*
Y255280D02*
D03*
Y295280D02*
D03*
X35570Y55280D02*
D03*
Y335280D02*
D03*
X75570Y75280D02*
D03*
Y315280D02*
D03*
X115570Y55280D02*
D03*
D124*
Y944210D02*
D03*
Y335280D02*
D03*
M02*
